%FSLAX45Y45*%
G04 Gerber Fmt 4.5, Leading zero omitted, Abs format (unit mm)*
G04 Created by KiCad (PCBNEW 4.0.7-e1-6374~58~ubuntu14.04.1) date Fri Aug  4 16:12:59 2017*
%MOMM*%
%LPD*%
G01*
G04 APERTURE LIST*
%ADD10C,0.127000*%
%ADD11C,0.150000*%
%ADD12C,0.200000*%
%ADD13C,0.300000*%
G04 APERTURE END LIST*
D10*
D11*
X12500000Y-6000000D02*
X12500000Y-16000000D01*
X22500000Y-6000000D02*
X12500000Y-6000000D01*
X22500000Y-16000000D02*
X22500000Y-6000000D01*
X12500000Y-16000000D02*
X22500000Y-16000000D01*
D12*
X13789900Y-7135100D02*
X13819900Y-7165100D01*
X13819900Y-7135100D02*
X13789900Y-7165100D01*
X14272500Y-15606000D02*
X14302500Y-15636000D01*
X14302500Y-15606000D02*
X14272500Y-15636000D01*
X14285200Y-7147800D02*
X14315200Y-7177800D01*
X14315200Y-7147800D02*
X14285200Y-7177800D01*
X14958300Y-6931900D02*
X14988300Y-6961900D01*
X14988300Y-6931900D02*
X14958300Y-6961900D01*
X15415500Y-10081500D02*
X15445500Y-10111500D01*
X15445500Y-10081500D02*
X15415500Y-10111500D01*
X15415500Y-11542000D02*
X15445500Y-11572000D01*
X15445500Y-11542000D02*
X15415500Y-11572000D01*
X15415500Y-13002500D02*
X15445500Y-13032500D01*
X15445500Y-13002500D02*
X15415500Y-13032500D01*
X15415500Y-14463000D02*
X15445500Y-14493000D01*
X15445500Y-14463000D02*
X15415500Y-14493000D01*
X15771100Y-7262100D02*
X15801100Y-7292100D01*
X15801100Y-7262100D02*
X15771100Y-7292100D01*
X16177500Y-15606000D02*
X16207500Y-15636000D01*
X16207500Y-15606000D02*
X16177500Y-15636000D01*
X16812500Y-7947900D02*
X16842500Y-7977900D01*
X16842500Y-7947900D02*
X16812500Y-7977900D01*
X16812500Y-9433800D02*
X16842500Y-9463800D01*
X16842500Y-9433800D02*
X16812500Y-9463800D01*
X16812500Y-10894300D02*
X16842500Y-10924300D01*
X16842500Y-10894300D02*
X16812500Y-10924300D01*
X16812500Y-12367500D02*
X16842500Y-12397500D01*
X16842500Y-12367500D02*
X16812500Y-12397500D01*
X17053800Y-9433800D02*
X17083800Y-9463800D01*
X17083800Y-9433800D02*
X17053800Y-9463800D01*
X17066500Y-10894300D02*
X17096500Y-10924300D01*
X17096500Y-10894300D02*
X17066500Y-10924300D01*
X17066500Y-12367500D02*
X17096500Y-12397500D01*
X17096500Y-12367500D02*
X17066500Y-12397500D01*
X17104600Y-7947900D02*
X17134600Y-7977900D01*
X17134600Y-7947900D02*
X17104600Y-7977900D01*
X17257000Y-11034000D02*
X17287000Y-11064000D01*
X17287000Y-11034000D02*
X17257000Y-11064000D01*
X17587200Y-7046200D02*
X17617200Y-7076200D01*
X17617200Y-7046200D02*
X17587200Y-7076200D01*
X17701500Y-14399500D02*
X17731500Y-14429500D01*
X17731500Y-14399500D02*
X17701500Y-14429500D01*
X17752300Y-7719300D02*
X17782300Y-7749300D01*
X17782300Y-7719300D02*
X17752300Y-7749300D01*
X17752300Y-7795500D02*
X17782300Y-7825500D01*
X17782300Y-7795500D02*
X17752300Y-7825500D01*
X17828500Y-7871700D02*
X17858500Y-7901700D01*
X17858500Y-7871700D02*
X17828500Y-7901700D01*
X17892000Y-7719300D02*
X17922000Y-7749300D01*
X17922000Y-7719300D02*
X17892000Y-7749300D01*
X17955500Y-7097000D02*
X17985500Y-7127000D01*
X17985500Y-7097000D02*
X17955500Y-7127000D01*
X17980900Y-7795500D02*
X18010900Y-7825500D01*
X18010900Y-7795500D02*
X17980900Y-7825500D01*
X17980900Y-7871700D02*
X18010900Y-7901700D01*
X18010900Y-7871700D02*
X17980900Y-7901700D01*
X18019000Y-12113500D02*
X18049000Y-12143500D01*
X18049000Y-12113500D02*
X18019000Y-12143500D01*
X18082500Y-7478000D02*
X18112500Y-7508000D01*
X18112500Y-7478000D02*
X18082500Y-7508000D01*
X18539700Y-6462000D02*
X18569700Y-6492000D01*
X18569700Y-6462000D02*
X18539700Y-6492000D01*
X18755600Y-7973300D02*
X18785600Y-8003300D01*
X18785600Y-7973300D02*
X18755600Y-8003300D01*
X18755600Y-8176500D02*
X18785600Y-8206500D01*
X18785600Y-8176500D02*
X18755600Y-8206500D01*
X18755600Y-9065500D02*
X18785600Y-9095500D01*
X18785600Y-9065500D02*
X18755600Y-9095500D01*
X18844500Y-8113000D02*
X18874500Y-8143000D01*
X18874500Y-8113000D02*
X18844500Y-8143000D01*
X18844500Y-9002000D02*
X18874500Y-9032000D01*
X18874500Y-9002000D02*
X18844500Y-9032000D01*
X18971500Y-10145000D02*
X19001500Y-10175000D01*
X19001500Y-10145000D02*
X18971500Y-10175000D01*
X18971500Y-11415000D02*
X19001500Y-11445000D01*
X19001500Y-11415000D02*
X18971500Y-11445000D01*
X18971500Y-12685000D02*
X19001500Y-12715000D01*
X19001500Y-12685000D02*
X18971500Y-12715000D01*
X19060400Y-8341600D02*
X19090400Y-8371600D01*
X19090400Y-8341600D02*
X19060400Y-8371600D01*
X19206450Y-14755100D02*
X19236450Y-14785100D01*
X19236450Y-14755100D02*
X19206450Y-14785100D01*
X19238200Y-13739100D02*
X19268200Y-13769100D01*
X19268200Y-13739100D02*
X19238200Y-13769100D01*
X19238200Y-14336000D02*
X19268200Y-14366000D01*
X19268200Y-14336000D02*
X19238200Y-14366000D01*
X19314400Y-14666200D02*
X19344400Y-14696200D01*
X19344400Y-14666200D02*
X19314400Y-14696200D01*
X19327100Y-13650200D02*
X19357100Y-13680200D01*
X19357100Y-13650200D02*
X19327100Y-13680200D01*
X19343000Y-14263000D02*
X19373000Y-14293000D01*
X19373000Y-14263000D02*
X19343000Y-14293000D01*
X19454100Y-8176500D02*
X19484100Y-8206500D01*
X19484100Y-8176500D02*
X19454100Y-8206500D01*
X19473150Y-12919950D02*
X19503150Y-12949950D01*
X19503150Y-12919950D02*
X19473150Y-12949950D01*
X19479500Y-7795500D02*
X19509500Y-7825500D01*
X19509500Y-7795500D02*
X19479500Y-7825500D01*
X19492200Y-13828000D02*
X19522200Y-13858000D01*
X19522200Y-13828000D02*
X19492200Y-13858000D01*
X19492200Y-14043900D02*
X19522200Y-14073900D01*
X19522200Y-14043900D02*
X19492200Y-14073900D01*
X19504900Y-13281900D02*
X19534900Y-13311900D01*
X19534900Y-13281900D02*
X19504900Y-13311900D01*
X19504900Y-14996400D02*
X19534900Y-15026400D01*
X19534900Y-14996400D02*
X19504900Y-15026400D01*
X19631900Y-15085300D02*
X19661900Y-15115300D01*
X19661900Y-15085300D02*
X19631900Y-15115300D01*
X19695400Y-13358100D02*
X19725400Y-13388100D01*
X19725400Y-13358100D02*
X19695400Y-13388100D01*
X19708100Y-15148800D02*
X19738100Y-15178800D01*
X19738100Y-15148800D02*
X19708100Y-15178800D01*
X19733500Y-14263000D02*
X19763500Y-14293000D01*
X19763500Y-14263000D02*
X19733500Y-14293000D01*
X19797000Y-13688300D02*
X19827000Y-13718300D01*
X19827000Y-13688300D02*
X19797000Y-13718300D01*
X19803350Y-15085300D02*
X19833350Y-15115300D01*
X19833350Y-15085300D02*
X19803350Y-15115300D01*
X19885900Y-13618450D02*
X19915900Y-13648450D01*
X19915900Y-13618450D02*
X19885900Y-13648450D01*
X19885900Y-14501100D02*
X19915900Y-14531100D01*
X19915900Y-14501100D02*
X19885900Y-14531100D01*
X19885900Y-15155150D02*
X19915900Y-15185150D01*
X19915900Y-15155150D02*
X19885900Y-15185150D01*
X19959560Y-13690840D02*
X19989560Y-13720840D01*
X19989560Y-13690840D02*
X19959560Y-13720840D01*
X20040840Y-13792440D02*
X20070840Y-13822440D01*
X20070840Y-13792440D02*
X20040840Y-13822440D01*
X20051000Y-15148800D02*
X20081000Y-15178800D01*
X20081000Y-15148800D02*
X20051000Y-15178800D01*
X20127200Y-14196300D02*
X20157200Y-14226300D01*
X20157200Y-14196300D02*
X20127200Y-14226300D01*
X20127200Y-14272500D02*
X20157200Y-14302500D01*
X20157200Y-14272500D02*
X20127200Y-14302500D01*
X20127200Y-14423000D02*
X20157200Y-14453000D01*
X20157200Y-14423000D02*
X20127200Y-14453000D01*
X20127200Y-14615400D02*
X20157200Y-14645400D01*
X20157200Y-14615400D02*
X20127200Y-14645400D01*
X20127200Y-15085300D02*
X20157200Y-15115300D01*
X20157200Y-15085300D02*
X20127200Y-15115300D01*
X20216100Y-13434300D02*
X20246100Y-13464300D01*
X20246100Y-13434300D02*
X20216100Y-13464300D01*
X20317700Y-9370300D02*
X20347700Y-9400300D01*
X20347700Y-9370300D02*
X20317700Y-9400300D01*
X20335480Y-12019520D02*
X20365480Y-12049520D01*
X20365480Y-12019520D02*
X20335480Y-12049520D01*
X20340560Y-10754600D02*
X20370560Y-10784600D01*
X20370560Y-10754600D02*
X20340560Y-10784600D01*
X20444700Y-13789900D02*
X20474700Y-13819900D01*
X20474700Y-13789900D02*
X20444700Y-13819900D01*
X20470100Y-14424900D02*
X20500100Y-14454900D01*
X20500100Y-14424900D02*
X20470100Y-14454900D01*
X20584400Y-13688300D02*
X20614400Y-13718300D01*
X20614400Y-13688300D02*
X20584400Y-13718300D01*
X20609800Y-9662400D02*
X20639800Y-9692400D01*
X20639800Y-9662400D02*
X20609800Y-9692400D01*
X20622500Y-14463000D02*
X20652500Y-14493000D01*
X20652500Y-14463000D02*
X20622500Y-14493000D01*
X20622500Y-14590000D02*
X20652500Y-14620000D01*
X20652500Y-14590000D02*
X20622500Y-14620000D01*
X20711400Y-13599400D02*
X20741400Y-13629400D01*
X20741400Y-13599400D02*
X20711400Y-13629400D01*
X20724100Y-14361400D02*
X20754100Y-14391400D01*
X20754100Y-14361400D02*
X20724100Y-14391400D01*
X20813000Y-13523200D02*
X20843000Y-13553200D01*
X20843000Y-13523200D02*
X20813000Y-13553200D01*
X20901900Y-10741900D02*
X20931900Y-10771900D01*
X20931900Y-10741900D02*
X20901900Y-10771900D01*
X21651200Y-7757400D02*
X21681200Y-7787400D01*
X21681200Y-7757400D02*
X21651200Y-7787400D01*
X21689300Y-7554200D02*
X21719300Y-7584200D01*
X21719300Y-7554200D02*
X21689300Y-7584200D01*
X21689300Y-9014700D02*
X21719300Y-9044700D01*
X21719300Y-9014700D02*
X21689300Y-9044700D01*
X21702000Y-10284700D02*
X21732000Y-10314700D01*
X21732000Y-10284700D02*
X21702000Y-10314700D01*
X21829000Y-13434300D02*
X21859000Y-13464300D01*
X21859000Y-13434300D02*
X21829000Y-13464300D01*
X21854400Y-7566900D02*
X21884400Y-7596900D01*
X21884400Y-7566900D02*
X21854400Y-7596900D01*
X21930600Y-9421100D02*
X21960600Y-9451100D01*
X21960600Y-9421100D02*
X21930600Y-9451100D01*
X21930600Y-9840200D02*
X21960600Y-9870200D01*
X21960600Y-9840200D02*
X21930600Y-9870200D01*
X21930600Y-10233900D02*
X21960600Y-10263900D01*
X21960600Y-10233900D02*
X21930600Y-10263900D01*
X21930600Y-10703800D02*
X21960600Y-10733800D01*
X21960600Y-10703800D02*
X21930600Y-10733800D01*
X21930600Y-11110200D02*
X21960600Y-11140200D01*
X21960600Y-11110200D02*
X21930600Y-11140200D01*
X21930600Y-11503900D02*
X21960600Y-11533900D01*
X21960600Y-11503900D02*
X21930600Y-11533900D01*
X21943300Y-11973800D02*
X21973300Y-12003800D01*
X21973300Y-11973800D02*
X21943300Y-12003800D01*
X21943300Y-12380200D02*
X21973300Y-12410200D01*
X21973300Y-12380200D02*
X21943300Y-12410200D01*
X21943300Y-12786600D02*
X21973300Y-12816600D01*
X21973300Y-12786600D02*
X21943300Y-12816600D01*
X21994100Y-7706600D02*
X22024100Y-7736600D01*
X22024100Y-7706600D02*
X21994100Y-7736600D01*
X21994100Y-9192500D02*
X22024100Y-9222500D01*
X22024100Y-9192500D02*
X21994100Y-9222500D01*
X21994100Y-10462500D02*
X22024100Y-10492500D01*
X22024100Y-10462500D02*
X21994100Y-10492500D01*
X21994100Y-11732500D02*
X22024100Y-11762500D01*
X22024100Y-11732500D02*
X21994100Y-11762500D01*
X21994100Y-13002500D02*
X22024100Y-13032500D01*
X22024100Y-13002500D02*
X21994100Y-13032500D01*
X13418500Y-6096000D02*
G75*
G03X13418500Y-6096000I-20000J0D01*
G01*
X13418500Y-15875000D02*
G75*
G03X13418500Y-15875000I-20000J0D01*
G01*
X13482000Y-7747000D02*
G75*
G03X13482000Y-7747000I-20000J0D01*
G01*
X13482000Y-9207500D02*
G75*
G03X13482000Y-9207500I-20000J0D01*
G01*
X13482000Y-10668000D02*
G75*
G03X13482000Y-10668000I-20000J0D01*
G01*
X13482000Y-12128500D02*
G75*
G03X13482000Y-12128500I-20000J0D01*
G01*
X13482000Y-13589000D02*
G75*
G03X13482000Y-13589000I-20000J0D01*
G01*
X13723300Y-7747000D02*
G75*
G03X13723300Y-7747000I-20000J0D01*
G01*
X13736000Y-9207500D02*
G75*
G03X13736000Y-9207500I-20000J0D01*
G01*
X13736000Y-10668000D02*
G75*
G03X13736000Y-10668000I-20000J0D01*
G01*
X13736000Y-12128500D02*
G75*
G03X13736000Y-12128500I-20000J0D01*
G01*
X13736000Y-13589000D02*
G75*
G03X13736000Y-13589000I-20000J0D01*
G01*
X14434500Y-6096000D02*
G75*
G03X14434500Y-6096000I-20000J0D01*
G01*
X14434500Y-15875000D02*
G75*
G03X14434500Y-15875000I-20000J0D01*
G01*
X14752000Y-8255000D02*
G75*
G03X14752000Y-8255000I-20000J0D01*
G01*
X14752000Y-9715500D02*
G75*
G03X14752000Y-9715500I-20000J0D01*
G01*
X14752000Y-11176000D02*
G75*
G03X14752000Y-11176000I-20000J0D01*
G01*
X14752000Y-12636500D02*
G75*
G03X14752000Y-12636500I-20000J0D01*
G01*
X14752000Y-14097000D02*
G75*
G03X14752000Y-14097000I-20000J0D01*
G01*
X15450500Y-6096000D02*
G75*
G03X15450500Y-6096000I-20000J0D01*
G01*
X15450500Y-8636000D02*
G75*
G03X15450500Y-8636000I-20000J0D01*
G01*
X15450500Y-15875000D02*
G75*
G03X15450500Y-15875000I-20000J0D01*
G01*
X16466500Y-6096000D02*
G75*
G03X16466500Y-6096000I-20000J0D01*
G01*
X16593500Y-15875000D02*
G75*
G03X16593500Y-15875000I-20000J0D01*
G01*
X16657000Y-8890000D02*
G75*
G03X16657000Y-8890000I-20000J0D01*
G01*
X16708000Y-15719300D02*
G75*
G03X16708000Y-15719300I-20000J0D01*
G01*
X16847500Y-13843000D02*
G75*
G03X16847500Y-13843000I-20000J0D01*
G01*
X16911000Y-8318500D02*
G75*
G03X16911000Y-8318500I-20000J0D01*
G01*
X17038000Y-15303500D02*
G75*
G03X17038000Y-15303500I-20000J0D01*
G01*
X17038000Y-15557500D02*
G75*
G03X17038000Y-15557500I-20000J0D01*
G01*
X17038000Y-15684500D02*
G75*
G03X17038000Y-15684500I-20000J0D01*
G01*
X17088800Y-13030200D02*
G75*
G03X17088800Y-13030200I-20000J0D01*
G01*
X17101500Y-9715500D02*
G75*
G03X17101500Y-9715500I-20000J0D01*
G01*
X17101500Y-9969500D02*
G75*
G03X17101500Y-9969500I-20000J0D01*
G01*
X17101500Y-10287000D02*
G75*
G03X17101500Y-10287000I-20000J0D01*
G01*
X17101500Y-11176000D02*
G75*
G03X17101500Y-11176000I-20000J0D01*
G01*
X17101500Y-11430000D02*
G75*
G03X17101500Y-11430000I-20000J0D01*
G01*
X17101500Y-11747500D02*
G75*
G03X17101500Y-11747500I-20000J0D01*
G01*
X17101500Y-13843000D02*
G75*
G03X17101500Y-13843000I-20000J0D01*
G01*
X17546000Y-6096000D02*
G75*
G03X17546000Y-6096000I-20000J0D01*
G01*
X17800000Y-8636000D02*
G75*
G03X17800000Y-8636000I-20000J0D01*
G01*
X17863500Y-15875000D02*
G75*
G03X17863500Y-15875000I-20000J0D01*
G01*
X17927000Y-9144000D02*
G75*
G03X17927000Y-9144000I-20000J0D01*
G01*
X17990500Y-9017000D02*
G75*
G03X17990500Y-9017000I-20000J0D01*
G01*
X18054000Y-8890000D02*
G75*
G03X18054000Y-8890000I-20000J0D01*
G01*
X18625500Y-6096000D02*
G75*
G03X18625500Y-6096000I-20000J0D01*
G01*
X18638200Y-8089900D02*
G75*
G03X18638200Y-8089900I-20000J0D01*
G01*
X18650900Y-8305800D02*
G75*
G03X18650900Y-8305800I-20000J0D01*
G01*
X18689000Y-15875000D02*
G75*
G03X18689000Y-15875000I-20000J0D01*
G01*
X18968400Y-10617200D02*
G75*
G03X18968400Y-10617200I-20000J0D01*
G01*
X19501800Y-10553700D02*
G75*
G03X19501800Y-10553700I-20000J0D01*
G01*
X19641500Y-6096000D02*
G75*
G03X19641500Y-6096000I-20000J0D01*
G01*
X19641500Y-15875000D02*
G75*
G03X19641500Y-15875000I-20000J0D01*
G01*
X19882800Y-7937500D02*
G75*
G03X19882800Y-7937500I-20000J0D01*
G01*
X20276500Y-13169900D02*
G75*
G03X20276500Y-13169900I-20000J0D01*
G01*
X20657500Y-6096000D02*
G75*
G03X20657500Y-6096000I-20000J0D01*
G01*
X20657500Y-15875000D02*
G75*
G03X20657500Y-15875000I-20000J0D01*
G01*
X20962300Y-12115800D02*
G75*
G03X20962300Y-12115800I-20000J0D01*
G01*
X21013100Y-13347700D02*
G75*
G03X21013100Y-13347700I-20000J0D01*
G01*
X21483000Y-9207500D02*
G75*
G03X21483000Y-9207500I-20000J0D01*
G01*
X21483000Y-10477500D02*
G75*
G03X21483000Y-10477500I-20000J0D01*
G01*
X21495700Y-11747500D02*
G75*
G03X21495700Y-11747500I-20000J0D01*
G01*
X21495700Y-13017500D02*
G75*
G03X21495700Y-13017500I-20000J0D01*
G01*
X21673500Y-6096000D02*
G75*
G03X21673500Y-6096000I-20000J0D01*
G01*
X21673500Y-15875000D02*
G75*
G03X21673500Y-15875000I-20000J0D01*
G01*
X21737000Y-11557000D02*
G75*
G03X21737000Y-11557000I-20000J0D01*
G01*
X21737000Y-12814300D02*
G75*
G03X21737000Y-12814300I-20000J0D01*
G01*
X21991000Y-6946900D02*
G75*
G03X21991000Y-6946900I-20000J0D01*
G01*
X12636500Y-6960000D02*
X12636500Y-7010000D01*
X12611500Y-6985000D02*
X12661500Y-6985000D01*
X12636500Y-7976000D02*
X12636500Y-8026000D01*
X12611500Y-8001000D02*
X12661500Y-8001000D01*
X12636500Y-8992000D02*
X12636500Y-9042000D01*
X12611500Y-9017000D02*
X12661500Y-9017000D01*
X12636500Y-10008000D02*
X12636500Y-10058000D01*
X12611500Y-10033000D02*
X12661500Y-10033000D01*
X12636500Y-11024000D02*
X12636500Y-11074000D01*
X12611500Y-11049000D02*
X12661500Y-11049000D01*
X12636500Y-12040000D02*
X12636500Y-12090000D01*
X12611500Y-12065000D02*
X12661500Y-12065000D01*
X12636500Y-13056000D02*
X12636500Y-13106000D01*
X12611500Y-13081000D02*
X12661500Y-13081000D01*
X12636500Y-14072000D02*
X12636500Y-14122000D01*
X12611500Y-14097000D02*
X12661500Y-14097000D01*
X12636500Y-15088000D02*
X12636500Y-15138000D01*
X12611500Y-15113000D02*
X12661500Y-15113000D01*
X13017500Y-7150500D02*
X13017500Y-7200500D01*
X12992500Y-7175500D02*
X13042500Y-7175500D01*
X13017500Y-7849000D02*
X13017500Y-7899000D01*
X12992500Y-7874000D02*
X13042500Y-7874000D01*
X13017500Y-8611000D02*
X13017500Y-8661000D01*
X12992500Y-8636000D02*
X13042500Y-8636000D01*
X13017500Y-9246000D02*
X13017500Y-9296000D01*
X12992500Y-9271000D02*
X13042500Y-9271000D01*
X13017500Y-10071500D02*
X13017500Y-10121500D01*
X12992500Y-10096500D02*
X13042500Y-10096500D01*
X13017500Y-10770000D02*
X13017500Y-10820000D01*
X12992500Y-10795000D02*
X13042500Y-10795000D01*
X13017500Y-11532000D02*
X13017500Y-11582000D01*
X12992500Y-11557000D02*
X13042500Y-11557000D01*
X13017500Y-12167000D02*
X13017500Y-12217000D01*
X12992500Y-12192000D02*
X13042500Y-12192000D01*
X13017500Y-12992500D02*
X13017500Y-13042500D01*
X12992500Y-13017500D02*
X13042500Y-13017500D01*
X13055600Y-14351400D02*
X13055600Y-14401400D01*
X13030600Y-14376400D02*
X13080600Y-14376400D01*
X13208000Y-14538750D02*
X13208000Y-14588750D01*
X13183000Y-14563750D02*
X13233000Y-14563750D01*
X13208000Y-14938750D02*
X13208000Y-14988750D01*
X13183000Y-14963750D02*
X13233000Y-14963750D01*
X13525500Y-6325000D02*
X13525500Y-6375000D01*
X13500500Y-6350000D02*
X13550500Y-6350000D01*
X15807500Y-6325000D02*
X15807500Y-6375000D01*
X15782500Y-6350000D02*
X15832500Y-6350000D01*
X17208500Y-14973700D02*
X17208500Y-15023700D01*
X17183500Y-14998700D02*
X17233500Y-14998700D01*
X17894300Y-14973700D02*
X17894300Y-15023700D01*
X17869300Y-14998700D02*
X17919300Y-14998700D01*
X18389600Y-13005200D02*
X18389600Y-13055200D01*
X18364600Y-13030200D02*
X18414600Y-13030200D01*
X18561050Y-10300100D02*
X18561050Y-10350100D01*
X18536050Y-10325100D02*
X18586050Y-10325100D01*
X18561050Y-12255900D02*
X18561050Y-12305900D01*
X18536050Y-12280900D02*
X18586050Y-12280900D01*
X20453350Y-11373250D02*
X20453350Y-11423250D01*
X20428350Y-11398250D02*
X20478350Y-11398250D01*
X20453350Y-12662300D02*
X20453350Y-12712300D01*
X20428350Y-12687300D02*
X20478350Y-12687300D01*
X20935950Y-12662300D02*
X20935950Y-12712300D01*
X20910950Y-12687300D02*
X20960950Y-12687300D01*
X20942300Y-11373250D02*
X20942300Y-11423250D01*
X20917300Y-11398250D02*
X20967300Y-11398250D01*
X22415500Y-6071000D02*
X22415500Y-6121000D01*
X22390500Y-6096000D02*
X22440500Y-6096000D01*
X22415500Y-6960000D02*
X22415500Y-7010000D01*
X22390500Y-6985000D02*
X22440500Y-6985000D01*
X22415500Y-7976000D02*
X22415500Y-8026000D01*
X22390500Y-8001000D02*
X22440500Y-8001000D01*
X22415500Y-8992000D02*
X22415500Y-9042000D01*
X22390500Y-9017000D02*
X22440500Y-9017000D01*
X22415500Y-10008000D02*
X22415500Y-10058000D01*
X22390500Y-10033000D02*
X22440500Y-10033000D01*
X22415500Y-11024000D02*
X22415500Y-11074000D01*
X22390500Y-11049000D02*
X22440500Y-11049000D01*
X22415500Y-12040000D02*
X22415500Y-12090000D01*
X22390500Y-12065000D02*
X22440500Y-12065000D01*
X22415500Y-13056000D02*
X22415500Y-13106000D01*
X22390500Y-13081000D02*
X22440500Y-13081000D01*
X22415500Y-14072000D02*
X22415500Y-14122000D01*
X22390500Y-14097000D02*
X22440500Y-14097000D01*
X22415500Y-15088000D02*
X22415500Y-15138000D01*
X22390500Y-15113000D02*
X22440500Y-15113000D01*
X17897185Y-15423884D02*
X17897185Y-15367315D01*
X17840616Y-15367315D01*
X17840616Y-15423884D01*
X17897185Y-15423884D01*
X17897185Y-15623884D02*
X17897185Y-15567315D01*
X17840616Y-15567315D01*
X17840616Y-15623884D01*
X17897185Y-15623884D01*
X21173785Y-13998284D02*
X21173785Y-13941715D01*
X21117216Y-13941715D01*
X21117216Y-13998284D01*
X21173785Y-13998284D01*
X21373785Y-13998284D02*
X21373785Y-13941715D01*
X21317216Y-13941715D01*
X21317216Y-13998284D01*
X21373785Y-13998284D01*
X17272000Y-8172500D02*
X17316500Y-8128000D01*
X17272000Y-8083500D01*
X17227500Y-8128000D01*
X17272000Y-8172500D01*
X17272000Y-8871000D02*
X17316500Y-8826500D01*
X17272000Y-8782000D01*
X17227500Y-8826500D01*
X17272000Y-8871000D01*
X17272000Y-9633000D02*
X17316500Y-9588500D01*
X17272000Y-9544000D01*
X17227500Y-9588500D01*
X17272000Y-9633000D01*
X17272000Y-10331500D02*
X17316500Y-10287000D01*
X17272000Y-10242500D01*
X17227500Y-10287000D01*
X17272000Y-10331500D01*
X17272000Y-11792000D02*
X17316500Y-11747500D01*
X17272000Y-11703000D01*
X17227500Y-11747500D01*
X17272000Y-11792000D01*
X17272000Y-12554000D02*
X17316500Y-12509500D01*
X17272000Y-12465000D01*
X17227500Y-12509500D01*
X17272000Y-12554000D01*
X17272000Y-13252500D02*
X17316500Y-13208000D01*
X17272000Y-13163500D01*
X17227500Y-13208000D01*
X17272000Y-13252500D01*
X16714000Y-15799300D02*
X16814000Y-15899300D01*
X16814000Y-15799300D02*
X16714000Y-15899300D01*
X16814000Y-15849300D02*
G75*
G03X16814000Y-15849300I-50000J0D01*
G01*
X16968000Y-15799300D02*
X17068000Y-15899300D01*
X17068000Y-15799300D02*
X16968000Y-15899300D01*
X17068000Y-15849300D02*
G75*
G03X17068000Y-15849300I-50000J0D01*
G01*
X17222000Y-15799300D02*
X17322000Y-15899300D01*
X17322000Y-15799300D02*
X17222000Y-15899300D01*
X17322000Y-15849300D02*
G75*
G03X17322000Y-15849300I-50000J0D01*
G01*
X17793500Y-8078000D02*
X17893500Y-8178000D01*
X17893500Y-8078000D02*
X17793500Y-8178000D01*
X17893500Y-8128000D02*
G75*
G03X17893500Y-8128000I-50000J0D01*
G01*
X17793500Y-8332000D02*
X17893500Y-8432000D01*
X17893500Y-8332000D02*
X17793500Y-8432000D01*
X17893500Y-8382000D02*
G75*
G03X17893500Y-8382000I-50000J0D01*
G01*
X18111000Y-11380000D02*
X18211000Y-11480000D01*
X18211000Y-11380000D02*
X18111000Y-11480000D01*
X18211000Y-11430000D02*
G75*
G03X18211000Y-11430000I-50000J0D01*
G01*
X18111000Y-11634000D02*
X18211000Y-11734000D01*
X18211000Y-11634000D02*
X18111000Y-11734000D01*
X18211000Y-11684000D02*
G75*
G03X18211000Y-11684000I-50000J0D01*
G01*
X18314200Y-15418600D02*
X18414200Y-15518600D01*
X18414200Y-15418600D02*
X18314200Y-15518600D01*
X18414200Y-15468600D02*
G75*
G03X18414200Y-15468600I-50000J0D01*
G01*
X18568200Y-15418600D02*
X18668200Y-15518600D01*
X18668200Y-15418600D02*
X18568200Y-15518600D01*
X18668200Y-15468600D02*
G75*
G03X18668200Y-15468600I-50000J0D01*
G01*
X18746000Y-14047000D02*
X18846000Y-14147000D01*
X18846000Y-14047000D02*
X18746000Y-14147000D01*
X18846000Y-14097000D02*
G75*
G03X18846000Y-14097000I-50000J0D01*
G01*
X18746000Y-14301000D02*
X18846000Y-14401000D01*
X18846000Y-14301000D02*
X18746000Y-14401000D01*
X18846000Y-14351000D02*
G75*
G03X18846000Y-14351000I-50000J0D01*
G01*
X18746000Y-14555000D02*
X18846000Y-14655000D01*
X18846000Y-14555000D02*
X18746000Y-14655000D01*
X18846000Y-14605000D02*
G75*
G03X18846000Y-14605000I-50000J0D01*
G01*
X19000000Y-14047000D02*
X19100000Y-14147000D01*
X19100000Y-14047000D02*
X19000000Y-14147000D01*
X19100000Y-14097000D02*
G75*
G03X19100000Y-14097000I-50000J0D01*
G01*
X19000000Y-14301000D02*
X19100000Y-14401000D01*
X19100000Y-14301000D02*
X19000000Y-14401000D01*
X19100000Y-14351000D02*
G75*
G03X19100000Y-14351000I-50000J0D01*
G01*
X19000000Y-14555000D02*
X19100000Y-14655000D01*
X19100000Y-14555000D02*
X19000000Y-14655000D01*
X19100000Y-14605000D02*
G75*
G03X19100000Y-14605000I-50000J0D01*
G01*
X19508000Y-15418600D02*
X19608000Y-15518600D01*
X19608000Y-15418600D02*
X19508000Y-15518600D01*
X19608000Y-15468600D02*
G75*
G03X19608000Y-15468600I-50000J0D01*
G01*
X19762000Y-15418600D02*
X19862000Y-15518600D01*
X19862000Y-15418600D02*
X19762000Y-15518600D01*
X19862000Y-15468600D02*
G75*
G03X19862000Y-15468600I-50000J0D01*
G01*
X20016000Y-15418600D02*
X20116000Y-15518600D01*
X20116000Y-15418600D02*
X20016000Y-15518600D01*
X20116000Y-15468600D02*
G75*
G03X20116000Y-15468600I-50000J0D01*
G01*
X20778000Y-15380500D02*
X20878000Y-15480500D01*
X20878000Y-15380500D02*
X20778000Y-15480500D01*
X20878000Y-15430500D02*
G75*
G03X20878000Y-15430500I-50000J0D01*
G01*
X20892300Y-14542300D02*
X20992300Y-14642300D01*
X20992300Y-14542300D02*
X20892300Y-14642300D01*
X20992300Y-14592300D02*
G75*
G03X20992300Y-14592300I-50000J0D01*
G01*
X21032000Y-15380500D02*
X21132000Y-15480500D01*
X21132000Y-15380500D02*
X21032000Y-15480500D01*
X21132000Y-15430500D02*
G75*
G03X21132000Y-15430500I-50000J0D01*
G01*
X21146300Y-14542300D02*
X21246300Y-14642300D01*
X21246300Y-14542300D02*
X21146300Y-14642300D01*
X21246300Y-14592300D02*
G75*
G03X21246300Y-14592300I-50000J0D01*
G01*
X21286000Y-15380500D02*
X21386000Y-15480500D01*
X21386000Y-15380500D02*
X21286000Y-15480500D01*
X21386000Y-15430500D02*
G75*
G03X21386000Y-15430500I-50000J0D01*
G01*
X21400300Y-14542300D02*
X21500300Y-14642300D01*
X21500300Y-14542300D02*
X21400300Y-14642300D01*
X21500300Y-14592300D02*
G75*
G03X21500300Y-14592300I-50000J0D01*
G01*
X21654300Y-14542300D02*
X21754300Y-14642300D01*
X21754300Y-14542300D02*
X21654300Y-14642300D01*
X21754300Y-14592300D02*
G75*
G03X21754300Y-14592300I-50000J0D01*
G01*
X21908300Y-14542300D02*
X22008300Y-14642300D01*
X22008300Y-14542300D02*
X21908300Y-14642300D01*
X22008300Y-14592300D02*
G75*
G03X22008300Y-14592300I-50000J0D01*
G01*
X13983462Y-7506462D02*
X14083538Y-7606538D01*
X14083538Y-7506462D02*
X13983462Y-7606538D01*
X14033500Y-7506462D02*
X14033500Y-7606538D01*
X13983462Y-7556500D02*
X14083538Y-7556500D01*
X13983462Y-8966962D02*
X14083538Y-9067038D01*
X14083538Y-8966962D02*
X13983462Y-9067038D01*
X14033500Y-8966962D02*
X14033500Y-9067038D01*
X13983462Y-9017000D02*
X14083538Y-9017000D01*
X13983462Y-10427462D02*
X14083538Y-10527538D01*
X14083538Y-10427462D02*
X13983462Y-10527538D01*
X14033500Y-10427462D02*
X14033500Y-10527538D01*
X13983462Y-10477500D02*
X14083538Y-10477500D01*
X13983462Y-11887962D02*
X14083538Y-11988038D01*
X14083538Y-11887962D02*
X13983462Y-11988038D01*
X14033500Y-11887962D02*
X14033500Y-11988038D01*
X13983462Y-11938000D02*
X14083538Y-11938000D01*
X13983462Y-13348462D02*
X14083538Y-13448538D01*
X14083538Y-13348462D02*
X13983462Y-13448538D01*
X14033500Y-13348462D02*
X14033500Y-13448538D01*
X13983462Y-13398500D02*
X14083538Y-13398500D01*
X13983462Y-14808962D02*
X14083538Y-14909038D01*
X14083538Y-14808962D02*
X13983462Y-14909038D01*
X14033500Y-14808962D02*
X14033500Y-14909038D01*
X13983462Y-14859000D02*
X14083538Y-14859000D01*
X14491462Y-8014462D02*
X14591538Y-8114538D01*
X14591538Y-8014462D02*
X14491462Y-8114538D01*
X14541500Y-8014462D02*
X14541500Y-8114538D01*
X14491462Y-8064500D02*
X14591538Y-8064500D01*
X14491462Y-9474962D02*
X14591538Y-9575038D01*
X14591538Y-9474962D02*
X14491462Y-9575038D01*
X14541500Y-9474962D02*
X14541500Y-9575038D01*
X14491462Y-9525000D02*
X14591538Y-9525000D01*
X14491462Y-10935462D02*
X14591538Y-11035538D01*
X14591538Y-10935462D02*
X14491462Y-11035538D01*
X14541500Y-10935462D02*
X14541500Y-11035538D01*
X14491462Y-10985500D02*
X14591538Y-10985500D01*
X14491462Y-12395962D02*
X14591538Y-12496038D01*
X14591538Y-12395962D02*
X14491462Y-12496038D01*
X14541500Y-12395962D02*
X14541500Y-12496038D01*
X14491462Y-12446000D02*
X14591538Y-12446000D01*
X14491462Y-13856462D02*
X14591538Y-13956538D01*
X14591538Y-13856462D02*
X14491462Y-13956538D01*
X14541500Y-13856462D02*
X14541500Y-13956538D01*
X14491462Y-13906500D02*
X14591538Y-13906500D01*
X14491462Y-15316962D02*
X14591538Y-15417038D01*
X14591538Y-15316962D02*
X14491462Y-15417038D01*
X14541500Y-15316962D02*
X14541500Y-15417038D01*
X14491462Y-15367000D02*
X14591538Y-15367000D01*
X15253462Y-7506462D02*
X15353538Y-7606538D01*
X15353538Y-7506462D02*
X15253462Y-7606538D01*
X15303500Y-7506462D02*
X15303500Y-7606538D01*
X15253462Y-7556500D02*
X15353538Y-7556500D01*
X15253462Y-8966962D02*
X15353538Y-9067038D01*
X15353538Y-8966962D02*
X15253462Y-9067038D01*
X15303500Y-8966962D02*
X15303500Y-9067038D01*
X15253462Y-9017000D02*
X15353538Y-9017000D01*
X15253462Y-10427462D02*
X15353538Y-10527538D01*
X15353538Y-10427462D02*
X15253462Y-10527538D01*
X15303500Y-10427462D02*
X15303500Y-10527538D01*
X15253462Y-10477500D02*
X15353538Y-10477500D01*
X15253462Y-11887962D02*
X15353538Y-11988038D01*
X15353538Y-11887962D02*
X15253462Y-11988038D01*
X15303500Y-11887962D02*
X15303500Y-11988038D01*
X15253462Y-11938000D02*
X15353538Y-11938000D01*
X15253462Y-13348462D02*
X15353538Y-13448538D01*
X15353538Y-13348462D02*
X15253462Y-13448538D01*
X15303500Y-13348462D02*
X15303500Y-13448538D01*
X15253462Y-13398500D02*
X15353538Y-13398500D01*
X15253462Y-14808962D02*
X15353538Y-14909038D01*
X15353538Y-14808962D02*
X15253462Y-14909038D01*
X15303500Y-14808962D02*
X15303500Y-14909038D01*
X15253462Y-14859000D02*
X15353538Y-14859000D01*
X15761462Y-8014462D02*
X15861538Y-8114538D01*
X15861538Y-8014462D02*
X15761462Y-8114538D01*
X15811500Y-8014462D02*
X15811500Y-8114538D01*
X15761462Y-8064500D02*
X15861538Y-8064500D01*
X15761462Y-9474962D02*
X15861538Y-9575038D01*
X15861538Y-9474962D02*
X15761462Y-9575038D01*
X15811500Y-9474962D02*
X15811500Y-9575038D01*
X15761462Y-9525000D02*
X15861538Y-9525000D01*
X15761462Y-10935462D02*
X15861538Y-11035538D01*
X15861538Y-10935462D02*
X15761462Y-11035538D01*
X15811500Y-10935462D02*
X15811500Y-11035538D01*
X15761462Y-10985500D02*
X15861538Y-10985500D01*
X15761462Y-12395962D02*
X15861538Y-12496038D01*
X15861538Y-12395962D02*
X15761462Y-12496038D01*
X15811500Y-12395962D02*
X15811500Y-12496038D01*
X15761462Y-12446000D02*
X15861538Y-12446000D01*
X15761462Y-13856462D02*
X15861538Y-13956538D01*
X15861538Y-13856462D02*
X15761462Y-13956538D01*
X15811500Y-13856462D02*
X15811500Y-13956538D01*
X15761462Y-13906500D02*
X15861538Y-13906500D01*
X15761462Y-15316962D02*
X15861538Y-15417038D01*
X15861538Y-15316962D02*
X15761462Y-15417038D01*
X15811500Y-15316962D02*
X15811500Y-15417038D01*
X15761462Y-15367000D02*
X15861538Y-15367000D01*
X18491962Y-6871462D02*
X18592038Y-6971538D01*
X18592038Y-6871462D02*
X18491962Y-6971538D01*
X18542000Y-6871462D02*
X18542000Y-6971538D01*
X18491962Y-6921500D02*
X18592038Y-6921500D01*
X18999962Y-7379462D02*
X19100038Y-7479538D01*
X19100038Y-7379462D02*
X18999962Y-7479538D01*
X19050000Y-7379462D02*
X19050000Y-7479538D01*
X18999962Y-7429500D02*
X19100038Y-7429500D01*
X19507962Y-7379462D02*
X19608038Y-7479538D01*
X19608038Y-7379462D02*
X19507962Y-7479538D01*
X19558000Y-7379462D02*
X19558000Y-7479538D01*
X19507962Y-7429500D02*
X19608038Y-7429500D01*
X19825462Y-8585962D02*
X19925538Y-8686038D01*
X19925538Y-8585962D02*
X19825462Y-8686038D01*
X19875500Y-8585962D02*
X19875500Y-8686038D01*
X19825462Y-8636000D02*
X19925538Y-8636000D01*
X19825462Y-9855962D02*
X19925538Y-9956038D01*
X19925538Y-9855962D02*
X19825462Y-9956038D01*
X19875500Y-9855962D02*
X19875500Y-9956038D01*
X19825462Y-9906000D02*
X19925538Y-9906000D01*
X19825462Y-11125962D02*
X19925538Y-11226038D01*
X19925538Y-11125962D02*
X19825462Y-11226038D01*
X19875500Y-11125962D02*
X19875500Y-11226038D01*
X19825462Y-11176000D02*
X19925538Y-11176000D01*
X19825462Y-12395962D02*
X19925538Y-12496038D01*
X19925538Y-12395962D02*
X19825462Y-12496038D01*
X19875500Y-12395962D02*
X19875500Y-12496038D01*
X19825462Y-12446000D02*
X19925538Y-12446000D01*
X20015962Y-6871462D02*
X20116038Y-6971538D01*
X20116038Y-6871462D02*
X20015962Y-6971538D01*
X20066000Y-6871462D02*
X20066000Y-6971538D01*
X20015962Y-6921500D02*
X20116038Y-6921500D01*
X20333462Y-9093962D02*
X20433538Y-9194038D01*
X20433538Y-9093962D02*
X20333462Y-9194038D01*
X20383500Y-9093962D02*
X20383500Y-9194038D01*
X20333462Y-9144000D02*
X20433538Y-9144000D01*
X20333462Y-10363962D02*
X20433538Y-10464038D01*
X20433538Y-10363962D02*
X20333462Y-10464038D01*
X20383500Y-10363962D02*
X20383500Y-10464038D01*
X20333462Y-10414000D02*
X20433538Y-10414000D01*
X20333462Y-11633962D02*
X20433538Y-11734038D01*
X20433538Y-11633962D02*
X20333462Y-11734038D01*
X20383500Y-11633962D02*
X20383500Y-11734038D01*
X20333462Y-11684000D02*
X20433538Y-11684000D01*
X20333462Y-12903962D02*
X20433538Y-13004038D01*
X20433538Y-12903962D02*
X20333462Y-13004038D01*
X20383500Y-12903962D02*
X20383500Y-13004038D01*
X20333462Y-12954000D02*
X20433538Y-12954000D01*
X20904962Y-6871462D02*
X21005038Y-6971538D01*
X21005038Y-6871462D02*
X20904962Y-6971538D01*
X20955000Y-6871462D02*
X20955000Y-6971538D01*
X20904962Y-6921500D02*
X21005038Y-6921500D01*
X20968462Y-9093962D02*
X21068538Y-9194038D01*
X21068538Y-9093962D02*
X20968462Y-9194038D01*
X21018500Y-9093962D02*
X21018500Y-9194038D01*
X20968462Y-9144000D02*
X21068538Y-9144000D01*
X20968462Y-10363962D02*
X21068538Y-10464038D01*
X21068538Y-10363962D02*
X20968462Y-10464038D01*
X21018500Y-10363962D02*
X21018500Y-10464038D01*
X20968462Y-10414000D02*
X21068538Y-10414000D01*
X20968462Y-11633962D02*
X21068538Y-11734038D01*
X21068538Y-11633962D02*
X20968462Y-11734038D01*
X21018500Y-11633962D02*
X21018500Y-11734038D01*
X20968462Y-11684000D02*
X21068538Y-11684000D01*
X20968462Y-12903962D02*
X21068538Y-13004038D01*
X21068538Y-12903962D02*
X20968462Y-13004038D01*
X21018500Y-12903962D02*
X21018500Y-13004038D01*
X20968462Y-12954000D02*
X21068538Y-12954000D01*
X21412962Y-7379462D02*
X21513038Y-7479538D01*
X21513038Y-7379462D02*
X21412962Y-7479538D01*
X21463000Y-7379462D02*
X21463000Y-7479538D01*
X21412962Y-7429500D02*
X21513038Y-7429500D01*
X21476462Y-8585962D02*
X21576538Y-8686038D01*
X21576538Y-8585962D02*
X21476462Y-8686038D01*
X21526500Y-8585962D02*
X21526500Y-8686038D01*
X21476462Y-8636000D02*
X21576538Y-8636000D01*
X21476462Y-9855962D02*
X21576538Y-9956038D01*
X21576538Y-9855962D02*
X21476462Y-9956038D01*
X21526500Y-9855962D02*
X21526500Y-9956038D01*
X21476462Y-9906000D02*
X21576538Y-9906000D01*
X21476462Y-11125962D02*
X21576538Y-11226038D01*
X21576538Y-11125962D02*
X21476462Y-11226038D01*
X21526500Y-11125962D02*
X21526500Y-11226038D01*
X21476462Y-11176000D02*
X21576538Y-11176000D01*
X21476462Y-12395962D02*
X21576538Y-12496038D01*
X21576538Y-12395962D02*
X21476462Y-12496038D01*
X21526500Y-12395962D02*
X21526500Y-12496038D01*
X21476462Y-12446000D02*
X21576538Y-12446000D01*
X12865100Y-6261100D02*
X13169900Y-6565900D01*
X13169900Y-6261100D02*
X12865100Y-6565900D01*
X13125264Y-6521264D02*
X13125264Y-6305736D01*
X12909736Y-6305736D01*
X12909736Y-6521264D01*
X13125264Y-6521264D01*
X12865100Y-15341600D02*
X13169900Y-15646400D01*
X13169900Y-15341600D02*
X12865100Y-15646400D01*
X13125264Y-15601764D02*
X13125264Y-15386236D01*
X12909736Y-15386236D01*
X12909736Y-15601764D01*
X13125264Y-15601764D01*
X21882100Y-6261100D02*
X22186900Y-6565900D01*
X22186900Y-6261100D02*
X21882100Y-6565900D01*
X22142264Y-6521264D02*
X22142264Y-6305736D01*
X21926736Y-6305736D01*
X21926736Y-6521264D01*
X22142264Y-6521264D01*
X21882100Y-15341600D02*
X22186900Y-15646400D01*
X22186900Y-15341600D02*
X21882100Y-15646400D01*
X22142264Y-15601764D02*
X22142264Y-15386236D01*
X21926736Y-15386236D01*
X21926736Y-15601764D01*
X22142264Y-15601764D01*
D13*
X12763928Y-16473214D02*
X12763928Y-16173214D01*
X12835357Y-16173214D01*
X12878214Y-16187500D01*
X12906786Y-16216071D01*
X12921071Y-16244643D01*
X12935357Y-16301786D01*
X12935357Y-16344643D01*
X12921071Y-16401786D01*
X12906786Y-16430357D01*
X12878214Y-16458929D01*
X12835357Y-16473214D01*
X12763928Y-16473214D01*
X13063928Y-16473214D02*
X13063928Y-16273214D01*
X13063928Y-16330357D02*
X13078214Y-16301786D01*
X13092500Y-16287500D01*
X13121071Y-16273214D01*
X13149643Y-16273214D01*
X13249643Y-16473214D02*
X13249643Y-16273214D01*
X13249643Y-16173214D02*
X13235357Y-16187500D01*
X13249643Y-16201786D01*
X13263928Y-16187500D01*
X13249643Y-16173214D01*
X13249643Y-16201786D01*
X13435357Y-16473214D02*
X13406786Y-16458929D01*
X13392500Y-16430357D01*
X13392500Y-16173214D01*
X13592500Y-16473214D02*
X13563928Y-16458929D01*
X13549643Y-16430357D01*
X13549643Y-16173214D01*
X13935357Y-16473214D02*
X13935357Y-16173214D01*
X14035357Y-16387500D01*
X14135357Y-16173214D01*
X14135357Y-16473214D01*
X14406786Y-16473214D02*
X14406786Y-16316071D01*
X14392500Y-16287500D01*
X14363928Y-16273214D01*
X14306786Y-16273214D01*
X14278214Y-16287500D01*
X14406786Y-16458929D02*
X14378214Y-16473214D01*
X14306786Y-16473214D01*
X14278214Y-16458929D01*
X14263928Y-16430357D01*
X14263928Y-16401786D01*
X14278214Y-16373214D01*
X14306786Y-16358929D01*
X14378214Y-16358929D01*
X14406786Y-16344643D01*
X14549643Y-16273214D02*
X14549643Y-16573214D01*
X14549643Y-16287500D02*
X14578214Y-16273214D01*
X14635357Y-16273214D01*
X14663928Y-16287500D01*
X14678214Y-16301786D01*
X14692500Y-16330357D01*
X14692500Y-16416071D01*
X14678214Y-16444643D01*
X14663928Y-16458929D01*
X14635357Y-16473214D01*
X14578214Y-16473214D01*
X14549643Y-16458929D01*
X14821071Y-16444643D02*
X14835357Y-16458929D01*
X14821071Y-16473214D01*
X14806786Y-16458929D01*
X14821071Y-16444643D01*
X14821071Y-16473214D01*
X14821071Y-16287500D02*
X14835357Y-16301786D01*
X14821071Y-16316071D01*
X14806786Y-16301786D01*
X14821071Y-16287500D01*
X14821071Y-16316071D01*
X12462500Y-16952500D02*
X12492500Y-16982500D01*
X12492500Y-16952500D02*
X12462500Y-16982500D01*
X12821071Y-16803214D02*
X12849643Y-16803214D01*
X12878214Y-16817500D01*
X12892500Y-16831786D01*
X12906786Y-16860357D01*
X12921071Y-16917500D01*
X12921071Y-16988929D01*
X12906786Y-17046072D01*
X12892500Y-17074643D01*
X12878214Y-17088929D01*
X12849643Y-17103214D01*
X12821071Y-17103214D01*
X12792500Y-17088929D01*
X12778214Y-17074643D01*
X12763928Y-17046072D01*
X12749643Y-16988929D01*
X12749643Y-16917500D01*
X12763928Y-16860357D01*
X12778214Y-16831786D01*
X12792500Y-16817500D01*
X12821071Y-16803214D01*
X13049643Y-17074643D02*
X13063928Y-17088929D01*
X13049643Y-17103214D01*
X13035357Y-17088929D01*
X13049643Y-17074643D01*
X13049643Y-17103214D01*
X13163928Y-16803214D02*
X13349643Y-16803214D01*
X13249643Y-16917500D01*
X13292500Y-16917500D01*
X13321071Y-16931786D01*
X13335357Y-16946072D01*
X13349643Y-16974643D01*
X13349643Y-17046072D01*
X13335357Y-17074643D01*
X13321071Y-17088929D01*
X13292500Y-17103214D01*
X13206786Y-17103214D01*
X13178214Y-17088929D01*
X13163928Y-17074643D01*
X13535357Y-16803214D02*
X13563928Y-16803214D01*
X13592500Y-16817500D01*
X13606786Y-16831786D01*
X13621071Y-16860357D01*
X13635357Y-16917500D01*
X13635357Y-16988929D01*
X13621071Y-17046072D01*
X13606786Y-17074643D01*
X13592500Y-17088929D01*
X13563928Y-17103214D01*
X13535357Y-17103214D01*
X13506786Y-17088929D01*
X13492500Y-17074643D01*
X13478214Y-17046072D01*
X13463928Y-16988929D01*
X13463928Y-16917500D01*
X13478214Y-16860357D01*
X13492500Y-16831786D01*
X13506786Y-16817500D01*
X13535357Y-16803214D01*
X13763928Y-17103214D02*
X13763928Y-16903214D01*
X13763928Y-16931786D02*
X13778214Y-16917500D01*
X13806786Y-16903214D01*
X13849643Y-16903214D01*
X13878214Y-16917500D01*
X13892500Y-16946072D01*
X13892500Y-17103214D01*
X13892500Y-16946072D02*
X13906786Y-16917500D01*
X13935357Y-16903214D01*
X13978214Y-16903214D01*
X14006786Y-16917500D01*
X14021071Y-16946072D01*
X14021071Y-17103214D01*
X14163928Y-17103214D02*
X14163928Y-16903214D01*
X14163928Y-16931786D02*
X14178214Y-16917500D01*
X14206786Y-16903214D01*
X14249643Y-16903214D01*
X14278214Y-16917500D01*
X14292500Y-16946072D01*
X14292500Y-17103214D01*
X14292500Y-16946072D02*
X14306786Y-16917500D01*
X14335357Y-16903214D01*
X14378214Y-16903214D01*
X14406786Y-16917500D01*
X14421071Y-16946072D01*
X14421071Y-17103214D01*
X15006786Y-16788929D02*
X14749643Y-17174643D01*
X15392500Y-16803214D02*
X15421071Y-16803214D01*
X15449643Y-16817500D01*
X15463928Y-16831786D01*
X15478214Y-16860357D01*
X15492500Y-16917500D01*
X15492500Y-16988929D01*
X15478214Y-17046072D01*
X15463928Y-17074643D01*
X15449643Y-17088929D01*
X15421071Y-17103214D01*
X15392500Y-17103214D01*
X15363928Y-17088929D01*
X15349643Y-17074643D01*
X15335357Y-17046072D01*
X15321071Y-16988929D01*
X15321071Y-16917500D01*
X15335357Y-16860357D01*
X15349643Y-16831786D01*
X15363928Y-16817500D01*
X15392500Y-16803214D01*
X15621071Y-17074643D02*
X15635357Y-17088929D01*
X15621071Y-17103214D01*
X15606786Y-17088929D01*
X15621071Y-17074643D01*
X15621071Y-17103214D01*
X15821071Y-16803214D02*
X15849643Y-16803214D01*
X15878214Y-16817500D01*
X15892500Y-16831786D01*
X15906785Y-16860357D01*
X15921071Y-16917500D01*
X15921071Y-16988929D01*
X15906785Y-17046072D01*
X15892500Y-17074643D01*
X15878214Y-17088929D01*
X15849643Y-17103214D01*
X15821071Y-17103214D01*
X15792500Y-17088929D01*
X15778214Y-17074643D01*
X15763928Y-17046072D01*
X15749643Y-16988929D01*
X15749643Y-16917500D01*
X15763928Y-16860357D01*
X15778214Y-16831786D01*
X15792500Y-16817500D01*
X15821071Y-16803214D01*
X16206785Y-17103214D02*
X16035357Y-17103214D01*
X16121071Y-17103214D02*
X16121071Y-16803214D01*
X16092500Y-16846072D01*
X16063928Y-16874643D01*
X16035357Y-16888929D01*
X16321071Y-16831786D02*
X16335357Y-16817500D01*
X16363928Y-16803214D01*
X16435357Y-16803214D01*
X16463928Y-16817500D01*
X16478214Y-16831786D01*
X16492500Y-16860357D01*
X16492500Y-16888929D01*
X16478214Y-16931786D01*
X16306785Y-17103214D01*
X16492500Y-17103214D01*
X16606786Y-16803214D02*
X16606786Y-16860357D01*
X16721071Y-16803214D02*
X16721071Y-16860357D01*
X17163928Y-17217500D02*
X17149643Y-17203214D01*
X17121071Y-17160357D01*
X17106786Y-17131786D01*
X17092500Y-17088929D01*
X17078214Y-17017500D01*
X17078214Y-16960357D01*
X17092500Y-16888929D01*
X17106786Y-16846072D01*
X17121071Y-16817500D01*
X17149643Y-16774643D01*
X17163928Y-16760357D01*
X17435357Y-17103214D02*
X17263928Y-17103214D01*
X17349643Y-17103214D02*
X17349643Y-16803214D01*
X17321071Y-16846072D01*
X17292500Y-16874643D01*
X17263928Y-16888929D01*
X17621071Y-16803214D02*
X17649643Y-16803214D01*
X17678214Y-16817500D01*
X17692500Y-16831786D01*
X17706786Y-16860357D01*
X17721071Y-16917500D01*
X17721071Y-16988929D01*
X17706786Y-17046072D01*
X17692500Y-17074643D01*
X17678214Y-17088929D01*
X17649643Y-17103214D01*
X17621071Y-17103214D01*
X17592500Y-17088929D01*
X17578214Y-17074643D01*
X17563928Y-17046072D01*
X17549643Y-16988929D01*
X17549643Y-16917500D01*
X17563928Y-16860357D01*
X17578214Y-16831786D01*
X17592500Y-16817500D01*
X17621071Y-16803214D01*
X17978214Y-16903214D02*
X17978214Y-17103214D01*
X17906786Y-16788929D02*
X17835357Y-17003214D01*
X18021071Y-17003214D01*
X18363928Y-17103214D02*
X18363928Y-16803214D01*
X18492500Y-17103214D02*
X18492500Y-16946072D01*
X18478214Y-16917500D01*
X18449643Y-16903214D01*
X18406786Y-16903214D01*
X18378214Y-16917500D01*
X18363928Y-16931786D01*
X18678214Y-17103214D02*
X18649643Y-17088929D01*
X18635357Y-17074643D01*
X18621071Y-17046072D01*
X18621071Y-16960357D01*
X18635357Y-16931786D01*
X18649643Y-16917500D01*
X18678214Y-16903214D01*
X18721071Y-16903214D01*
X18749643Y-16917500D01*
X18763928Y-16931786D01*
X18778214Y-16960357D01*
X18778214Y-17046072D01*
X18763928Y-17074643D01*
X18749643Y-17088929D01*
X18721071Y-17103214D01*
X18678214Y-17103214D01*
X18949643Y-17103214D02*
X18921071Y-17088929D01*
X18906786Y-17060357D01*
X18906786Y-16803214D01*
X19178214Y-17088929D02*
X19149643Y-17103214D01*
X19092500Y-17103214D01*
X19063929Y-17088929D01*
X19049643Y-17060357D01*
X19049643Y-16946072D01*
X19063929Y-16917500D01*
X19092500Y-16903214D01*
X19149643Y-16903214D01*
X19178214Y-16917500D01*
X19192500Y-16946072D01*
X19192500Y-16974643D01*
X19049643Y-17003214D01*
X19306786Y-17088929D02*
X19335357Y-17103214D01*
X19392500Y-17103214D01*
X19421071Y-17088929D01*
X19435357Y-17060357D01*
X19435357Y-17046072D01*
X19421071Y-17017500D01*
X19392500Y-17003214D01*
X19349643Y-17003214D01*
X19321071Y-16988929D01*
X19306786Y-16960357D01*
X19306786Y-16946072D01*
X19321071Y-16917500D01*
X19349643Y-16903214D01*
X19392500Y-16903214D01*
X19421071Y-16917500D01*
X19535357Y-17217500D02*
X19549643Y-17203214D01*
X19578214Y-17160357D01*
X19592500Y-17131786D01*
X19606786Y-17088929D01*
X19621071Y-17017500D01*
X19621071Y-16960357D01*
X19606786Y-16888929D01*
X19592500Y-16846072D01*
X19578214Y-16817500D01*
X19549643Y-16774643D01*
X19535357Y-16760357D01*
X12492500Y-17363500D02*
G75*
G03X12492500Y-17363500I-20000J0D01*
G01*
X12821071Y-17199214D02*
X12849643Y-17199214D01*
X12878214Y-17213500D01*
X12892500Y-17227786D01*
X12906786Y-17256357D01*
X12921071Y-17313500D01*
X12921071Y-17384929D01*
X12906786Y-17442072D01*
X12892500Y-17470643D01*
X12878214Y-17484929D01*
X12849643Y-17499214D01*
X12821071Y-17499214D01*
X12792500Y-17484929D01*
X12778214Y-17470643D01*
X12763928Y-17442072D01*
X12749643Y-17384929D01*
X12749643Y-17313500D01*
X12763928Y-17256357D01*
X12778214Y-17227786D01*
X12792500Y-17213500D01*
X12821071Y-17199214D01*
X13049643Y-17470643D02*
X13063928Y-17484929D01*
X13049643Y-17499214D01*
X13035357Y-17484929D01*
X13049643Y-17470643D01*
X13049643Y-17499214D01*
X13321071Y-17299214D02*
X13321071Y-17499214D01*
X13249643Y-17184929D02*
X13178214Y-17399214D01*
X13363928Y-17399214D01*
X13535357Y-17199214D02*
X13563928Y-17199214D01*
X13592500Y-17213500D01*
X13606786Y-17227786D01*
X13621071Y-17256357D01*
X13635357Y-17313500D01*
X13635357Y-17384929D01*
X13621071Y-17442072D01*
X13606786Y-17470643D01*
X13592500Y-17484929D01*
X13563928Y-17499214D01*
X13535357Y-17499214D01*
X13506786Y-17484929D01*
X13492500Y-17470643D01*
X13478214Y-17442072D01*
X13463928Y-17384929D01*
X13463928Y-17313500D01*
X13478214Y-17256357D01*
X13492500Y-17227786D01*
X13506786Y-17213500D01*
X13535357Y-17199214D01*
X13763928Y-17499214D02*
X13763928Y-17299214D01*
X13763928Y-17327786D02*
X13778214Y-17313500D01*
X13806786Y-17299214D01*
X13849643Y-17299214D01*
X13878214Y-17313500D01*
X13892500Y-17342072D01*
X13892500Y-17499214D01*
X13892500Y-17342072D02*
X13906786Y-17313500D01*
X13935357Y-17299214D01*
X13978214Y-17299214D01*
X14006786Y-17313500D01*
X14021071Y-17342072D01*
X14021071Y-17499214D01*
X14163928Y-17499214D02*
X14163928Y-17299214D01*
X14163928Y-17327786D02*
X14178214Y-17313500D01*
X14206786Y-17299214D01*
X14249643Y-17299214D01*
X14278214Y-17313500D01*
X14292500Y-17342072D01*
X14292500Y-17499214D01*
X14292500Y-17342072D02*
X14306786Y-17313500D01*
X14335357Y-17299214D01*
X14378214Y-17299214D01*
X14406786Y-17313500D01*
X14421071Y-17342072D01*
X14421071Y-17499214D01*
X15006786Y-17184929D02*
X14749643Y-17570643D01*
X15392500Y-17199214D02*
X15421071Y-17199214D01*
X15449643Y-17213500D01*
X15463928Y-17227786D01*
X15478214Y-17256357D01*
X15492500Y-17313500D01*
X15492500Y-17384929D01*
X15478214Y-17442072D01*
X15463928Y-17470643D01*
X15449643Y-17484929D01*
X15421071Y-17499214D01*
X15392500Y-17499214D01*
X15363928Y-17484929D01*
X15349643Y-17470643D01*
X15335357Y-17442072D01*
X15321071Y-17384929D01*
X15321071Y-17313500D01*
X15335357Y-17256357D01*
X15349643Y-17227786D01*
X15363928Y-17213500D01*
X15392500Y-17199214D01*
X15621071Y-17470643D02*
X15635357Y-17484929D01*
X15621071Y-17499214D01*
X15606786Y-17484929D01*
X15621071Y-17470643D01*
X15621071Y-17499214D01*
X15821071Y-17199214D02*
X15849643Y-17199214D01*
X15878214Y-17213500D01*
X15892500Y-17227786D01*
X15906785Y-17256357D01*
X15921071Y-17313500D01*
X15921071Y-17384929D01*
X15906785Y-17442072D01*
X15892500Y-17470643D01*
X15878214Y-17484929D01*
X15849643Y-17499214D01*
X15821071Y-17499214D01*
X15792500Y-17484929D01*
X15778214Y-17470643D01*
X15763928Y-17442072D01*
X15749643Y-17384929D01*
X15749643Y-17313500D01*
X15763928Y-17256357D01*
X15778214Y-17227786D01*
X15792500Y-17213500D01*
X15821071Y-17199214D01*
X16206785Y-17499214D02*
X16035357Y-17499214D01*
X16121071Y-17499214D02*
X16121071Y-17199214D01*
X16092500Y-17242072D01*
X16063928Y-17270643D01*
X16035357Y-17284929D01*
X16463928Y-17199214D02*
X16406785Y-17199214D01*
X16378214Y-17213500D01*
X16363928Y-17227786D01*
X16335357Y-17270643D01*
X16321071Y-17327786D01*
X16321071Y-17442072D01*
X16335357Y-17470643D01*
X16349643Y-17484929D01*
X16378214Y-17499214D01*
X16435357Y-17499214D01*
X16463928Y-17484929D01*
X16478214Y-17470643D01*
X16492500Y-17442072D01*
X16492500Y-17370643D01*
X16478214Y-17342072D01*
X16463928Y-17327786D01*
X16435357Y-17313500D01*
X16378214Y-17313500D01*
X16349643Y-17327786D01*
X16335357Y-17342072D01*
X16321071Y-17370643D01*
X16606786Y-17199214D02*
X16606786Y-17256357D01*
X16721071Y-17199214D02*
X16721071Y-17256357D01*
X17163928Y-17613500D02*
X17149643Y-17599214D01*
X17121071Y-17556357D01*
X17106786Y-17527786D01*
X17092500Y-17484929D01*
X17078214Y-17413500D01*
X17078214Y-17356357D01*
X17092500Y-17284929D01*
X17106786Y-17242072D01*
X17121071Y-17213500D01*
X17149643Y-17170643D01*
X17163928Y-17156357D01*
X17406786Y-17199214D02*
X17349643Y-17199214D01*
X17321071Y-17213500D01*
X17306786Y-17227786D01*
X17278214Y-17270643D01*
X17263928Y-17327786D01*
X17263928Y-17442072D01*
X17278214Y-17470643D01*
X17292500Y-17484929D01*
X17321071Y-17499214D01*
X17378214Y-17499214D01*
X17406786Y-17484929D01*
X17421071Y-17470643D01*
X17435357Y-17442072D01*
X17435357Y-17370643D01*
X17421071Y-17342072D01*
X17406786Y-17327786D01*
X17378214Y-17313500D01*
X17321071Y-17313500D01*
X17292500Y-17327786D01*
X17278214Y-17342072D01*
X17263928Y-17370643D01*
X17606786Y-17327786D02*
X17578214Y-17313500D01*
X17563928Y-17299214D01*
X17549643Y-17270643D01*
X17549643Y-17256357D01*
X17563928Y-17227786D01*
X17578214Y-17213500D01*
X17606786Y-17199214D01*
X17663928Y-17199214D01*
X17692500Y-17213500D01*
X17706786Y-17227786D01*
X17721071Y-17256357D01*
X17721071Y-17270643D01*
X17706786Y-17299214D01*
X17692500Y-17313500D01*
X17663928Y-17327786D01*
X17606786Y-17327786D01*
X17578214Y-17342072D01*
X17563928Y-17356357D01*
X17549643Y-17384929D01*
X17549643Y-17442072D01*
X17563928Y-17470643D01*
X17578214Y-17484929D01*
X17606786Y-17499214D01*
X17663928Y-17499214D01*
X17692500Y-17484929D01*
X17706786Y-17470643D01*
X17721071Y-17442072D01*
X17721071Y-17384929D01*
X17706786Y-17356357D01*
X17692500Y-17342072D01*
X17663928Y-17327786D01*
X18078214Y-17499214D02*
X18078214Y-17199214D01*
X18206786Y-17499214D02*
X18206786Y-17342072D01*
X18192500Y-17313500D01*
X18163928Y-17299214D01*
X18121071Y-17299214D01*
X18092500Y-17313500D01*
X18078214Y-17327786D01*
X18392500Y-17499214D02*
X18363928Y-17484929D01*
X18349643Y-17470643D01*
X18335357Y-17442072D01*
X18335357Y-17356357D01*
X18349643Y-17327786D01*
X18363928Y-17313500D01*
X18392500Y-17299214D01*
X18435357Y-17299214D01*
X18463928Y-17313500D01*
X18478214Y-17327786D01*
X18492500Y-17356357D01*
X18492500Y-17442072D01*
X18478214Y-17470643D01*
X18463928Y-17484929D01*
X18435357Y-17499214D01*
X18392500Y-17499214D01*
X18663928Y-17499214D02*
X18635357Y-17484929D01*
X18621071Y-17456357D01*
X18621071Y-17199214D01*
X18892500Y-17484929D02*
X18863929Y-17499214D01*
X18806786Y-17499214D01*
X18778214Y-17484929D01*
X18763929Y-17456357D01*
X18763929Y-17342072D01*
X18778214Y-17313500D01*
X18806786Y-17299214D01*
X18863929Y-17299214D01*
X18892500Y-17313500D01*
X18906786Y-17342072D01*
X18906786Y-17370643D01*
X18763929Y-17399214D01*
X19021071Y-17484929D02*
X19049643Y-17499214D01*
X19106786Y-17499214D01*
X19135357Y-17484929D01*
X19149643Y-17456357D01*
X19149643Y-17442072D01*
X19135357Y-17413500D01*
X19106786Y-17399214D01*
X19063929Y-17399214D01*
X19035357Y-17384929D01*
X19021071Y-17356357D01*
X19021071Y-17342072D01*
X19035357Y-17313500D01*
X19063929Y-17299214D01*
X19106786Y-17299214D01*
X19135357Y-17313500D01*
X19249643Y-17613500D02*
X19263929Y-17599214D01*
X19292500Y-17556357D01*
X19306786Y-17527786D01*
X19321071Y-17484929D01*
X19335357Y-17413500D01*
X19335357Y-17356357D01*
X19321071Y-17284929D01*
X19306786Y-17242072D01*
X19292500Y-17213500D01*
X19263929Y-17170643D01*
X19249643Y-17156357D01*
X12467500Y-17734500D02*
X12467500Y-17784500D01*
X12442500Y-17759500D02*
X12492500Y-17759500D01*
X12821071Y-17595214D02*
X12849643Y-17595214D01*
X12878214Y-17609500D01*
X12892500Y-17623786D01*
X12906786Y-17652357D01*
X12921071Y-17709500D01*
X12921071Y-17780929D01*
X12906786Y-17838072D01*
X12892500Y-17866643D01*
X12878214Y-17880929D01*
X12849643Y-17895214D01*
X12821071Y-17895214D01*
X12792500Y-17880929D01*
X12778214Y-17866643D01*
X12763928Y-17838072D01*
X12749643Y-17780929D01*
X12749643Y-17709500D01*
X12763928Y-17652357D01*
X12778214Y-17623786D01*
X12792500Y-17609500D01*
X12821071Y-17595214D01*
X13049643Y-17866643D02*
X13063928Y-17880929D01*
X13049643Y-17895214D01*
X13035357Y-17880929D01*
X13049643Y-17866643D01*
X13049643Y-17895214D01*
X13335357Y-17595214D02*
X13192500Y-17595214D01*
X13178214Y-17738072D01*
X13192500Y-17723786D01*
X13221071Y-17709500D01*
X13292500Y-17709500D01*
X13321071Y-17723786D01*
X13335357Y-17738072D01*
X13349643Y-17766643D01*
X13349643Y-17838072D01*
X13335357Y-17866643D01*
X13321071Y-17880929D01*
X13292500Y-17895214D01*
X13221071Y-17895214D01*
X13192500Y-17880929D01*
X13178214Y-17866643D01*
X13535357Y-17595214D02*
X13563928Y-17595214D01*
X13592500Y-17609500D01*
X13606786Y-17623786D01*
X13621071Y-17652357D01*
X13635357Y-17709500D01*
X13635357Y-17780929D01*
X13621071Y-17838072D01*
X13606786Y-17866643D01*
X13592500Y-17880929D01*
X13563928Y-17895214D01*
X13535357Y-17895214D01*
X13506786Y-17880929D01*
X13492500Y-17866643D01*
X13478214Y-17838072D01*
X13463928Y-17780929D01*
X13463928Y-17709500D01*
X13478214Y-17652357D01*
X13492500Y-17623786D01*
X13506786Y-17609500D01*
X13535357Y-17595214D01*
X13763928Y-17895214D02*
X13763928Y-17695214D01*
X13763928Y-17723786D02*
X13778214Y-17709500D01*
X13806786Y-17695214D01*
X13849643Y-17695214D01*
X13878214Y-17709500D01*
X13892500Y-17738072D01*
X13892500Y-17895214D01*
X13892500Y-17738072D02*
X13906786Y-17709500D01*
X13935357Y-17695214D01*
X13978214Y-17695214D01*
X14006786Y-17709500D01*
X14021071Y-17738072D01*
X14021071Y-17895214D01*
X14163928Y-17895214D02*
X14163928Y-17695214D01*
X14163928Y-17723786D02*
X14178214Y-17709500D01*
X14206786Y-17695214D01*
X14249643Y-17695214D01*
X14278214Y-17709500D01*
X14292500Y-17738072D01*
X14292500Y-17895214D01*
X14292500Y-17738072D02*
X14306786Y-17709500D01*
X14335357Y-17695214D01*
X14378214Y-17695214D01*
X14406786Y-17709500D01*
X14421071Y-17738072D01*
X14421071Y-17895214D01*
X15006786Y-17580929D02*
X14749643Y-17966643D01*
X15392500Y-17595214D02*
X15421071Y-17595214D01*
X15449643Y-17609500D01*
X15463928Y-17623786D01*
X15478214Y-17652357D01*
X15492500Y-17709500D01*
X15492500Y-17780929D01*
X15478214Y-17838072D01*
X15463928Y-17866643D01*
X15449643Y-17880929D01*
X15421071Y-17895214D01*
X15392500Y-17895214D01*
X15363928Y-17880929D01*
X15349643Y-17866643D01*
X15335357Y-17838072D01*
X15321071Y-17780929D01*
X15321071Y-17709500D01*
X15335357Y-17652357D01*
X15349643Y-17623786D01*
X15363928Y-17609500D01*
X15392500Y-17595214D01*
X15621071Y-17866643D02*
X15635357Y-17880929D01*
X15621071Y-17895214D01*
X15606786Y-17880929D01*
X15621071Y-17866643D01*
X15621071Y-17895214D01*
X15821071Y-17595214D02*
X15849643Y-17595214D01*
X15878214Y-17609500D01*
X15892500Y-17623786D01*
X15906785Y-17652357D01*
X15921071Y-17709500D01*
X15921071Y-17780929D01*
X15906785Y-17838072D01*
X15892500Y-17866643D01*
X15878214Y-17880929D01*
X15849643Y-17895214D01*
X15821071Y-17895214D01*
X15792500Y-17880929D01*
X15778214Y-17866643D01*
X15763928Y-17838072D01*
X15749643Y-17780929D01*
X15749643Y-17709500D01*
X15763928Y-17652357D01*
X15778214Y-17623786D01*
X15792500Y-17609500D01*
X15821071Y-17595214D01*
X16035357Y-17623786D02*
X16049643Y-17609500D01*
X16078214Y-17595214D01*
X16149643Y-17595214D01*
X16178214Y-17609500D01*
X16192500Y-17623786D01*
X16206785Y-17652357D01*
X16206785Y-17680929D01*
X16192500Y-17723786D01*
X16021071Y-17895214D01*
X16206785Y-17895214D01*
X16392500Y-17595214D02*
X16421071Y-17595214D01*
X16449643Y-17609500D01*
X16463928Y-17623786D01*
X16478214Y-17652357D01*
X16492500Y-17709500D01*
X16492500Y-17780929D01*
X16478214Y-17838072D01*
X16463928Y-17866643D01*
X16449643Y-17880929D01*
X16421071Y-17895214D01*
X16392500Y-17895214D01*
X16363928Y-17880929D01*
X16349643Y-17866643D01*
X16335357Y-17838072D01*
X16321071Y-17780929D01*
X16321071Y-17709500D01*
X16335357Y-17652357D01*
X16349643Y-17623786D01*
X16363928Y-17609500D01*
X16392500Y-17595214D01*
X16606786Y-17595214D02*
X16606786Y-17652357D01*
X16721071Y-17595214D02*
X16721071Y-17652357D01*
X17163928Y-18009500D02*
X17149643Y-17995214D01*
X17121071Y-17952357D01*
X17106786Y-17923786D01*
X17092500Y-17880929D01*
X17078214Y-17809500D01*
X17078214Y-17752357D01*
X17092500Y-17680929D01*
X17106786Y-17638072D01*
X17121071Y-17609500D01*
X17149643Y-17566643D01*
X17163928Y-17552357D01*
X17406786Y-17695214D02*
X17406786Y-17895214D01*
X17335357Y-17580929D02*
X17263928Y-17795214D01*
X17449643Y-17795214D01*
X17549643Y-17623786D02*
X17563928Y-17609500D01*
X17592500Y-17595214D01*
X17663928Y-17595214D01*
X17692500Y-17609500D01*
X17706786Y-17623786D01*
X17721071Y-17652357D01*
X17721071Y-17680929D01*
X17706786Y-17723786D01*
X17535357Y-17895214D01*
X17721071Y-17895214D01*
X18078214Y-17895214D02*
X18078214Y-17595214D01*
X18206786Y-17895214D02*
X18206786Y-17738072D01*
X18192500Y-17709500D01*
X18163928Y-17695214D01*
X18121071Y-17695214D01*
X18092500Y-17709500D01*
X18078214Y-17723786D01*
X18392500Y-17895214D02*
X18363928Y-17880929D01*
X18349643Y-17866643D01*
X18335357Y-17838072D01*
X18335357Y-17752357D01*
X18349643Y-17723786D01*
X18363928Y-17709500D01*
X18392500Y-17695214D01*
X18435357Y-17695214D01*
X18463928Y-17709500D01*
X18478214Y-17723786D01*
X18492500Y-17752357D01*
X18492500Y-17838072D01*
X18478214Y-17866643D01*
X18463928Y-17880929D01*
X18435357Y-17895214D01*
X18392500Y-17895214D01*
X18663928Y-17895214D02*
X18635357Y-17880929D01*
X18621071Y-17852357D01*
X18621071Y-17595214D01*
X18892500Y-17880929D02*
X18863929Y-17895214D01*
X18806786Y-17895214D01*
X18778214Y-17880929D01*
X18763929Y-17852357D01*
X18763929Y-17738072D01*
X18778214Y-17709500D01*
X18806786Y-17695214D01*
X18863929Y-17695214D01*
X18892500Y-17709500D01*
X18906786Y-17738072D01*
X18906786Y-17766643D01*
X18763929Y-17795214D01*
X19021071Y-17880929D02*
X19049643Y-17895214D01*
X19106786Y-17895214D01*
X19135357Y-17880929D01*
X19149643Y-17852357D01*
X19149643Y-17838072D01*
X19135357Y-17809500D01*
X19106786Y-17795214D01*
X19063929Y-17795214D01*
X19035357Y-17780929D01*
X19021071Y-17752357D01*
X19021071Y-17738072D01*
X19035357Y-17709500D01*
X19063929Y-17695214D01*
X19106786Y-17695214D01*
X19135357Y-17709500D01*
X19249643Y-18009500D02*
X19263929Y-17995214D01*
X19292500Y-17952357D01*
X19306786Y-17923786D01*
X19321071Y-17880929D01*
X19335357Y-17809500D01*
X19335357Y-17752357D01*
X19321071Y-17680929D01*
X19306786Y-17638072D01*
X19292500Y-17609500D01*
X19263929Y-17566643D01*
X19249643Y-17552357D01*
X12480784Y-18183785D02*
X12480784Y-18127216D01*
X12424215Y-18127216D01*
X12424215Y-18183785D01*
X12480784Y-18183785D01*
X12821071Y-17991214D02*
X12849643Y-17991214D01*
X12878214Y-18005500D01*
X12892500Y-18019786D01*
X12906786Y-18048357D01*
X12921071Y-18105500D01*
X12921071Y-18176929D01*
X12906786Y-18234072D01*
X12892500Y-18262643D01*
X12878214Y-18276929D01*
X12849643Y-18291214D01*
X12821071Y-18291214D01*
X12792500Y-18276929D01*
X12778214Y-18262643D01*
X12763928Y-18234072D01*
X12749643Y-18176929D01*
X12749643Y-18105500D01*
X12763928Y-18048357D01*
X12778214Y-18019786D01*
X12792500Y-18005500D01*
X12821071Y-17991214D01*
X13049643Y-18262643D02*
X13063928Y-18276929D01*
X13049643Y-18291214D01*
X13035357Y-18276929D01*
X13049643Y-18262643D01*
X13049643Y-18291214D01*
X13235357Y-18119786D02*
X13206786Y-18105500D01*
X13192500Y-18091214D01*
X13178214Y-18062643D01*
X13178214Y-18048357D01*
X13192500Y-18019786D01*
X13206786Y-18005500D01*
X13235357Y-17991214D01*
X13292500Y-17991214D01*
X13321071Y-18005500D01*
X13335357Y-18019786D01*
X13349643Y-18048357D01*
X13349643Y-18062643D01*
X13335357Y-18091214D01*
X13321071Y-18105500D01*
X13292500Y-18119786D01*
X13235357Y-18119786D01*
X13206786Y-18134072D01*
X13192500Y-18148357D01*
X13178214Y-18176929D01*
X13178214Y-18234072D01*
X13192500Y-18262643D01*
X13206786Y-18276929D01*
X13235357Y-18291214D01*
X13292500Y-18291214D01*
X13321071Y-18276929D01*
X13335357Y-18262643D01*
X13349643Y-18234072D01*
X13349643Y-18176929D01*
X13335357Y-18148357D01*
X13321071Y-18134072D01*
X13292500Y-18119786D01*
X13535357Y-17991214D02*
X13563928Y-17991214D01*
X13592500Y-18005500D01*
X13606786Y-18019786D01*
X13621071Y-18048357D01*
X13635357Y-18105500D01*
X13635357Y-18176929D01*
X13621071Y-18234072D01*
X13606786Y-18262643D01*
X13592500Y-18276929D01*
X13563928Y-18291214D01*
X13535357Y-18291214D01*
X13506786Y-18276929D01*
X13492500Y-18262643D01*
X13478214Y-18234072D01*
X13463928Y-18176929D01*
X13463928Y-18105500D01*
X13478214Y-18048357D01*
X13492500Y-18019786D01*
X13506786Y-18005500D01*
X13535357Y-17991214D01*
X13763928Y-18291214D02*
X13763928Y-18091214D01*
X13763928Y-18119786D02*
X13778214Y-18105500D01*
X13806786Y-18091214D01*
X13849643Y-18091214D01*
X13878214Y-18105500D01*
X13892500Y-18134072D01*
X13892500Y-18291214D01*
X13892500Y-18134072D02*
X13906786Y-18105500D01*
X13935357Y-18091214D01*
X13978214Y-18091214D01*
X14006786Y-18105500D01*
X14021071Y-18134072D01*
X14021071Y-18291214D01*
X14163928Y-18291214D02*
X14163928Y-18091214D01*
X14163928Y-18119786D02*
X14178214Y-18105500D01*
X14206786Y-18091214D01*
X14249643Y-18091214D01*
X14278214Y-18105500D01*
X14292500Y-18134072D01*
X14292500Y-18291214D01*
X14292500Y-18134072D02*
X14306786Y-18105500D01*
X14335357Y-18091214D01*
X14378214Y-18091214D01*
X14406786Y-18105500D01*
X14421071Y-18134072D01*
X14421071Y-18291214D01*
X15006786Y-17976929D02*
X14749643Y-18362643D01*
X15392500Y-17991214D02*
X15421071Y-17991214D01*
X15449643Y-18005500D01*
X15463928Y-18019786D01*
X15478214Y-18048357D01*
X15492500Y-18105500D01*
X15492500Y-18176929D01*
X15478214Y-18234072D01*
X15463928Y-18262643D01*
X15449643Y-18276929D01*
X15421071Y-18291214D01*
X15392500Y-18291214D01*
X15363928Y-18276929D01*
X15349643Y-18262643D01*
X15335357Y-18234072D01*
X15321071Y-18176929D01*
X15321071Y-18105500D01*
X15335357Y-18048357D01*
X15349643Y-18019786D01*
X15363928Y-18005500D01*
X15392500Y-17991214D01*
X15621071Y-18262643D02*
X15635357Y-18276929D01*
X15621071Y-18291214D01*
X15606786Y-18276929D01*
X15621071Y-18262643D01*
X15621071Y-18291214D01*
X15821071Y-17991214D02*
X15849643Y-17991214D01*
X15878214Y-18005500D01*
X15892500Y-18019786D01*
X15906785Y-18048357D01*
X15921071Y-18105500D01*
X15921071Y-18176929D01*
X15906785Y-18234072D01*
X15892500Y-18262643D01*
X15878214Y-18276929D01*
X15849643Y-18291214D01*
X15821071Y-18291214D01*
X15792500Y-18276929D01*
X15778214Y-18262643D01*
X15763928Y-18234072D01*
X15749643Y-18176929D01*
X15749643Y-18105500D01*
X15763928Y-18048357D01*
X15778214Y-18019786D01*
X15792500Y-18005500D01*
X15821071Y-17991214D01*
X16021071Y-17991214D02*
X16206785Y-17991214D01*
X16106785Y-18105500D01*
X16149643Y-18105500D01*
X16178214Y-18119786D01*
X16192500Y-18134072D01*
X16206785Y-18162643D01*
X16206785Y-18234072D01*
X16192500Y-18262643D01*
X16178214Y-18276929D01*
X16149643Y-18291214D01*
X16063928Y-18291214D01*
X16035357Y-18276929D01*
X16021071Y-18262643D01*
X16492500Y-18291214D02*
X16321071Y-18291214D01*
X16406785Y-18291214D02*
X16406785Y-17991214D01*
X16378214Y-18034072D01*
X16349643Y-18062643D01*
X16321071Y-18076929D01*
X16606786Y-17991214D02*
X16606786Y-18048357D01*
X16721071Y-17991214D02*
X16721071Y-18048357D01*
X17163928Y-18405500D02*
X17149643Y-18391214D01*
X17121071Y-18348357D01*
X17106786Y-18319786D01*
X17092500Y-18276929D01*
X17078214Y-18205500D01*
X17078214Y-18148357D01*
X17092500Y-18076929D01*
X17106786Y-18034072D01*
X17121071Y-18005500D01*
X17149643Y-17962643D01*
X17163928Y-17948357D01*
X17406786Y-18091214D02*
X17406786Y-18291214D01*
X17335357Y-17976929D02*
X17263928Y-18191214D01*
X17449643Y-18191214D01*
X17792500Y-18291214D02*
X17792500Y-17991214D01*
X17921071Y-18291214D02*
X17921071Y-18134072D01*
X17906786Y-18105500D01*
X17878214Y-18091214D01*
X17835357Y-18091214D01*
X17806786Y-18105500D01*
X17792500Y-18119786D01*
X18106786Y-18291214D02*
X18078214Y-18276929D01*
X18063928Y-18262643D01*
X18049643Y-18234072D01*
X18049643Y-18148357D01*
X18063928Y-18119786D01*
X18078214Y-18105500D01*
X18106786Y-18091214D01*
X18149643Y-18091214D01*
X18178214Y-18105500D01*
X18192500Y-18119786D01*
X18206786Y-18148357D01*
X18206786Y-18234072D01*
X18192500Y-18262643D01*
X18178214Y-18276929D01*
X18149643Y-18291214D01*
X18106786Y-18291214D01*
X18378214Y-18291214D02*
X18349643Y-18276929D01*
X18335357Y-18248357D01*
X18335357Y-17991214D01*
X18606786Y-18276929D02*
X18578214Y-18291214D01*
X18521071Y-18291214D01*
X18492500Y-18276929D01*
X18478214Y-18248357D01*
X18478214Y-18134072D01*
X18492500Y-18105500D01*
X18521071Y-18091214D01*
X18578214Y-18091214D01*
X18606786Y-18105500D01*
X18621071Y-18134072D01*
X18621071Y-18162643D01*
X18478214Y-18191214D01*
X18735357Y-18276929D02*
X18763929Y-18291214D01*
X18821071Y-18291214D01*
X18849643Y-18276929D01*
X18863929Y-18248357D01*
X18863929Y-18234072D01*
X18849643Y-18205500D01*
X18821071Y-18191214D01*
X18778214Y-18191214D01*
X18749643Y-18176929D01*
X18735357Y-18148357D01*
X18735357Y-18134072D01*
X18749643Y-18105500D01*
X18778214Y-18091214D01*
X18821071Y-18091214D01*
X18849643Y-18105500D01*
X18963928Y-18405500D02*
X18978214Y-18391214D01*
X19006786Y-18348357D01*
X19021071Y-18319786D01*
X19035357Y-18276929D01*
X19049643Y-18205500D01*
X19049643Y-18148357D01*
X19035357Y-18076929D01*
X19021071Y-18034072D01*
X19006786Y-18005500D01*
X18978214Y-17962643D01*
X18963928Y-17948357D01*
X12448000Y-18596000D02*
X12492500Y-18551500D01*
X12448000Y-18507000D01*
X12403500Y-18551500D01*
X12448000Y-18596000D01*
X12821071Y-18387214D02*
X12849643Y-18387214D01*
X12878214Y-18401500D01*
X12892500Y-18415786D01*
X12906786Y-18444357D01*
X12921071Y-18501500D01*
X12921071Y-18572929D01*
X12906786Y-18630072D01*
X12892500Y-18658643D01*
X12878214Y-18672929D01*
X12849643Y-18687214D01*
X12821071Y-18687214D01*
X12792500Y-18672929D01*
X12778214Y-18658643D01*
X12763928Y-18630072D01*
X12749643Y-18572929D01*
X12749643Y-18501500D01*
X12763928Y-18444357D01*
X12778214Y-18415786D01*
X12792500Y-18401500D01*
X12821071Y-18387214D01*
X13049643Y-18658643D02*
X13063928Y-18672929D01*
X13049643Y-18687214D01*
X13035357Y-18672929D01*
X13049643Y-18658643D01*
X13049643Y-18687214D01*
X13235357Y-18515786D02*
X13206786Y-18501500D01*
X13192500Y-18487214D01*
X13178214Y-18458643D01*
X13178214Y-18444357D01*
X13192500Y-18415786D01*
X13206786Y-18401500D01*
X13235357Y-18387214D01*
X13292500Y-18387214D01*
X13321071Y-18401500D01*
X13335357Y-18415786D01*
X13349643Y-18444357D01*
X13349643Y-18458643D01*
X13335357Y-18487214D01*
X13321071Y-18501500D01*
X13292500Y-18515786D01*
X13235357Y-18515786D01*
X13206786Y-18530072D01*
X13192500Y-18544357D01*
X13178214Y-18572929D01*
X13178214Y-18630072D01*
X13192500Y-18658643D01*
X13206786Y-18672929D01*
X13235357Y-18687214D01*
X13292500Y-18687214D01*
X13321071Y-18672929D01*
X13335357Y-18658643D01*
X13349643Y-18630072D01*
X13349643Y-18572929D01*
X13335357Y-18544357D01*
X13321071Y-18530072D01*
X13292500Y-18515786D01*
X13492500Y-18687214D02*
X13549643Y-18687214D01*
X13578214Y-18672929D01*
X13592500Y-18658643D01*
X13621071Y-18615786D01*
X13635357Y-18558643D01*
X13635357Y-18444357D01*
X13621071Y-18415786D01*
X13606786Y-18401500D01*
X13578214Y-18387214D01*
X13521071Y-18387214D01*
X13492500Y-18401500D01*
X13478214Y-18415786D01*
X13463928Y-18444357D01*
X13463928Y-18515786D01*
X13478214Y-18544357D01*
X13492500Y-18558643D01*
X13521071Y-18572929D01*
X13578214Y-18572929D01*
X13606786Y-18558643D01*
X13621071Y-18544357D01*
X13635357Y-18515786D01*
X13763928Y-18687214D02*
X13763928Y-18487214D01*
X13763928Y-18515786D02*
X13778214Y-18501500D01*
X13806786Y-18487214D01*
X13849643Y-18487214D01*
X13878214Y-18501500D01*
X13892500Y-18530072D01*
X13892500Y-18687214D01*
X13892500Y-18530072D02*
X13906786Y-18501500D01*
X13935357Y-18487214D01*
X13978214Y-18487214D01*
X14006786Y-18501500D01*
X14021071Y-18530072D01*
X14021071Y-18687214D01*
X14163928Y-18687214D02*
X14163928Y-18487214D01*
X14163928Y-18515786D02*
X14178214Y-18501500D01*
X14206786Y-18487214D01*
X14249643Y-18487214D01*
X14278214Y-18501500D01*
X14292500Y-18530072D01*
X14292500Y-18687214D01*
X14292500Y-18530072D02*
X14306786Y-18501500D01*
X14335357Y-18487214D01*
X14378214Y-18487214D01*
X14406786Y-18501500D01*
X14421071Y-18530072D01*
X14421071Y-18687214D01*
X15006786Y-18372929D02*
X14749643Y-18758643D01*
X15392500Y-18387214D02*
X15421071Y-18387214D01*
X15449643Y-18401500D01*
X15463928Y-18415786D01*
X15478214Y-18444357D01*
X15492500Y-18501500D01*
X15492500Y-18572929D01*
X15478214Y-18630072D01*
X15463928Y-18658643D01*
X15449643Y-18672929D01*
X15421071Y-18687214D01*
X15392500Y-18687214D01*
X15363928Y-18672929D01*
X15349643Y-18658643D01*
X15335357Y-18630072D01*
X15321071Y-18572929D01*
X15321071Y-18501500D01*
X15335357Y-18444357D01*
X15349643Y-18415786D01*
X15363928Y-18401500D01*
X15392500Y-18387214D01*
X15621071Y-18658643D02*
X15635357Y-18672929D01*
X15621071Y-18687214D01*
X15606786Y-18672929D01*
X15621071Y-18658643D01*
X15621071Y-18687214D01*
X15821071Y-18387214D02*
X15849643Y-18387214D01*
X15878214Y-18401500D01*
X15892500Y-18415786D01*
X15906785Y-18444357D01*
X15921071Y-18501500D01*
X15921071Y-18572929D01*
X15906785Y-18630072D01*
X15892500Y-18658643D01*
X15878214Y-18672929D01*
X15849643Y-18687214D01*
X15821071Y-18687214D01*
X15792500Y-18672929D01*
X15778214Y-18658643D01*
X15763928Y-18630072D01*
X15749643Y-18572929D01*
X15749643Y-18501500D01*
X15763928Y-18444357D01*
X15778214Y-18415786D01*
X15792500Y-18401500D01*
X15821071Y-18387214D01*
X16021071Y-18387214D02*
X16206785Y-18387214D01*
X16106785Y-18501500D01*
X16149643Y-18501500D01*
X16178214Y-18515786D01*
X16192500Y-18530072D01*
X16206785Y-18558643D01*
X16206785Y-18630072D01*
X16192500Y-18658643D01*
X16178214Y-18672929D01*
X16149643Y-18687214D01*
X16063928Y-18687214D01*
X16035357Y-18672929D01*
X16021071Y-18658643D01*
X16478214Y-18387214D02*
X16335357Y-18387214D01*
X16321071Y-18530072D01*
X16335357Y-18515786D01*
X16363928Y-18501500D01*
X16435357Y-18501500D01*
X16463928Y-18515786D01*
X16478214Y-18530072D01*
X16492500Y-18558643D01*
X16492500Y-18630072D01*
X16478214Y-18658643D01*
X16463928Y-18672929D01*
X16435357Y-18687214D01*
X16363928Y-18687214D01*
X16335357Y-18672929D01*
X16321071Y-18658643D01*
X16606786Y-18387214D02*
X16606786Y-18444357D01*
X16721071Y-18387214D02*
X16721071Y-18444357D01*
X17163928Y-18801500D02*
X17149643Y-18787214D01*
X17121071Y-18744357D01*
X17106786Y-18715786D01*
X17092500Y-18672929D01*
X17078214Y-18601500D01*
X17078214Y-18544357D01*
X17092500Y-18472929D01*
X17106786Y-18430072D01*
X17121071Y-18401500D01*
X17149643Y-18358643D01*
X17163928Y-18344357D01*
X17249643Y-18387214D02*
X17449643Y-18387214D01*
X17321071Y-18687214D01*
X17792500Y-18687214D02*
X17792500Y-18387214D01*
X17921071Y-18687214D02*
X17921071Y-18530072D01*
X17906786Y-18501500D01*
X17878214Y-18487214D01*
X17835357Y-18487214D01*
X17806786Y-18501500D01*
X17792500Y-18515786D01*
X18106786Y-18687214D02*
X18078214Y-18672929D01*
X18063928Y-18658643D01*
X18049643Y-18630072D01*
X18049643Y-18544357D01*
X18063928Y-18515786D01*
X18078214Y-18501500D01*
X18106786Y-18487214D01*
X18149643Y-18487214D01*
X18178214Y-18501500D01*
X18192500Y-18515786D01*
X18206786Y-18544357D01*
X18206786Y-18630072D01*
X18192500Y-18658643D01*
X18178214Y-18672929D01*
X18149643Y-18687214D01*
X18106786Y-18687214D01*
X18378214Y-18687214D02*
X18349643Y-18672929D01*
X18335357Y-18644357D01*
X18335357Y-18387214D01*
X18606786Y-18672929D02*
X18578214Y-18687214D01*
X18521071Y-18687214D01*
X18492500Y-18672929D01*
X18478214Y-18644357D01*
X18478214Y-18530072D01*
X18492500Y-18501500D01*
X18521071Y-18487214D01*
X18578214Y-18487214D01*
X18606786Y-18501500D01*
X18621071Y-18530072D01*
X18621071Y-18558643D01*
X18478214Y-18587214D01*
X18735357Y-18672929D02*
X18763929Y-18687214D01*
X18821071Y-18687214D01*
X18849643Y-18672929D01*
X18863929Y-18644357D01*
X18863929Y-18630072D01*
X18849643Y-18601500D01*
X18821071Y-18587214D01*
X18778214Y-18587214D01*
X18749643Y-18572929D01*
X18735357Y-18544357D01*
X18735357Y-18530072D01*
X18749643Y-18501500D01*
X18778214Y-18487214D01*
X18821071Y-18487214D01*
X18849643Y-18501500D01*
X18963928Y-18801500D02*
X18978214Y-18787214D01*
X19006786Y-18744357D01*
X19021071Y-18715786D01*
X19035357Y-18672929D01*
X19049643Y-18601500D01*
X19049643Y-18544357D01*
X19035357Y-18472929D01*
X19021071Y-18430072D01*
X19006786Y-18401500D01*
X18978214Y-18358643D01*
X18963928Y-18344357D01*
X12392500Y-18897500D02*
X12492500Y-18997500D01*
X12492500Y-18897500D02*
X12392500Y-18997500D01*
X12492500Y-18947500D02*
G75*
G03X12492500Y-18947500I-50000J0D01*
G01*
X12921071Y-19083214D02*
X12749643Y-19083214D01*
X12835357Y-19083214D02*
X12835357Y-18783214D01*
X12806786Y-18826072D01*
X12778214Y-18854643D01*
X12749643Y-18868929D01*
X13049643Y-19054643D02*
X13063928Y-19068929D01*
X13049643Y-19083214D01*
X13035357Y-19068929D01*
X13049643Y-19054643D01*
X13049643Y-19083214D01*
X13249643Y-18783214D02*
X13278214Y-18783214D01*
X13306786Y-18797500D01*
X13321071Y-18811786D01*
X13335357Y-18840357D01*
X13349643Y-18897500D01*
X13349643Y-18968929D01*
X13335357Y-19026072D01*
X13321071Y-19054643D01*
X13306786Y-19068929D01*
X13278214Y-19083214D01*
X13249643Y-19083214D01*
X13221071Y-19068929D01*
X13206786Y-19054643D01*
X13192500Y-19026072D01*
X13178214Y-18968929D01*
X13178214Y-18897500D01*
X13192500Y-18840357D01*
X13206786Y-18811786D01*
X13221071Y-18797500D01*
X13249643Y-18783214D01*
X13535357Y-18783214D02*
X13563928Y-18783214D01*
X13592500Y-18797500D01*
X13606786Y-18811786D01*
X13621071Y-18840357D01*
X13635357Y-18897500D01*
X13635357Y-18968929D01*
X13621071Y-19026072D01*
X13606786Y-19054643D01*
X13592500Y-19068929D01*
X13563928Y-19083214D01*
X13535357Y-19083214D01*
X13506786Y-19068929D01*
X13492500Y-19054643D01*
X13478214Y-19026072D01*
X13463928Y-18968929D01*
X13463928Y-18897500D01*
X13478214Y-18840357D01*
X13492500Y-18811786D01*
X13506786Y-18797500D01*
X13535357Y-18783214D01*
X13763928Y-19083214D02*
X13763928Y-18883214D01*
X13763928Y-18911786D02*
X13778214Y-18897500D01*
X13806786Y-18883214D01*
X13849643Y-18883214D01*
X13878214Y-18897500D01*
X13892500Y-18926072D01*
X13892500Y-19083214D01*
X13892500Y-18926072D02*
X13906786Y-18897500D01*
X13935357Y-18883214D01*
X13978214Y-18883214D01*
X14006786Y-18897500D01*
X14021071Y-18926072D01*
X14021071Y-19083214D01*
X14163928Y-19083214D02*
X14163928Y-18883214D01*
X14163928Y-18911786D02*
X14178214Y-18897500D01*
X14206786Y-18883214D01*
X14249643Y-18883214D01*
X14278214Y-18897500D01*
X14292500Y-18926072D01*
X14292500Y-19083214D01*
X14292500Y-18926072D02*
X14306786Y-18897500D01*
X14335357Y-18883214D01*
X14378214Y-18883214D01*
X14406786Y-18897500D01*
X14421071Y-18926072D01*
X14421071Y-19083214D01*
X15006786Y-18768929D02*
X14749643Y-19154643D01*
X15392500Y-18783214D02*
X15421071Y-18783214D01*
X15449643Y-18797500D01*
X15463928Y-18811786D01*
X15478214Y-18840357D01*
X15492500Y-18897500D01*
X15492500Y-18968929D01*
X15478214Y-19026072D01*
X15463928Y-19054643D01*
X15449643Y-19068929D01*
X15421071Y-19083214D01*
X15392500Y-19083214D01*
X15363928Y-19068929D01*
X15349643Y-19054643D01*
X15335357Y-19026072D01*
X15321071Y-18968929D01*
X15321071Y-18897500D01*
X15335357Y-18840357D01*
X15349643Y-18811786D01*
X15363928Y-18797500D01*
X15392500Y-18783214D01*
X15621071Y-19054643D02*
X15635357Y-19068929D01*
X15621071Y-19083214D01*
X15606786Y-19068929D01*
X15621071Y-19054643D01*
X15621071Y-19083214D01*
X15821071Y-18783214D02*
X15849643Y-18783214D01*
X15878214Y-18797500D01*
X15892500Y-18811786D01*
X15906785Y-18840357D01*
X15921071Y-18897500D01*
X15921071Y-18968929D01*
X15906785Y-19026072D01*
X15892500Y-19054643D01*
X15878214Y-19068929D01*
X15849643Y-19083214D01*
X15821071Y-19083214D01*
X15792500Y-19068929D01*
X15778214Y-19054643D01*
X15763928Y-19026072D01*
X15749643Y-18968929D01*
X15749643Y-18897500D01*
X15763928Y-18840357D01*
X15778214Y-18811786D01*
X15792500Y-18797500D01*
X15821071Y-18783214D01*
X16021071Y-18783214D02*
X16206785Y-18783214D01*
X16106785Y-18897500D01*
X16149643Y-18897500D01*
X16178214Y-18911786D01*
X16192500Y-18926072D01*
X16206785Y-18954643D01*
X16206785Y-19026072D01*
X16192500Y-19054643D01*
X16178214Y-19068929D01*
X16149643Y-19083214D01*
X16063928Y-19083214D01*
X16035357Y-19068929D01*
X16021071Y-19054643D01*
X16349643Y-19083214D02*
X16406785Y-19083214D01*
X16435357Y-19068929D01*
X16449643Y-19054643D01*
X16478214Y-19011786D01*
X16492500Y-18954643D01*
X16492500Y-18840357D01*
X16478214Y-18811786D01*
X16463928Y-18797500D01*
X16435357Y-18783214D01*
X16378214Y-18783214D01*
X16349643Y-18797500D01*
X16335357Y-18811786D01*
X16321071Y-18840357D01*
X16321071Y-18911786D01*
X16335357Y-18940357D01*
X16349643Y-18954643D01*
X16378214Y-18968929D01*
X16435357Y-18968929D01*
X16463928Y-18954643D01*
X16478214Y-18940357D01*
X16492500Y-18911786D01*
X16606786Y-18783214D02*
X16606786Y-18840357D01*
X16721071Y-18783214D02*
X16721071Y-18840357D01*
X17163928Y-19197500D02*
X17149643Y-19183214D01*
X17121071Y-19140357D01*
X17106786Y-19111786D01*
X17092500Y-19068929D01*
X17078214Y-18997500D01*
X17078214Y-18940357D01*
X17092500Y-18868929D01*
X17106786Y-18826072D01*
X17121071Y-18797500D01*
X17149643Y-18754643D01*
X17163928Y-18740357D01*
X17263928Y-18811786D02*
X17278214Y-18797500D01*
X17306786Y-18783214D01*
X17378214Y-18783214D01*
X17406786Y-18797500D01*
X17421071Y-18811786D01*
X17435357Y-18840357D01*
X17435357Y-18868929D01*
X17421071Y-18911786D01*
X17249643Y-19083214D01*
X17435357Y-19083214D01*
X17692500Y-18783214D02*
X17635357Y-18783214D01*
X17606786Y-18797500D01*
X17592500Y-18811786D01*
X17563928Y-18854643D01*
X17549643Y-18911786D01*
X17549643Y-19026072D01*
X17563928Y-19054643D01*
X17578214Y-19068929D01*
X17606786Y-19083214D01*
X17663928Y-19083214D01*
X17692500Y-19068929D01*
X17706786Y-19054643D01*
X17721071Y-19026072D01*
X17721071Y-18954643D01*
X17706786Y-18926072D01*
X17692500Y-18911786D01*
X17663928Y-18897500D01*
X17606786Y-18897500D01*
X17578214Y-18911786D01*
X17563928Y-18926072D01*
X17549643Y-18954643D01*
X18078214Y-19083214D02*
X18078214Y-18783214D01*
X18206786Y-19083214D02*
X18206786Y-18926072D01*
X18192500Y-18897500D01*
X18163928Y-18883214D01*
X18121071Y-18883214D01*
X18092500Y-18897500D01*
X18078214Y-18911786D01*
X18392500Y-19083214D02*
X18363928Y-19068929D01*
X18349643Y-19054643D01*
X18335357Y-19026072D01*
X18335357Y-18940357D01*
X18349643Y-18911786D01*
X18363928Y-18897500D01*
X18392500Y-18883214D01*
X18435357Y-18883214D01*
X18463928Y-18897500D01*
X18478214Y-18911786D01*
X18492500Y-18940357D01*
X18492500Y-19026072D01*
X18478214Y-19054643D01*
X18463928Y-19068929D01*
X18435357Y-19083214D01*
X18392500Y-19083214D01*
X18663928Y-19083214D02*
X18635357Y-19068929D01*
X18621071Y-19040357D01*
X18621071Y-18783214D01*
X18892500Y-19068929D02*
X18863929Y-19083214D01*
X18806786Y-19083214D01*
X18778214Y-19068929D01*
X18763929Y-19040357D01*
X18763929Y-18926072D01*
X18778214Y-18897500D01*
X18806786Y-18883214D01*
X18863929Y-18883214D01*
X18892500Y-18897500D01*
X18906786Y-18926072D01*
X18906786Y-18954643D01*
X18763929Y-18983214D01*
X19021071Y-19068929D02*
X19049643Y-19083214D01*
X19106786Y-19083214D01*
X19135357Y-19068929D01*
X19149643Y-19040357D01*
X19149643Y-19026072D01*
X19135357Y-18997500D01*
X19106786Y-18983214D01*
X19063929Y-18983214D01*
X19035357Y-18968929D01*
X19021071Y-18940357D01*
X19021071Y-18926072D01*
X19035357Y-18897500D01*
X19063929Y-18883214D01*
X19106786Y-18883214D01*
X19135357Y-18897500D01*
X19249643Y-19197500D02*
X19263929Y-19183214D01*
X19292500Y-19140357D01*
X19306786Y-19111786D01*
X19321071Y-19068929D01*
X19335357Y-18997500D01*
X19335357Y-18940357D01*
X19321071Y-18868929D01*
X19306786Y-18826072D01*
X19292500Y-18797500D01*
X19263929Y-18754643D01*
X19249643Y-18740357D01*
X12392424Y-19293462D02*
X12492500Y-19393538D01*
X12492500Y-19293462D02*
X12392424Y-19393538D01*
X12442462Y-19293462D02*
X12442462Y-19393538D01*
X12392424Y-19343500D02*
X12492500Y-19343500D01*
X12921071Y-19479214D02*
X12749643Y-19479214D01*
X12835357Y-19479214D02*
X12835357Y-19179214D01*
X12806786Y-19222072D01*
X12778214Y-19250643D01*
X12749643Y-19264929D01*
X13049643Y-19450643D02*
X13063928Y-19464929D01*
X13049643Y-19479214D01*
X13035357Y-19464929D01*
X13049643Y-19450643D01*
X13049643Y-19479214D01*
X13249643Y-19179214D02*
X13278214Y-19179214D01*
X13306786Y-19193500D01*
X13321071Y-19207786D01*
X13335357Y-19236357D01*
X13349643Y-19293500D01*
X13349643Y-19364929D01*
X13335357Y-19422072D01*
X13321071Y-19450643D01*
X13306786Y-19464929D01*
X13278214Y-19479214D01*
X13249643Y-19479214D01*
X13221071Y-19464929D01*
X13206786Y-19450643D01*
X13192500Y-19422072D01*
X13178214Y-19364929D01*
X13178214Y-19293500D01*
X13192500Y-19236357D01*
X13206786Y-19207786D01*
X13221071Y-19193500D01*
X13249643Y-19179214D01*
X13535357Y-19179214D02*
X13563928Y-19179214D01*
X13592500Y-19193500D01*
X13606786Y-19207786D01*
X13621071Y-19236357D01*
X13635357Y-19293500D01*
X13635357Y-19364929D01*
X13621071Y-19422072D01*
X13606786Y-19450643D01*
X13592500Y-19464929D01*
X13563928Y-19479214D01*
X13535357Y-19479214D01*
X13506786Y-19464929D01*
X13492500Y-19450643D01*
X13478214Y-19422072D01*
X13463928Y-19364929D01*
X13463928Y-19293500D01*
X13478214Y-19236357D01*
X13492500Y-19207786D01*
X13506786Y-19193500D01*
X13535357Y-19179214D01*
X13763928Y-19479214D02*
X13763928Y-19279214D01*
X13763928Y-19307786D02*
X13778214Y-19293500D01*
X13806786Y-19279214D01*
X13849643Y-19279214D01*
X13878214Y-19293500D01*
X13892500Y-19322072D01*
X13892500Y-19479214D01*
X13892500Y-19322072D02*
X13906786Y-19293500D01*
X13935357Y-19279214D01*
X13978214Y-19279214D01*
X14006786Y-19293500D01*
X14021071Y-19322072D01*
X14021071Y-19479214D01*
X14163928Y-19479214D02*
X14163928Y-19279214D01*
X14163928Y-19307786D02*
X14178214Y-19293500D01*
X14206786Y-19279214D01*
X14249643Y-19279214D01*
X14278214Y-19293500D01*
X14292500Y-19322072D01*
X14292500Y-19479214D01*
X14292500Y-19322072D02*
X14306786Y-19293500D01*
X14335357Y-19279214D01*
X14378214Y-19279214D01*
X14406786Y-19293500D01*
X14421071Y-19322072D01*
X14421071Y-19479214D01*
X15006786Y-19164929D02*
X14749643Y-19550643D01*
X15392500Y-19179214D02*
X15421071Y-19179214D01*
X15449643Y-19193500D01*
X15463928Y-19207786D01*
X15478214Y-19236357D01*
X15492500Y-19293500D01*
X15492500Y-19364929D01*
X15478214Y-19422072D01*
X15463928Y-19450643D01*
X15449643Y-19464929D01*
X15421071Y-19479214D01*
X15392500Y-19479214D01*
X15363928Y-19464929D01*
X15349643Y-19450643D01*
X15335357Y-19422072D01*
X15321071Y-19364929D01*
X15321071Y-19293500D01*
X15335357Y-19236357D01*
X15349643Y-19207786D01*
X15363928Y-19193500D01*
X15392500Y-19179214D01*
X15621071Y-19450643D02*
X15635357Y-19464929D01*
X15621071Y-19479214D01*
X15606786Y-19464929D01*
X15621071Y-19450643D01*
X15621071Y-19479214D01*
X15821071Y-19179214D02*
X15849643Y-19179214D01*
X15878214Y-19193500D01*
X15892500Y-19207786D01*
X15906785Y-19236357D01*
X15921071Y-19293500D01*
X15921071Y-19364929D01*
X15906785Y-19422072D01*
X15892500Y-19450643D01*
X15878214Y-19464929D01*
X15849643Y-19479214D01*
X15821071Y-19479214D01*
X15792500Y-19464929D01*
X15778214Y-19450643D01*
X15763928Y-19422072D01*
X15749643Y-19364929D01*
X15749643Y-19293500D01*
X15763928Y-19236357D01*
X15778214Y-19207786D01*
X15792500Y-19193500D01*
X15821071Y-19179214D01*
X16021071Y-19179214D02*
X16206785Y-19179214D01*
X16106785Y-19293500D01*
X16149643Y-19293500D01*
X16178214Y-19307786D01*
X16192500Y-19322072D01*
X16206785Y-19350643D01*
X16206785Y-19422072D01*
X16192500Y-19450643D01*
X16178214Y-19464929D01*
X16149643Y-19479214D01*
X16063928Y-19479214D01*
X16035357Y-19464929D01*
X16021071Y-19450643D01*
X16349643Y-19479214D02*
X16406785Y-19479214D01*
X16435357Y-19464929D01*
X16449643Y-19450643D01*
X16478214Y-19407786D01*
X16492500Y-19350643D01*
X16492500Y-19236357D01*
X16478214Y-19207786D01*
X16463928Y-19193500D01*
X16435357Y-19179214D01*
X16378214Y-19179214D01*
X16349643Y-19193500D01*
X16335357Y-19207786D01*
X16321071Y-19236357D01*
X16321071Y-19307786D01*
X16335357Y-19336357D01*
X16349643Y-19350643D01*
X16378214Y-19364929D01*
X16435357Y-19364929D01*
X16463928Y-19350643D01*
X16478214Y-19336357D01*
X16492500Y-19307786D01*
X16606786Y-19179214D02*
X16606786Y-19236357D01*
X16721071Y-19179214D02*
X16721071Y-19236357D01*
X17163928Y-19593500D02*
X17149643Y-19579214D01*
X17121071Y-19536357D01*
X17106786Y-19507786D01*
X17092500Y-19464929D01*
X17078214Y-19393500D01*
X17078214Y-19336357D01*
X17092500Y-19264929D01*
X17106786Y-19222072D01*
X17121071Y-19193500D01*
X17149643Y-19150643D01*
X17163928Y-19136357D01*
X17406786Y-19279214D02*
X17406786Y-19479214D01*
X17335357Y-19164929D02*
X17263928Y-19379214D01*
X17449643Y-19379214D01*
X17692500Y-19179214D02*
X17635357Y-19179214D01*
X17606786Y-19193500D01*
X17592500Y-19207786D01*
X17563928Y-19250643D01*
X17549643Y-19307786D01*
X17549643Y-19422072D01*
X17563928Y-19450643D01*
X17578214Y-19464929D01*
X17606786Y-19479214D01*
X17663928Y-19479214D01*
X17692500Y-19464929D01*
X17706786Y-19450643D01*
X17721071Y-19422072D01*
X17721071Y-19350643D01*
X17706786Y-19322072D01*
X17692500Y-19307786D01*
X17663928Y-19293500D01*
X17606786Y-19293500D01*
X17578214Y-19307786D01*
X17563928Y-19322072D01*
X17549643Y-19350643D01*
X18078214Y-19479214D02*
X18078214Y-19179214D01*
X18206786Y-19479214D02*
X18206786Y-19322072D01*
X18192500Y-19293500D01*
X18163928Y-19279214D01*
X18121071Y-19279214D01*
X18092500Y-19293500D01*
X18078214Y-19307786D01*
X18392500Y-19479214D02*
X18363928Y-19464929D01*
X18349643Y-19450643D01*
X18335357Y-19422072D01*
X18335357Y-19336357D01*
X18349643Y-19307786D01*
X18363928Y-19293500D01*
X18392500Y-19279214D01*
X18435357Y-19279214D01*
X18463928Y-19293500D01*
X18478214Y-19307786D01*
X18492500Y-19336357D01*
X18492500Y-19422072D01*
X18478214Y-19450643D01*
X18463928Y-19464929D01*
X18435357Y-19479214D01*
X18392500Y-19479214D01*
X18663928Y-19479214D02*
X18635357Y-19464929D01*
X18621071Y-19436357D01*
X18621071Y-19179214D01*
X18892500Y-19464929D02*
X18863929Y-19479214D01*
X18806786Y-19479214D01*
X18778214Y-19464929D01*
X18763929Y-19436357D01*
X18763929Y-19322072D01*
X18778214Y-19293500D01*
X18806786Y-19279214D01*
X18863929Y-19279214D01*
X18892500Y-19293500D01*
X18906786Y-19322072D01*
X18906786Y-19350643D01*
X18763929Y-19379214D01*
X19021071Y-19464929D02*
X19049643Y-19479214D01*
X19106786Y-19479214D01*
X19135357Y-19464929D01*
X19149643Y-19436357D01*
X19149643Y-19422072D01*
X19135357Y-19393500D01*
X19106786Y-19379214D01*
X19063929Y-19379214D01*
X19035357Y-19364929D01*
X19021071Y-19336357D01*
X19021071Y-19322072D01*
X19035357Y-19293500D01*
X19063929Y-19279214D01*
X19106786Y-19279214D01*
X19135357Y-19293500D01*
X19249643Y-19593500D02*
X19263929Y-19579214D01*
X19292500Y-19536357D01*
X19306786Y-19507786D01*
X19321071Y-19464929D01*
X19335357Y-19393500D01*
X19335357Y-19336357D01*
X19321071Y-19264929D01*
X19306786Y-19222072D01*
X19292500Y-19193500D01*
X19263929Y-19150643D01*
X19249643Y-19136357D01*
X12187700Y-19587100D02*
X12492500Y-19891900D01*
X12492500Y-19587100D02*
X12187700Y-19891900D01*
X12447864Y-19847264D02*
X12447864Y-19631736D01*
X12232336Y-19631736D01*
X12232336Y-19847264D01*
X12447864Y-19847264D01*
X12735357Y-19575214D02*
X12921071Y-19575214D01*
X12821071Y-19689500D01*
X12863928Y-19689500D01*
X12892500Y-19703786D01*
X12906786Y-19718072D01*
X12921071Y-19746643D01*
X12921071Y-19818072D01*
X12906786Y-19846643D01*
X12892500Y-19860929D01*
X12863928Y-19875214D01*
X12778214Y-19875214D01*
X12749643Y-19860929D01*
X12735357Y-19846643D01*
X13049643Y-19846643D02*
X13063928Y-19860929D01*
X13049643Y-19875214D01*
X13035357Y-19860929D01*
X13049643Y-19846643D01*
X13049643Y-19875214D01*
X13249643Y-19575214D02*
X13278214Y-19575214D01*
X13306786Y-19589500D01*
X13321071Y-19603786D01*
X13335357Y-19632357D01*
X13349643Y-19689500D01*
X13349643Y-19760929D01*
X13335357Y-19818072D01*
X13321071Y-19846643D01*
X13306786Y-19860929D01*
X13278214Y-19875214D01*
X13249643Y-19875214D01*
X13221071Y-19860929D01*
X13206786Y-19846643D01*
X13192500Y-19818072D01*
X13178214Y-19760929D01*
X13178214Y-19689500D01*
X13192500Y-19632357D01*
X13206786Y-19603786D01*
X13221071Y-19589500D01*
X13249643Y-19575214D01*
X13621071Y-19575214D02*
X13478214Y-19575214D01*
X13463928Y-19718072D01*
X13478214Y-19703786D01*
X13506786Y-19689500D01*
X13578214Y-19689500D01*
X13606786Y-19703786D01*
X13621071Y-19718072D01*
X13635357Y-19746643D01*
X13635357Y-19818072D01*
X13621071Y-19846643D01*
X13606786Y-19860929D01*
X13578214Y-19875214D01*
X13506786Y-19875214D01*
X13478214Y-19860929D01*
X13463928Y-19846643D01*
X13763928Y-19875214D02*
X13763928Y-19675214D01*
X13763928Y-19703786D02*
X13778214Y-19689500D01*
X13806786Y-19675214D01*
X13849643Y-19675214D01*
X13878214Y-19689500D01*
X13892500Y-19718072D01*
X13892500Y-19875214D01*
X13892500Y-19718072D02*
X13906786Y-19689500D01*
X13935357Y-19675214D01*
X13978214Y-19675214D01*
X14006786Y-19689500D01*
X14021071Y-19718072D01*
X14021071Y-19875214D01*
X14163928Y-19875214D02*
X14163928Y-19675214D01*
X14163928Y-19703786D02*
X14178214Y-19689500D01*
X14206786Y-19675214D01*
X14249643Y-19675214D01*
X14278214Y-19689500D01*
X14292500Y-19718072D01*
X14292500Y-19875214D01*
X14292500Y-19718072D02*
X14306786Y-19689500D01*
X14335357Y-19675214D01*
X14378214Y-19675214D01*
X14406786Y-19689500D01*
X14421071Y-19718072D01*
X14421071Y-19875214D01*
X15006786Y-19560929D02*
X14749643Y-19946643D01*
X15392500Y-19575214D02*
X15421071Y-19575214D01*
X15449643Y-19589500D01*
X15463928Y-19603786D01*
X15478214Y-19632357D01*
X15492500Y-19689500D01*
X15492500Y-19760929D01*
X15478214Y-19818072D01*
X15463928Y-19846643D01*
X15449643Y-19860929D01*
X15421071Y-19875214D01*
X15392500Y-19875214D01*
X15363928Y-19860929D01*
X15349643Y-19846643D01*
X15335357Y-19818072D01*
X15321071Y-19760929D01*
X15321071Y-19689500D01*
X15335357Y-19632357D01*
X15349643Y-19603786D01*
X15363928Y-19589500D01*
X15392500Y-19575214D01*
X15621071Y-19846643D02*
X15635357Y-19860929D01*
X15621071Y-19875214D01*
X15606786Y-19860929D01*
X15621071Y-19846643D01*
X15621071Y-19875214D01*
X15921071Y-19875214D02*
X15749643Y-19875214D01*
X15835357Y-19875214D02*
X15835357Y-19575214D01*
X15806785Y-19618072D01*
X15778214Y-19646643D01*
X15749643Y-19660929D01*
X16035357Y-19603786D02*
X16049643Y-19589500D01*
X16078214Y-19575214D01*
X16149643Y-19575214D01*
X16178214Y-19589500D01*
X16192500Y-19603786D01*
X16206785Y-19632357D01*
X16206785Y-19660929D01*
X16192500Y-19703786D01*
X16021071Y-19875214D01*
X16206785Y-19875214D01*
X16392500Y-19575214D02*
X16421071Y-19575214D01*
X16449643Y-19589500D01*
X16463928Y-19603786D01*
X16478214Y-19632357D01*
X16492500Y-19689500D01*
X16492500Y-19760929D01*
X16478214Y-19818072D01*
X16463928Y-19846643D01*
X16449643Y-19860929D01*
X16421071Y-19875214D01*
X16392500Y-19875214D01*
X16363928Y-19860929D01*
X16349643Y-19846643D01*
X16335357Y-19818072D01*
X16321071Y-19760929D01*
X16321071Y-19689500D01*
X16335357Y-19632357D01*
X16349643Y-19603786D01*
X16363928Y-19589500D01*
X16392500Y-19575214D01*
X16606786Y-19575214D02*
X16606786Y-19632357D01*
X16721071Y-19575214D02*
X16721071Y-19632357D01*
X17163928Y-19989500D02*
X17149643Y-19975214D01*
X17121071Y-19932357D01*
X17106786Y-19903786D01*
X17092500Y-19860929D01*
X17078214Y-19789500D01*
X17078214Y-19732357D01*
X17092500Y-19660929D01*
X17106786Y-19618072D01*
X17121071Y-19589500D01*
X17149643Y-19546643D01*
X17163928Y-19532357D01*
X17406786Y-19675214D02*
X17406786Y-19875214D01*
X17335357Y-19560929D02*
X17263928Y-19775214D01*
X17449643Y-19775214D01*
X17792500Y-19875214D02*
X17792500Y-19575214D01*
X17921071Y-19875214D02*
X17921071Y-19718072D01*
X17906786Y-19689500D01*
X17878214Y-19675214D01*
X17835357Y-19675214D01*
X17806786Y-19689500D01*
X17792500Y-19703786D01*
X18106786Y-19875214D02*
X18078214Y-19860929D01*
X18063928Y-19846643D01*
X18049643Y-19818072D01*
X18049643Y-19732357D01*
X18063928Y-19703786D01*
X18078214Y-19689500D01*
X18106786Y-19675214D01*
X18149643Y-19675214D01*
X18178214Y-19689500D01*
X18192500Y-19703786D01*
X18206786Y-19732357D01*
X18206786Y-19818072D01*
X18192500Y-19846643D01*
X18178214Y-19860929D01*
X18149643Y-19875214D01*
X18106786Y-19875214D01*
X18378214Y-19875214D02*
X18349643Y-19860929D01*
X18335357Y-19832357D01*
X18335357Y-19575214D01*
X18606786Y-19860929D02*
X18578214Y-19875214D01*
X18521071Y-19875214D01*
X18492500Y-19860929D01*
X18478214Y-19832357D01*
X18478214Y-19718072D01*
X18492500Y-19689500D01*
X18521071Y-19675214D01*
X18578214Y-19675214D01*
X18606786Y-19689500D01*
X18621071Y-19718072D01*
X18621071Y-19746643D01*
X18478214Y-19775214D01*
X18735357Y-19860929D02*
X18763929Y-19875214D01*
X18821071Y-19875214D01*
X18849643Y-19860929D01*
X18863929Y-19832357D01*
X18863929Y-19818072D01*
X18849643Y-19789500D01*
X18821071Y-19775214D01*
X18778214Y-19775214D01*
X18749643Y-19760929D01*
X18735357Y-19732357D01*
X18735357Y-19718072D01*
X18749643Y-19689500D01*
X18778214Y-19675214D01*
X18821071Y-19675214D01*
X18849643Y-19689500D01*
X18963928Y-19989500D02*
X18978214Y-19975214D01*
X19006786Y-19932357D01*
X19021071Y-19903786D01*
X19035357Y-19860929D01*
X19049643Y-19789500D01*
X19049643Y-19732357D01*
X19035357Y-19660929D01*
X19021071Y-19618072D01*
X19006786Y-19589500D01*
X18978214Y-19546643D01*
X18963928Y-19532357D01*
M02*
