M48
;DRILL file {KiCad 4.0.7-e1-6374~58~ubuntu14.04.1} date Fri Aug  4 16:12:57 2017
;FORMAT={-:-/ absolute / metric / decimal}
FMAT,2
METRIC,TZ
T1C0.300
T2C0.400
T3C0.500
T4C0.800
T5C0.890
T6C1.000
T7C1.001
T8C3.048
%
G90
G05
M71
T1
X138.049Y-71.501
X142.875Y-156.21
X143.002Y-71.628
X149.733Y-69.469
X154.305Y-100.965
X154.305Y-115.57
X154.305Y-130.175
X154.305Y-144.78
X157.861Y-72.771
X161.925Y-156.21
X168.275Y-79.629
X168.275Y-94.488
X168.275Y-109.093
X168.275Y-123.825
X170.688Y-94.488
X170.815Y-109.093
X170.815Y-123.825
X171.196Y-79.629
X172.72Y-110.49
X176.022Y-70.612
X177.165Y-144.145
X177.673Y-77.343
X177.673Y-78.105
X178.435Y-78.867
X179.07Y-77.343
X179.705Y-71.12
X179.959Y-78.105
X179.959Y-78.867
X180.34Y-121.285
X180.975Y-74.93
X185.547Y-64.77
X187.706Y-79.883
X187.706Y-81.915
X187.706Y-90.805
X188.595Y-81.28
X188.595Y-90.17
X189.865Y-101.6
X189.865Y-114.3
X189.865Y-127.
X190.754Y-83.566
X192.214Y-147.701
X192.532Y-137.541
X192.532Y-143.51
X193.294Y-146.812
X193.421Y-136.652
X193.58Y-142.78
X194.691Y-81.915
X194.881Y-129.35
X194.945Y-78.105
X195.072Y-138.43
X195.072Y-140.589
X195.199Y-132.969
X195.199Y-150.114
X196.469Y-151.003
X197.104Y-133.731
X197.231Y-151.638
X197.485Y-142.78
X198.12Y-137.033
X198.183Y-151.003
X199.009Y-136.334
X199.009Y-145.161
X199.009Y-151.701
X199.746Y-137.058
X200.558Y-138.074
X200.66Y-151.638
X201.422Y-142.113
X201.422Y-142.875
X201.422Y-144.38
X201.422Y-146.304
X201.422Y-151.003
X202.311Y-134.493
X203.327Y-93.853
X203.505Y-120.345
X203.556Y-107.696
X204.597Y-138.049
X204.851Y-144.399
X205.994Y-137.033
X206.248Y-96.774
X206.375Y-144.78
X206.375Y-146.05
X207.264Y-136.144
X207.391Y-143.764
X208.28Y-135.382
X209.169Y-107.569
X216.662Y-77.724
X217.043Y-75.692
X217.043Y-90.297
X217.17Y-102.997
X218.44Y-134.493
X218.694Y-75.819
X219.456Y-94.361
X219.456Y-98.552
X219.456Y-102.489
X219.456Y-107.188
X219.456Y-111.252
X219.456Y-115.189
X219.583Y-119.888
X219.583Y-123.952
X219.583Y-128.016
X220.091Y-77.216
X220.091Y-92.075
X220.091Y-104.775
X220.091Y-117.475
X220.091Y-130.175
T2
X133.985Y-60.96
X133.985Y-158.75
X134.62Y-77.47
X134.62Y-92.075
X134.62Y-106.68
X134.62Y-121.285
X134.62Y-135.89
X137.033Y-77.47
X137.16Y-92.075
X137.16Y-106.68
X137.16Y-121.285
X137.16Y-135.89
X144.145Y-60.96
X144.145Y-158.75
X147.32Y-82.55
X147.32Y-97.155
X147.32Y-111.76
X147.32Y-126.365
X147.32Y-140.97
X154.305Y-60.96
X154.305Y-86.36
X154.305Y-158.75
X164.465Y-60.96
X165.735Y-158.75
X166.37Y-88.9
X166.88Y-157.193
X168.275Y-138.43
X168.91Y-83.185
X170.18Y-153.035
X170.18Y-155.575
X170.18Y-156.845
X170.688Y-130.302
X170.815Y-97.155
X170.815Y-99.695
X170.815Y-102.87
X170.815Y-111.76
X170.815Y-114.3
X170.815Y-117.475
X170.815Y-138.43
X175.26Y-60.96
X177.8Y-86.36
X178.435Y-158.75
X179.07Y-91.44
X179.705Y-90.17
X180.34Y-88.9
X186.055Y-60.96
X186.182Y-80.899
X186.309Y-83.058
X186.69Y-158.75
X189.484Y-106.172
X194.818Y-105.537
X196.215Y-60.96
X196.215Y-158.75
X198.628Y-79.375
X202.565Y-131.699
X206.375Y-60.96
X206.375Y-158.75
X209.423Y-121.158
X209.931Y-133.477
X214.63Y-92.075
X214.63Y-104.775
X214.757Y-117.475
X214.757Y-130.175
X216.535Y-60.96
X216.535Y-158.75
X217.17Y-115.57
X217.17Y-128.143
X219.71Y-69.469
T3
X126.365Y-69.85
X126.365Y-80.01
X126.365Y-90.17
X126.365Y-100.33
X126.365Y-110.49
X126.365Y-120.65
X126.365Y-130.81
X126.365Y-140.97
X126.365Y-151.13
X130.175Y-71.755
X130.175Y-78.74
X130.175Y-86.36
X130.175Y-92.71
X130.175Y-100.965
X130.175Y-107.95
X130.175Y-115.57
X130.175Y-121.92
X130.175Y-130.175
X130.556Y-143.764
X132.08Y-145.637
X132.08Y-149.637
X135.255Y-63.5
X158.075Y-63.5
X172.085Y-149.987
X178.943Y-149.987
X183.896Y-130.302
X185.611Y-103.251
X185.611Y-122.809
X204.534Y-113.983
X204.534Y-126.873
X209.359Y-126.873
X209.423Y-113.983
X224.155Y-60.96
X224.155Y-69.85
X224.155Y-80.01
X224.155Y-90.17
X224.155Y-100.33
X224.155Y-110.49
X224.155Y-120.65
X224.155Y-130.81
X224.155Y-140.97
X224.155Y-151.13
T4
X178.689Y-153.956
X178.689Y-155.956
X211.455Y-139.7
X213.455Y-139.7
T5
X172.72Y-81.28
X172.72Y-88.265
X172.72Y-95.885
X172.72Y-102.87
X172.72Y-117.475
X172.72Y-125.095
X172.72Y-132.08
T6
X167.64Y-158.493
X170.18Y-158.493
X172.72Y-158.493
X178.435Y-81.28
X178.435Y-83.82
X181.61Y-114.3
X181.61Y-116.84
X183.642Y-154.686
X186.182Y-154.686
X187.96Y-140.97
X187.96Y-143.51
X187.96Y-146.05
X190.5Y-140.97
X190.5Y-143.51
X190.5Y-146.05
X195.58Y-154.686
X198.12Y-154.686
X200.66Y-154.686
X208.28Y-154.305
X209.423Y-145.923
X210.82Y-154.305
X211.963Y-145.923
X213.36Y-154.305
X214.503Y-145.923
X217.043Y-145.923
X219.583Y-145.923
T7
X140.335Y-75.565
X140.335Y-90.17
X140.335Y-104.775
X140.335Y-119.38
X140.335Y-133.985
X140.335Y-148.59
X145.415Y-80.645
X145.415Y-95.25
X145.415Y-109.855
X145.415Y-124.46
X145.415Y-139.065
X145.415Y-153.67
X153.035Y-75.565
X153.035Y-90.17
X153.035Y-104.775
X153.035Y-119.38
X153.035Y-133.985
X153.035Y-148.59
X158.115Y-80.645
X158.115Y-95.25
X158.115Y-109.855
X158.115Y-124.46
X158.115Y-139.065
X158.115Y-153.67
X185.42Y-69.215
X190.5Y-74.295
X195.58Y-74.295
X198.755Y-86.36
X198.755Y-99.06
X198.755Y-111.76
X198.755Y-124.46
X200.66Y-69.215
X203.835Y-91.44
X203.835Y-104.14
X203.835Y-116.84
X203.835Y-129.54
X209.55Y-69.215
X210.185Y-91.44
X210.185Y-104.14
X210.185Y-116.84
X210.185Y-129.54
X214.63Y-74.295
X215.265Y-86.36
X215.265Y-99.06
X215.265Y-111.76
X215.265Y-124.46
T8
X130.175Y-64.135
X130.175Y-154.94
X220.345Y-64.135
X220.345Y-154.94
T0
M30
