G04 #@! TF.FileFunction,Soldermask,Bot*
%FSLAX46Y46*%
G04 Gerber Fmt 4.6, Leading zero omitted, Abs format (unit mm)*
G04 Created by KiCad (PCBNEW 4.0.7-e1-6374~58~ubuntu14.04.1) date Fri Aug  4 16:13:01 2017*
%MOMM*%
%LPD*%
G01*
G04 APERTURE LIST*
%ADD10C,0.100000*%
%ADD11R,2.400000X2.000000*%
%ADD12R,2.000000X2.400000*%
%ADD13R,1.200100X1.200100*%
%ADD14R,2.100000X2.400000*%
%ADD15R,2.400000X2.100000*%
%ADD16R,2.100000X2.100000*%
%ADD17O,2.100000X2.100000*%
%ADD18C,4.464000*%
%ADD19R,0.800000X1.900000*%
%ADD20R,1.900000X0.800000*%
%ADD21R,3.700000X5.400000*%
%ADD22C,2.250000*%
%ADD23C,2.940000*%
%ADD24R,2.000000X2.000000*%
%ADD25C,2.000000*%
%ADD26C,0.254000*%
G04 APERTURE END LIST*
D10*
D11*
X160115000Y-150114000D03*
X156115000Y-150114000D03*
X143288000Y-148590000D03*
X147288000Y-148590000D03*
D12*
X163195000Y-149130000D03*
X163195000Y-153130000D03*
D11*
X155162000Y-153289000D03*
X151162000Y-153289000D03*
X142208000Y-151765000D03*
X138208000Y-151765000D03*
X141065000Y-144780000D03*
X137065000Y-144780000D03*
X139795000Y-154940000D03*
X135795000Y-154940000D03*
X141065000Y-79375000D03*
X137065000Y-79375000D03*
X141065000Y-93980000D03*
X137065000Y-93980000D03*
X141065000Y-108585000D03*
X137065000Y-108585000D03*
X141065000Y-123190000D03*
X137065000Y-123190000D03*
X141065000Y-137795000D03*
X137065000Y-137795000D03*
X143415000Y-75565000D03*
X147415000Y-75565000D03*
X143415000Y-90170000D03*
X147415000Y-90170000D03*
X143415000Y-104775000D03*
X147415000Y-104775000D03*
X143415000Y-119380000D03*
X147415000Y-119380000D03*
X143415000Y-133985000D03*
X147415000Y-133985000D03*
X149765000Y-67945000D03*
X153765000Y-67945000D03*
X156750000Y-86360000D03*
X160750000Y-86360000D03*
X156877000Y-100965000D03*
X160877000Y-100965000D03*
X156750000Y-115570000D03*
X160750000Y-115570000D03*
X156750000Y-130175000D03*
X160750000Y-130175000D03*
X156877000Y-144780000D03*
X160877000Y-144780000D03*
X149130000Y-95250000D03*
X153130000Y-95250000D03*
X149765000Y-109855000D03*
X153765000Y-109855000D03*
X149765000Y-124460000D03*
X153765000Y-124460000D03*
X149765000Y-139065000D03*
X153765000Y-139065000D03*
X149130000Y-80645000D03*
X153130000Y-80645000D03*
X160115000Y-76835000D03*
X156115000Y-76835000D03*
X160115000Y-91440000D03*
X156115000Y-91440000D03*
X160115000Y-106045000D03*
X156115000Y-106045000D03*
X160115000Y-120650000D03*
X156115000Y-120650000D03*
X160115000Y-135255000D03*
X156115000Y-135255000D03*
D12*
X176022000Y-72168000D03*
X176022000Y-76168000D03*
D11*
X178340000Y-69215000D03*
X182340000Y-69215000D03*
X187420000Y-74295000D03*
X183420000Y-74295000D03*
X188754000Y-69215000D03*
X192754000Y-69215000D03*
X190532000Y-86360000D03*
X194532000Y-86360000D03*
X190532000Y-99060000D03*
X194532000Y-99060000D03*
X190405000Y-111760000D03*
X194405000Y-111760000D03*
X190405000Y-124460000D03*
X194405000Y-124460000D03*
X198787000Y-74295000D03*
X202787000Y-74295000D03*
X200882000Y-91440000D03*
X196882000Y-91440000D03*
X200882000Y-104140000D03*
X196882000Y-104140000D03*
X200882000Y-116840000D03*
X196882000Y-116840000D03*
X200755000Y-129540000D03*
X196755000Y-129540000D03*
X206915000Y-74295000D03*
X210915000Y-74295000D03*
X202470000Y-85725000D03*
X206470000Y-85725000D03*
X202470000Y-98425000D03*
X206470000Y-98425000D03*
X202470000Y-111125000D03*
X206470000Y-111125000D03*
X202470000Y-123825000D03*
X206470000Y-123825000D03*
D13*
X141285000Y-71485760D03*
X139385000Y-71485760D03*
X140335000Y-69486780D03*
X165420000Y-81549240D03*
X167320000Y-81549240D03*
X166370000Y-83548220D03*
X165420000Y-96154240D03*
X167320000Y-96154240D03*
X166370000Y-98153220D03*
X165420000Y-110759240D03*
X167320000Y-110759240D03*
X166370000Y-112758220D03*
X165420000Y-125364240D03*
X167320000Y-125364240D03*
X166370000Y-127363220D03*
X165420000Y-139969240D03*
X167320000Y-139969240D03*
X166370000Y-141968220D03*
D14*
X133667500Y-145637500D03*
X133667500Y-149637500D03*
X130492500Y-145637500D03*
X130492500Y-149637500D03*
D15*
X153765000Y-71120000D03*
X149765000Y-71120000D03*
X168370000Y-86360000D03*
X164370000Y-86360000D03*
X168370000Y-100965000D03*
X164370000Y-100965000D03*
X168370000Y-115570000D03*
X164370000Y-115570000D03*
X168370000Y-130175000D03*
X164370000Y-130175000D03*
X168370000Y-144780000D03*
X164370000Y-144780000D03*
D14*
X173990000Y-145955000D03*
X173990000Y-149955000D03*
X177165000Y-145955000D03*
X177165000Y-149955000D03*
D11*
X209518000Y-65659000D03*
X205518000Y-65659000D03*
D12*
X207010000Y-93440000D03*
X207010000Y-89440000D03*
X207010000Y-106140000D03*
X207010000Y-102140000D03*
X207010000Y-118840000D03*
X207010000Y-114840000D03*
X207010000Y-131540000D03*
X207010000Y-127540000D03*
D11*
X212630000Y-69215000D03*
X216630000Y-69215000D03*
D16*
X181610000Y-114300000D03*
D17*
X181610000Y-116840000D03*
D18*
X130175000Y-64135000D03*
X220345000Y-64135000D03*
X130175000Y-154940000D03*
D15*
X170021000Y-64770000D03*
X166021000Y-64770000D03*
D19*
X178420000Y-72965000D03*
X179070000Y-72965000D03*
X179720000Y-72965000D03*
X179720000Y-75625000D03*
X179070000Y-75625000D03*
X178420000Y-75625000D03*
D20*
X193100000Y-81265000D03*
X193100000Y-81915000D03*
X193100000Y-82565000D03*
X190440000Y-82565000D03*
X190440000Y-81915000D03*
X190440000Y-81265000D03*
X193100000Y-90155000D03*
X193100000Y-90805000D03*
X193100000Y-91455000D03*
X190440000Y-91455000D03*
X190440000Y-90805000D03*
X190440000Y-90155000D03*
X193100000Y-102855000D03*
X193100000Y-103505000D03*
X193100000Y-104155000D03*
X190440000Y-104155000D03*
X190440000Y-103505000D03*
X190440000Y-102855000D03*
X193100000Y-115555000D03*
X193100000Y-116205000D03*
X193100000Y-116855000D03*
X190440000Y-116855000D03*
X190440000Y-116205000D03*
X190440000Y-115555000D03*
X193100000Y-128255000D03*
X193100000Y-128905000D03*
X193100000Y-129555000D03*
X190440000Y-129555000D03*
X190440000Y-128905000D03*
X190440000Y-128255000D03*
D19*
X218425000Y-71695000D03*
X219075000Y-71695000D03*
X219725000Y-71695000D03*
X219725000Y-74355000D03*
X219075000Y-74355000D03*
X218425000Y-74355000D03*
D20*
X215840000Y-92725000D03*
X215840000Y-92075000D03*
X215840000Y-91425000D03*
X218500000Y-91425000D03*
X218500000Y-92075000D03*
X218500000Y-92725000D03*
X215840000Y-105425000D03*
X215840000Y-104775000D03*
X215840000Y-104125000D03*
X218500000Y-104125000D03*
X218500000Y-104775000D03*
X218500000Y-105425000D03*
X215840000Y-118125000D03*
X215840000Y-117475000D03*
X215840000Y-116825000D03*
X218500000Y-116825000D03*
X218500000Y-117475000D03*
X218500000Y-118125000D03*
X215840000Y-130825000D03*
X215840000Y-130175000D03*
X215840000Y-129525000D03*
X218500000Y-129525000D03*
X218500000Y-130175000D03*
X218500000Y-130825000D03*
D12*
X213233000Y-89440000D03*
X213233000Y-93440000D03*
X213233000Y-102140000D03*
X213233000Y-106140000D03*
D21*
X173480000Y-157193000D03*
X166880000Y-157193000D03*
D22*
X170180000Y-158493000D03*
X172720000Y-158493000D03*
X167640000Y-158493000D03*
D18*
X220345000Y-154940000D03*
D23*
X140335000Y-148590000D03*
X145415000Y-153670000D03*
X158115000Y-153670000D03*
X153035000Y-148590000D03*
X145415000Y-139065000D03*
X140335000Y-133985000D03*
X158115000Y-139065000D03*
X153035000Y-133985000D03*
X145415000Y-124460000D03*
X140335000Y-119380000D03*
X158115000Y-124460000D03*
X153035000Y-119380000D03*
X145415000Y-109855000D03*
X140335000Y-104775000D03*
X158115000Y-109855000D03*
X153035000Y-104775000D03*
X145415000Y-95250000D03*
X140335000Y-90170000D03*
X158115000Y-95250000D03*
X153035000Y-90170000D03*
X145415000Y-80645000D03*
X140335000Y-75565000D03*
X158115000Y-80645000D03*
X153035000Y-75565000D03*
X200660000Y-69215000D03*
X195580000Y-74295000D03*
X203835000Y-91440000D03*
X198755000Y-86360000D03*
X215265000Y-86360000D03*
X210185000Y-91440000D03*
X203835000Y-104140000D03*
X198755000Y-99060000D03*
X215265000Y-99060000D03*
X210185000Y-104140000D03*
X215265000Y-111760000D03*
X210185000Y-116840000D03*
X203835000Y-116840000D03*
X198755000Y-111760000D03*
X203835000Y-129540000D03*
X198755000Y-124460000D03*
X215265000Y-124460000D03*
X210185000Y-129540000D03*
X214630000Y-74295000D03*
X209550000Y-69215000D03*
D12*
X213233000Y-114840000D03*
X213233000Y-118840000D03*
X213233000Y-127540000D03*
X213233000Y-131540000D03*
D11*
X197390000Y-145415000D03*
X201390000Y-145415000D03*
D24*
X211455000Y-139700000D03*
D25*
X213455000Y-139700000D03*
D24*
X178689000Y-155956000D03*
D25*
X178689000Y-153956000D03*
D16*
X186182000Y-154686000D03*
D17*
X183642000Y-154686000D03*
D16*
X187960000Y-140970000D03*
D17*
X190500000Y-140970000D03*
X187960000Y-143510000D03*
X190500000Y-143510000D03*
X187960000Y-146050000D03*
X190500000Y-146050000D03*
D16*
X219583000Y-145923000D03*
D17*
X217043000Y-145923000D03*
X214503000Y-145923000D03*
X211963000Y-145923000D03*
X209423000Y-145923000D03*
D16*
X195580000Y-154686000D03*
D17*
X198120000Y-154686000D03*
X200660000Y-154686000D03*
D16*
X178435000Y-83820000D03*
D17*
X178435000Y-81280000D03*
D16*
X213360000Y-154305000D03*
D17*
X210820000Y-154305000D03*
X208280000Y-154305000D03*
D23*
X190500000Y-74295000D03*
X185420000Y-69215000D03*
D26*
G36*
X127381000Y-159893000D02*
X125095000Y-159893000D01*
X125095000Y-60071000D01*
X127381000Y-60071000D01*
X127381000Y-159893000D01*
X127381000Y-159893000D01*
G37*
X127381000Y-159893000D02*
X125095000Y-159893000D01*
X125095000Y-60071000D01*
X127381000Y-60071000D01*
X127381000Y-159893000D01*
G36*
X224917000Y-159893000D02*
X222631000Y-159893000D01*
X222631000Y-60071000D01*
X224917000Y-60071000D01*
X224917000Y-159893000D01*
X224917000Y-159893000D01*
G37*
X224917000Y-159893000D02*
X222631000Y-159893000D01*
X222631000Y-60071000D01*
X224917000Y-60071000D01*
X224917000Y-159893000D01*
M02*
