G04 #@! TF.FileFunction,Soldermask,Top*
%FSLAX46Y46*%
G04 Gerber Fmt 4.6, Leading zero omitted, Abs format (unit mm)*
G04 Created by KiCad (PCBNEW 4.0.7-e1-6374~58~ubuntu14.04.1) date Fri Aug  4 16:13:01 2017*
%MOMM*%
%LPD*%
G01*
G04 APERTURE LIST*
%ADD10C,0.100000*%
%ADD11R,3.400000X3.400000*%
%ADD12R,2.000000X2.400000*%
%ADD13R,2.400000X2.000000*%
%ADD14R,1.997660X2.200860*%
%ADD15R,2.200860X1.997660*%
%ADD16R,1.200100X1.200100*%
%ADD17R,2.100000X2.400000*%
%ADD18R,2.400000X2.100000*%
%ADD19R,3.900000X2.200000*%
%ADD20R,2.200000X3.900000*%
%ADD21R,2.100000X3.700000*%
%ADD22R,2.100000X2.100000*%
%ADD23O,2.100000X2.100000*%
%ADD24C,4.464000*%
%ADD25R,2.000000X0.950000*%
%ADD26R,0.950000X2.000000*%
%ADD27R,2.000000X5.400000*%
%ADD28R,3.700000X5.400000*%
%ADD29C,2.250000*%
%ADD30C,2.940000*%
%ADD31R,2.000000X2.000000*%
%ADD32C,2.000000*%
%ADD33R,2.200000X2.900000*%
%ADD34R,1.900000X1.900000*%
%ADD35C,0.254000*%
G04 APERTURE END LIST*
D10*
D11*
X146225000Y-85979000D03*
X152225000Y-85979000D03*
D12*
X182753000Y-135858000D03*
X182753000Y-131858000D03*
X162560000Y-91091000D03*
X162560000Y-95091000D03*
X161925000Y-120428000D03*
X161925000Y-124428000D03*
X161925000Y-135160000D03*
X161925000Y-139160000D03*
D13*
X166910000Y-147701000D03*
X170910000Y-147701000D03*
D12*
X170815000Y-81185000D03*
X170815000Y-85185000D03*
D13*
X169640000Y-128270000D03*
X165640000Y-128270000D03*
D14*
X136039860Y-67310000D03*
X133200140Y-67310000D03*
D15*
X134620000Y-82699860D03*
X134620000Y-79860140D03*
X134620000Y-97304860D03*
X134620000Y-94465140D03*
X134620000Y-111909860D03*
X134620000Y-109070140D03*
X134620000Y-126514860D03*
X134620000Y-123675140D03*
X134620000Y-141119860D03*
X134620000Y-138280140D03*
D14*
X219859860Y-141605000D03*
X217020140Y-141605000D03*
X185823860Y-77978000D03*
X182984140Y-77978000D03*
X193189860Y-95250000D03*
X190350140Y-95250000D03*
D16*
X176215000Y-118475760D03*
X178115000Y-118475760D03*
X177165000Y-116476780D03*
X190230760Y-65720000D03*
X190230760Y-63820000D03*
X188231780Y-64770000D03*
D17*
X133667500Y-145637500D03*
X133667500Y-149637500D03*
X130492500Y-145637500D03*
X130492500Y-149637500D03*
D18*
X142970000Y-67310000D03*
X138970000Y-67310000D03*
X141700000Y-82550000D03*
X137700000Y-82550000D03*
X141700000Y-97155000D03*
X137700000Y-97155000D03*
X141700000Y-111760000D03*
X137700000Y-111760000D03*
X141700000Y-126365000D03*
X137700000Y-126365000D03*
X141700000Y-140970000D03*
X137700000Y-140970000D03*
X189325000Y-135890000D03*
X185325000Y-135890000D03*
D17*
X177165000Y-145955000D03*
X177165000Y-149955000D03*
X173990000Y-145955000D03*
X173990000Y-149955000D03*
X219710000Y-134525000D03*
X219710000Y-138525000D03*
D18*
X181642000Y-93091000D03*
X185642000Y-93091000D03*
X181642000Y-95758000D03*
X185642000Y-95758000D03*
X181642000Y-98298000D03*
X185642000Y-98298000D03*
X181642000Y-100838000D03*
X185642000Y-100838000D03*
D19*
X137120000Y-89535000D03*
X132120000Y-89535000D03*
X142835000Y-63500000D03*
X137835000Y-63500000D03*
X137120000Y-74930000D03*
X132120000Y-74930000D03*
X137120000Y-104140000D03*
X132120000Y-104140000D03*
X137120000Y-118745000D03*
X132120000Y-118745000D03*
X137755000Y-132080000D03*
X132755000Y-132080000D03*
X153075000Y-63500000D03*
X158075000Y-63500000D03*
X166410000Y-76835000D03*
X171410000Y-76835000D03*
X166410000Y-91440000D03*
X171410000Y-91440000D03*
X166410000Y-106045000D03*
X171410000Y-106045000D03*
X166410000Y-120650000D03*
X171410000Y-120650000D03*
X165267000Y-135255000D03*
X170267000Y-135255000D03*
D20*
X177101500Y-97623000D03*
X177101500Y-92623000D03*
D21*
X186690000Y-126028000D03*
X186690000Y-131528000D03*
X184785000Y-119590000D03*
X184785000Y-114090000D03*
D22*
X181610000Y-114300000D03*
D23*
X181610000Y-116840000D03*
D12*
X162433000Y-76740000D03*
X162433000Y-80740000D03*
X161925000Y-105950000D03*
X161925000Y-109950000D03*
D24*
X130175000Y-64135000D03*
X220345000Y-64135000D03*
X130175000Y-154940000D03*
D17*
X191135000Y-149765000D03*
X191135000Y-153765000D03*
D18*
X193262000Y-78105000D03*
X189262000Y-78105000D03*
X200755000Y-95250000D03*
X196755000Y-95250000D03*
X200755000Y-107696000D03*
X196755000Y-107696000D03*
X200755000Y-120396000D03*
X196755000Y-120396000D03*
D25*
X203640000Y-147580000D03*
X203640000Y-146780000D03*
X203640000Y-145980000D03*
X203640000Y-145180000D03*
X203640000Y-144380000D03*
X203640000Y-143580000D03*
X203640000Y-142780000D03*
X203640000Y-141980000D03*
D26*
X202190000Y-140530000D03*
X201390000Y-140530000D03*
X200590000Y-140530000D03*
X199790000Y-140530000D03*
X198990000Y-140530000D03*
X198190000Y-140530000D03*
X197390000Y-140530000D03*
X196590000Y-140530000D03*
D25*
X195140000Y-141980000D03*
X195140000Y-142780000D03*
X195140000Y-143580000D03*
X195140000Y-144380000D03*
X195140000Y-145180000D03*
X195140000Y-145980000D03*
X195140000Y-146780000D03*
X195140000Y-147580000D03*
D26*
X196590000Y-149030000D03*
X197390000Y-149030000D03*
X198190000Y-149030000D03*
X198990000Y-149030000D03*
X199790000Y-149030000D03*
X200590000Y-149030000D03*
X201390000Y-149030000D03*
X202190000Y-149030000D03*
D12*
X186055000Y-109950000D03*
X186055000Y-105950000D03*
D27*
X170180000Y-157193000D03*
D28*
X166880000Y-157193000D03*
X173480000Y-157193000D03*
D29*
X170180000Y-158493000D03*
X172720000Y-158493000D03*
X167640000Y-158493000D03*
D24*
X220345000Y-154940000D03*
D30*
X140335000Y-148590000D03*
X145415000Y-153670000D03*
X158115000Y-153670000D03*
X153035000Y-148590000D03*
X145415000Y-139065000D03*
X140335000Y-133985000D03*
X158115000Y-139065000D03*
X153035000Y-133985000D03*
X145415000Y-124460000D03*
X140335000Y-119380000D03*
X158115000Y-124460000D03*
X153035000Y-119380000D03*
X145415000Y-109855000D03*
X140335000Y-104775000D03*
X158115000Y-109855000D03*
X153035000Y-104775000D03*
X145415000Y-95250000D03*
X140335000Y-90170000D03*
X158115000Y-95250000D03*
X153035000Y-90170000D03*
X145415000Y-80645000D03*
X140335000Y-75565000D03*
X158115000Y-80645000D03*
X153035000Y-75565000D03*
X200660000Y-69215000D03*
X195580000Y-74295000D03*
X203835000Y-91440000D03*
X198755000Y-86360000D03*
X215265000Y-86360000D03*
X210185000Y-91440000D03*
X203835000Y-104140000D03*
X198755000Y-99060000D03*
X215265000Y-99060000D03*
X210185000Y-104140000D03*
X215265000Y-111760000D03*
X210185000Y-116840000D03*
X203835000Y-116840000D03*
X198755000Y-111760000D03*
X203835000Y-129540000D03*
X198755000Y-124460000D03*
X215265000Y-124460000D03*
X210185000Y-129540000D03*
X214630000Y-74295000D03*
X209550000Y-69215000D03*
D11*
X130810000Y-135430000D03*
X130810000Y-141430000D03*
X147955000Y-63675000D03*
X147955000Y-69675000D03*
X146225000Y-100584000D03*
X152225000Y-100584000D03*
X146225000Y-115189000D03*
X152225000Y-115189000D03*
X146225000Y-129794000D03*
X152225000Y-129794000D03*
X146225000Y-144399000D03*
X152225000Y-144399000D03*
X170609000Y-141351000D03*
X176609000Y-141351000D03*
X183515000Y-89360000D03*
X183515000Y-83360000D03*
X175943000Y-64770000D03*
X181943000Y-64770000D03*
D12*
X182245000Y-105950000D03*
X182245000Y-109950000D03*
D17*
X175895000Y-121825000D03*
X175895000Y-125825000D03*
D18*
X200755000Y-131699000D03*
X196755000Y-131699000D03*
X196628000Y-81407000D03*
X200628000Y-81407000D03*
D12*
X183896000Y-124365000D03*
X183896000Y-128365000D03*
D31*
X211455000Y-139700000D03*
D32*
X213455000Y-139700000D03*
D31*
X178689000Y-155956000D03*
D32*
X178689000Y-153956000D03*
D33*
X182753000Y-139478000D03*
X182753000Y-143478000D03*
X180594000Y-124492000D03*
X180594000Y-128492000D03*
X182753000Y-146590000D03*
X182753000Y-150590000D03*
X179070000Y-132112000D03*
X179070000Y-136112000D03*
D19*
X176363000Y-69215000D03*
X171363000Y-69215000D03*
D34*
X193547000Y-107696000D03*
X190247000Y-107696000D03*
X193547000Y-120396000D03*
X190247000Y-120396000D03*
X193928000Y-131699000D03*
X190628000Y-131699000D03*
X203074000Y-81407000D03*
X206374000Y-81407000D03*
D22*
X186182000Y-154686000D03*
D23*
X183642000Y-154686000D03*
D22*
X187960000Y-140970000D03*
D23*
X190500000Y-140970000D03*
X187960000Y-143510000D03*
X190500000Y-143510000D03*
X187960000Y-146050000D03*
X190500000Y-146050000D03*
D22*
X219583000Y-145923000D03*
D23*
X217043000Y-145923000D03*
X214503000Y-145923000D03*
X211963000Y-145923000D03*
X209423000Y-145923000D03*
D22*
X195580000Y-154686000D03*
D23*
X198120000Y-154686000D03*
X200660000Y-154686000D03*
D22*
X178435000Y-83820000D03*
D23*
X178435000Y-81280000D03*
D22*
X213360000Y-154305000D03*
D23*
X210820000Y-154305000D03*
X208280000Y-154305000D03*
D11*
X177165000Y-105966000D03*
X177165000Y-111966000D03*
D30*
X190500000Y-74295000D03*
X185420000Y-69215000D03*
D35*
G36*
X127381000Y-159893000D02*
X125095000Y-159893000D01*
X125095000Y-60071000D01*
X127381000Y-60071000D01*
X127381000Y-159893000D01*
X127381000Y-159893000D01*
G37*
X127381000Y-159893000D02*
X125095000Y-159893000D01*
X125095000Y-60071000D01*
X127381000Y-60071000D01*
X127381000Y-159893000D01*
G36*
X224917000Y-159893000D02*
X222631000Y-159893000D01*
X222631000Y-60071000D01*
X224917000Y-60071000D01*
X224917000Y-159893000D01*
X224917000Y-159893000D01*
G37*
X224917000Y-159893000D02*
X222631000Y-159893000D01*
X222631000Y-60071000D01*
X224917000Y-60071000D01*
X224917000Y-159893000D01*
M02*
