G04 #@! TF.FileFunction,Legend,Bot*
%FSLAX46Y46*%
G04 Gerber Fmt 4.6, Leading zero omitted, Abs format (unit mm)*
G04 Created by KiCad (PCBNEW 4.0.7-e1-6374~58~ubuntu14.04.1) date Fri Aug  4 16:13:01 2017*
%MOMM*%
%LPD*%
G01*
G04 APERTURE LIST*
%ADD10C,0.100000*%
%ADD11C,0.150000*%
%ADD12C,0.120000*%
G04 APERTURE END LIST*
D10*
D11*
X157115000Y-149089000D02*
X159115000Y-149089000D01*
X159115000Y-151139000D02*
X157115000Y-151139000D01*
X146288000Y-149615000D02*
X144288000Y-149615000D01*
X144288000Y-147565000D02*
X146288000Y-147565000D01*
X162170000Y-152130000D02*
X162170000Y-150130000D01*
X164220000Y-150130000D02*
X164220000Y-152130000D01*
X152162000Y-152264000D02*
X154162000Y-152264000D01*
X154162000Y-154314000D02*
X152162000Y-154314000D01*
X139208000Y-150740000D02*
X141208000Y-150740000D01*
X141208000Y-152790000D02*
X139208000Y-152790000D01*
X138065000Y-143755000D02*
X140065000Y-143755000D01*
X140065000Y-145805000D02*
X138065000Y-145805000D01*
X136795000Y-153915000D02*
X138795000Y-153915000D01*
X138795000Y-155965000D02*
X136795000Y-155965000D01*
X138065000Y-78350000D02*
X140065000Y-78350000D01*
X140065000Y-80400000D02*
X138065000Y-80400000D01*
X138065000Y-92955000D02*
X140065000Y-92955000D01*
X140065000Y-95005000D02*
X138065000Y-95005000D01*
X138065000Y-107560000D02*
X140065000Y-107560000D01*
X140065000Y-109610000D02*
X138065000Y-109610000D01*
X138065000Y-122165000D02*
X140065000Y-122165000D01*
X140065000Y-124215000D02*
X138065000Y-124215000D01*
X138065000Y-136770000D02*
X140065000Y-136770000D01*
X140065000Y-138820000D02*
X138065000Y-138820000D01*
X146415000Y-76590000D02*
X144415000Y-76590000D01*
X144415000Y-74540000D02*
X146415000Y-74540000D01*
X146415000Y-91195000D02*
X144415000Y-91195000D01*
X144415000Y-89145000D02*
X146415000Y-89145000D01*
X146415000Y-105800000D02*
X144415000Y-105800000D01*
X144415000Y-103750000D02*
X146415000Y-103750000D01*
X146415000Y-120405000D02*
X144415000Y-120405000D01*
X144415000Y-118355000D02*
X146415000Y-118355000D01*
X146415000Y-135010000D02*
X144415000Y-135010000D01*
X144415000Y-132960000D02*
X146415000Y-132960000D01*
X152765000Y-68970000D02*
X150765000Y-68970000D01*
X150765000Y-66920000D02*
X152765000Y-66920000D01*
X159750000Y-87385000D02*
X157750000Y-87385000D01*
X157750000Y-85335000D02*
X159750000Y-85335000D01*
X159877000Y-101990000D02*
X157877000Y-101990000D01*
X157877000Y-99940000D02*
X159877000Y-99940000D01*
X159750000Y-116595000D02*
X157750000Y-116595000D01*
X157750000Y-114545000D02*
X159750000Y-114545000D01*
X159750000Y-131200000D02*
X157750000Y-131200000D01*
X157750000Y-129150000D02*
X159750000Y-129150000D01*
X159877000Y-145805000D02*
X157877000Y-145805000D01*
X157877000Y-143755000D02*
X159877000Y-143755000D01*
X152130000Y-96275000D02*
X150130000Y-96275000D01*
X150130000Y-94225000D02*
X152130000Y-94225000D01*
X152765000Y-110880000D02*
X150765000Y-110880000D01*
X150765000Y-108830000D02*
X152765000Y-108830000D01*
X152765000Y-125485000D02*
X150765000Y-125485000D01*
X150765000Y-123435000D02*
X152765000Y-123435000D01*
X152765000Y-140090000D02*
X150765000Y-140090000D01*
X150765000Y-138040000D02*
X152765000Y-138040000D01*
X152130000Y-81670000D02*
X150130000Y-81670000D01*
X150130000Y-79620000D02*
X152130000Y-79620000D01*
X157115000Y-75810000D02*
X159115000Y-75810000D01*
X159115000Y-77860000D02*
X157115000Y-77860000D01*
X157115000Y-90415000D02*
X159115000Y-90415000D01*
X159115000Y-92465000D02*
X157115000Y-92465000D01*
X157115000Y-105020000D02*
X159115000Y-105020000D01*
X159115000Y-107070000D02*
X157115000Y-107070000D01*
X157115000Y-119625000D02*
X159115000Y-119625000D01*
X159115000Y-121675000D02*
X157115000Y-121675000D01*
X157115000Y-134230000D02*
X159115000Y-134230000D01*
X159115000Y-136280000D02*
X157115000Y-136280000D01*
X174997000Y-75168000D02*
X174997000Y-73168000D01*
X177047000Y-73168000D02*
X177047000Y-75168000D01*
X181340000Y-70240000D02*
X179340000Y-70240000D01*
X179340000Y-68190000D02*
X181340000Y-68190000D01*
X184420000Y-73270000D02*
X186420000Y-73270000D01*
X186420000Y-75320000D02*
X184420000Y-75320000D01*
X191754000Y-70240000D02*
X189754000Y-70240000D01*
X189754000Y-68190000D02*
X191754000Y-68190000D01*
X193532000Y-87385000D02*
X191532000Y-87385000D01*
X191532000Y-85335000D02*
X193532000Y-85335000D01*
X193532000Y-100085000D02*
X191532000Y-100085000D01*
X191532000Y-98035000D02*
X193532000Y-98035000D01*
X193405000Y-112785000D02*
X191405000Y-112785000D01*
X191405000Y-110735000D02*
X193405000Y-110735000D01*
X193405000Y-125485000D02*
X191405000Y-125485000D01*
X191405000Y-123435000D02*
X193405000Y-123435000D01*
X201787000Y-75320000D02*
X199787000Y-75320000D01*
X199787000Y-73270000D02*
X201787000Y-73270000D01*
X197882000Y-90415000D02*
X199882000Y-90415000D01*
X199882000Y-92465000D02*
X197882000Y-92465000D01*
X197882000Y-103115000D02*
X199882000Y-103115000D01*
X199882000Y-105165000D02*
X197882000Y-105165000D01*
X197882000Y-115815000D02*
X199882000Y-115815000D01*
X199882000Y-117865000D02*
X197882000Y-117865000D01*
X197755000Y-128515000D02*
X199755000Y-128515000D01*
X199755000Y-130565000D02*
X197755000Y-130565000D01*
X209915000Y-75320000D02*
X207915000Y-75320000D01*
X207915000Y-73270000D02*
X209915000Y-73270000D01*
X205470000Y-86750000D02*
X203470000Y-86750000D01*
X203470000Y-84700000D02*
X205470000Y-84700000D01*
X205470000Y-99450000D02*
X203470000Y-99450000D01*
X203470000Y-97400000D02*
X205470000Y-97400000D01*
X205470000Y-112150000D02*
X203470000Y-112150000D01*
X203470000Y-110100000D02*
X205470000Y-110100000D01*
X205470000Y-124850000D02*
X203470000Y-124850000D01*
X203470000Y-122800000D02*
X205470000Y-122800000D01*
X139035840Y-69834760D02*
X139084100Y-69834760D01*
X141834820Y-70535800D02*
X141834820Y-69834760D01*
X141834820Y-69834760D02*
X141585900Y-69834760D01*
X139035840Y-69834760D02*
X138835180Y-69834760D01*
X138835180Y-69834760D02*
X138835180Y-70535800D01*
X167669160Y-83200240D02*
X167620900Y-83200240D01*
X164870180Y-82499200D02*
X164870180Y-83200240D01*
X164870180Y-83200240D02*
X165119100Y-83200240D01*
X167669160Y-83200240D02*
X167869820Y-83200240D01*
X167869820Y-83200240D02*
X167869820Y-82499200D01*
X167669160Y-97805240D02*
X167620900Y-97805240D01*
X164870180Y-97104200D02*
X164870180Y-97805240D01*
X164870180Y-97805240D02*
X165119100Y-97805240D01*
X167669160Y-97805240D02*
X167869820Y-97805240D01*
X167869820Y-97805240D02*
X167869820Y-97104200D01*
X167669160Y-112410240D02*
X167620900Y-112410240D01*
X164870180Y-111709200D02*
X164870180Y-112410240D01*
X164870180Y-112410240D02*
X165119100Y-112410240D01*
X167669160Y-112410240D02*
X167869820Y-112410240D01*
X167869820Y-112410240D02*
X167869820Y-111709200D01*
X167669160Y-127015240D02*
X167620900Y-127015240D01*
X164870180Y-126314200D02*
X164870180Y-127015240D01*
X164870180Y-127015240D02*
X165119100Y-127015240D01*
X167669160Y-127015240D02*
X167869820Y-127015240D01*
X167869820Y-127015240D02*
X167869820Y-126314200D01*
X167669160Y-141620240D02*
X167620900Y-141620240D01*
X164870180Y-140919200D02*
X164870180Y-141620240D01*
X164870180Y-141620240D02*
X165119100Y-141620240D01*
X167669160Y-141620240D02*
X167869820Y-141620240D01*
X167869820Y-141620240D02*
X167869820Y-140919200D01*
X134742500Y-148637500D02*
X134742500Y-146637500D01*
X132592500Y-146637500D02*
X132592500Y-148637500D01*
X131567500Y-148637500D02*
X131567500Y-146637500D01*
X129417500Y-146637500D02*
X129417500Y-148637500D01*
X150765000Y-72195000D02*
X152765000Y-72195000D01*
X152765000Y-70045000D02*
X150765000Y-70045000D01*
X165370000Y-87435000D02*
X167370000Y-87435000D01*
X167370000Y-85285000D02*
X165370000Y-85285000D01*
X165370000Y-102040000D02*
X167370000Y-102040000D01*
X167370000Y-99890000D02*
X165370000Y-99890000D01*
X165370000Y-116645000D02*
X167370000Y-116645000D01*
X167370000Y-114495000D02*
X165370000Y-114495000D01*
X165370000Y-131250000D02*
X167370000Y-131250000D01*
X167370000Y-129100000D02*
X165370000Y-129100000D01*
X165370000Y-145855000D02*
X167370000Y-145855000D01*
X167370000Y-143705000D02*
X165370000Y-143705000D01*
X175065000Y-148955000D02*
X175065000Y-146955000D01*
X172915000Y-146955000D02*
X172915000Y-148955000D01*
X178240000Y-148955000D02*
X178240000Y-146955000D01*
X176090000Y-146955000D02*
X176090000Y-148955000D01*
D12*
X206518000Y-64639000D02*
X208518000Y-64639000D01*
X208518000Y-66679000D02*
X206518000Y-66679000D01*
X208030000Y-90440000D02*
X208030000Y-92440000D01*
X205990000Y-92440000D02*
X205990000Y-90440000D01*
X208030000Y-103140000D02*
X208030000Y-105140000D01*
X205990000Y-105140000D02*
X205990000Y-103140000D01*
X208030000Y-115840000D02*
X208030000Y-117840000D01*
X205990000Y-117840000D02*
X205990000Y-115840000D01*
X208030000Y-128540000D02*
X208030000Y-130540000D01*
X205990000Y-130540000D02*
X205990000Y-128540000D01*
X215630000Y-70235000D02*
X213630000Y-70235000D01*
X213630000Y-68195000D02*
X215630000Y-68195000D01*
X167021000Y-65840000D02*
X169021000Y-65840000D01*
X169021000Y-63700000D02*
X167021000Y-63700000D01*
X177910000Y-74995000D02*
X177910000Y-73095000D01*
X180230000Y-73595000D02*
X180230000Y-74995000D01*
X191070000Y-80755000D02*
X192970000Y-80755000D01*
X192470000Y-83075000D02*
X191070000Y-83075000D01*
X191070000Y-89645000D02*
X192970000Y-89645000D01*
X192470000Y-91965000D02*
X191070000Y-91965000D01*
X191070000Y-102345000D02*
X192970000Y-102345000D01*
X192470000Y-104665000D02*
X191070000Y-104665000D01*
X191070000Y-115045000D02*
X192970000Y-115045000D01*
X192470000Y-117365000D02*
X191070000Y-117365000D01*
X191070000Y-127745000D02*
X192970000Y-127745000D01*
X192470000Y-130065000D02*
X191070000Y-130065000D01*
X217915000Y-73725000D02*
X217915000Y-71825000D01*
X220235000Y-72325000D02*
X220235000Y-73725000D01*
X217870000Y-93235000D02*
X215970000Y-93235000D01*
X216470000Y-90915000D02*
X217870000Y-90915000D01*
X217870000Y-105935000D02*
X215970000Y-105935000D01*
X216470000Y-103615000D02*
X217870000Y-103615000D01*
X217870000Y-118635000D02*
X215970000Y-118635000D01*
X216470000Y-116315000D02*
X217870000Y-116315000D01*
X217870000Y-131335000D02*
X215970000Y-131335000D01*
X216470000Y-129015000D02*
X217870000Y-129015000D01*
X212213000Y-92440000D02*
X212213000Y-90440000D01*
X214253000Y-90440000D02*
X214253000Y-92440000D01*
X212213000Y-105140000D02*
X212213000Y-103140000D01*
X214253000Y-103140000D02*
X214253000Y-105140000D01*
X212213000Y-117840000D02*
X212213000Y-115840000D01*
X214253000Y-115840000D02*
X214253000Y-117840000D01*
X212213000Y-130540000D02*
X212213000Y-128540000D01*
X214253000Y-128540000D02*
X214253000Y-130540000D01*
X200390000Y-146435000D02*
X198390000Y-146435000D01*
X198390000Y-144395000D02*
X200390000Y-144395000D01*
D11*
X158281666Y-148171143D02*
X158329285Y-148218762D01*
X158472142Y-148266381D01*
X158567380Y-148266381D01*
X158710238Y-148218762D01*
X158805476Y-148123524D01*
X158853095Y-148028286D01*
X158900714Y-147837810D01*
X158900714Y-147694952D01*
X158853095Y-147504476D01*
X158805476Y-147409238D01*
X158710238Y-147314000D01*
X158567380Y-147266381D01*
X158472142Y-147266381D01*
X158329285Y-147314000D01*
X158281666Y-147361619D01*
X157329285Y-148266381D02*
X157900714Y-148266381D01*
X157615000Y-148266381D02*
X157615000Y-147266381D01*
X157710238Y-147409238D01*
X157805476Y-147504476D01*
X157900714Y-147552095D01*
X145454666Y-147042143D02*
X145502285Y-147089762D01*
X145645142Y-147137381D01*
X145740380Y-147137381D01*
X145883238Y-147089762D01*
X145978476Y-146994524D01*
X146026095Y-146899286D01*
X146073714Y-146708810D01*
X146073714Y-146565952D01*
X146026095Y-146375476D01*
X145978476Y-146280238D01*
X145883238Y-146185000D01*
X145740380Y-146137381D01*
X145645142Y-146137381D01*
X145502285Y-146185000D01*
X145454666Y-146232619D01*
X145073714Y-146232619D02*
X145026095Y-146185000D01*
X144930857Y-146137381D01*
X144692761Y-146137381D01*
X144597523Y-146185000D01*
X144549904Y-146232619D01*
X144502285Y-146327857D01*
X144502285Y-146423095D01*
X144549904Y-146565952D01*
X145121333Y-147137381D01*
X144502285Y-147137381D01*
X163361666Y-155678143D02*
X163409285Y-155725762D01*
X163552142Y-155773381D01*
X163647380Y-155773381D01*
X163790238Y-155725762D01*
X163885476Y-155630524D01*
X163933095Y-155535286D01*
X163980714Y-155344810D01*
X163980714Y-155201952D01*
X163933095Y-155011476D01*
X163885476Y-154916238D01*
X163790238Y-154821000D01*
X163647380Y-154773381D01*
X163552142Y-154773381D01*
X163409285Y-154821000D01*
X163361666Y-154868619D01*
X163028333Y-154773381D02*
X162409285Y-154773381D01*
X162742619Y-155154333D01*
X162599761Y-155154333D01*
X162504523Y-155201952D01*
X162456904Y-155249571D01*
X162409285Y-155344810D01*
X162409285Y-155582905D01*
X162456904Y-155678143D01*
X162504523Y-155725762D01*
X162599761Y-155773381D01*
X162885476Y-155773381D01*
X162980714Y-155725762D01*
X163028333Y-155678143D01*
X153328666Y-151346143D02*
X153376285Y-151393762D01*
X153519142Y-151441381D01*
X153614380Y-151441381D01*
X153757238Y-151393762D01*
X153852476Y-151298524D01*
X153900095Y-151203286D01*
X153947714Y-151012810D01*
X153947714Y-150869952D01*
X153900095Y-150679476D01*
X153852476Y-150584238D01*
X153757238Y-150489000D01*
X153614380Y-150441381D01*
X153519142Y-150441381D01*
X153376285Y-150489000D01*
X153328666Y-150536619D01*
X152471523Y-150774714D02*
X152471523Y-151441381D01*
X152709619Y-150393762D02*
X152947714Y-151108048D01*
X152328666Y-151108048D01*
X144692666Y-152122143D02*
X144740285Y-152169762D01*
X144883142Y-152217381D01*
X144978380Y-152217381D01*
X145121238Y-152169762D01*
X145216476Y-152074524D01*
X145264095Y-151979286D01*
X145311714Y-151788810D01*
X145311714Y-151645952D01*
X145264095Y-151455476D01*
X145216476Y-151360238D01*
X145121238Y-151265000D01*
X144978380Y-151217381D01*
X144883142Y-151217381D01*
X144740285Y-151265000D01*
X144692666Y-151312619D01*
X143787904Y-151217381D02*
X144264095Y-151217381D01*
X144311714Y-151693571D01*
X144264095Y-151645952D01*
X144168857Y-151598333D01*
X143930761Y-151598333D01*
X143835523Y-151645952D01*
X143787904Y-151693571D01*
X143740285Y-151788810D01*
X143740285Y-152026905D01*
X143787904Y-152122143D01*
X143835523Y-152169762D01*
X143930761Y-152217381D01*
X144168857Y-152217381D01*
X144264095Y-152169762D01*
X144311714Y-152122143D01*
X139231666Y-142837143D02*
X139279285Y-142884762D01*
X139422142Y-142932381D01*
X139517380Y-142932381D01*
X139660238Y-142884762D01*
X139755476Y-142789524D01*
X139803095Y-142694286D01*
X139850714Y-142503810D01*
X139850714Y-142360952D01*
X139803095Y-142170476D01*
X139755476Y-142075238D01*
X139660238Y-141980000D01*
X139517380Y-141932381D01*
X139422142Y-141932381D01*
X139279285Y-141980000D01*
X139231666Y-142027619D01*
X138374523Y-141932381D02*
X138565000Y-141932381D01*
X138660238Y-141980000D01*
X138707857Y-142027619D01*
X138803095Y-142170476D01*
X138850714Y-142360952D01*
X138850714Y-142741905D01*
X138803095Y-142837143D01*
X138755476Y-142884762D01*
X138660238Y-142932381D01*
X138469761Y-142932381D01*
X138374523Y-142884762D01*
X138326904Y-142837143D01*
X138279285Y-142741905D01*
X138279285Y-142503810D01*
X138326904Y-142408571D01*
X138374523Y-142360952D01*
X138469761Y-142313333D01*
X138660238Y-142313333D01*
X138755476Y-142360952D01*
X138803095Y-142408571D01*
X138850714Y-142503810D01*
X137961666Y-157329143D02*
X138009285Y-157376762D01*
X138152142Y-157424381D01*
X138247380Y-157424381D01*
X138390238Y-157376762D01*
X138485476Y-157281524D01*
X138533095Y-157186286D01*
X138580714Y-156995810D01*
X138580714Y-156852952D01*
X138533095Y-156662476D01*
X138485476Y-156567238D01*
X138390238Y-156472000D01*
X138247380Y-156424381D01*
X138152142Y-156424381D01*
X138009285Y-156472000D01*
X137961666Y-156519619D01*
X137628333Y-156424381D02*
X136961666Y-156424381D01*
X137390238Y-157424381D01*
X138596666Y-77827143D02*
X138644285Y-77874762D01*
X138787142Y-77922381D01*
X138882380Y-77922381D01*
X139025238Y-77874762D01*
X139120476Y-77779524D01*
X139168095Y-77684286D01*
X139215714Y-77493810D01*
X139215714Y-77350952D01*
X139168095Y-77160476D01*
X139120476Y-77065238D01*
X139025238Y-76970000D01*
X138882380Y-76922381D01*
X138787142Y-76922381D01*
X138644285Y-76970000D01*
X138596666Y-77017619D01*
X138025238Y-77350952D02*
X138120476Y-77303333D01*
X138168095Y-77255714D01*
X138215714Y-77160476D01*
X138215714Y-77112857D01*
X138168095Y-77017619D01*
X138120476Y-76970000D01*
X138025238Y-76922381D01*
X137834761Y-76922381D01*
X137739523Y-76970000D01*
X137691904Y-77017619D01*
X137644285Y-77112857D01*
X137644285Y-77160476D01*
X137691904Y-77255714D01*
X137739523Y-77303333D01*
X137834761Y-77350952D01*
X138025238Y-77350952D01*
X138120476Y-77398571D01*
X138168095Y-77446190D01*
X138215714Y-77541429D01*
X138215714Y-77731905D01*
X138168095Y-77827143D01*
X138120476Y-77874762D01*
X138025238Y-77922381D01*
X137834761Y-77922381D01*
X137739523Y-77874762D01*
X137691904Y-77827143D01*
X137644285Y-77731905D01*
X137644285Y-77541429D01*
X137691904Y-77446190D01*
X137739523Y-77398571D01*
X137834761Y-77350952D01*
X138596666Y-92432143D02*
X138644285Y-92479762D01*
X138787142Y-92527381D01*
X138882380Y-92527381D01*
X139025238Y-92479762D01*
X139120476Y-92384524D01*
X139168095Y-92289286D01*
X139215714Y-92098810D01*
X139215714Y-91955952D01*
X139168095Y-91765476D01*
X139120476Y-91670238D01*
X139025238Y-91575000D01*
X138882380Y-91527381D01*
X138787142Y-91527381D01*
X138644285Y-91575000D01*
X138596666Y-91622619D01*
X138120476Y-92527381D02*
X137930000Y-92527381D01*
X137834761Y-92479762D01*
X137787142Y-92432143D01*
X137691904Y-92289286D01*
X137644285Y-92098810D01*
X137644285Y-91717857D01*
X137691904Y-91622619D01*
X137739523Y-91575000D01*
X137834761Y-91527381D01*
X138025238Y-91527381D01*
X138120476Y-91575000D01*
X138168095Y-91622619D01*
X138215714Y-91717857D01*
X138215714Y-91955952D01*
X138168095Y-92051190D01*
X138120476Y-92098810D01*
X138025238Y-92146429D01*
X137834761Y-92146429D01*
X137739523Y-92098810D01*
X137691904Y-92051190D01*
X137644285Y-91955952D01*
X139072857Y-107037143D02*
X139120476Y-107084762D01*
X139263333Y-107132381D01*
X139358571Y-107132381D01*
X139501429Y-107084762D01*
X139596667Y-106989524D01*
X139644286Y-106894286D01*
X139691905Y-106703810D01*
X139691905Y-106560952D01*
X139644286Y-106370476D01*
X139596667Y-106275238D01*
X139501429Y-106180000D01*
X139358571Y-106132381D01*
X139263333Y-106132381D01*
X139120476Y-106180000D01*
X139072857Y-106227619D01*
X138120476Y-107132381D02*
X138691905Y-107132381D01*
X138406191Y-107132381D02*
X138406191Y-106132381D01*
X138501429Y-106275238D01*
X138596667Y-106370476D01*
X138691905Y-106418095D01*
X137501429Y-106132381D02*
X137406190Y-106132381D01*
X137310952Y-106180000D01*
X137263333Y-106227619D01*
X137215714Y-106322857D01*
X137168095Y-106513333D01*
X137168095Y-106751429D01*
X137215714Y-106941905D01*
X137263333Y-107037143D01*
X137310952Y-107084762D01*
X137406190Y-107132381D01*
X137501429Y-107132381D01*
X137596667Y-107084762D01*
X137644286Y-107037143D01*
X137691905Y-106941905D01*
X137739524Y-106751429D01*
X137739524Y-106513333D01*
X137691905Y-106322857D01*
X137644286Y-106227619D01*
X137596667Y-106180000D01*
X137501429Y-106132381D01*
X139707857Y-121247143D02*
X139755476Y-121294762D01*
X139898333Y-121342381D01*
X139993571Y-121342381D01*
X140136429Y-121294762D01*
X140231667Y-121199524D01*
X140279286Y-121104286D01*
X140326905Y-120913810D01*
X140326905Y-120770952D01*
X140279286Y-120580476D01*
X140231667Y-120485238D01*
X140136429Y-120390000D01*
X139993571Y-120342381D01*
X139898333Y-120342381D01*
X139755476Y-120390000D01*
X139707857Y-120437619D01*
X138755476Y-121342381D02*
X139326905Y-121342381D01*
X139041191Y-121342381D02*
X139041191Y-120342381D01*
X139136429Y-120485238D01*
X139231667Y-120580476D01*
X139326905Y-120628095D01*
X137803095Y-121342381D02*
X138374524Y-121342381D01*
X138088810Y-121342381D02*
X138088810Y-120342381D01*
X138184048Y-120485238D01*
X138279286Y-120580476D01*
X138374524Y-120628095D01*
X139834857Y-140311143D02*
X139882476Y-140358762D01*
X140025333Y-140406381D01*
X140120571Y-140406381D01*
X140263429Y-140358762D01*
X140358667Y-140263524D01*
X140406286Y-140168286D01*
X140453905Y-139977810D01*
X140453905Y-139834952D01*
X140406286Y-139644476D01*
X140358667Y-139549238D01*
X140263429Y-139454000D01*
X140120571Y-139406381D01*
X140025333Y-139406381D01*
X139882476Y-139454000D01*
X139834857Y-139501619D01*
X138882476Y-140406381D02*
X139453905Y-140406381D01*
X139168191Y-140406381D02*
X139168191Y-139406381D01*
X139263429Y-139549238D01*
X139358667Y-139644476D01*
X139453905Y-139692095D01*
X138501524Y-139501619D02*
X138453905Y-139454000D01*
X138358667Y-139406381D01*
X138120571Y-139406381D01*
X138025333Y-139454000D01*
X137977714Y-139501619D01*
X137930095Y-139596857D01*
X137930095Y-139692095D01*
X137977714Y-139834952D01*
X138549143Y-140406381D01*
X137930095Y-140406381D01*
X146057857Y-78222143D02*
X146105476Y-78269762D01*
X146248333Y-78317381D01*
X146343571Y-78317381D01*
X146486429Y-78269762D01*
X146581667Y-78174524D01*
X146629286Y-78079286D01*
X146676905Y-77888810D01*
X146676905Y-77745952D01*
X146629286Y-77555476D01*
X146581667Y-77460238D01*
X146486429Y-77365000D01*
X146343571Y-77317381D01*
X146248333Y-77317381D01*
X146105476Y-77365000D01*
X146057857Y-77412619D01*
X145105476Y-78317381D02*
X145676905Y-78317381D01*
X145391191Y-78317381D02*
X145391191Y-77317381D01*
X145486429Y-77460238D01*
X145581667Y-77555476D01*
X145676905Y-77603095D01*
X144772143Y-77317381D02*
X144153095Y-77317381D01*
X144486429Y-77698333D01*
X144343571Y-77698333D01*
X144248333Y-77745952D01*
X144200714Y-77793571D01*
X144153095Y-77888810D01*
X144153095Y-78126905D01*
X144200714Y-78222143D01*
X144248333Y-78269762D01*
X144343571Y-78317381D01*
X144629286Y-78317381D01*
X144724524Y-78269762D01*
X144772143Y-78222143D01*
X146057857Y-92827143D02*
X146105476Y-92874762D01*
X146248333Y-92922381D01*
X146343571Y-92922381D01*
X146486429Y-92874762D01*
X146581667Y-92779524D01*
X146629286Y-92684286D01*
X146676905Y-92493810D01*
X146676905Y-92350952D01*
X146629286Y-92160476D01*
X146581667Y-92065238D01*
X146486429Y-91970000D01*
X146343571Y-91922381D01*
X146248333Y-91922381D01*
X146105476Y-91970000D01*
X146057857Y-92017619D01*
X145105476Y-92922381D02*
X145676905Y-92922381D01*
X145391191Y-92922381D02*
X145391191Y-91922381D01*
X145486429Y-92065238D01*
X145581667Y-92160476D01*
X145676905Y-92208095D01*
X144248333Y-92255714D02*
X144248333Y-92922381D01*
X144486429Y-91874762D02*
X144724524Y-92589048D01*
X144105476Y-92589048D01*
X146057857Y-107432143D02*
X146105476Y-107479762D01*
X146248333Y-107527381D01*
X146343571Y-107527381D01*
X146486429Y-107479762D01*
X146581667Y-107384524D01*
X146629286Y-107289286D01*
X146676905Y-107098810D01*
X146676905Y-106955952D01*
X146629286Y-106765476D01*
X146581667Y-106670238D01*
X146486429Y-106575000D01*
X146343571Y-106527381D01*
X146248333Y-106527381D01*
X146105476Y-106575000D01*
X146057857Y-106622619D01*
X145105476Y-107527381D02*
X145676905Y-107527381D01*
X145391191Y-107527381D02*
X145391191Y-106527381D01*
X145486429Y-106670238D01*
X145581667Y-106765476D01*
X145676905Y-106813095D01*
X144200714Y-106527381D02*
X144676905Y-106527381D01*
X144724524Y-107003571D01*
X144676905Y-106955952D01*
X144581667Y-106908333D01*
X144343571Y-106908333D01*
X144248333Y-106955952D01*
X144200714Y-107003571D01*
X144153095Y-107098810D01*
X144153095Y-107336905D01*
X144200714Y-107432143D01*
X144248333Y-107479762D01*
X144343571Y-107527381D01*
X144581667Y-107527381D01*
X144676905Y-107479762D01*
X144724524Y-107432143D01*
X146057857Y-122037143D02*
X146105476Y-122084762D01*
X146248333Y-122132381D01*
X146343571Y-122132381D01*
X146486429Y-122084762D01*
X146581667Y-121989524D01*
X146629286Y-121894286D01*
X146676905Y-121703810D01*
X146676905Y-121560952D01*
X146629286Y-121370476D01*
X146581667Y-121275238D01*
X146486429Y-121180000D01*
X146343571Y-121132381D01*
X146248333Y-121132381D01*
X146105476Y-121180000D01*
X146057857Y-121227619D01*
X145105476Y-122132381D02*
X145676905Y-122132381D01*
X145391191Y-122132381D02*
X145391191Y-121132381D01*
X145486429Y-121275238D01*
X145581667Y-121370476D01*
X145676905Y-121418095D01*
X144248333Y-121132381D02*
X144438810Y-121132381D01*
X144534048Y-121180000D01*
X144581667Y-121227619D01*
X144676905Y-121370476D01*
X144724524Y-121560952D01*
X144724524Y-121941905D01*
X144676905Y-122037143D01*
X144629286Y-122084762D01*
X144534048Y-122132381D01*
X144343571Y-122132381D01*
X144248333Y-122084762D01*
X144200714Y-122037143D01*
X144153095Y-121941905D01*
X144153095Y-121703810D01*
X144200714Y-121608571D01*
X144248333Y-121560952D01*
X144343571Y-121513333D01*
X144534048Y-121513333D01*
X144629286Y-121560952D01*
X144676905Y-121608571D01*
X144724524Y-121703810D01*
X146057857Y-136374143D02*
X146105476Y-136421762D01*
X146248333Y-136469381D01*
X146343571Y-136469381D01*
X146486429Y-136421762D01*
X146581667Y-136326524D01*
X146629286Y-136231286D01*
X146676905Y-136040810D01*
X146676905Y-135897952D01*
X146629286Y-135707476D01*
X146581667Y-135612238D01*
X146486429Y-135517000D01*
X146343571Y-135469381D01*
X146248333Y-135469381D01*
X146105476Y-135517000D01*
X146057857Y-135564619D01*
X145105476Y-136469381D02*
X145676905Y-136469381D01*
X145391191Y-136469381D02*
X145391191Y-135469381D01*
X145486429Y-135612238D01*
X145581667Y-135707476D01*
X145676905Y-135755095D01*
X144772143Y-135469381D02*
X144105476Y-135469381D01*
X144534048Y-136469381D01*
X157487857Y-67667143D02*
X157535476Y-67714762D01*
X157678333Y-67762381D01*
X157773571Y-67762381D01*
X157916429Y-67714762D01*
X158011667Y-67619524D01*
X158059286Y-67524286D01*
X158106905Y-67333810D01*
X158106905Y-67190952D01*
X158059286Y-67000476D01*
X158011667Y-66905238D01*
X157916429Y-66810000D01*
X157773571Y-66762381D01*
X157678333Y-66762381D01*
X157535476Y-66810000D01*
X157487857Y-66857619D01*
X156535476Y-67762381D02*
X157106905Y-67762381D01*
X156821191Y-67762381D02*
X156821191Y-66762381D01*
X156916429Y-66905238D01*
X157011667Y-67000476D01*
X157106905Y-67048095D01*
X156059286Y-67762381D02*
X155868810Y-67762381D01*
X155773571Y-67714762D01*
X155725952Y-67667143D01*
X155630714Y-67524286D01*
X155583095Y-67333810D01*
X155583095Y-66952857D01*
X155630714Y-66857619D01*
X155678333Y-66810000D01*
X155773571Y-66762381D01*
X155964048Y-66762381D01*
X156059286Y-66810000D01*
X156106905Y-66857619D01*
X156154524Y-66952857D01*
X156154524Y-67190952D01*
X156106905Y-67286190D01*
X156059286Y-67333810D01*
X155964048Y-67381429D01*
X155773571Y-67381429D01*
X155678333Y-67333810D01*
X155630714Y-67286190D01*
X155583095Y-67190952D01*
X159519857Y-84685143D02*
X159567476Y-84732762D01*
X159710333Y-84780381D01*
X159805571Y-84780381D01*
X159948429Y-84732762D01*
X160043667Y-84637524D01*
X160091286Y-84542286D01*
X160138905Y-84351810D01*
X160138905Y-84208952D01*
X160091286Y-84018476D01*
X160043667Y-83923238D01*
X159948429Y-83828000D01*
X159805571Y-83780381D01*
X159710333Y-83780381D01*
X159567476Y-83828000D01*
X159519857Y-83875619D01*
X159138905Y-83875619D02*
X159091286Y-83828000D01*
X158996048Y-83780381D01*
X158757952Y-83780381D01*
X158662714Y-83828000D01*
X158615095Y-83875619D01*
X158567476Y-83970857D01*
X158567476Y-84066095D01*
X158615095Y-84208952D01*
X159186524Y-84780381D01*
X158567476Y-84780381D01*
X157948429Y-83780381D02*
X157853190Y-83780381D01*
X157757952Y-83828000D01*
X157710333Y-83875619D01*
X157662714Y-83970857D01*
X157615095Y-84161333D01*
X157615095Y-84399429D01*
X157662714Y-84589905D01*
X157710333Y-84685143D01*
X157757952Y-84732762D01*
X157853190Y-84780381D01*
X157948429Y-84780381D01*
X158043667Y-84732762D01*
X158091286Y-84685143D01*
X158138905Y-84589905D01*
X158186524Y-84399429D01*
X158186524Y-84161333D01*
X158138905Y-83970857D01*
X158091286Y-83875619D01*
X158043667Y-83828000D01*
X157948429Y-83780381D01*
X159519857Y-99290143D02*
X159567476Y-99337762D01*
X159710333Y-99385381D01*
X159805571Y-99385381D01*
X159948429Y-99337762D01*
X160043667Y-99242524D01*
X160091286Y-99147286D01*
X160138905Y-98956810D01*
X160138905Y-98813952D01*
X160091286Y-98623476D01*
X160043667Y-98528238D01*
X159948429Y-98433000D01*
X159805571Y-98385381D01*
X159710333Y-98385381D01*
X159567476Y-98433000D01*
X159519857Y-98480619D01*
X159138905Y-98480619D02*
X159091286Y-98433000D01*
X158996048Y-98385381D01*
X158757952Y-98385381D01*
X158662714Y-98433000D01*
X158615095Y-98480619D01*
X158567476Y-98575857D01*
X158567476Y-98671095D01*
X158615095Y-98813952D01*
X159186524Y-99385381D01*
X158567476Y-99385381D01*
X157615095Y-99385381D02*
X158186524Y-99385381D01*
X157900810Y-99385381D02*
X157900810Y-98385381D01*
X157996048Y-98528238D01*
X158091286Y-98623476D01*
X158186524Y-98671095D01*
X159392857Y-113895143D02*
X159440476Y-113942762D01*
X159583333Y-113990381D01*
X159678571Y-113990381D01*
X159821429Y-113942762D01*
X159916667Y-113847524D01*
X159964286Y-113752286D01*
X160011905Y-113561810D01*
X160011905Y-113418952D01*
X159964286Y-113228476D01*
X159916667Y-113133238D01*
X159821429Y-113038000D01*
X159678571Y-112990381D01*
X159583333Y-112990381D01*
X159440476Y-113038000D01*
X159392857Y-113085619D01*
X159011905Y-113085619D02*
X158964286Y-113038000D01*
X158869048Y-112990381D01*
X158630952Y-112990381D01*
X158535714Y-113038000D01*
X158488095Y-113085619D01*
X158440476Y-113180857D01*
X158440476Y-113276095D01*
X158488095Y-113418952D01*
X159059524Y-113990381D01*
X158440476Y-113990381D01*
X158059524Y-113085619D02*
X158011905Y-113038000D01*
X157916667Y-112990381D01*
X157678571Y-112990381D01*
X157583333Y-113038000D01*
X157535714Y-113085619D01*
X157488095Y-113180857D01*
X157488095Y-113276095D01*
X157535714Y-113418952D01*
X158107143Y-113990381D01*
X157488095Y-113990381D01*
X159392857Y-128627143D02*
X159440476Y-128674762D01*
X159583333Y-128722381D01*
X159678571Y-128722381D01*
X159821429Y-128674762D01*
X159916667Y-128579524D01*
X159964286Y-128484286D01*
X160011905Y-128293810D01*
X160011905Y-128150952D01*
X159964286Y-127960476D01*
X159916667Y-127865238D01*
X159821429Y-127770000D01*
X159678571Y-127722381D01*
X159583333Y-127722381D01*
X159440476Y-127770000D01*
X159392857Y-127817619D01*
X159011905Y-127817619D02*
X158964286Y-127770000D01*
X158869048Y-127722381D01*
X158630952Y-127722381D01*
X158535714Y-127770000D01*
X158488095Y-127817619D01*
X158440476Y-127912857D01*
X158440476Y-128008095D01*
X158488095Y-128150952D01*
X159059524Y-128722381D01*
X158440476Y-128722381D01*
X158107143Y-127722381D02*
X157488095Y-127722381D01*
X157821429Y-128103333D01*
X157678571Y-128103333D01*
X157583333Y-128150952D01*
X157535714Y-128198571D01*
X157488095Y-128293810D01*
X157488095Y-128531905D01*
X157535714Y-128627143D01*
X157583333Y-128674762D01*
X157678571Y-128722381D01*
X157964286Y-128722381D01*
X158059524Y-128674762D01*
X158107143Y-128627143D01*
X159646857Y-142851143D02*
X159694476Y-142898762D01*
X159837333Y-142946381D01*
X159932571Y-142946381D01*
X160075429Y-142898762D01*
X160170667Y-142803524D01*
X160218286Y-142708286D01*
X160265905Y-142517810D01*
X160265905Y-142374952D01*
X160218286Y-142184476D01*
X160170667Y-142089238D01*
X160075429Y-141994000D01*
X159932571Y-141946381D01*
X159837333Y-141946381D01*
X159694476Y-141994000D01*
X159646857Y-142041619D01*
X159265905Y-142041619D02*
X159218286Y-141994000D01*
X159123048Y-141946381D01*
X158884952Y-141946381D01*
X158789714Y-141994000D01*
X158742095Y-142041619D01*
X158694476Y-142136857D01*
X158694476Y-142232095D01*
X158742095Y-142374952D01*
X159313524Y-142946381D01*
X158694476Y-142946381D01*
X157837333Y-142279714D02*
X157837333Y-142946381D01*
X158075429Y-141898762D02*
X158313524Y-142613048D01*
X157694476Y-142613048D01*
X151772857Y-97907143D02*
X151820476Y-97954762D01*
X151963333Y-98002381D01*
X152058571Y-98002381D01*
X152201429Y-97954762D01*
X152296667Y-97859524D01*
X152344286Y-97764286D01*
X152391905Y-97573810D01*
X152391905Y-97430952D01*
X152344286Y-97240476D01*
X152296667Y-97145238D01*
X152201429Y-97050000D01*
X152058571Y-97002381D01*
X151963333Y-97002381D01*
X151820476Y-97050000D01*
X151772857Y-97097619D01*
X151391905Y-97097619D02*
X151344286Y-97050000D01*
X151249048Y-97002381D01*
X151010952Y-97002381D01*
X150915714Y-97050000D01*
X150868095Y-97097619D01*
X150820476Y-97192857D01*
X150820476Y-97288095D01*
X150868095Y-97430952D01*
X151439524Y-98002381D01*
X150820476Y-98002381D01*
X149915714Y-97002381D02*
X150391905Y-97002381D01*
X150439524Y-97478571D01*
X150391905Y-97430952D01*
X150296667Y-97383333D01*
X150058571Y-97383333D01*
X149963333Y-97430952D01*
X149915714Y-97478571D01*
X149868095Y-97573810D01*
X149868095Y-97811905D01*
X149915714Y-97907143D01*
X149963333Y-97954762D01*
X150058571Y-98002381D01*
X150296667Y-98002381D01*
X150391905Y-97954762D01*
X150439524Y-97907143D01*
X152407857Y-112117143D02*
X152455476Y-112164762D01*
X152598333Y-112212381D01*
X152693571Y-112212381D01*
X152836429Y-112164762D01*
X152931667Y-112069524D01*
X152979286Y-111974286D01*
X153026905Y-111783810D01*
X153026905Y-111640952D01*
X152979286Y-111450476D01*
X152931667Y-111355238D01*
X152836429Y-111260000D01*
X152693571Y-111212381D01*
X152598333Y-111212381D01*
X152455476Y-111260000D01*
X152407857Y-111307619D01*
X152026905Y-111307619D02*
X151979286Y-111260000D01*
X151884048Y-111212381D01*
X151645952Y-111212381D01*
X151550714Y-111260000D01*
X151503095Y-111307619D01*
X151455476Y-111402857D01*
X151455476Y-111498095D01*
X151503095Y-111640952D01*
X152074524Y-112212381D01*
X151455476Y-112212381D01*
X150598333Y-111212381D02*
X150788810Y-111212381D01*
X150884048Y-111260000D01*
X150931667Y-111307619D01*
X151026905Y-111450476D01*
X151074524Y-111640952D01*
X151074524Y-112021905D01*
X151026905Y-112117143D01*
X150979286Y-112164762D01*
X150884048Y-112212381D01*
X150693571Y-112212381D01*
X150598333Y-112164762D01*
X150550714Y-112117143D01*
X150503095Y-112021905D01*
X150503095Y-111783810D01*
X150550714Y-111688571D01*
X150598333Y-111640952D01*
X150693571Y-111593333D01*
X150884048Y-111593333D01*
X150979286Y-111640952D01*
X151026905Y-111688571D01*
X151074524Y-111783810D01*
X152407857Y-122912143D02*
X152455476Y-122959762D01*
X152598333Y-123007381D01*
X152693571Y-123007381D01*
X152836429Y-122959762D01*
X152931667Y-122864524D01*
X152979286Y-122769286D01*
X153026905Y-122578810D01*
X153026905Y-122435952D01*
X152979286Y-122245476D01*
X152931667Y-122150238D01*
X152836429Y-122055000D01*
X152693571Y-122007381D01*
X152598333Y-122007381D01*
X152455476Y-122055000D01*
X152407857Y-122102619D01*
X152026905Y-122102619D02*
X151979286Y-122055000D01*
X151884048Y-122007381D01*
X151645952Y-122007381D01*
X151550714Y-122055000D01*
X151503095Y-122102619D01*
X151455476Y-122197857D01*
X151455476Y-122293095D01*
X151503095Y-122435952D01*
X152074524Y-123007381D01*
X151455476Y-123007381D01*
X151122143Y-122007381D02*
X150455476Y-122007381D01*
X150884048Y-123007381D01*
X151137857Y-141962143D02*
X151185476Y-142009762D01*
X151328333Y-142057381D01*
X151423571Y-142057381D01*
X151566429Y-142009762D01*
X151661667Y-141914524D01*
X151709286Y-141819286D01*
X151756905Y-141628810D01*
X151756905Y-141485952D01*
X151709286Y-141295476D01*
X151661667Y-141200238D01*
X151566429Y-141105000D01*
X151423571Y-141057381D01*
X151328333Y-141057381D01*
X151185476Y-141105000D01*
X151137857Y-141152619D01*
X150756905Y-141152619D02*
X150709286Y-141105000D01*
X150614048Y-141057381D01*
X150375952Y-141057381D01*
X150280714Y-141105000D01*
X150233095Y-141152619D01*
X150185476Y-141247857D01*
X150185476Y-141343095D01*
X150233095Y-141485952D01*
X150804524Y-142057381D01*
X150185476Y-142057381D01*
X149614048Y-141485952D02*
X149709286Y-141438333D01*
X149756905Y-141390714D01*
X149804524Y-141295476D01*
X149804524Y-141247857D01*
X149756905Y-141152619D01*
X149709286Y-141105000D01*
X149614048Y-141057381D01*
X149423571Y-141057381D01*
X149328333Y-141105000D01*
X149280714Y-141152619D01*
X149233095Y-141247857D01*
X149233095Y-141295476D01*
X149280714Y-141390714D01*
X149328333Y-141438333D01*
X149423571Y-141485952D01*
X149614048Y-141485952D01*
X149709286Y-141533571D01*
X149756905Y-141581190D01*
X149804524Y-141676429D01*
X149804524Y-141866905D01*
X149756905Y-141962143D01*
X149709286Y-142009762D01*
X149614048Y-142057381D01*
X149423571Y-142057381D01*
X149328333Y-142009762D01*
X149280714Y-141962143D01*
X149233095Y-141866905D01*
X149233095Y-141676429D01*
X149280714Y-141581190D01*
X149328333Y-141533571D01*
X149423571Y-141485952D01*
X150502857Y-83542143D02*
X150550476Y-83589762D01*
X150693333Y-83637381D01*
X150788571Y-83637381D01*
X150931429Y-83589762D01*
X151026667Y-83494524D01*
X151074286Y-83399286D01*
X151121905Y-83208810D01*
X151121905Y-83065952D01*
X151074286Y-82875476D01*
X151026667Y-82780238D01*
X150931429Y-82685000D01*
X150788571Y-82637381D01*
X150693333Y-82637381D01*
X150550476Y-82685000D01*
X150502857Y-82732619D01*
X150121905Y-82732619D02*
X150074286Y-82685000D01*
X149979048Y-82637381D01*
X149740952Y-82637381D01*
X149645714Y-82685000D01*
X149598095Y-82732619D01*
X149550476Y-82827857D01*
X149550476Y-82923095D01*
X149598095Y-83065952D01*
X150169524Y-83637381D01*
X149550476Y-83637381D01*
X149074286Y-83637381D02*
X148883810Y-83637381D01*
X148788571Y-83589762D01*
X148740952Y-83542143D01*
X148645714Y-83399286D01*
X148598095Y-83208810D01*
X148598095Y-82827857D01*
X148645714Y-82732619D01*
X148693333Y-82685000D01*
X148788571Y-82637381D01*
X148979048Y-82637381D01*
X149074286Y-82685000D01*
X149121905Y-82732619D01*
X149169524Y-82827857D01*
X149169524Y-83065952D01*
X149121905Y-83161190D01*
X149074286Y-83208810D01*
X148979048Y-83256429D01*
X148788571Y-83256429D01*
X148693333Y-83208810D01*
X148645714Y-83161190D01*
X148598095Y-83065952D01*
X158503857Y-75160143D02*
X158551476Y-75207762D01*
X158694333Y-75255381D01*
X158789571Y-75255381D01*
X158932429Y-75207762D01*
X159027667Y-75112524D01*
X159075286Y-75017286D01*
X159122905Y-74826810D01*
X159122905Y-74683952D01*
X159075286Y-74493476D01*
X159027667Y-74398238D01*
X158932429Y-74303000D01*
X158789571Y-74255381D01*
X158694333Y-74255381D01*
X158551476Y-74303000D01*
X158503857Y-74350619D01*
X158170524Y-74255381D02*
X157551476Y-74255381D01*
X157884810Y-74636333D01*
X157741952Y-74636333D01*
X157646714Y-74683952D01*
X157599095Y-74731571D01*
X157551476Y-74826810D01*
X157551476Y-75064905D01*
X157599095Y-75160143D01*
X157646714Y-75207762D01*
X157741952Y-75255381D01*
X158027667Y-75255381D01*
X158122905Y-75207762D01*
X158170524Y-75160143D01*
X156932429Y-74255381D02*
X156837190Y-74255381D01*
X156741952Y-74303000D01*
X156694333Y-74350619D01*
X156646714Y-74445857D01*
X156599095Y-74636333D01*
X156599095Y-74874429D01*
X156646714Y-75064905D01*
X156694333Y-75160143D01*
X156741952Y-75207762D01*
X156837190Y-75255381D01*
X156932429Y-75255381D01*
X157027667Y-75207762D01*
X157075286Y-75160143D01*
X157122905Y-75064905D01*
X157170524Y-74874429D01*
X157170524Y-74636333D01*
X157122905Y-74445857D01*
X157075286Y-74350619D01*
X157027667Y-74303000D01*
X156932429Y-74255381D01*
X158757857Y-89497143D02*
X158805476Y-89544762D01*
X158948333Y-89592381D01*
X159043571Y-89592381D01*
X159186429Y-89544762D01*
X159281667Y-89449524D01*
X159329286Y-89354286D01*
X159376905Y-89163810D01*
X159376905Y-89020952D01*
X159329286Y-88830476D01*
X159281667Y-88735238D01*
X159186429Y-88640000D01*
X159043571Y-88592381D01*
X158948333Y-88592381D01*
X158805476Y-88640000D01*
X158757857Y-88687619D01*
X158424524Y-88592381D02*
X157805476Y-88592381D01*
X158138810Y-88973333D01*
X157995952Y-88973333D01*
X157900714Y-89020952D01*
X157853095Y-89068571D01*
X157805476Y-89163810D01*
X157805476Y-89401905D01*
X157853095Y-89497143D01*
X157900714Y-89544762D01*
X157995952Y-89592381D01*
X158281667Y-89592381D01*
X158376905Y-89544762D01*
X158424524Y-89497143D01*
X156853095Y-89592381D02*
X157424524Y-89592381D01*
X157138810Y-89592381D02*
X157138810Y-88592381D01*
X157234048Y-88735238D01*
X157329286Y-88830476D01*
X157424524Y-88878095D01*
X158757857Y-104102143D02*
X158805476Y-104149762D01*
X158948333Y-104197381D01*
X159043571Y-104197381D01*
X159186429Y-104149762D01*
X159281667Y-104054524D01*
X159329286Y-103959286D01*
X159376905Y-103768810D01*
X159376905Y-103625952D01*
X159329286Y-103435476D01*
X159281667Y-103340238D01*
X159186429Y-103245000D01*
X159043571Y-103197381D01*
X158948333Y-103197381D01*
X158805476Y-103245000D01*
X158757857Y-103292619D01*
X158424524Y-103197381D02*
X157805476Y-103197381D01*
X158138810Y-103578333D01*
X157995952Y-103578333D01*
X157900714Y-103625952D01*
X157853095Y-103673571D01*
X157805476Y-103768810D01*
X157805476Y-104006905D01*
X157853095Y-104102143D01*
X157900714Y-104149762D01*
X157995952Y-104197381D01*
X158281667Y-104197381D01*
X158376905Y-104149762D01*
X158424524Y-104102143D01*
X157424524Y-103292619D02*
X157376905Y-103245000D01*
X157281667Y-103197381D01*
X157043571Y-103197381D01*
X156948333Y-103245000D01*
X156900714Y-103292619D01*
X156853095Y-103387857D01*
X156853095Y-103483095D01*
X156900714Y-103625952D01*
X157472143Y-104197381D01*
X156853095Y-104197381D01*
X158757857Y-119102143D02*
X158805476Y-119149762D01*
X158948333Y-119197381D01*
X159043571Y-119197381D01*
X159186429Y-119149762D01*
X159281667Y-119054524D01*
X159329286Y-118959286D01*
X159376905Y-118768810D01*
X159376905Y-118625952D01*
X159329286Y-118435476D01*
X159281667Y-118340238D01*
X159186429Y-118245000D01*
X159043571Y-118197381D01*
X158948333Y-118197381D01*
X158805476Y-118245000D01*
X158757857Y-118292619D01*
X158424524Y-118197381D02*
X157805476Y-118197381D01*
X158138810Y-118578333D01*
X157995952Y-118578333D01*
X157900714Y-118625952D01*
X157853095Y-118673571D01*
X157805476Y-118768810D01*
X157805476Y-119006905D01*
X157853095Y-119102143D01*
X157900714Y-119149762D01*
X157995952Y-119197381D01*
X158281667Y-119197381D01*
X158376905Y-119149762D01*
X158424524Y-119102143D01*
X157472143Y-118197381D02*
X156853095Y-118197381D01*
X157186429Y-118578333D01*
X157043571Y-118578333D01*
X156948333Y-118625952D01*
X156900714Y-118673571D01*
X156853095Y-118768810D01*
X156853095Y-119006905D01*
X156900714Y-119102143D01*
X156948333Y-119149762D01*
X157043571Y-119197381D01*
X157329286Y-119197381D01*
X157424524Y-119149762D01*
X157472143Y-119102143D01*
X158757857Y-133834143D02*
X158805476Y-133881762D01*
X158948333Y-133929381D01*
X159043571Y-133929381D01*
X159186429Y-133881762D01*
X159281667Y-133786524D01*
X159329286Y-133691286D01*
X159376905Y-133500810D01*
X159376905Y-133357952D01*
X159329286Y-133167476D01*
X159281667Y-133072238D01*
X159186429Y-132977000D01*
X159043571Y-132929381D01*
X158948333Y-132929381D01*
X158805476Y-132977000D01*
X158757857Y-133024619D01*
X158424524Y-132929381D02*
X157805476Y-132929381D01*
X158138810Y-133310333D01*
X157995952Y-133310333D01*
X157900714Y-133357952D01*
X157853095Y-133405571D01*
X157805476Y-133500810D01*
X157805476Y-133738905D01*
X157853095Y-133834143D01*
X157900714Y-133881762D01*
X157995952Y-133929381D01*
X158281667Y-133929381D01*
X158376905Y-133881762D01*
X158424524Y-133834143D01*
X156948333Y-133262714D02*
X156948333Y-133929381D01*
X157186429Y-132881762D02*
X157424524Y-133596048D01*
X156805476Y-133596048D01*
X174079143Y-73525143D02*
X174126762Y-73477524D01*
X174174381Y-73334667D01*
X174174381Y-73239429D01*
X174126762Y-73096571D01*
X174031524Y-73001333D01*
X173936286Y-72953714D01*
X173745810Y-72906095D01*
X173602952Y-72906095D01*
X173412476Y-72953714D01*
X173317238Y-73001333D01*
X173222000Y-73096571D01*
X173174381Y-73239429D01*
X173174381Y-73334667D01*
X173222000Y-73477524D01*
X173269619Y-73525143D01*
X173507714Y-74382286D02*
X174174381Y-74382286D01*
X173126762Y-74144190D02*
X173841048Y-73906095D01*
X173841048Y-74525143D01*
X174174381Y-74953714D02*
X174174381Y-75144190D01*
X174126762Y-75239429D01*
X174079143Y-75287048D01*
X173936286Y-75382286D01*
X173745810Y-75429905D01*
X173364857Y-75429905D01*
X173269619Y-75382286D01*
X173222000Y-75334667D01*
X173174381Y-75239429D01*
X173174381Y-75048952D01*
X173222000Y-74953714D01*
X173269619Y-74906095D01*
X173364857Y-74858476D01*
X173602952Y-74858476D01*
X173698190Y-74906095D01*
X173745810Y-74953714D01*
X173793429Y-75048952D01*
X173793429Y-75239429D01*
X173745810Y-75334667D01*
X173698190Y-75382286D01*
X173602952Y-75429905D01*
X180855857Y-67794143D02*
X180903476Y-67841762D01*
X181046333Y-67889381D01*
X181141571Y-67889381D01*
X181284429Y-67841762D01*
X181379667Y-67746524D01*
X181427286Y-67651286D01*
X181474905Y-67460810D01*
X181474905Y-67317952D01*
X181427286Y-67127476D01*
X181379667Y-67032238D01*
X181284429Y-66937000D01*
X181141571Y-66889381D01*
X181046333Y-66889381D01*
X180903476Y-66937000D01*
X180855857Y-66984619D01*
X179951095Y-66889381D02*
X180427286Y-66889381D01*
X180474905Y-67365571D01*
X180427286Y-67317952D01*
X180332048Y-67270333D01*
X180093952Y-67270333D01*
X179998714Y-67317952D01*
X179951095Y-67365571D01*
X179903476Y-67460810D01*
X179903476Y-67698905D01*
X179951095Y-67794143D01*
X179998714Y-67841762D01*
X180093952Y-67889381D01*
X180332048Y-67889381D01*
X180427286Y-67841762D01*
X180474905Y-67794143D01*
X179284429Y-66889381D02*
X179189190Y-66889381D01*
X179093952Y-66937000D01*
X179046333Y-66984619D01*
X178998714Y-67079857D01*
X178951095Y-67270333D01*
X178951095Y-67508429D01*
X178998714Y-67698905D01*
X179046333Y-67794143D01*
X179093952Y-67841762D01*
X179189190Y-67889381D01*
X179284429Y-67889381D01*
X179379667Y-67841762D01*
X179427286Y-67794143D01*
X179474905Y-67698905D01*
X179522524Y-67508429D01*
X179522524Y-67270333D01*
X179474905Y-67079857D01*
X179427286Y-66984619D01*
X179379667Y-66937000D01*
X179284429Y-66889381D01*
X186062857Y-72352143D02*
X186110476Y-72399762D01*
X186253333Y-72447381D01*
X186348571Y-72447381D01*
X186491429Y-72399762D01*
X186586667Y-72304524D01*
X186634286Y-72209286D01*
X186681905Y-72018810D01*
X186681905Y-71875952D01*
X186634286Y-71685476D01*
X186586667Y-71590238D01*
X186491429Y-71495000D01*
X186348571Y-71447381D01*
X186253333Y-71447381D01*
X186110476Y-71495000D01*
X186062857Y-71542619D01*
X185158095Y-71447381D02*
X185634286Y-71447381D01*
X185681905Y-71923571D01*
X185634286Y-71875952D01*
X185539048Y-71828333D01*
X185300952Y-71828333D01*
X185205714Y-71875952D01*
X185158095Y-71923571D01*
X185110476Y-72018810D01*
X185110476Y-72256905D01*
X185158095Y-72352143D01*
X185205714Y-72399762D01*
X185300952Y-72447381D01*
X185539048Y-72447381D01*
X185634286Y-72399762D01*
X185681905Y-72352143D01*
X184158095Y-72447381D02*
X184729524Y-72447381D01*
X184443810Y-72447381D02*
X184443810Y-71447381D01*
X184539048Y-71590238D01*
X184634286Y-71685476D01*
X184729524Y-71733095D01*
X191396857Y-71872143D02*
X191444476Y-71919762D01*
X191587333Y-71967381D01*
X191682571Y-71967381D01*
X191825429Y-71919762D01*
X191920667Y-71824524D01*
X191968286Y-71729286D01*
X192015905Y-71538810D01*
X192015905Y-71395952D01*
X191968286Y-71205476D01*
X191920667Y-71110238D01*
X191825429Y-71015000D01*
X191682571Y-70967381D01*
X191587333Y-70967381D01*
X191444476Y-71015000D01*
X191396857Y-71062619D01*
X190492095Y-70967381D02*
X190968286Y-70967381D01*
X191015905Y-71443571D01*
X190968286Y-71395952D01*
X190873048Y-71348333D01*
X190634952Y-71348333D01*
X190539714Y-71395952D01*
X190492095Y-71443571D01*
X190444476Y-71538810D01*
X190444476Y-71776905D01*
X190492095Y-71872143D01*
X190539714Y-71919762D01*
X190634952Y-71967381D01*
X190873048Y-71967381D01*
X190968286Y-71919762D01*
X191015905Y-71872143D01*
X190063524Y-71062619D02*
X190015905Y-71015000D01*
X189920667Y-70967381D01*
X189682571Y-70967381D01*
X189587333Y-71015000D01*
X189539714Y-71062619D01*
X189492095Y-71157857D01*
X189492095Y-71253095D01*
X189539714Y-71395952D01*
X190111143Y-71967381D01*
X189492095Y-71967381D01*
X193174857Y-84939143D02*
X193222476Y-84986762D01*
X193365333Y-85034381D01*
X193460571Y-85034381D01*
X193603429Y-84986762D01*
X193698667Y-84891524D01*
X193746286Y-84796286D01*
X193793905Y-84605810D01*
X193793905Y-84462952D01*
X193746286Y-84272476D01*
X193698667Y-84177238D01*
X193603429Y-84082000D01*
X193460571Y-84034381D01*
X193365333Y-84034381D01*
X193222476Y-84082000D01*
X193174857Y-84129619D01*
X192270095Y-84034381D02*
X192746286Y-84034381D01*
X192793905Y-84510571D01*
X192746286Y-84462952D01*
X192651048Y-84415333D01*
X192412952Y-84415333D01*
X192317714Y-84462952D01*
X192270095Y-84510571D01*
X192222476Y-84605810D01*
X192222476Y-84843905D01*
X192270095Y-84939143D01*
X192317714Y-84986762D01*
X192412952Y-85034381D01*
X192651048Y-85034381D01*
X192746286Y-84986762D01*
X192793905Y-84939143D01*
X191889143Y-84034381D02*
X191270095Y-84034381D01*
X191603429Y-84415333D01*
X191460571Y-84415333D01*
X191365333Y-84462952D01*
X191317714Y-84510571D01*
X191270095Y-84605810D01*
X191270095Y-84843905D01*
X191317714Y-84939143D01*
X191365333Y-84986762D01*
X191460571Y-85034381D01*
X191746286Y-85034381D01*
X191841524Y-84986762D01*
X191889143Y-84939143D01*
X193174857Y-97258143D02*
X193222476Y-97305762D01*
X193365333Y-97353381D01*
X193460571Y-97353381D01*
X193603429Y-97305762D01*
X193698667Y-97210524D01*
X193746286Y-97115286D01*
X193793905Y-96924810D01*
X193793905Y-96781952D01*
X193746286Y-96591476D01*
X193698667Y-96496238D01*
X193603429Y-96401000D01*
X193460571Y-96353381D01*
X193365333Y-96353381D01*
X193222476Y-96401000D01*
X193174857Y-96448619D01*
X192270095Y-96353381D02*
X192746286Y-96353381D01*
X192793905Y-96829571D01*
X192746286Y-96781952D01*
X192651048Y-96734333D01*
X192412952Y-96734333D01*
X192317714Y-96781952D01*
X192270095Y-96829571D01*
X192222476Y-96924810D01*
X192222476Y-97162905D01*
X192270095Y-97258143D01*
X192317714Y-97305762D01*
X192412952Y-97353381D01*
X192651048Y-97353381D01*
X192746286Y-97305762D01*
X192793905Y-97258143D01*
X191365333Y-96686714D02*
X191365333Y-97353381D01*
X191603429Y-96305762D02*
X191841524Y-97020048D01*
X191222476Y-97020048D01*
X193174857Y-110085143D02*
X193222476Y-110132762D01*
X193365333Y-110180381D01*
X193460571Y-110180381D01*
X193603429Y-110132762D01*
X193698667Y-110037524D01*
X193746286Y-109942286D01*
X193793905Y-109751810D01*
X193793905Y-109608952D01*
X193746286Y-109418476D01*
X193698667Y-109323238D01*
X193603429Y-109228000D01*
X193460571Y-109180381D01*
X193365333Y-109180381D01*
X193222476Y-109228000D01*
X193174857Y-109275619D01*
X192270095Y-109180381D02*
X192746286Y-109180381D01*
X192793905Y-109656571D01*
X192746286Y-109608952D01*
X192651048Y-109561333D01*
X192412952Y-109561333D01*
X192317714Y-109608952D01*
X192270095Y-109656571D01*
X192222476Y-109751810D01*
X192222476Y-109989905D01*
X192270095Y-110085143D01*
X192317714Y-110132762D01*
X192412952Y-110180381D01*
X192651048Y-110180381D01*
X192746286Y-110132762D01*
X192793905Y-110085143D01*
X191317714Y-109180381D02*
X191793905Y-109180381D01*
X191841524Y-109656571D01*
X191793905Y-109608952D01*
X191698667Y-109561333D01*
X191460571Y-109561333D01*
X191365333Y-109608952D01*
X191317714Y-109656571D01*
X191270095Y-109751810D01*
X191270095Y-109989905D01*
X191317714Y-110085143D01*
X191365333Y-110132762D01*
X191460571Y-110180381D01*
X191698667Y-110180381D01*
X191793905Y-110132762D01*
X191841524Y-110085143D01*
X193174857Y-122785143D02*
X193222476Y-122832762D01*
X193365333Y-122880381D01*
X193460571Y-122880381D01*
X193603429Y-122832762D01*
X193698667Y-122737524D01*
X193746286Y-122642286D01*
X193793905Y-122451810D01*
X193793905Y-122308952D01*
X193746286Y-122118476D01*
X193698667Y-122023238D01*
X193603429Y-121928000D01*
X193460571Y-121880381D01*
X193365333Y-121880381D01*
X193222476Y-121928000D01*
X193174857Y-121975619D01*
X192270095Y-121880381D02*
X192746286Y-121880381D01*
X192793905Y-122356571D01*
X192746286Y-122308952D01*
X192651048Y-122261333D01*
X192412952Y-122261333D01*
X192317714Y-122308952D01*
X192270095Y-122356571D01*
X192222476Y-122451810D01*
X192222476Y-122689905D01*
X192270095Y-122785143D01*
X192317714Y-122832762D01*
X192412952Y-122880381D01*
X192651048Y-122880381D01*
X192746286Y-122832762D01*
X192793905Y-122785143D01*
X191365333Y-121880381D02*
X191555810Y-121880381D01*
X191651048Y-121928000D01*
X191698667Y-121975619D01*
X191793905Y-122118476D01*
X191841524Y-122308952D01*
X191841524Y-122689905D01*
X191793905Y-122785143D01*
X191746286Y-122832762D01*
X191651048Y-122880381D01*
X191460571Y-122880381D01*
X191365333Y-122832762D01*
X191317714Y-122785143D01*
X191270095Y-122689905D01*
X191270095Y-122451810D01*
X191317714Y-122356571D01*
X191365333Y-122308952D01*
X191460571Y-122261333D01*
X191651048Y-122261333D01*
X191746286Y-122308952D01*
X191793905Y-122356571D01*
X191841524Y-122451810D01*
X201429857Y-76952143D02*
X201477476Y-76999762D01*
X201620333Y-77047381D01*
X201715571Y-77047381D01*
X201858429Y-76999762D01*
X201953667Y-76904524D01*
X202001286Y-76809286D01*
X202048905Y-76618810D01*
X202048905Y-76475952D01*
X202001286Y-76285476D01*
X201953667Y-76190238D01*
X201858429Y-76095000D01*
X201715571Y-76047381D01*
X201620333Y-76047381D01*
X201477476Y-76095000D01*
X201429857Y-76142619D01*
X200525095Y-76047381D02*
X201001286Y-76047381D01*
X201048905Y-76523571D01*
X201001286Y-76475952D01*
X200906048Y-76428333D01*
X200667952Y-76428333D01*
X200572714Y-76475952D01*
X200525095Y-76523571D01*
X200477476Y-76618810D01*
X200477476Y-76856905D01*
X200525095Y-76952143D01*
X200572714Y-76999762D01*
X200667952Y-77047381D01*
X200906048Y-77047381D01*
X201001286Y-76999762D01*
X201048905Y-76952143D01*
X200144143Y-76047381D02*
X199477476Y-76047381D01*
X199906048Y-77047381D01*
X199524857Y-89497143D02*
X199572476Y-89544762D01*
X199715333Y-89592381D01*
X199810571Y-89592381D01*
X199953429Y-89544762D01*
X200048667Y-89449524D01*
X200096286Y-89354286D01*
X200143905Y-89163810D01*
X200143905Y-89020952D01*
X200096286Y-88830476D01*
X200048667Y-88735238D01*
X199953429Y-88640000D01*
X199810571Y-88592381D01*
X199715333Y-88592381D01*
X199572476Y-88640000D01*
X199524857Y-88687619D01*
X198620095Y-88592381D02*
X199096286Y-88592381D01*
X199143905Y-89068571D01*
X199096286Y-89020952D01*
X199001048Y-88973333D01*
X198762952Y-88973333D01*
X198667714Y-89020952D01*
X198620095Y-89068571D01*
X198572476Y-89163810D01*
X198572476Y-89401905D01*
X198620095Y-89497143D01*
X198667714Y-89544762D01*
X198762952Y-89592381D01*
X199001048Y-89592381D01*
X199096286Y-89544762D01*
X199143905Y-89497143D01*
X198001048Y-89020952D02*
X198096286Y-88973333D01*
X198143905Y-88925714D01*
X198191524Y-88830476D01*
X198191524Y-88782857D01*
X198143905Y-88687619D01*
X198096286Y-88640000D01*
X198001048Y-88592381D01*
X197810571Y-88592381D01*
X197715333Y-88640000D01*
X197667714Y-88687619D01*
X197620095Y-88782857D01*
X197620095Y-88830476D01*
X197667714Y-88925714D01*
X197715333Y-88973333D01*
X197810571Y-89020952D01*
X198001048Y-89020952D01*
X198096286Y-89068571D01*
X198143905Y-89116190D01*
X198191524Y-89211429D01*
X198191524Y-89401905D01*
X198143905Y-89497143D01*
X198096286Y-89544762D01*
X198001048Y-89592381D01*
X197810571Y-89592381D01*
X197715333Y-89544762D01*
X197667714Y-89497143D01*
X197620095Y-89401905D01*
X197620095Y-89211429D01*
X197667714Y-89116190D01*
X197715333Y-89068571D01*
X197810571Y-89020952D01*
X199524857Y-102197143D02*
X199572476Y-102244762D01*
X199715333Y-102292381D01*
X199810571Y-102292381D01*
X199953429Y-102244762D01*
X200048667Y-102149524D01*
X200096286Y-102054286D01*
X200143905Y-101863810D01*
X200143905Y-101720952D01*
X200096286Y-101530476D01*
X200048667Y-101435238D01*
X199953429Y-101340000D01*
X199810571Y-101292381D01*
X199715333Y-101292381D01*
X199572476Y-101340000D01*
X199524857Y-101387619D01*
X198620095Y-101292381D02*
X199096286Y-101292381D01*
X199143905Y-101768571D01*
X199096286Y-101720952D01*
X199001048Y-101673333D01*
X198762952Y-101673333D01*
X198667714Y-101720952D01*
X198620095Y-101768571D01*
X198572476Y-101863810D01*
X198572476Y-102101905D01*
X198620095Y-102197143D01*
X198667714Y-102244762D01*
X198762952Y-102292381D01*
X199001048Y-102292381D01*
X199096286Y-102244762D01*
X199143905Y-102197143D01*
X198096286Y-102292381D02*
X197905810Y-102292381D01*
X197810571Y-102244762D01*
X197762952Y-102197143D01*
X197667714Y-102054286D01*
X197620095Y-101863810D01*
X197620095Y-101482857D01*
X197667714Y-101387619D01*
X197715333Y-101340000D01*
X197810571Y-101292381D01*
X198001048Y-101292381D01*
X198096286Y-101340000D01*
X198143905Y-101387619D01*
X198191524Y-101482857D01*
X198191524Y-101720952D01*
X198143905Y-101816190D01*
X198096286Y-101863810D01*
X198001048Y-101911429D01*
X197810571Y-101911429D01*
X197715333Y-101863810D01*
X197667714Y-101816190D01*
X197620095Y-101720952D01*
X199524857Y-114897143D02*
X199572476Y-114944762D01*
X199715333Y-114992381D01*
X199810571Y-114992381D01*
X199953429Y-114944762D01*
X200048667Y-114849524D01*
X200096286Y-114754286D01*
X200143905Y-114563810D01*
X200143905Y-114420952D01*
X200096286Y-114230476D01*
X200048667Y-114135238D01*
X199953429Y-114040000D01*
X199810571Y-113992381D01*
X199715333Y-113992381D01*
X199572476Y-114040000D01*
X199524857Y-114087619D01*
X198667714Y-113992381D02*
X198858191Y-113992381D01*
X198953429Y-114040000D01*
X199001048Y-114087619D01*
X199096286Y-114230476D01*
X199143905Y-114420952D01*
X199143905Y-114801905D01*
X199096286Y-114897143D01*
X199048667Y-114944762D01*
X198953429Y-114992381D01*
X198762952Y-114992381D01*
X198667714Y-114944762D01*
X198620095Y-114897143D01*
X198572476Y-114801905D01*
X198572476Y-114563810D01*
X198620095Y-114468571D01*
X198667714Y-114420952D01*
X198762952Y-114373333D01*
X198953429Y-114373333D01*
X199048667Y-114420952D01*
X199096286Y-114468571D01*
X199143905Y-114563810D01*
X197953429Y-113992381D02*
X197858190Y-113992381D01*
X197762952Y-114040000D01*
X197715333Y-114087619D01*
X197667714Y-114182857D01*
X197620095Y-114373333D01*
X197620095Y-114611429D01*
X197667714Y-114801905D01*
X197715333Y-114897143D01*
X197762952Y-114944762D01*
X197858190Y-114992381D01*
X197953429Y-114992381D01*
X198048667Y-114944762D01*
X198096286Y-114897143D01*
X198143905Y-114801905D01*
X198191524Y-114611429D01*
X198191524Y-114373333D01*
X198143905Y-114182857D01*
X198096286Y-114087619D01*
X198048667Y-114040000D01*
X197953429Y-113992381D01*
X199397857Y-127597143D02*
X199445476Y-127644762D01*
X199588333Y-127692381D01*
X199683571Y-127692381D01*
X199826429Y-127644762D01*
X199921667Y-127549524D01*
X199969286Y-127454286D01*
X200016905Y-127263810D01*
X200016905Y-127120952D01*
X199969286Y-126930476D01*
X199921667Y-126835238D01*
X199826429Y-126740000D01*
X199683571Y-126692381D01*
X199588333Y-126692381D01*
X199445476Y-126740000D01*
X199397857Y-126787619D01*
X198540714Y-126692381D02*
X198731191Y-126692381D01*
X198826429Y-126740000D01*
X198874048Y-126787619D01*
X198969286Y-126930476D01*
X199016905Y-127120952D01*
X199016905Y-127501905D01*
X198969286Y-127597143D01*
X198921667Y-127644762D01*
X198826429Y-127692381D01*
X198635952Y-127692381D01*
X198540714Y-127644762D01*
X198493095Y-127597143D01*
X198445476Y-127501905D01*
X198445476Y-127263810D01*
X198493095Y-127168571D01*
X198540714Y-127120952D01*
X198635952Y-127073333D01*
X198826429Y-127073333D01*
X198921667Y-127120952D01*
X198969286Y-127168571D01*
X199016905Y-127263810D01*
X197493095Y-127692381D02*
X198064524Y-127692381D01*
X197778810Y-127692381D02*
X197778810Y-126692381D01*
X197874048Y-126835238D01*
X197969286Y-126930476D01*
X198064524Y-126978095D01*
X209557857Y-76952143D02*
X209605476Y-76999762D01*
X209748333Y-77047381D01*
X209843571Y-77047381D01*
X209986429Y-76999762D01*
X210081667Y-76904524D01*
X210129286Y-76809286D01*
X210176905Y-76618810D01*
X210176905Y-76475952D01*
X210129286Y-76285476D01*
X210081667Y-76190238D01*
X209986429Y-76095000D01*
X209843571Y-76047381D01*
X209748333Y-76047381D01*
X209605476Y-76095000D01*
X209557857Y-76142619D01*
X208700714Y-76047381D02*
X208891191Y-76047381D01*
X208986429Y-76095000D01*
X209034048Y-76142619D01*
X209129286Y-76285476D01*
X209176905Y-76475952D01*
X209176905Y-76856905D01*
X209129286Y-76952143D01*
X209081667Y-76999762D01*
X208986429Y-77047381D01*
X208795952Y-77047381D01*
X208700714Y-76999762D01*
X208653095Y-76952143D01*
X208605476Y-76856905D01*
X208605476Y-76618810D01*
X208653095Y-76523571D01*
X208700714Y-76475952D01*
X208795952Y-76428333D01*
X208986429Y-76428333D01*
X209081667Y-76475952D01*
X209129286Y-76523571D01*
X209176905Y-76618810D01*
X208224524Y-76142619D02*
X208176905Y-76095000D01*
X208081667Y-76047381D01*
X207843571Y-76047381D01*
X207748333Y-76095000D01*
X207700714Y-76142619D01*
X207653095Y-76237857D01*
X207653095Y-76333095D01*
X207700714Y-76475952D01*
X208272143Y-77047381D01*
X207653095Y-77047381D01*
X205112857Y-88382143D02*
X205160476Y-88429762D01*
X205303333Y-88477381D01*
X205398571Y-88477381D01*
X205541429Y-88429762D01*
X205636667Y-88334524D01*
X205684286Y-88239286D01*
X205731905Y-88048810D01*
X205731905Y-87905952D01*
X205684286Y-87715476D01*
X205636667Y-87620238D01*
X205541429Y-87525000D01*
X205398571Y-87477381D01*
X205303333Y-87477381D01*
X205160476Y-87525000D01*
X205112857Y-87572619D01*
X204255714Y-87477381D02*
X204446191Y-87477381D01*
X204541429Y-87525000D01*
X204589048Y-87572619D01*
X204684286Y-87715476D01*
X204731905Y-87905952D01*
X204731905Y-88286905D01*
X204684286Y-88382143D01*
X204636667Y-88429762D01*
X204541429Y-88477381D01*
X204350952Y-88477381D01*
X204255714Y-88429762D01*
X204208095Y-88382143D01*
X204160476Y-88286905D01*
X204160476Y-88048810D01*
X204208095Y-87953571D01*
X204255714Y-87905952D01*
X204350952Y-87858333D01*
X204541429Y-87858333D01*
X204636667Y-87905952D01*
X204684286Y-87953571D01*
X204731905Y-88048810D01*
X203827143Y-87477381D02*
X203208095Y-87477381D01*
X203541429Y-87858333D01*
X203398571Y-87858333D01*
X203303333Y-87905952D01*
X203255714Y-87953571D01*
X203208095Y-88048810D01*
X203208095Y-88286905D01*
X203255714Y-88382143D01*
X203303333Y-88429762D01*
X203398571Y-88477381D01*
X203684286Y-88477381D01*
X203779524Y-88429762D01*
X203827143Y-88382143D01*
X205112857Y-101082143D02*
X205160476Y-101129762D01*
X205303333Y-101177381D01*
X205398571Y-101177381D01*
X205541429Y-101129762D01*
X205636667Y-101034524D01*
X205684286Y-100939286D01*
X205731905Y-100748810D01*
X205731905Y-100605952D01*
X205684286Y-100415476D01*
X205636667Y-100320238D01*
X205541429Y-100225000D01*
X205398571Y-100177381D01*
X205303333Y-100177381D01*
X205160476Y-100225000D01*
X205112857Y-100272619D01*
X204255714Y-100177381D02*
X204446191Y-100177381D01*
X204541429Y-100225000D01*
X204589048Y-100272619D01*
X204684286Y-100415476D01*
X204731905Y-100605952D01*
X204731905Y-100986905D01*
X204684286Y-101082143D01*
X204636667Y-101129762D01*
X204541429Y-101177381D01*
X204350952Y-101177381D01*
X204255714Y-101129762D01*
X204208095Y-101082143D01*
X204160476Y-100986905D01*
X204160476Y-100748810D01*
X204208095Y-100653571D01*
X204255714Y-100605952D01*
X204350952Y-100558333D01*
X204541429Y-100558333D01*
X204636667Y-100605952D01*
X204684286Y-100653571D01*
X204731905Y-100748810D01*
X203303333Y-100510714D02*
X203303333Y-101177381D01*
X203541429Y-100129762D02*
X203779524Y-100844048D01*
X203160476Y-100844048D01*
X205112857Y-113782143D02*
X205160476Y-113829762D01*
X205303333Y-113877381D01*
X205398571Y-113877381D01*
X205541429Y-113829762D01*
X205636667Y-113734524D01*
X205684286Y-113639286D01*
X205731905Y-113448810D01*
X205731905Y-113305952D01*
X205684286Y-113115476D01*
X205636667Y-113020238D01*
X205541429Y-112925000D01*
X205398571Y-112877381D01*
X205303333Y-112877381D01*
X205160476Y-112925000D01*
X205112857Y-112972619D01*
X204255714Y-112877381D02*
X204446191Y-112877381D01*
X204541429Y-112925000D01*
X204589048Y-112972619D01*
X204684286Y-113115476D01*
X204731905Y-113305952D01*
X204731905Y-113686905D01*
X204684286Y-113782143D01*
X204636667Y-113829762D01*
X204541429Y-113877381D01*
X204350952Y-113877381D01*
X204255714Y-113829762D01*
X204208095Y-113782143D01*
X204160476Y-113686905D01*
X204160476Y-113448810D01*
X204208095Y-113353571D01*
X204255714Y-113305952D01*
X204350952Y-113258333D01*
X204541429Y-113258333D01*
X204636667Y-113305952D01*
X204684286Y-113353571D01*
X204731905Y-113448810D01*
X203255714Y-112877381D02*
X203731905Y-112877381D01*
X203779524Y-113353571D01*
X203731905Y-113305952D01*
X203636667Y-113258333D01*
X203398571Y-113258333D01*
X203303333Y-113305952D01*
X203255714Y-113353571D01*
X203208095Y-113448810D01*
X203208095Y-113686905D01*
X203255714Y-113782143D01*
X203303333Y-113829762D01*
X203398571Y-113877381D01*
X203636667Y-113877381D01*
X203731905Y-113829762D01*
X203779524Y-113782143D01*
X205112857Y-126482143D02*
X205160476Y-126529762D01*
X205303333Y-126577381D01*
X205398571Y-126577381D01*
X205541429Y-126529762D01*
X205636667Y-126434524D01*
X205684286Y-126339286D01*
X205731905Y-126148810D01*
X205731905Y-126005952D01*
X205684286Y-125815476D01*
X205636667Y-125720238D01*
X205541429Y-125625000D01*
X205398571Y-125577381D01*
X205303333Y-125577381D01*
X205160476Y-125625000D01*
X205112857Y-125672619D01*
X204255714Y-125577381D02*
X204446191Y-125577381D01*
X204541429Y-125625000D01*
X204589048Y-125672619D01*
X204684286Y-125815476D01*
X204731905Y-126005952D01*
X204731905Y-126386905D01*
X204684286Y-126482143D01*
X204636667Y-126529762D01*
X204541429Y-126577381D01*
X204350952Y-126577381D01*
X204255714Y-126529762D01*
X204208095Y-126482143D01*
X204160476Y-126386905D01*
X204160476Y-126148810D01*
X204208095Y-126053571D01*
X204255714Y-126005952D01*
X204350952Y-125958333D01*
X204541429Y-125958333D01*
X204636667Y-126005952D01*
X204684286Y-126053571D01*
X204731905Y-126148810D01*
X203303333Y-125577381D02*
X203493810Y-125577381D01*
X203589048Y-125625000D01*
X203636667Y-125672619D01*
X203731905Y-125815476D01*
X203779524Y-126005952D01*
X203779524Y-126386905D01*
X203731905Y-126482143D01*
X203684286Y-126529762D01*
X203589048Y-126577381D01*
X203398571Y-126577381D01*
X203303333Y-126529762D01*
X203255714Y-126482143D01*
X203208095Y-126386905D01*
X203208095Y-126148810D01*
X203255714Y-126053571D01*
X203303333Y-126005952D01*
X203398571Y-125958333D01*
X203589048Y-125958333D01*
X203684286Y-126005952D01*
X203731905Y-126053571D01*
X203779524Y-126148810D01*
X140430238Y-68782619D02*
X140525476Y-68735000D01*
X140620714Y-68639762D01*
X140763571Y-68496905D01*
X140858810Y-68449286D01*
X140954048Y-68449286D01*
X140906429Y-68687381D02*
X141001667Y-68639762D01*
X141096905Y-68544524D01*
X141144524Y-68354048D01*
X141144524Y-68020714D01*
X141096905Y-67830238D01*
X141001667Y-67735000D01*
X140906429Y-67687381D01*
X140715952Y-67687381D01*
X140620714Y-67735000D01*
X140525476Y-67830238D01*
X140477857Y-68020714D01*
X140477857Y-68354048D01*
X140525476Y-68544524D01*
X140620714Y-68639762D01*
X140715952Y-68687381D01*
X140906429Y-68687381D01*
X139525476Y-68687381D02*
X140096905Y-68687381D01*
X139811191Y-68687381D02*
X139811191Y-67687381D01*
X139906429Y-67830238D01*
X140001667Y-67925476D01*
X140096905Y-67973095D01*
X169386238Y-82716619D02*
X169481476Y-82669000D01*
X169576714Y-82573762D01*
X169719571Y-82430905D01*
X169814810Y-82383286D01*
X169910048Y-82383286D01*
X169862429Y-82621381D02*
X169957667Y-82573762D01*
X170052905Y-82478524D01*
X170100524Y-82288048D01*
X170100524Y-81954714D01*
X170052905Y-81764238D01*
X169957667Y-81669000D01*
X169862429Y-81621381D01*
X169671952Y-81621381D01*
X169576714Y-81669000D01*
X169481476Y-81764238D01*
X169433857Y-81954714D01*
X169433857Y-82288048D01*
X169481476Y-82478524D01*
X169576714Y-82573762D01*
X169671952Y-82621381D01*
X169862429Y-82621381D01*
X169052905Y-81716619D02*
X169005286Y-81669000D01*
X168910048Y-81621381D01*
X168671952Y-81621381D01*
X168576714Y-81669000D01*
X168529095Y-81716619D01*
X168481476Y-81811857D01*
X168481476Y-81907095D01*
X168529095Y-82049952D01*
X169100524Y-82621381D01*
X168481476Y-82621381D01*
X169640238Y-97702619D02*
X169735476Y-97655000D01*
X169830714Y-97559762D01*
X169973571Y-97416905D01*
X170068810Y-97369286D01*
X170164048Y-97369286D01*
X170116429Y-97607381D02*
X170211667Y-97559762D01*
X170306905Y-97464524D01*
X170354524Y-97274048D01*
X170354524Y-96940714D01*
X170306905Y-96750238D01*
X170211667Y-96655000D01*
X170116429Y-96607381D01*
X169925952Y-96607381D01*
X169830714Y-96655000D01*
X169735476Y-96750238D01*
X169687857Y-96940714D01*
X169687857Y-97274048D01*
X169735476Y-97464524D01*
X169830714Y-97559762D01*
X169925952Y-97607381D01*
X170116429Y-97607381D01*
X169354524Y-96607381D02*
X168735476Y-96607381D01*
X169068810Y-96988333D01*
X168925952Y-96988333D01*
X168830714Y-97035952D01*
X168783095Y-97083571D01*
X168735476Y-97178810D01*
X168735476Y-97416905D01*
X168783095Y-97512143D01*
X168830714Y-97559762D01*
X168925952Y-97607381D01*
X169211667Y-97607381D01*
X169306905Y-97559762D01*
X169354524Y-97512143D01*
X169640238Y-112942619D02*
X169735476Y-112895000D01*
X169830714Y-112799762D01*
X169973571Y-112656905D01*
X170068810Y-112609286D01*
X170164048Y-112609286D01*
X170116429Y-112847381D02*
X170211667Y-112799762D01*
X170306905Y-112704524D01*
X170354524Y-112514048D01*
X170354524Y-112180714D01*
X170306905Y-111990238D01*
X170211667Y-111895000D01*
X170116429Y-111847381D01*
X169925952Y-111847381D01*
X169830714Y-111895000D01*
X169735476Y-111990238D01*
X169687857Y-112180714D01*
X169687857Y-112514048D01*
X169735476Y-112704524D01*
X169830714Y-112799762D01*
X169925952Y-112847381D01*
X170116429Y-112847381D01*
X168830714Y-112180714D02*
X168830714Y-112847381D01*
X169068810Y-111799762D02*
X169306905Y-112514048D01*
X168687857Y-112514048D01*
X169640238Y-126912619D02*
X169735476Y-126865000D01*
X169830714Y-126769762D01*
X169973571Y-126626905D01*
X170068810Y-126579286D01*
X170164048Y-126579286D01*
X170116429Y-126817381D02*
X170211667Y-126769762D01*
X170306905Y-126674524D01*
X170354524Y-126484048D01*
X170354524Y-126150714D01*
X170306905Y-125960238D01*
X170211667Y-125865000D01*
X170116429Y-125817381D01*
X169925952Y-125817381D01*
X169830714Y-125865000D01*
X169735476Y-125960238D01*
X169687857Y-126150714D01*
X169687857Y-126484048D01*
X169735476Y-126674524D01*
X169830714Y-126769762D01*
X169925952Y-126817381D01*
X170116429Y-126817381D01*
X168783095Y-125817381D02*
X169259286Y-125817381D01*
X169306905Y-126293571D01*
X169259286Y-126245952D01*
X169164048Y-126198333D01*
X168925952Y-126198333D01*
X168830714Y-126245952D01*
X168783095Y-126293571D01*
X168735476Y-126388810D01*
X168735476Y-126626905D01*
X168783095Y-126722143D01*
X168830714Y-126769762D01*
X168925952Y-126817381D01*
X169164048Y-126817381D01*
X169259286Y-126769762D01*
X169306905Y-126722143D01*
X169640238Y-141517619D02*
X169735476Y-141470000D01*
X169830714Y-141374762D01*
X169973571Y-141231905D01*
X170068810Y-141184286D01*
X170164048Y-141184286D01*
X170116429Y-141422381D02*
X170211667Y-141374762D01*
X170306905Y-141279524D01*
X170354524Y-141089048D01*
X170354524Y-140755714D01*
X170306905Y-140565238D01*
X170211667Y-140470000D01*
X170116429Y-140422381D01*
X169925952Y-140422381D01*
X169830714Y-140470000D01*
X169735476Y-140565238D01*
X169687857Y-140755714D01*
X169687857Y-141089048D01*
X169735476Y-141279524D01*
X169830714Y-141374762D01*
X169925952Y-141422381D01*
X170116429Y-141422381D01*
X168830714Y-140422381D02*
X169021191Y-140422381D01*
X169116429Y-140470000D01*
X169164048Y-140517619D01*
X169259286Y-140660476D01*
X169306905Y-140850952D01*
X169306905Y-141231905D01*
X169259286Y-141327143D01*
X169211667Y-141374762D01*
X169116429Y-141422381D01*
X168925952Y-141422381D01*
X168830714Y-141374762D01*
X168783095Y-141327143D01*
X168735476Y-141231905D01*
X168735476Y-140993810D01*
X168783095Y-140898571D01*
X168830714Y-140850952D01*
X168925952Y-140803333D01*
X169116429Y-140803333D01*
X169211667Y-140850952D01*
X169259286Y-140898571D01*
X169306905Y-140993810D01*
X136215381Y-147534334D02*
X135739190Y-147201000D01*
X136215381Y-146962905D02*
X135215381Y-146962905D01*
X135215381Y-147343858D01*
X135263000Y-147439096D01*
X135310619Y-147486715D01*
X135405857Y-147534334D01*
X135548714Y-147534334D01*
X135643952Y-147486715D01*
X135691571Y-147439096D01*
X135739190Y-147343858D01*
X135739190Y-146962905D01*
X136215381Y-148486715D02*
X136215381Y-147915286D01*
X136215381Y-148201000D02*
X135215381Y-148201000D01*
X135358238Y-148105762D01*
X135453476Y-148010524D01*
X135501095Y-147915286D01*
X128644881Y-147470834D02*
X128168690Y-147137500D01*
X128644881Y-146899405D02*
X127644881Y-146899405D01*
X127644881Y-147280358D01*
X127692500Y-147375596D01*
X127740119Y-147423215D01*
X127835357Y-147470834D01*
X127978214Y-147470834D01*
X128073452Y-147423215D01*
X128121071Y-147375596D01*
X128168690Y-147280358D01*
X128168690Y-146899405D01*
X127740119Y-147851786D02*
X127692500Y-147899405D01*
X127644881Y-147994643D01*
X127644881Y-148232739D01*
X127692500Y-148327977D01*
X127740119Y-148375596D01*
X127835357Y-148423215D01*
X127930595Y-148423215D01*
X128073452Y-148375596D01*
X128644881Y-147804167D01*
X128644881Y-148423215D01*
X157487857Y-71572381D02*
X157821191Y-71096190D01*
X158059286Y-71572381D02*
X158059286Y-70572381D01*
X157678333Y-70572381D01*
X157583095Y-70620000D01*
X157535476Y-70667619D01*
X157487857Y-70762857D01*
X157487857Y-70905714D01*
X157535476Y-71000952D01*
X157583095Y-71048571D01*
X157678333Y-71096190D01*
X158059286Y-71096190D01*
X156535476Y-71572381D02*
X157106905Y-71572381D01*
X156821191Y-71572381D02*
X156821191Y-70572381D01*
X156916429Y-70715238D01*
X157011667Y-70810476D01*
X157106905Y-70858095D01*
X156154524Y-70667619D02*
X156106905Y-70620000D01*
X156011667Y-70572381D01*
X155773571Y-70572381D01*
X155678333Y-70620000D01*
X155630714Y-70667619D01*
X155583095Y-70762857D01*
X155583095Y-70858095D01*
X155630714Y-71000952D01*
X156202143Y-71572381D01*
X155583095Y-71572381D01*
X167012857Y-88971381D02*
X167346191Y-88495190D01*
X167584286Y-88971381D02*
X167584286Y-87971381D01*
X167203333Y-87971381D01*
X167108095Y-88019000D01*
X167060476Y-88066619D01*
X167012857Y-88161857D01*
X167012857Y-88304714D01*
X167060476Y-88399952D01*
X167108095Y-88447571D01*
X167203333Y-88495190D01*
X167584286Y-88495190D01*
X166060476Y-88971381D02*
X166631905Y-88971381D01*
X166346191Y-88971381D02*
X166346191Y-87971381D01*
X166441429Y-88114238D01*
X166536667Y-88209476D01*
X166631905Y-88257095D01*
X165727143Y-87971381D02*
X165108095Y-87971381D01*
X165441429Y-88352333D01*
X165298571Y-88352333D01*
X165203333Y-88399952D01*
X165155714Y-88447571D01*
X165108095Y-88542810D01*
X165108095Y-88780905D01*
X165155714Y-88876143D01*
X165203333Y-88923762D01*
X165298571Y-88971381D01*
X165584286Y-88971381D01*
X165679524Y-88923762D01*
X165727143Y-88876143D01*
X167012857Y-103576381D02*
X167346191Y-103100190D01*
X167584286Y-103576381D02*
X167584286Y-102576381D01*
X167203333Y-102576381D01*
X167108095Y-102624000D01*
X167060476Y-102671619D01*
X167012857Y-102766857D01*
X167012857Y-102909714D01*
X167060476Y-103004952D01*
X167108095Y-103052571D01*
X167203333Y-103100190D01*
X167584286Y-103100190D01*
X166060476Y-103576381D02*
X166631905Y-103576381D01*
X166346191Y-103576381D02*
X166346191Y-102576381D01*
X166441429Y-102719238D01*
X166536667Y-102814476D01*
X166631905Y-102862095D01*
X165203333Y-102909714D02*
X165203333Y-103576381D01*
X165441429Y-102528762D02*
X165679524Y-103243048D01*
X165060476Y-103243048D01*
X167012857Y-118181381D02*
X167346191Y-117705190D01*
X167584286Y-118181381D02*
X167584286Y-117181381D01*
X167203333Y-117181381D01*
X167108095Y-117229000D01*
X167060476Y-117276619D01*
X167012857Y-117371857D01*
X167012857Y-117514714D01*
X167060476Y-117609952D01*
X167108095Y-117657571D01*
X167203333Y-117705190D01*
X167584286Y-117705190D01*
X166060476Y-118181381D02*
X166631905Y-118181381D01*
X166346191Y-118181381D02*
X166346191Y-117181381D01*
X166441429Y-117324238D01*
X166536667Y-117419476D01*
X166631905Y-117467095D01*
X165155714Y-117181381D02*
X165631905Y-117181381D01*
X165679524Y-117657571D01*
X165631905Y-117609952D01*
X165536667Y-117562333D01*
X165298571Y-117562333D01*
X165203333Y-117609952D01*
X165155714Y-117657571D01*
X165108095Y-117752810D01*
X165108095Y-117990905D01*
X165155714Y-118086143D01*
X165203333Y-118133762D01*
X165298571Y-118181381D01*
X165536667Y-118181381D01*
X165631905Y-118133762D01*
X165679524Y-118086143D01*
X166885857Y-132913381D02*
X167219191Y-132437190D01*
X167457286Y-132913381D02*
X167457286Y-131913381D01*
X167076333Y-131913381D01*
X166981095Y-131961000D01*
X166933476Y-132008619D01*
X166885857Y-132103857D01*
X166885857Y-132246714D01*
X166933476Y-132341952D01*
X166981095Y-132389571D01*
X167076333Y-132437190D01*
X167457286Y-132437190D01*
X165933476Y-132913381D02*
X166504905Y-132913381D01*
X166219191Y-132913381D02*
X166219191Y-131913381D01*
X166314429Y-132056238D01*
X166409667Y-132151476D01*
X166504905Y-132199095D01*
X165076333Y-131913381D02*
X165266810Y-131913381D01*
X165362048Y-131961000D01*
X165409667Y-132008619D01*
X165504905Y-132151476D01*
X165552524Y-132341952D01*
X165552524Y-132722905D01*
X165504905Y-132818143D01*
X165457286Y-132865762D01*
X165362048Y-132913381D01*
X165171571Y-132913381D01*
X165076333Y-132865762D01*
X165028714Y-132818143D01*
X164981095Y-132722905D01*
X164981095Y-132484810D01*
X165028714Y-132389571D01*
X165076333Y-132341952D01*
X165171571Y-132294333D01*
X165362048Y-132294333D01*
X165457286Y-132341952D01*
X165504905Y-132389571D01*
X165552524Y-132484810D01*
X166885857Y-147645381D02*
X167219191Y-147169190D01*
X167457286Y-147645381D02*
X167457286Y-146645381D01*
X167076333Y-146645381D01*
X166981095Y-146693000D01*
X166933476Y-146740619D01*
X166885857Y-146835857D01*
X166885857Y-146978714D01*
X166933476Y-147073952D01*
X166981095Y-147121571D01*
X167076333Y-147169190D01*
X167457286Y-147169190D01*
X165933476Y-147645381D02*
X166504905Y-147645381D01*
X166219191Y-147645381D02*
X166219191Y-146645381D01*
X166314429Y-146788238D01*
X166409667Y-146883476D01*
X166504905Y-146931095D01*
X165600143Y-146645381D02*
X164933476Y-146645381D01*
X165362048Y-147645381D01*
X174632857Y-152217381D02*
X174966191Y-151741190D01*
X175204286Y-152217381D02*
X175204286Y-151217381D01*
X174823333Y-151217381D01*
X174728095Y-151265000D01*
X174680476Y-151312619D01*
X174632857Y-151407857D01*
X174632857Y-151550714D01*
X174680476Y-151645952D01*
X174728095Y-151693571D01*
X174823333Y-151741190D01*
X175204286Y-151741190D01*
X173680476Y-152217381D02*
X174251905Y-152217381D01*
X173966191Y-152217381D02*
X173966191Y-151217381D01*
X174061429Y-151360238D01*
X174156667Y-151455476D01*
X174251905Y-151503095D01*
X173109048Y-151645952D02*
X173204286Y-151598333D01*
X173251905Y-151550714D01*
X173299524Y-151455476D01*
X173299524Y-151407857D01*
X173251905Y-151312619D01*
X173204286Y-151265000D01*
X173109048Y-151217381D01*
X172918571Y-151217381D01*
X172823333Y-151265000D01*
X172775714Y-151312619D01*
X172728095Y-151407857D01*
X172728095Y-151455476D01*
X172775714Y-151550714D01*
X172823333Y-151598333D01*
X172918571Y-151645952D01*
X173109048Y-151645952D01*
X173204286Y-151693571D01*
X173251905Y-151741190D01*
X173299524Y-151836429D01*
X173299524Y-152026905D01*
X173251905Y-152122143D01*
X173204286Y-152169762D01*
X173109048Y-152217381D01*
X172918571Y-152217381D01*
X172823333Y-152169762D01*
X172775714Y-152122143D01*
X172728095Y-152026905D01*
X172728095Y-151836429D01*
X172775714Y-151741190D01*
X172823333Y-151693571D01*
X172918571Y-151645952D01*
X180157381Y-147312143D02*
X179681190Y-146978809D01*
X180157381Y-146740714D02*
X179157381Y-146740714D01*
X179157381Y-147121667D01*
X179205000Y-147216905D01*
X179252619Y-147264524D01*
X179347857Y-147312143D01*
X179490714Y-147312143D01*
X179585952Y-147264524D01*
X179633571Y-147216905D01*
X179681190Y-147121667D01*
X179681190Y-146740714D01*
X180157381Y-148264524D02*
X180157381Y-147693095D01*
X180157381Y-147978809D02*
X179157381Y-147978809D01*
X179300238Y-147883571D01*
X179395476Y-147788333D01*
X179443095Y-147693095D01*
X180157381Y-148740714D02*
X180157381Y-148931190D01*
X180109762Y-149026429D01*
X180062143Y-149074048D01*
X179919286Y-149169286D01*
X179728810Y-149216905D01*
X179347857Y-149216905D01*
X179252619Y-149169286D01*
X179205000Y-149121667D01*
X179157381Y-149026429D01*
X179157381Y-148835952D01*
X179205000Y-148740714D01*
X179252619Y-148693095D01*
X179347857Y-148645476D01*
X179585952Y-148645476D01*
X179681190Y-148693095D01*
X179728810Y-148740714D01*
X179776429Y-148835952D01*
X179776429Y-149026429D01*
X179728810Y-149121667D01*
X179681190Y-149169286D01*
X179585952Y-149216905D01*
X208160857Y-64266143D02*
X208208476Y-64313762D01*
X208351333Y-64361381D01*
X208446571Y-64361381D01*
X208589429Y-64313762D01*
X208684667Y-64218524D01*
X208732286Y-64123286D01*
X208779905Y-63932810D01*
X208779905Y-63789952D01*
X208732286Y-63599476D01*
X208684667Y-63504238D01*
X208589429Y-63409000D01*
X208446571Y-63361381D01*
X208351333Y-63361381D01*
X208208476Y-63409000D01*
X208160857Y-63456619D01*
X207303714Y-63361381D02*
X207494191Y-63361381D01*
X207589429Y-63409000D01*
X207637048Y-63456619D01*
X207732286Y-63599476D01*
X207779905Y-63789952D01*
X207779905Y-64170905D01*
X207732286Y-64266143D01*
X207684667Y-64313762D01*
X207589429Y-64361381D01*
X207398952Y-64361381D01*
X207303714Y-64313762D01*
X207256095Y-64266143D01*
X207208476Y-64170905D01*
X207208476Y-63932810D01*
X207256095Y-63837571D01*
X207303714Y-63789952D01*
X207398952Y-63742333D01*
X207589429Y-63742333D01*
X207684667Y-63789952D01*
X207732286Y-63837571D01*
X207779905Y-63932810D01*
X206875143Y-63361381D02*
X206208476Y-63361381D01*
X206637048Y-64361381D01*
X207779857Y-95861143D02*
X207827476Y-95908762D01*
X207970333Y-95956381D01*
X208065571Y-95956381D01*
X208208429Y-95908762D01*
X208303667Y-95813524D01*
X208351286Y-95718286D01*
X208398905Y-95527810D01*
X208398905Y-95384952D01*
X208351286Y-95194476D01*
X208303667Y-95099238D01*
X208208429Y-95004000D01*
X208065571Y-94956381D01*
X207970333Y-94956381D01*
X207827476Y-95004000D01*
X207779857Y-95051619D01*
X206922714Y-94956381D02*
X207113191Y-94956381D01*
X207208429Y-95004000D01*
X207256048Y-95051619D01*
X207351286Y-95194476D01*
X207398905Y-95384952D01*
X207398905Y-95765905D01*
X207351286Y-95861143D01*
X207303667Y-95908762D01*
X207208429Y-95956381D01*
X207017952Y-95956381D01*
X206922714Y-95908762D01*
X206875095Y-95861143D01*
X206827476Y-95765905D01*
X206827476Y-95527810D01*
X206875095Y-95432571D01*
X206922714Y-95384952D01*
X207017952Y-95337333D01*
X207208429Y-95337333D01*
X207303667Y-95384952D01*
X207351286Y-95432571D01*
X207398905Y-95527810D01*
X206256048Y-95384952D02*
X206351286Y-95337333D01*
X206398905Y-95289714D01*
X206446524Y-95194476D01*
X206446524Y-95146857D01*
X206398905Y-95051619D01*
X206351286Y-95004000D01*
X206256048Y-94956381D01*
X206065571Y-94956381D01*
X205970333Y-95004000D01*
X205922714Y-95051619D01*
X205875095Y-95146857D01*
X205875095Y-95194476D01*
X205922714Y-95289714D01*
X205970333Y-95337333D01*
X206065571Y-95384952D01*
X206256048Y-95384952D01*
X206351286Y-95432571D01*
X206398905Y-95480190D01*
X206446524Y-95575429D01*
X206446524Y-95765905D01*
X206398905Y-95861143D01*
X206351286Y-95908762D01*
X206256048Y-95956381D01*
X206065571Y-95956381D01*
X205970333Y-95908762D01*
X205922714Y-95861143D01*
X205875095Y-95765905D01*
X205875095Y-95575429D01*
X205922714Y-95480190D01*
X205970333Y-95432571D01*
X206065571Y-95384952D01*
X207652857Y-108561143D02*
X207700476Y-108608762D01*
X207843333Y-108656381D01*
X207938571Y-108656381D01*
X208081429Y-108608762D01*
X208176667Y-108513524D01*
X208224286Y-108418286D01*
X208271905Y-108227810D01*
X208271905Y-108084952D01*
X208224286Y-107894476D01*
X208176667Y-107799238D01*
X208081429Y-107704000D01*
X207938571Y-107656381D01*
X207843333Y-107656381D01*
X207700476Y-107704000D01*
X207652857Y-107751619D01*
X206795714Y-107656381D02*
X206986191Y-107656381D01*
X207081429Y-107704000D01*
X207129048Y-107751619D01*
X207224286Y-107894476D01*
X207271905Y-108084952D01*
X207271905Y-108465905D01*
X207224286Y-108561143D01*
X207176667Y-108608762D01*
X207081429Y-108656381D01*
X206890952Y-108656381D01*
X206795714Y-108608762D01*
X206748095Y-108561143D01*
X206700476Y-108465905D01*
X206700476Y-108227810D01*
X206748095Y-108132571D01*
X206795714Y-108084952D01*
X206890952Y-108037333D01*
X207081429Y-108037333D01*
X207176667Y-108084952D01*
X207224286Y-108132571D01*
X207271905Y-108227810D01*
X206224286Y-108656381D02*
X206033810Y-108656381D01*
X205938571Y-108608762D01*
X205890952Y-108561143D01*
X205795714Y-108418286D01*
X205748095Y-108227810D01*
X205748095Y-107846857D01*
X205795714Y-107751619D01*
X205843333Y-107704000D01*
X205938571Y-107656381D01*
X206129048Y-107656381D01*
X206224286Y-107704000D01*
X206271905Y-107751619D01*
X206319524Y-107846857D01*
X206319524Y-108084952D01*
X206271905Y-108180190D01*
X206224286Y-108227810D01*
X206129048Y-108275429D01*
X205938571Y-108275429D01*
X205843333Y-108227810D01*
X205795714Y-108180190D01*
X205748095Y-108084952D01*
X207652857Y-121261143D02*
X207700476Y-121308762D01*
X207843333Y-121356381D01*
X207938571Y-121356381D01*
X208081429Y-121308762D01*
X208176667Y-121213524D01*
X208224286Y-121118286D01*
X208271905Y-120927810D01*
X208271905Y-120784952D01*
X208224286Y-120594476D01*
X208176667Y-120499238D01*
X208081429Y-120404000D01*
X207938571Y-120356381D01*
X207843333Y-120356381D01*
X207700476Y-120404000D01*
X207652857Y-120451619D01*
X207319524Y-120356381D02*
X206652857Y-120356381D01*
X207081429Y-121356381D01*
X206081429Y-120356381D02*
X205986190Y-120356381D01*
X205890952Y-120404000D01*
X205843333Y-120451619D01*
X205795714Y-120546857D01*
X205748095Y-120737333D01*
X205748095Y-120975429D01*
X205795714Y-121165905D01*
X205843333Y-121261143D01*
X205890952Y-121308762D01*
X205986190Y-121356381D01*
X206081429Y-121356381D01*
X206176667Y-121308762D01*
X206224286Y-121261143D01*
X206271905Y-121165905D01*
X206319524Y-120975429D01*
X206319524Y-120737333D01*
X206271905Y-120546857D01*
X206224286Y-120451619D01*
X206176667Y-120404000D01*
X206081429Y-120356381D01*
X207525857Y-134088143D02*
X207573476Y-134135762D01*
X207716333Y-134183381D01*
X207811571Y-134183381D01*
X207954429Y-134135762D01*
X208049667Y-134040524D01*
X208097286Y-133945286D01*
X208144905Y-133754810D01*
X208144905Y-133611952D01*
X208097286Y-133421476D01*
X208049667Y-133326238D01*
X207954429Y-133231000D01*
X207811571Y-133183381D01*
X207716333Y-133183381D01*
X207573476Y-133231000D01*
X207525857Y-133278619D01*
X207192524Y-133183381D02*
X206525857Y-133183381D01*
X206954429Y-134183381D01*
X205621095Y-134183381D02*
X206192524Y-134183381D01*
X205906810Y-134183381D02*
X205906810Y-133183381D01*
X206002048Y-133326238D01*
X206097286Y-133421476D01*
X206192524Y-133469095D01*
X215272857Y-71322143D02*
X215320476Y-71369762D01*
X215463333Y-71417381D01*
X215558571Y-71417381D01*
X215701429Y-71369762D01*
X215796667Y-71274524D01*
X215844286Y-71179286D01*
X215891905Y-70988810D01*
X215891905Y-70845952D01*
X215844286Y-70655476D01*
X215796667Y-70560238D01*
X215701429Y-70465000D01*
X215558571Y-70417381D01*
X215463333Y-70417381D01*
X215320476Y-70465000D01*
X215272857Y-70512619D01*
X214939524Y-70417381D02*
X214272857Y-70417381D01*
X214701429Y-71417381D01*
X213939524Y-70512619D02*
X213891905Y-70465000D01*
X213796667Y-70417381D01*
X213558571Y-70417381D01*
X213463333Y-70465000D01*
X213415714Y-70512619D01*
X213368095Y-70607857D01*
X213368095Y-70703095D01*
X213415714Y-70845952D01*
X213987143Y-71417381D01*
X213368095Y-71417381D01*
X168663857Y-63372381D02*
X168997191Y-62896190D01*
X169235286Y-63372381D02*
X169235286Y-62372381D01*
X168854333Y-62372381D01*
X168759095Y-62420000D01*
X168711476Y-62467619D01*
X168663857Y-62562857D01*
X168663857Y-62705714D01*
X168711476Y-62800952D01*
X168759095Y-62848571D01*
X168854333Y-62896190D01*
X169235286Y-62896190D01*
X168282905Y-62467619D02*
X168235286Y-62420000D01*
X168140048Y-62372381D01*
X167901952Y-62372381D01*
X167806714Y-62420000D01*
X167759095Y-62467619D01*
X167711476Y-62562857D01*
X167711476Y-62658095D01*
X167759095Y-62800952D01*
X168330524Y-63372381D01*
X167711476Y-63372381D01*
X167140048Y-62800952D02*
X167235286Y-62753333D01*
X167282905Y-62705714D01*
X167330524Y-62610476D01*
X167330524Y-62562857D01*
X167282905Y-62467619D01*
X167235286Y-62420000D01*
X167140048Y-62372381D01*
X166949571Y-62372381D01*
X166854333Y-62420000D01*
X166806714Y-62467619D01*
X166759095Y-62562857D01*
X166759095Y-62610476D01*
X166806714Y-62705714D01*
X166854333Y-62753333D01*
X166949571Y-62800952D01*
X167140048Y-62800952D01*
X167235286Y-62848571D01*
X167282905Y-62896190D01*
X167330524Y-62991429D01*
X167330524Y-63181905D01*
X167282905Y-63277143D01*
X167235286Y-63324762D01*
X167140048Y-63372381D01*
X166949571Y-63372381D01*
X166854333Y-63324762D01*
X166806714Y-63277143D01*
X166759095Y-63181905D01*
X166759095Y-62991429D01*
X166806714Y-62896190D01*
X166854333Y-62848571D01*
X166949571Y-62800952D01*
X179958905Y-77049381D02*
X179958905Y-77858905D01*
X179911286Y-77954143D01*
X179863667Y-78001762D01*
X179768429Y-78049381D01*
X179577952Y-78049381D01*
X179482714Y-78001762D01*
X179435095Y-77954143D01*
X179387476Y-77858905D01*
X179387476Y-77049381D01*
X178958905Y-77144619D02*
X178911286Y-77097000D01*
X178816048Y-77049381D01*
X178577952Y-77049381D01*
X178482714Y-77097000D01*
X178435095Y-77144619D01*
X178387476Y-77239857D01*
X178387476Y-77335095D01*
X178435095Y-77477952D01*
X179006524Y-78049381D01*
X178387476Y-78049381D01*
X192531905Y-79367381D02*
X192531905Y-80176905D01*
X192484286Y-80272143D01*
X192436667Y-80319762D01*
X192341429Y-80367381D01*
X192150952Y-80367381D01*
X192055714Y-80319762D01*
X192008095Y-80272143D01*
X191960476Y-80176905D01*
X191960476Y-79367381D01*
X191579524Y-79367381D02*
X190960476Y-79367381D01*
X191293810Y-79748333D01*
X191150952Y-79748333D01*
X191055714Y-79795952D01*
X191008095Y-79843571D01*
X190960476Y-79938810D01*
X190960476Y-80176905D01*
X191008095Y-80272143D01*
X191055714Y-80319762D01*
X191150952Y-80367381D01*
X191436667Y-80367381D01*
X191531905Y-80319762D01*
X191579524Y-80272143D01*
X192531905Y-88257381D02*
X192531905Y-89066905D01*
X192484286Y-89162143D01*
X192436667Y-89209762D01*
X192341429Y-89257381D01*
X192150952Y-89257381D01*
X192055714Y-89209762D01*
X192008095Y-89162143D01*
X191960476Y-89066905D01*
X191960476Y-88257381D01*
X191055714Y-88590714D02*
X191055714Y-89257381D01*
X191293810Y-88209762D02*
X191531905Y-88924048D01*
X190912857Y-88924048D01*
X192531905Y-100957381D02*
X192531905Y-101766905D01*
X192484286Y-101862143D01*
X192436667Y-101909762D01*
X192341429Y-101957381D01*
X192150952Y-101957381D01*
X192055714Y-101909762D01*
X192008095Y-101862143D01*
X191960476Y-101766905D01*
X191960476Y-100957381D01*
X191008095Y-100957381D02*
X191484286Y-100957381D01*
X191531905Y-101433571D01*
X191484286Y-101385952D01*
X191389048Y-101338333D01*
X191150952Y-101338333D01*
X191055714Y-101385952D01*
X191008095Y-101433571D01*
X190960476Y-101528810D01*
X190960476Y-101766905D01*
X191008095Y-101862143D01*
X191055714Y-101909762D01*
X191150952Y-101957381D01*
X191389048Y-101957381D01*
X191484286Y-101909762D01*
X191531905Y-101862143D01*
X192531905Y-113657381D02*
X192531905Y-114466905D01*
X192484286Y-114562143D01*
X192436667Y-114609762D01*
X192341429Y-114657381D01*
X192150952Y-114657381D01*
X192055714Y-114609762D01*
X192008095Y-114562143D01*
X191960476Y-114466905D01*
X191960476Y-113657381D01*
X191055714Y-113657381D02*
X191246191Y-113657381D01*
X191341429Y-113705000D01*
X191389048Y-113752619D01*
X191484286Y-113895476D01*
X191531905Y-114085952D01*
X191531905Y-114466905D01*
X191484286Y-114562143D01*
X191436667Y-114609762D01*
X191341429Y-114657381D01*
X191150952Y-114657381D01*
X191055714Y-114609762D01*
X191008095Y-114562143D01*
X190960476Y-114466905D01*
X190960476Y-114228810D01*
X191008095Y-114133571D01*
X191055714Y-114085952D01*
X191150952Y-114038333D01*
X191341429Y-114038333D01*
X191436667Y-114085952D01*
X191484286Y-114133571D01*
X191531905Y-114228810D01*
X192531905Y-126357381D02*
X192531905Y-127166905D01*
X192484286Y-127262143D01*
X192436667Y-127309762D01*
X192341429Y-127357381D01*
X192150952Y-127357381D01*
X192055714Y-127309762D01*
X192008095Y-127262143D01*
X191960476Y-127166905D01*
X191960476Y-126357381D01*
X191579524Y-126357381D02*
X190912857Y-126357381D01*
X191341429Y-127357381D01*
X219836905Y-76287381D02*
X219836905Y-77096905D01*
X219789286Y-77192143D01*
X219741667Y-77239762D01*
X219646429Y-77287381D01*
X219455952Y-77287381D01*
X219360714Y-77239762D01*
X219313095Y-77192143D01*
X219265476Y-77096905D01*
X219265476Y-76287381D01*
X218646429Y-76715952D02*
X218741667Y-76668333D01*
X218789286Y-76620714D01*
X218836905Y-76525476D01*
X218836905Y-76477857D01*
X218789286Y-76382619D01*
X218741667Y-76335000D01*
X218646429Y-76287381D01*
X218455952Y-76287381D01*
X218360714Y-76335000D01*
X218313095Y-76382619D01*
X218265476Y-76477857D01*
X218265476Y-76525476D01*
X218313095Y-76620714D01*
X218360714Y-76668333D01*
X218455952Y-76715952D01*
X218646429Y-76715952D01*
X218741667Y-76763571D01*
X218789286Y-76811190D01*
X218836905Y-76906429D01*
X218836905Y-77096905D01*
X218789286Y-77192143D01*
X218741667Y-77239762D01*
X218646429Y-77287381D01*
X218455952Y-77287381D01*
X218360714Y-77239762D01*
X218313095Y-77192143D01*
X218265476Y-77096905D01*
X218265476Y-76906429D01*
X218313095Y-76811190D01*
X218360714Y-76763571D01*
X218455952Y-76715952D01*
X217931905Y-93527381D02*
X217931905Y-94336905D01*
X217884286Y-94432143D01*
X217836667Y-94479762D01*
X217741429Y-94527381D01*
X217550952Y-94527381D01*
X217455714Y-94479762D01*
X217408095Y-94432143D01*
X217360476Y-94336905D01*
X217360476Y-93527381D01*
X216836667Y-94527381D02*
X216646191Y-94527381D01*
X216550952Y-94479762D01*
X216503333Y-94432143D01*
X216408095Y-94289286D01*
X216360476Y-94098810D01*
X216360476Y-93717857D01*
X216408095Y-93622619D01*
X216455714Y-93575000D01*
X216550952Y-93527381D01*
X216741429Y-93527381D01*
X216836667Y-93575000D01*
X216884286Y-93622619D01*
X216931905Y-93717857D01*
X216931905Y-93955952D01*
X216884286Y-94051190D01*
X216836667Y-94098810D01*
X216741429Y-94146429D01*
X216550952Y-94146429D01*
X216455714Y-94098810D01*
X216408095Y-94051190D01*
X216360476Y-93955952D01*
X218408095Y-106227381D02*
X218408095Y-107036905D01*
X218360476Y-107132143D01*
X218312857Y-107179762D01*
X218217619Y-107227381D01*
X218027142Y-107227381D01*
X217931904Y-107179762D01*
X217884285Y-107132143D01*
X217836666Y-107036905D01*
X217836666Y-106227381D01*
X216836666Y-107227381D02*
X217408095Y-107227381D01*
X217122381Y-107227381D02*
X217122381Y-106227381D01*
X217217619Y-106370238D01*
X217312857Y-106465476D01*
X217408095Y-106513095D01*
X216217619Y-106227381D02*
X216122380Y-106227381D01*
X216027142Y-106275000D01*
X215979523Y-106322619D01*
X215931904Y-106417857D01*
X215884285Y-106608333D01*
X215884285Y-106846429D01*
X215931904Y-107036905D01*
X215979523Y-107132143D01*
X216027142Y-107179762D01*
X216122380Y-107227381D01*
X216217619Y-107227381D01*
X216312857Y-107179762D01*
X216360476Y-107132143D01*
X216408095Y-107036905D01*
X216455714Y-106846429D01*
X216455714Y-106608333D01*
X216408095Y-106417857D01*
X216360476Y-106322619D01*
X216312857Y-106275000D01*
X216217619Y-106227381D01*
X218408095Y-118927381D02*
X218408095Y-119736905D01*
X218360476Y-119832143D01*
X218312857Y-119879762D01*
X218217619Y-119927381D01*
X218027142Y-119927381D01*
X217931904Y-119879762D01*
X217884285Y-119832143D01*
X217836666Y-119736905D01*
X217836666Y-118927381D01*
X216836666Y-119927381D02*
X217408095Y-119927381D01*
X217122381Y-119927381D02*
X217122381Y-118927381D01*
X217217619Y-119070238D01*
X217312857Y-119165476D01*
X217408095Y-119213095D01*
X215884285Y-119927381D02*
X216455714Y-119927381D01*
X216170000Y-119927381D02*
X216170000Y-118927381D01*
X216265238Y-119070238D01*
X216360476Y-119165476D01*
X216455714Y-119213095D01*
X218408095Y-131627381D02*
X218408095Y-132436905D01*
X218360476Y-132532143D01*
X218312857Y-132579762D01*
X218217619Y-132627381D01*
X218027142Y-132627381D01*
X217931904Y-132579762D01*
X217884285Y-132532143D01*
X217836666Y-132436905D01*
X217836666Y-131627381D01*
X216836666Y-132627381D02*
X217408095Y-132627381D01*
X217122381Y-132627381D02*
X217122381Y-131627381D01*
X217217619Y-131770238D01*
X217312857Y-131865476D01*
X217408095Y-131913095D01*
X216455714Y-131722619D02*
X216408095Y-131675000D01*
X216312857Y-131627381D01*
X216074761Y-131627381D01*
X215979523Y-131675000D01*
X215931904Y-131722619D01*
X215884285Y-131817857D01*
X215884285Y-131913095D01*
X215931904Y-132055952D01*
X216503333Y-132627381D01*
X215884285Y-132627381D01*
X213875857Y-95861143D02*
X213923476Y-95908762D01*
X214066333Y-95956381D01*
X214161571Y-95956381D01*
X214304429Y-95908762D01*
X214399667Y-95813524D01*
X214447286Y-95718286D01*
X214494905Y-95527810D01*
X214494905Y-95384952D01*
X214447286Y-95194476D01*
X214399667Y-95099238D01*
X214304429Y-95004000D01*
X214161571Y-94956381D01*
X214066333Y-94956381D01*
X213923476Y-95004000D01*
X213875857Y-95051619D01*
X213542524Y-94956381D02*
X212875857Y-94956381D01*
X213304429Y-95956381D01*
X212590143Y-94956381D02*
X211971095Y-94956381D01*
X212304429Y-95337333D01*
X212161571Y-95337333D01*
X212066333Y-95384952D01*
X212018714Y-95432571D01*
X211971095Y-95527810D01*
X211971095Y-95765905D01*
X212018714Y-95861143D01*
X212066333Y-95908762D01*
X212161571Y-95956381D01*
X212447286Y-95956381D01*
X212542524Y-95908762D01*
X212590143Y-95861143D01*
X213875857Y-108561143D02*
X213923476Y-108608762D01*
X214066333Y-108656381D01*
X214161571Y-108656381D01*
X214304429Y-108608762D01*
X214399667Y-108513524D01*
X214447286Y-108418286D01*
X214494905Y-108227810D01*
X214494905Y-108084952D01*
X214447286Y-107894476D01*
X214399667Y-107799238D01*
X214304429Y-107704000D01*
X214161571Y-107656381D01*
X214066333Y-107656381D01*
X213923476Y-107704000D01*
X213875857Y-107751619D01*
X213542524Y-107656381D02*
X212875857Y-107656381D01*
X213304429Y-108656381D01*
X212066333Y-107989714D02*
X212066333Y-108656381D01*
X212304429Y-107608762D02*
X212542524Y-108323048D01*
X211923476Y-108323048D01*
X213875857Y-121261143D02*
X213923476Y-121308762D01*
X214066333Y-121356381D01*
X214161571Y-121356381D01*
X214304429Y-121308762D01*
X214399667Y-121213524D01*
X214447286Y-121118286D01*
X214494905Y-120927810D01*
X214494905Y-120784952D01*
X214447286Y-120594476D01*
X214399667Y-120499238D01*
X214304429Y-120404000D01*
X214161571Y-120356381D01*
X214066333Y-120356381D01*
X213923476Y-120404000D01*
X213875857Y-120451619D01*
X213542524Y-120356381D02*
X212875857Y-120356381D01*
X213304429Y-121356381D01*
X212018714Y-120356381D02*
X212494905Y-120356381D01*
X212542524Y-120832571D01*
X212494905Y-120784952D01*
X212399667Y-120737333D01*
X212161571Y-120737333D01*
X212066333Y-120784952D01*
X212018714Y-120832571D01*
X211971095Y-120927810D01*
X211971095Y-121165905D01*
X212018714Y-121261143D01*
X212066333Y-121308762D01*
X212161571Y-121356381D01*
X212399667Y-121356381D01*
X212494905Y-121308762D01*
X212542524Y-121261143D01*
X213875857Y-134215143D02*
X213923476Y-134262762D01*
X214066333Y-134310381D01*
X214161571Y-134310381D01*
X214304429Y-134262762D01*
X214399667Y-134167524D01*
X214447286Y-134072286D01*
X214494905Y-133881810D01*
X214494905Y-133738952D01*
X214447286Y-133548476D01*
X214399667Y-133453238D01*
X214304429Y-133358000D01*
X214161571Y-133310381D01*
X214066333Y-133310381D01*
X213923476Y-133358000D01*
X213875857Y-133405619D01*
X213542524Y-133310381D02*
X212875857Y-133310381D01*
X213304429Y-134310381D01*
X212066333Y-133310381D02*
X212256810Y-133310381D01*
X212352048Y-133358000D01*
X212399667Y-133405619D01*
X212494905Y-133548476D01*
X212542524Y-133738952D01*
X212542524Y-134119905D01*
X212494905Y-134215143D01*
X212447286Y-134262762D01*
X212352048Y-134310381D01*
X212161571Y-134310381D01*
X212066333Y-134262762D01*
X212018714Y-134215143D01*
X211971095Y-134119905D01*
X211971095Y-133881810D01*
X212018714Y-133786571D01*
X212066333Y-133738952D01*
X212161571Y-133691333D01*
X212352048Y-133691333D01*
X212447286Y-133738952D01*
X212494905Y-133786571D01*
X212542524Y-133881810D01*
X200032857Y-147522143D02*
X200080476Y-147569762D01*
X200223333Y-147617381D01*
X200318571Y-147617381D01*
X200461429Y-147569762D01*
X200556667Y-147474524D01*
X200604286Y-147379286D01*
X200651905Y-147188810D01*
X200651905Y-147045952D01*
X200604286Y-146855476D01*
X200556667Y-146760238D01*
X200461429Y-146665000D01*
X200318571Y-146617381D01*
X200223333Y-146617381D01*
X200080476Y-146665000D01*
X200032857Y-146712619D01*
X199175714Y-146950714D02*
X199175714Y-147617381D01*
X199413810Y-146569762D02*
X199651905Y-147284048D01*
X199032857Y-147284048D01*
X198175714Y-146617381D02*
X198651905Y-146617381D01*
X198699524Y-147093571D01*
X198651905Y-147045952D01*
X198556667Y-146998333D01*
X198318571Y-146998333D01*
X198223333Y-147045952D01*
X198175714Y-147093571D01*
X198128095Y-147188810D01*
X198128095Y-147426905D01*
X198175714Y-147522143D01*
X198223333Y-147569762D01*
X198318571Y-147617381D01*
X198556667Y-147617381D01*
X198651905Y-147569762D01*
X198699524Y-147522143D01*
M02*
