G04 #@! TF.FileFunction,Legend,Top*
%FSLAX46Y46*%
G04 Gerber Fmt 4.6, Leading zero omitted, Abs format (unit mm)*
G04 Created by KiCad (PCBNEW 4.0.7-e1-6374~58~ubuntu14.04.1) date Fri Aug  4 16:13:01 2017*
%MOMM*%
%LPD*%
G01*
G04 APERTURE LIST*
%ADD10C,0.100000*%
%ADD11C,0.120000*%
%ADD12C,0.150000*%
G04 APERTURE END LIST*
D10*
D11*
X147495000Y-87859000D02*
X150955000Y-87859000D01*
X147495000Y-84099000D02*
X150955000Y-84099000D01*
D12*
X181728000Y-132858000D02*
X181728000Y-134858000D01*
X183778000Y-134858000D02*
X183778000Y-132858000D01*
X163585000Y-94091000D02*
X163585000Y-92091000D01*
X161535000Y-92091000D02*
X161535000Y-94091000D01*
X162950000Y-123428000D02*
X162950000Y-121428000D01*
X160900000Y-121428000D02*
X160900000Y-123428000D01*
X162950000Y-138160000D02*
X162950000Y-136160000D01*
X160900000Y-136160000D02*
X160900000Y-138160000D01*
X169910000Y-146676000D02*
X167910000Y-146676000D01*
X167910000Y-148726000D02*
X169910000Y-148726000D01*
X171840000Y-84185000D02*
X171840000Y-82185000D01*
X169790000Y-82185000D02*
X169790000Y-84185000D01*
X166640000Y-129295000D02*
X168640000Y-129295000D01*
X168640000Y-127245000D02*
X166640000Y-127245000D01*
X132470000Y-68360000D02*
X136070000Y-68360000D01*
X132470000Y-66260000D02*
X136070000Y-66260000D01*
X134520000Y-67010000D02*
X134520000Y-67610000D01*
X134520000Y-67610000D02*
X134220000Y-67310000D01*
X134220000Y-67310000D02*
X134420000Y-67110000D01*
X134420000Y-67110000D02*
X134420000Y-67360000D01*
X134420000Y-67360000D02*
X134370000Y-67310000D01*
X134120000Y-66810000D02*
X134120000Y-67810000D01*
X134620000Y-67310000D02*
X135120000Y-67310000D01*
X134120000Y-67310000D02*
X134620000Y-66810000D01*
X134620000Y-66810000D02*
X134620000Y-67810000D01*
X134620000Y-67810000D02*
X134120000Y-67310000D01*
X133570000Y-79130000D02*
X133570000Y-82730000D01*
X135670000Y-79130000D02*
X135670000Y-82730000D01*
X134920000Y-81180000D02*
X134320000Y-81180000D01*
X134320000Y-81180000D02*
X134620000Y-80880000D01*
X134620000Y-80880000D02*
X134820000Y-81080000D01*
X134820000Y-81080000D02*
X134570000Y-81080000D01*
X134570000Y-81080000D02*
X134620000Y-81030000D01*
X135120000Y-80780000D02*
X134120000Y-80780000D01*
X134620000Y-81280000D02*
X134620000Y-81780000D01*
X134620000Y-80780000D02*
X135120000Y-81280000D01*
X135120000Y-81280000D02*
X134120000Y-81280000D01*
X134120000Y-81280000D02*
X134620000Y-80780000D01*
X133570000Y-93735000D02*
X133570000Y-97335000D01*
X135670000Y-93735000D02*
X135670000Y-97335000D01*
X134920000Y-95785000D02*
X134320000Y-95785000D01*
X134320000Y-95785000D02*
X134620000Y-95485000D01*
X134620000Y-95485000D02*
X134820000Y-95685000D01*
X134820000Y-95685000D02*
X134570000Y-95685000D01*
X134570000Y-95685000D02*
X134620000Y-95635000D01*
X135120000Y-95385000D02*
X134120000Y-95385000D01*
X134620000Y-95885000D02*
X134620000Y-96385000D01*
X134620000Y-95385000D02*
X135120000Y-95885000D01*
X135120000Y-95885000D02*
X134120000Y-95885000D01*
X134120000Y-95885000D02*
X134620000Y-95385000D01*
X133570000Y-108340000D02*
X133570000Y-111940000D01*
X135670000Y-108340000D02*
X135670000Y-111940000D01*
X134920000Y-110390000D02*
X134320000Y-110390000D01*
X134320000Y-110390000D02*
X134620000Y-110090000D01*
X134620000Y-110090000D02*
X134820000Y-110290000D01*
X134820000Y-110290000D02*
X134570000Y-110290000D01*
X134570000Y-110290000D02*
X134620000Y-110240000D01*
X135120000Y-109990000D02*
X134120000Y-109990000D01*
X134620000Y-110490000D02*
X134620000Y-110990000D01*
X134620000Y-109990000D02*
X135120000Y-110490000D01*
X135120000Y-110490000D02*
X134120000Y-110490000D01*
X134120000Y-110490000D02*
X134620000Y-109990000D01*
X133570000Y-122945000D02*
X133570000Y-126545000D01*
X135670000Y-122945000D02*
X135670000Y-126545000D01*
X134920000Y-124995000D02*
X134320000Y-124995000D01*
X134320000Y-124995000D02*
X134620000Y-124695000D01*
X134620000Y-124695000D02*
X134820000Y-124895000D01*
X134820000Y-124895000D02*
X134570000Y-124895000D01*
X134570000Y-124895000D02*
X134620000Y-124845000D01*
X135120000Y-124595000D02*
X134120000Y-124595000D01*
X134620000Y-125095000D02*
X134620000Y-125595000D01*
X134620000Y-124595000D02*
X135120000Y-125095000D01*
X135120000Y-125095000D02*
X134120000Y-125095000D01*
X134120000Y-125095000D02*
X134620000Y-124595000D01*
X133570000Y-137550000D02*
X133570000Y-141150000D01*
X135670000Y-137550000D02*
X135670000Y-141150000D01*
X134920000Y-139600000D02*
X134320000Y-139600000D01*
X134320000Y-139600000D02*
X134620000Y-139300000D01*
X134620000Y-139300000D02*
X134820000Y-139500000D01*
X134820000Y-139500000D02*
X134570000Y-139500000D01*
X134570000Y-139500000D02*
X134620000Y-139450000D01*
X135120000Y-139200000D02*
X134120000Y-139200000D01*
X134620000Y-139700000D02*
X134620000Y-140200000D01*
X134620000Y-139200000D02*
X135120000Y-139700000D01*
X135120000Y-139700000D02*
X134120000Y-139700000D01*
X134120000Y-139700000D02*
X134620000Y-139200000D01*
X216290000Y-142655000D02*
X219890000Y-142655000D01*
X216290000Y-140555000D02*
X219890000Y-140555000D01*
X218340000Y-141305000D02*
X218340000Y-141905000D01*
X218340000Y-141905000D02*
X218040000Y-141605000D01*
X218040000Y-141605000D02*
X218240000Y-141405000D01*
X218240000Y-141405000D02*
X218240000Y-141655000D01*
X218240000Y-141655000D02*
X218190000Y-141605000D01*
X217940000Y-141105000D02*
X217940000Y-142105000D01*
X218440000Y-141605000D02*
X218940000Y-141605000D01*
X217940000Y-141605000D02*
X218440000Y-141105000D01*
X218440000Y-141105000D02*
X218440000Y-142105000D01*
X218440000Y-142105000D02*
X217940000Y-141605000D01*
X182254000Y-79028000D02*
X185854000Y-79028000D01*
X182254000Y-76928000D02*
X185854000Y-76928000D01*
X184304000Y-77678000D02*
X184304000Y-78278000D01*
X184304000Y-78278000D02*
X184004000Y-77978000D01*
X184004000Y-77978000D02*
X184204000Y-77778000D01*
X184204000Y-77778000D02*
X184204000Y-78028000D01*
X184204000Y-78028000D02*
X184154000Y-77978000D01*
X183904000Y-77478000D02*
X183904000Y-78478000D01*
X184404000Y-77978000D02*
X184904000Y-77978000D01*
X183904000Y-77978000D02*
X184404000Y-77478000D01*
X184404000Y-77478000D02*
X184404000Y-78478000D01*
X184404000Y-78478000D02*
X183904000Y-77978000D01*
X189620000Y-96300000D02*
X193220000Y-96300000D01*
X189620000Y-94200000D02*
X193220000Y-94200000D01*
X191670000Y-94950000D02*
X191670000Y-95550000D01*
X191670000Y-95550000D02*
X191370000Y-95250000D01*
X191370000Y-95250000D02*
X191570000Y-95050000D01*
X191570000Y-95050000D02*
X191570000Y-95300000D01*
X191570000Y-95300000D02*
X191520000Y-95250000D01*
X191270000Y-94750000D02*
X191270000Y-95750000D01*
X191770000Y-95250000D02*
X192270000Y-95250000D01*
X191270000Y-95250000D02*
X191770000Y-94750000D01*
X191770000Y-94750000D02*
X191770000Y-95750000D01*
X191770000Y-95750000D02*
X191270000Y-95250000D01*
X178464160Y-116824760D02*
X178415900Y-116824760D01*
X175665180Y-117525800D02*
X175665180Y-116824760D01*
X175665180Y-116824760D02*
X175914100Y-116824760D01*
X178464160Y-116824760D02*
X178664820Y-116824760D01*
X178664820Y-116824760D02*
X178664820Y-117525800D01*
X188579760Y-63470840D02*
X188579760Y-63519100D01*
X189280800Y-66269820D02*
X188579760Y-66269820D01*
X188579760Y-66269820D02*
X188579760Y-66020900D01*
X188579760Y-63470840D02*
X188579760Y-63270180D01*
X188579760Y-63270180D02*
X189280800Y-63270180D01*
X132592500Y-148637500D02*
X132592500Y-146637500D01*
X134742500Y-146637500D02*
X134742500Y-148637500D01*
X129417500Y-148637500D02*
X129417500Y-146637500D01*
X131567500Y-146637500D02*
X131567500Y-148637500D01*
X139970000Y-66235000D02*
X141970000Y-66235000D01*
X141970000Y-68385000D02*
X139970000Y-68385000D01*
X138700000Y-81475000D02*
X140700000Y-81475000D01*
X140700000Y-83625000D02*
X138700000Y-83625000D01*
X138700000Y-96080000D02*
X140700000Y-96080000D01*
X140700000Y-98230000D02*
X138700000Y-98230000D01*
X138700000Y-110685000D02*
X140700000Y-110685000D01*
X140700000Y-112835000D02*
X138700000Y-112835000D01*
X138700000Y-125290000D02*
X140700000Y-125290000D01*
X140700000Y-127440000D02*
X138700000Y-127440000D01*
X138700000Y-139895000D02*
X140700000Y-139895000D01*
X140700000Y-142045000D02*
X138700000Y-142045000D01*
X186325000Y-134815000D02*
X188325000Y-134815000D01*
X188325000Y-136965000D02*
X186325000Y-136965000D01*
X176090000Y-148955000D02*
X176090000Y-146955000D01*
X178240000Y-146955000D02*
X178240000Y-148955000D01*
X172915000Y-148955000D02*
X172915000Y-146955000D01*
X175065000Y-146955000D02*
X175065000Y-148955000D01*
X218635000Y-137525000D02*
X218635000Y-135525000D01*
X220785000Y-135525000D02*
X220785000Y-137525000D01*
X184642000Y-94166000D02*
X182642000Y-94166000D01*
X182642000Y-92016000D02*
X184642000Y-92016000D01*
X184642000Y-96833000D02*
X182642000Y-96833000D01*
X182642000Y-94683000D02*
X184642000Y-94683000D01*
X184642000Y-99373000D02*
X182642000Y-99373000D01*
X182642000Y-97223000D02*
X184642000Y-97223000D01*
X184642000Y-101913000D02*
X182642000Y-101913000D01*
X182642000Y-99763000D02*
X184642000Y-99763000D01*
D11*
X139020000Y-91185000D02*
X139020000Y-87885000D01*
X139020000Y-87885000D02*
X132120000Y-87885000D01*
X139020000Y-91185000D02*
X132120000Y-91185000D01*
X144735000Y-65150000D02*
X144735000Y-61850000D01*
X144735000Y-61850000D02*
X137835000Y-61850000D01*
X144735000Y-65150000D02*
X137835000Y-65150000D01*
X139020000Y-76580000D02*
X139020000Y-73280000D01*
X139020000Y-73280000D02*
X132120000Y-73280000D01*
X139020000Y-76580000D02*
X132120000Y-76580000D01*
X139020000Y-105790000D02*
X139020000Y-102490000D01*
X139020000Y-102490000D02*
X132120000Y-102490000D01*
X139020000Y-105790000D02*
X132120000Y-105790000D01*
X139020000Y-120395000D02*
X139020000Y-117095000D01*
X139020000Y-117095000D02*
X132120000Y-117095000D01*
X139020000Y-120395000D02*
X132120000Y-120395000D01*
X139655000Y-133730000D02*
X139655000Y-130430000D01*
X139655000Y-130430000D02*
X132755000Y-130430000D01*
X139655000Y-133730000D02*
X132755000Y-133730000D01*
X151175000Y-61850000D02*
X151175000Y-65150000D01*
X151175000Y-65150000D02*
X158075000Y-65150000D01*
X151175000Y-61850000D02*
X158075000Y-61850000D01*
X164510000Y-75185000D02*
X164510000Y-78485000D01*
X164510000Y-78485000D02*
X171410000Y-78485000D01*
X164510000Y-75185000D02*
X171410000Y-75185000D01*
X164510000Y-89790000D02*
X164510000Y-93090000D01*
X164510000Y-93090000D02*
X171410000Y-93090000D01*
X164510000Y-89790000D02*
X171410000Y-89790000D01*
X164510000Y-104395000D02*
X164510000Y-107695000D01*
X164510000Y-107695000D02*
X171410000Y-107695000D01*
X164510000Y-104395000D02*
X171410000Y-104395000D01*
X164510000Y-119000000D02*
X164510000Y-122300000D01*
X164510000Y-122300000D02*
X171410000Y-122300000D01*
X164510000Y-119000000D02*
X171410000Y-119000000D01*
X163367000Y-133605000D02*
X163367000Y-136905000D01*
X163367000Y-136905000D02*
X170267000Y-136905000D01*
X163367000Y-133605000D02*
X170267000Y-133605000D01*
X175451500Y-99523000D02*
X178751500Y-99523000D01*
X178751500Y-99523000D02*
X178751500Y-92623000D01*
X175451500Y-99523000D02*
X175451500Y-92623000D01*
X187690000Y-131528000D02*
X187690000Y-124228000D01*
X187690000Y-124228000D02*
X185690000Y-124228000D01*
X185690000Y-124228000D02*
X185690000Y-131528000D01*
X183785000Y-114090000D02*
X183785000Y-121390000D01*
X183785000Y-121390000D02*
X185785000Y-121390000D01*
X185785000Y-121390000D02*
X185785000Y-114090000D01*
X180280000Y-118170000D02*
X182940000Y-118170000D01*
X180280000Y-115570000D02*
X180280000Y-118170000D01*
X182940000Y-115570000D02*
X182940000Y-118170000D01*
X180280000Y-115570000D02*
X182940000Y-115570000D01*
X180280000Y-114300000D02*
X180280000Y-112970000D01*
X180280000Y-112970000D02*
X181610000Y-112970000D01*
X163453000Y-79740000D02*
X163453000Y-77740000D01*
X161413000Y-77740000D02*
X161413000Y-79740000D01*
X162945000Y-108950000D02*
X162945000Y-106950000D01*
X160905000Y-106950000D02*
X160905000Y-108950000D01*
X132461000Y-64135000D02*
G75*
G03X132461000Y-64135000I-2286000J0D01*
G01*
X222631000Y-64135000D02*
G75*
G03X222631000Y-64135000I-2286000J0D01*
G01*
X132461000Y-154940000D02*
G75*
G03X132461000Y-154940000I-2286000J0D01*
G01*
X190065000Y-152765000D02*
X190065000Y-150765000D01*
X192205000Y-150765000D02*
X192205000Y-152765000D01*
X190262000Y-77035000D02*
X192262000Y-77035000D01*
X192262000Y-79175000D02*
X190262000Y-79175000D01*
X197755000Y-94180000D02*
X199755000Y-94180000D01*
X199755000Y-96320000D02*
X197755000Y-96320000D01*
X197755000Y-106626000D02*
X199755000Y-106626000D01*
X199755000Y-108766000D02*
X197755000Y-108766000D01*
X197755000Y-119326000D02*
X199755000Y-119326000D01*
X199755000Y-121466000D02*
X197755000Y-121466000D01*
D12*
X203015000Y-148405000D02*
X203015000Y-148180000D01*
X195765000Y-148405000D02*
X195765000Y-148080000D01*
X195765000Y-141155000D02*
X195765000Y-141480000D01*
X203015000Y-141155000D02*
X203015000Y-141480000D01*
X203015000Y-148405000D02*
X202690000Y-148405000D01*
X203015000Y-141155000D02*
X202690000Y-141155000D01*
X195765000Y-141155000D02*
X196090000Y-141155000D01*
X195765000Y-148405000D02*
X196090000Y-148405000D01*
X203015000Y-148180000D02*
X204440000Y-148180000D01*
D11*
X185035000Y-106950000D02*
X185035000Y-108950000D01*
X187075000Y-108950000D02*
X187075000Y-106950000D01*
D10*
X165180000Y-159693000D02*
X165180000Y-154493000D01*
X165180000Y-154493000D02*
X175180000Y-154493000D01*
X175180000Y-154493000D02*
X175180000Y-159693000D01*
D11*
X222631000Y-154940000D02*
G75*
G03X222631000Y-154940000I-2286000J0D01*
G01*
D12*
X137795000Y-153670000D02*
X144145000Y-153670000D01*
X147955000Y-148590000D02*
X141605000Y-148590000D01*
X137795000Y-148590000D02*
X139065000Y-148590000D01*
X147955000Y-153670000D02*
X146685000Y-153670000D01*
X137795000Y-148590000D02*
X137795000Y-153670000D01*
X147955000Y-153670000D02*
X147955000Y-148590000D01*
X160655000Y-148590000D02*
X154305000Y-148590000D01*
X150495000Y-153670000D02*
X156845000Y-153670000D01*
X160655000Y-153670000D02*
X159385000Y-153670000D01*
X150495000Y-148590000D02*
X151765000Y-148590000D01*
X160655000Y-153670000D02*
X160655000Y-148590000D01*
X150495000Y-148590000D02*
X150495000Y-153670000D01*
X147955000Y-133985000D02*
X141605000Y-133985000D01*
X137795000Y-139065000D02*
X144145000Y-139065000D01*
X147955000Y-139065000D02*
X146685000Y-139065000D01*
X137795000Y-133985000D02*
X139065000Y-133985000D01*
X147955000Y-139065000D02*
X147955000Y-133985000D01*
X137795000Y-133985000D02*
X137795000Y-139065000D01*
X160655000Y-133985000D02*
X154305000Y-133985000D01*
X150495000Y-139065000D02*
X156845000Y-139065000D01*
X160655000Y-139065000D02*
X159385000Y-139065000D01*
X150495000Y-133985000D02*
X151765000Y-133985000D01*
X160655000Y-139065000D02*
X160655000Y-133985000D01*
X150495000Y-133985000D02*
X150495000Y-139065000D01*
X147955000Y-119380000D02*
X141605000Y-119380000D01*
X137795000Y-124460000D02*
X144145000Y-124460000D01*
X147955000Y-124460000D02*
X146685000Y-124460000D01*
X137795000Y-119380000D02*
X139065000Y-119380000D01*
X147955000Y-124460000D02*
X147955000Y-119380000D01*
X137795000Y-119380000D02*
X137795000Y-124460000D01*
X160655000Y-119380000D02*
X154305000Y-119380000D01*
X150495000Y-124460000D02*
X156845000Y-124460000D01*
X160655000Y-124460000D02*
X159385000Y-124460000D01*
X150495000Y-119380000D02*
X151765000Y-119380000D01*
X160655000Y-124460000D02*
X160655000Y-119380000D01*
X150495000Y-119380000D02*
X150495000Y-124460000D01*
X147955000Y-104775000D02*
X141605000Y-104775000D01*
X137795000Y-109855000D02*
X144145000Y-109855000D01*
X147955000Y-109855000D02*
X146685000Y-109855000D01*
X137795000Y-104775000D02*
X139065000Y-104775000D01*
X147955000Y-109855000D02*
X147955000Y-104775000D01*
X137795000Y-104775000D02*
X137795000Y-109855000D01*
X160655000Y-104775000D02*
X154305000Y-104775000D01*
X150495000Y-109855000D02*
X156845000Y-109855000D01*
X160655000Y-109855000D02*
X159385000Y-109855000D01*
X150495000Y-104775000D02*
X151765000Y-104775000D01*
X160655000Y-109855000D02*
X160655000Y-104775000D01*
X150495000Y-104775000D02*
X150495000Y-109855000D01*
X147955000Y-90170000D02*
X141605000Y-90170000D01*
X137795000Y-95250000D02*
X144145000Y-95250000D01*
X147955000Y-95250000D02*
X146685000Y-95250000D01*
X137795000Y-90170000D02*
X139065000Y-90170000D01*
X147955000Y-95250000D02*
X147955000Y-90170000D01*
X137795000Y-90170000D02*
X137795000Y-95250000D01*
X160655000Y-90170000D02*
X154305000Y-90170000D01*
X150495000Y-95250000D02*
X156845000Y-95250000D01*
X160655000Y-95250000D02*
X159385000Y-95250000D01*
X150495000Y-90170000D02*
X151765000Y-90170000D01*
X160655000Y-95250000D02*
X160655000Y-90170000D01*
X150495000Y-90170000D02*
X150495000Y-95250000D01*
X147955000Y-75565000D02*
X141605000Y-75565000D01*
X137795000Y-80645000D02*
X144145000Y-80645000D01*
X147955000Y-80645000D02*
X146685000Y-80645000D01*
X137795000Y-75565000D02*
X139065000Y-75565000D01*
X147955000Y-80645000D02*
X147955000Y-75565000D01*
X137795000Y-75565000D02*
X137795000Y-80645000D01*
X160655000Y-75565000D02*
X154305000Y-75565000D01*
X150495000Y-80645000D02*
X156845000Y-80645000D01*
X160655000Y-80645000D02*
X159385000Y-80645000D01*
X150495000Y-75565000D02*
X151765000Y-75565000D01*
X160655000Y-80645000D02*
X160655000Y-75565000D01*
X150495000Y-75565000D02*
X150495000Y-80645000D01*
X195580000Y-66675000D02*
X195580000Y-73025000D01*
X200660000Y-76835000D02*
X200660000Y-70485000D01*
X200660000Y-66675000D02*
X200660000Y-67945000D01*
X195580000Y-76835000D02*
X195580000Y-75565000D01*
X200660000Y-66675000D02*
X195580000Y-66675000D01*
X195580000Y-76835000D02*
X200660000Y-76835000D01*
X206375000Y-86360000D02*
X200025000Y-86360000D01*
X196215000Y-91440000D02*
X202565000Y-91440000D01*
X206375000Y-91440000D02*
X205105000Y-91440000D01*
X196215000Y-86360000D02*
X197485000Y-86360000D01*
X206375000Y-91440000D02*
X206375000Y-86360000D01*
X196215000Y-86360000D02*
X196215000Y-91440000D01*
X210185000Y-83820000D02*
X210185000Y-90170000D01*
X215265000Y-93980000D02*
X215265000Y-87630000D01*
X215265000Y-83820000D02*
X215265000Y-85090000D01*
X210185000Y-93980000D02*
X210185000Y-92710000D01*
X215265000Y-83820000D02*
X210185000Y-83820000D01*
X210185000Y-93980000D02*
X215265000Y-93980000D01*
X206375000Y-99060000D02*
X200025000Y-99060000D01*
X196215000Y-104140000D02*
X202565000Y-104140000D01*
X206375000Y-104140000D02*
X205105000Y-104140000D01*
X196215000Y-99060000D02*
X197485000Y-99060000D01*
X206375000Y-104140000D02*
X206375000Y-99060000D01*
X196215000Y-99060000D02*
X196215000Y-104140000D01*
X210185000Y-96520000D02*
X210185000Y-102870000D01*
X215265000Y-106680000D02*
X215265000Y-100330000D01*
X215265000Y-96520000D02*
X215265000Y-97790000D01*
X210185000Y-106680000D02*
X210185000Y-105410000D01*
X215265000Y-96520000D02*
X210185000Y-96520000D01*
X210185000Y-106680000D02*
X215265000Y-106680000D01*
X210185000Y-109220000D02*
X210185000Y-115570000D01*
X215265000Y-119380000D02*
X215265000Y-113030000D01*
X215265000Y-109220000D02*
X215265000Y-110490000D01*
X210185000Y-119380000D02*
X210185000Y-118110000D01*
X215265000Y-109220000D02*
X210185000Y-109220000D01*
X210185000Y-119380000D02*
X215265000Y-119380000D01*
X206375000Y-111760000D02*
X200025000Y-111760000D01*
X196215000Y-116840000D02*
X202565000Y-116840000D01*
X206375000Y-116840000D02*
X205105000Y-116840000D01*
X196215000Y-111760000D02*
X197485000Y-111760000D01*
X206375000Y-116840000D02*
X206375000Y-111760000D01*
X196215000Y-111760000D02*
X196215000Y-116840000D01*
X206375000Y-124460000D02*
X200025000Y-124460000D01*
X196215000Y-129540000D02*
X202565000Y-129540000D01*
X206375000Y-129540000D02*
X205105000Y-129540000D01*
X196215000Y-124460000D02*
X197485000Y-124460000D01*
X206375000Y-129540000D02*
X206375000Y-124460000D01*
X196215000Y-124460000D02*
X196215000Y-129540000D01*
X210185000Y-121920000D02*
X210185000Y-128270000D01*
X215265000Y-132080000D02*
X215265000Y-125730000D01*
X215265000Y-121920000D02*
X215265000Y-123190000D01*
X210185000Y-132080000D02*
X210185000Y-130810000D01*
X215265000Y-121920000D02*
X210185000Y-121920000D01*
X210185000Y-132080000D02*
X215265000Y-132080000D01*
X217170000Y-69215000D02*
X210820000Y-69215000D01*
X207010000Y-74295000D02*
X213360000Y-74295000D01*
X217170000Y-74295000D02*
X215900000Y-74295000D01*
X207010000Y-69215000D02*
X208280000Y-69215000D01*
X217170000Y-74295000D02*
X217170000Y-69215000D01*
X207010000Y-69215000D02*
X207010000Y-74295000D01*
D11*
X128930000Y-136700000D02*
X128930000Y-140160000D01*
X132690000Y-136700000D02*
X132690000Y-140160000D01*
X146075000Y-64945000D02*
X146075000Y-68405000D01*
X149835000Y-64945000D02*
X149835000Y-68405000D01*
X147495000Y-102464000D02*
X150955000Y-102464000D01*
X147495000Y-98704000D02*
X150955000Y-98704000D01*
X147495000Y-117069000D02*
X150955000Y-117069000D01*
X147495000Y-113309000D02*
X150955000Y-113309000D01*
X147495000Y-131674000D02*
X150955000Y-131674000D01*
X147495000Y-127914000D02*
X150955000Y-127914000D01*
X147495000Y-146279000D02*
X150955000Y-146279000D01*
X147495000Y-142519000D02*
X150955000Y-142519000D01*
X171879000Y-143231000D02*
X175339000Y-143231000D01*
X171879000Y-139471000D02*
X175339000Y-139471000D01*
X185395000Y-88090000D02*
X185395000Y-84630000D01*
X181635000Y-88090000D02*
X181635000Y-84630000D01*
X177213000Y-66650000D02*
X180673000Y-66650000D01*
X177213000Y-62890000D02*
X180673000Y-62890000D01*
X183265000Y-108950000D02*
X183265000Y-106950000D01*
X181225000Y-106950000D02*
X181225000Y-108950000D01*
X174825000Y-124825000D02*
X174825000Y-122825000D01*
X176965000Y-122825000D02*
X176965000Y-124825000D01*
X197755000Y-130629000D02*
X199755000Y-130629000D01*
X199755000Y-132769000D02*
X197755000Y-132769000D01*
X199628000Y-82477000D02*
X197628000Y-82477000D01*
X197628000Y-80337000D02*
X199628000Y-80337000D01*
X184916000Y-127365000D02*
X184916000Y-125365000D01*
X182876000Y-125365000D02*
X182876000Y-127365000D01*
X214760722Y-138520277D02*
G75*
G03X210149420Y-138520000I-2305722J-1179723D01*
G01*
X214760722Y-140879723D02*
G75*
G02X210149420Y-140880000I-2305722J1179723D01*
G01*
X214760722Y-140879723D02*
G75*
G03X214760580Y-138520000I-2305722J1179723D01*
G01*
X212455000Y-137150000D02*
X212455000Y-142250000D01*
X212495000Y-137150000D02*
X212495000Y-138720000D01*
X212495000Y-140680000D02*
X212495000Y-142250000D01*
X212535000Y-137151000D02*
X212535000Y-138720000D01*
X212535000Y-140680000D02*
X212535000Y-142249000D01*
X212575000Y-137152000D02*
X212575000Y-138720000D01*
X212575000Y-140680000D02*
X212575000Y-142248000D01*
X212615000Y-137154000D02*
X212615000Y-138720000D01*
X212615000Y-140680000D02*
X212615000Y-142246000D01*
X212655000Y-137157000D02*
X212655000Y-138720000D01*
X212655000Y-140680000D02*
X212655000Y-142243000D01*
X212695000Y-137161000D02*
X212695000Y-138720000D01*
X212695000Y-140680000D02*
X212695000Y-142239000D01*
X212735000Y-137165000D02*
X212735000Y-138720000D01*
X212735000Y-140680000D02*
X212735000Y-142235000D01*
X212775000Y-137169000D02*
X212775000Y-138720000D01*
X212775000Y-140680000D02*
X212775000Y-142231000D01*
X212815000Y-137175000D02*
X212815000Y-138720000D01*
X212815000Y-140680000D02*
X212815000Y-142225000D01*
X212855000Y-137181000D02*
X212855000Y-138720000D01*
X212855000Y-140680000D02*
X212855000Y-142219000D01*
X212895000Y-137187000D02*
X212895000Y-138720000D01*
X212895000Y-140680000D02*
X212895000Y-142213000D01*
X212935000Y-137194000D02*
X212935000Y-138720000D01*
X212935000Y-140680000D02*
X212935000Y-142206000D01*
X212975000Y-137202000D02*
X212975000Y-138720000D01*
X212975000Y-140680000D02*
X212975000Y-142198000D01*
X213015000Y-137211000D02*
X213015000Y-138720000D01*
X213015000Y-140680000D02*
X213015000Y-142189000D01*
X213055000Y-137220000D02*
X213055000Y-138720000D01*
X213055000Y-140680000D02*
X213055000Y-142180000D01*
X213095000Y-137230000D02*
X213095000Y-138720000D01*
X213095000Y-140680000D02*
X213095000Y-142170000D01*
X213135000Y-137240000D02*
X213135000Y-138720000D01*
X213135000Y-140680000D02*
X213135000Y-142160000D01*
X213176000Y-137252000D02*
X213176000Y-138720000D01*
X213176000Y-140680000D02*
X213176000Y-142148000D01*
X213216000Y-137264000D02*
X213216000Y-138720000D01*
X213216000Y-140680000D02*
X213216000Y-142136000D01*
X213256000Y-137276000D02*
X213256000Y-138720000D01*
X213256000Y-140680000D02*
X213256000Y-142124000D01*
X213296000Y-137290000D02*
X213296000Y-138720000D01*
X213296000Y-140680000D02*
X213296000Y-142110000D01*
X213336000Y-137304000D02*
X213336000Y-138720000D01*
X213336000Y-140680000D02*
X213336000Y-142096000D01*
X213376000Y-137318000D02*
X213376000Y-138720000D01*
X213376000Y-140680000D02*
X213376000Y-142082000D01*
X213416000Y-137334000D02*
X213416000Y-138720000D01*
X213416000Y-140680000D02*
X213416000Y-142066000D01*
X213456000Y-137350000D02*
X213456000Y-138720000D01*
X213456000Y-140680000D02*
X213456000Y-142050000D01*
X213496000Y-137367000D02*
X213496000Y-138720000D01*
X213496000Y-140680000D02*
X213496000Y-142033000D01*
X213536000Y-137385000D02*
X213536000Y-138720000D01*
X213536000Y-140680000D02*
X213536000Y-142015000D01*
X213576000Y-137404000D02*
X213576000Y-138720000D01*
X213576000Y-140680000D02*
X213576000Y-141996000D01*
X213616000Y-137424000D02*
X213616000Y-138720000D01*
X213616000Y-140680000D02*
X213616000Y-141976000D01*
X213656000Y-137444000D02*
X213656000Y-138720000D01*
X213656000Y-140680000D02*
X213656000Y-141956000D01*
X213696000Y-137466000D02*
X213696000Y-138720000D01*
X213696000Y-140680000D02*
X213696000Y-141934000D01*
X213736000Y-137488000D02*
X213736000Y-138720000D01*
X213736000Y-140680000D02*
X213736000Y-141912000D01*
X213776000Y-137511000D02*
X213776000Y-138720000D01*
X213776000Y-140680000D02*
X213776000Y-141889000D01*
X213816000Y-137535000D02*
X213816000Y-138720000D01*
X213816000Y-140680000D02*
X213816000Y-141865000D01*
X213856000Y-137560000D02*
X213856000Y-138720000D01*
X213856000Y-140680000D02*
X213856000Y-141840000D01*
X213896000Y-137587000D02*
X213896000Y-138720000D01*
X213896000Y-140680000D02*
X213896000Y-141813000D01*
X213936000Y-137614000D02*
X213936000Y-138720000D01*
X213936000Y-140680000D02*
X213936000Y-141786000D01*
X213976000Y-137642000D02*
X213976000Y-138720000D01*
X213976000Y-140680000D02*
X213976000Y-141758000D01*
X214016000Y-137672000D02*
X214016000Y-138720000D01*
X214016000Y-140680000D02*
X214016000Y-141728000D01*
X214056000Y-137703000D02*
X214056000Y-138720000D01*
X214056000Y-140680000D02*
X214056000Y-141697000D01*
X214096000Y-137735000D02*
X214096000Y-138720000D01*
X214096000Y-140680000D02*
X214096000Y-141665000D01*
X214136000Y-137768000D02*
X214136000Y-138720000D01*
X214136000Y-140680000D02*
X214136000Y-141632000D01*
X214176000Y-137803000D02*
X214176000Y-138720000D01*
X214176000Y-140680000D02*
X214176000Y-141597000D01*
X214216000Y-137839000D02*
X214216000Y-138720000D01*
X214216000Y-140680000D02*
X214216000Y-141561000D01*
X214256000Y-137877000D02*
X214256000Y-138720000D01*
X214256000Y-140680000D02*
X214256000Y-141523000D01*
X214296000Y-137917000D02*
X214296000Y-138720000D01*
X214296000Y-140680000D02*
X214296000Y-141483000D01*
X214336000Y-137958000D02*
X214336000Y-138720000D01*
X214336000Y-140680000D02*
X214336000Y-141442000D01*
X214376000Y-138001000D02*
X214376000Y-138720000D01*
X214376000Y-140680000D02*
X214376000Y-141399000D01*
X214416000Y-138046000D02*
X214416000Y-138720000D01*
X214416000Y-140680000D02*
X214416000Y-141354000D01*
X214456000Y-138094000D02*
X214456000Y-141306000D01*
X214496000Y-138144000D02*
X214496000Y-141256000D01*
X214536000Y-138196000D02*
X214536000Y-141204000D01*
X214576000Y-138252000D02*
X214576000Y-141148000D01*
X214616000Y-138310000D02*
X214616000Y-141090000D01*
X214656000Y-138373000D02*
X214656000Y-141027000D01*
X214696000Y-138439000D02*
X214696000Y-140961000D01*
X214736000Y-138511000D02*
X214736000Y-140889000D01*
X214776000Y-138588000D02*
X214776000Y-140812000D01*
X214816000Y-138672000D02*
X214816000Y-140728000D01*
X214856000Y-138766000D02*
X214856000Y-140634000D01*
X214896000Y-138871000D02*
X214896000Y-140529000D01*
X214936000Y-138993000D02*
X214936000Y-140407000D01*
X214976000Y-139141000D02*
X214976000Y-140259000D01*
X215016000Y-139346000D02*
X215016000Y-140054000D01*
X209255000Y-139700000D02*
X210455000Y-139700000D01*
X209855000Y-139050000D02*
X209855000Y-140350000D01*
X177509277Y-152650278D02*
G75*
G03X177509000Y-157261580I1179723J-2305722D01*
G01*
X179868723Y-152650278D02*
G75*
G02X179869000Y-157261580I-1179723J-2305722D01*
G01*
X179868723Y-152650278D02*
G75*
G03X177509000Y-152650420I-1179723J-2305722D01*
G01*
X176139000Y-154956000D02*
X181239000Y-154956000D01*
X176139000Y-154916000D02*
X177709000Y-154916000D01*
X179669000Y-154916000D02*
X181239000Y-154916000D01*
X176140000Y-154876000D02*
X177709000Y-154876000D01*
X179669000Y-154876000D02*
X181238000Y-154876000D01*
X176141000Y-154836000D02*
X177709000Y-154836000D01*
X179669000Y-154836000D02*
X181237000Y-154836000D01*
X176143000Y-154796000D02*
X177709000Y-154796000D01*
X179669000Y-154796000D02*
X181235000Y-154796000D01*
X176146000Y-154756000D02*
X177709000Y-154756000D01*
X179669000Y-154756000D02*
X181232000Y-154756000D01*
X176150000Y-154716000D02*
X177709000Y-154716000D01*
X179669000Y-154716000D02*
X181228000Y-154716000D01*
X176154000Y-154676000D02*
X177709000Y-154676000D01*
X179669000Y-154676000D02*
X181224000Y-154676000D01*
X176158000Y-154636000D02*
X177709000Y-154636000D01*
X179669000Y-154636000D02*
X181220000Y-154636000D01*
X176164000Y-154596000D02*
X177709000Y-154596000D01*
X179669000Y-154596000D02*
X181214000Y-154596000D01*
X176170000Y-154556000D02*
X177709000Y-154556000D01*
X179669000Y-154556000D02*
X181208000Y-154556000D01*
X176176000Y-154516000D02*
X177709000Y-154516000D01*
X179669000Y-154516000D02*
X181202000Y-154516000D01*
X176183000Y-154476000D02*
X177709000Y-154476000D01*
X179669000Y-154476000D02*
X181195000Y-154476000D01*
X176191000Y-154436000D02*
X177709000Y-154436000D01*
X179669000Y-154436000D02*
X181187000Y-154436000D01*
X176200000Y-154396000D02*
X177709000Y-154396000D01*
X179669000Y-154396000D02*
X181178000Y-154396000D01*
X176209000Y-154356000D02*
X177709000Y-154356000D01*
X179669000Y-154356000D02*
X181169000Y-154356000D01*
X176219000Y-154316000D02*
X177709000Y-154316000D01*
X179669000Y-154316000D02*
X181159000Y-154316000D01*
X176229000Y-154276000D02*
X177709000Y-154276000D01*
X179669000Y-154276000D02*
X181149000Y-154276000D01*
X176241000Y-154235000D02*
X177709000Y-154235000D01*
X179669000Y-154235000D02*
X181137000Y-154235000D01*
X176253000Y-154195000D02*
X177709000Y-154195000D01*
X179669000Y-154195000D02*
X181125000Y-154195000D01*
X176265000Y-154155000D02*
X177709000Y-154155000D01*
X179669000Y-154155000D02*
X181113000Y-154155000D01*
X176279000Y-154115000D02*
X177709000Y-154115000D01*
X179669000Y-154115000D02*
X181099000Y-154115000D01*
X176293000Y-154075000D02*
X177709000Y-154075000D01*
X179669000Y-154075000D02*
X181085000Y-154075000D01*
X176307000Y-154035000D02*
X177709000Y-154035000D01*
X179669000Y-154035000D02*
X181071000Y-154035000D01*
X176323000Y-153995000D02*
X177709000Y-153995000D01*
X179669000Y-153995000D02*
X181055000Y-153995000D01*
X176339000Y-153955000D02*
X177709000Y-153955000D01*
X179669000Y-153955000D02*
X181039000Y-153955000D01*
X176356000Y-153915000D02*
X177709000Y-153915000D01*
X179669000Y-153915000D02*
X181022000Y-153915000D01*
X176374000Y-153875000D02*
X177709000Y-153875000D01*
X179669000Y-153875000D02*
X181004000Y-153875000D01*
X176393000Y-153835000D02*
X177709000Y-153835000D01*
X179669000Y-153835000D02*
X180985000Y-153835000D01*
X176413000Y-153795000D02*
X177709000Y-153795000D01*
X179669000Y-153795000D02*
X180965000Y-153795000D01*
X176433000Y-153755000D02*
X177709000Y-153755000D01*
X179669000Y-153755000D02*
X180945000Y-153755000D01*
X176455000Y-153715000D02*
X177709000Y-153715000D01*
X179669000Y-153715000D02*
X180923000Y-153715000D01*
X176477000Y-153675000D02*
X177709000Y-153675000D01*
X179669000Y-153675000D02*
X180901000Y-153675000D01*
X176500000Y-153635000D02*
X177709000Y-153635000D01*
X179669000Y-153635000D02*
X180878000Y-153635000D01*
X176524000Y-153595000D02*
X177709000Y-153595000D01*
X179669000Y-153595000D02*
X180854000Y-153595000D01*
X176549000Y-153555000D02*
X177709000Y-153555000D01*
X179669000Y-153555000D02*
X180829000Y-153555000D01*
X176576000Y-153515000D02*
X177709000Y-153515000D01*
X179669000Y-153515000D02*
X180802000Y-153515000D01*
X176603000Y-153475000D02*
X177709000Y-153475000D01*
X179669000Y-153475000D02*
X180775000Y-153475000D01*
X176631000Y-153435000D02*
X177709000Y-153435000D01*
X179669000Y-153435000D02*
X180747000Y-153435000D01*
X176661000Y-153395000D02*
X177709000Y-153395000D01*
X179669000Y-153395000D02*
X180717000Y-153395000D01*
X176692000Y-153355000D02*
X177709000Y-153355000D01*
X179669000Y-153355000D02*
X180686000Y-153355000D01*
X176724000Y-153315000D02*
X177709000Y-153315000D01*
X179669000Y-153315000D02*
X180654000Y-153315000D01*
X176757000Y-153275000D02*
X177709000Y-153275000D01*
X179669000Y-153275000D02*
X180621000Y-153275000D01*
X176792000Y-153235000D02*
X177709000Y-153235000D01*
X179669000Y-153235000D02*
X180586000Y-153235000D01*
X176828000Y-153195000D02*
X177709000Y-153195000D01*
X179669000Y-153195000D02*
X180550000Y-153195000D01*
X176866000Y-153155000D02*
X177709000Y-153155000D01*
X179669000Y-153155000D02*
X180512000Y-153155000D01*
X176906000Y-153115000D02*
X177709000Y-153115000D01*
X179669000Y-153115000D02*
X180472000Y-153115000D01*
X176947000Y-153075000D02*
X177709000Y-153075000D01*
X179669000Y-153075000D02*
X180431000Y-153075000D01*
X176990000Y-153035000D02*
X177709000Y-153035000D01*
X179669000Y-153035000D02*
X180388000Y-153035000D01*
X177035000Y-152995000D02*
X177709000Y-152995000D01*
X179669000Y-152995000D02*
X180343000Y-152995000D01*
X177083000Y-152955000D02*
X180295000Y-152955000D01*
X177133000Y-152915000D02*
X180245000Y-152915000D01*
X177185000Y-152875000D02*
X180193000Y-152875000D01*
X177241000Y-152835000D02*
X180137000Y-152835000D01*
X177299000Y-152795000D02*
X180079000Y-152795000D01*
X177362000Y-152755000D02*
X180016000Y-152755000D01*
X177428000Y-152715000D02*
X179950000Y-152715000D01*
X177500000Y-152675000D02*
X179878000Y-152675000D01*
X177577000Y-152635000D02*
X179801000Y-152635000D01*
X177661000Y-152595000D02*
X179717000Y-152595000D01*
X177755000Y-152555000D02*
X179623000Y-152555000D01*
X177860000Y-152515000D02*
X179518000Y-152515000D01*
X177982000Y-152475000D02*
X179396000Y-152475000D01*
X178130000Y-152435000D02*
X179248000Y-152435000D01*
X178335000Y-152395000D02*
X179043000Y-152395000D01*
X178689000Y-158156000D02*
X178689000Y-156956000D01*
X178039000Y-157556000D02*
X179339000Y-157556000D01*
X184403000Y-138078000D02*
X181103000Y-138078000D01*
X181103000Y-138078000D02*
X181103000Y-143478000D01*
X184403000Y-138078000D02*
X184403000Y-143478000D01*
X182244000Y-123092000D02*
X178944000Y-123092000D01*
X178944000Y-123092000D02*
X178944000Y-128492000D01*
X182244000Y-123092000D02*
X182244000Y-128492000D01*
X184403000Y-145190000D02*
X181103000Y-145190000D01*
X181103000Y-145190000D02*
X181103000Y-150590000D01*
X184403000Y-145190000D02*
X184403000Y-150590000D01*
X180720000Y-130712000D02*
X177420000Y-130712000D01*
X177420000Y-130712000D02*
X177420000Y-136112000D01*
X180720000Y-130712000D02*
X180720000Y-136112000D01*
X178263000Y-70865000D02*
X178263000Y-67565000D01*
X178263000Y-67565000D02*
X171363000Y-67565000D01*
X178263000Y-70865000D02*
X171363000Y-70865000D01*
X189397000Y-106846000D02*
X189397000Y-108546000D01*
X189447000Y-108546000D02*
X193497000Y-108546000D01*
X189447000Y-106846000D02*
X193497000Y-106846000D01*
X189397000Y-119546000D02*
X189397000Y-121246000D01*
X189447000Y-121246000D02*
X193497000Y-121246000D01*
X189447000Y-119546000D02*
X193497000Y-119546000D01*
X189778000Y-130849000D02*
X189778000Y-132549000D01*
X189828000Y-132549000D02*
X193878000Y-132549000D01*
X189828000Y-130849000D02*
X193878000Y-130849000D01*
X207224000Y-82257000D02*
X207224000Y-80557000D01*
X207174000Y-80557000D02*
X203124000Y-80557000D01*
X207174000Y-82257000D02*
X203124000Y-82257000D01*
X182312000Y-153356000D02*
X182312000Y-156016000D01*
X184912000Y-153356000D02*
X182312000Y-153356000D01*
X184912000Y-156016000D02*
X182312000Y-156016000D01*
X184912000Y-153356000D02*
X184912000Y-156016000D01*
X186182000Y-153356000D02*
X187512000Y-153356000D01*
X187512000Y-153356000D02*
X187512000Y-154686000D01*
X186630000Y-147380000D02*
X191830000Y-147380000D01*
X186630000Y-142240000D02*
X186630000Y-147380000D01*
X191830000Y-139640000D02*
X191830000Y-147380000D01*
X186630000Y-142240000D02*
X189230000Y-142240000D01*
X189230000Y-142240000D02*
X189230000Y-139640000D01*
X189230000Y-139640000D02*
X191830000Y-139640000D01*
X186630000Y-140970000D02*
X186630000Y-139640000D01*
X186630000Y-139640000D02*
X187960000Y-139640000D01*
X208093000Y-144593000D02*
X208093000Y-147253000D01*
X218313000Y-144593000D02*
X208093000Y-144593000D01*
X218313000Y-147253000D02*
X208093000Y-147253000D01*
X218313000Y-144593000D02*
X218313000Y-147253000D01*
X219583000Y-144593000D02*
X220913000Y-144593000D01*
X220913000Y-144593000D02*
X220913000Y-145923000D01*
X201990000Y-156016000D02*
X201990000Y-153356000D01*
X196850000Y-156016000D02*
X201990000Y-156016000D01*
X196850000Y-153356000D02*
X201990000Y-153356000D01*
X196850000Y-156016000D02*
X196850000Y-153356000D01*
X195580000Y-156016000D02*
X194250000Y-156016000D01*
X194250000Y-156016000D02*
X194250000Y-154686000D01*
X179765000Y-79950000D02*
X177105000Y-79950000D01*
X179765000Y-82550000D02*
X179765000Y-79950000D01*
X177105000Y-82550000D02*
X177105000Y-79950000D01*
X179765000Y-82550000D02*
X177105000Y-82550000D01*
X179765000Y-83820000D02*
X179765000Y-85150000D01*
X179765000Y-85150000D02*
X178435000Y-85150000D01*
X206950000Y-152975000D02*
X206950000Y-155635000D01*
X212090000Y-152975000D02*
X206950000Y-152975000D01*
X212090000Y-155635000D02*
X206950000Y-155635000D01*
X212090000Y-152975000D02*
X212090000Y-155635000D01*
X213360000Y-152975000D02*
X214690000Y-152975000D01*
X214690000Y-152975000D02*
X214690000Y-154305000D01*
X175285000Y-107236000D02*
X175285000Y-110696000D01*
X179045000Y-107236000D02*
X179045000Y-110696000D01*
D12*
X193040000Y-69215000D02*
X186690000Y-69215000D01*
X182880000Y-74295000D02*
X189230000Y-74295000D01*
X193040000Y-74295000D02*
X191770000Y-74295000D01*
X182880000Y-69215000D02*
X184150000Y-69215000D01*
X193040000Y-74295000D02*
X193040000Y-69215000D01*
X182880000Y-69215000D02*
X182880000Y-74295000D01*
X148582143Y-83261381D02*
X148105952Y-83261381D01*
X148105952Y-82261381D01*
X149439286Y-83261381D02*
X148867857Y-83261381D01*
X149153571Y-83261381D02*
X149153571Y-82261381D01*
X149058333Y-82404238D01*
X148963095Y-82499476D01*
X148867857Y-82547095D01*
X150058333Y-82261381D02*
X150153572Y-82261381D01*
X150248810Y-82309000D01*
X150296429Y-82356619D01*
X150344048Y-82451857D01*
X150391667Y-82642333D01*
X150391667Y-82880429D01*
X150344048Y-83070905D01*
X150296429Y-83166143D01*
X150248810Y-83213762D01*
X150153572Y-83261381D01*
X150058333Y-83261381D01*
X149963095Y-83213762D01*
X149915476Y-83166143D01*
X149867857Y-83070905D01*
X149820238Y-82880429D01*
X149820238Y-82642333D01*
X149867857Y-82451857D01*
X149915476Y-82356619D01*
X149963095Y-82309000D01*
X150058333Y-82261381D01*
X185142143Y-133357857D02*
X185189762Y-133405476D01*
X185237381Y-133548333D01*
X185237381Y-133643571D01*
X185189762Y-133786429D01*
X185094524Y-133881667D01*
X184999286Y-133929286D01*
X184808810Y-133976905D01*
X184665952Y-133976905D01*
X184475476Y-133929286D01*
X184380238Y-133881667D01*
X184285000Y-133786429D01*
X184237381Y-133643571D01*
X184237381Y-133548333D01*
X184285000Y-133405476D01*
X184332619Y-133357857D01*
X185237381Y-132405476D02*
X185237381Y-132976905D01*
X185237381Y-132691191D02*
X184237381Y-132691191D01*
X184380238Y-132786429D01*
X184475476Y-132881667D01*
X184523095Y-132976905D01*
X184665952Y-131834048D02*
X184618333Y-131929286D01*
X184570714Y-131976905D01*
X184475476Y-132024524D01*
X184427857Y-132024524D01*
X184332619Y-131976905D01*
X184285000Y-131929286D01*
X184237381Y-131834048D01*
X184237381Y-131643571D01*
X184285000Y-131548333D01*
X184332619Y-131500714D01*
X184427857Y-131453095D01*
X184475476Y-131453095D01*
X184570714Y-131500714D01*
X184618333Y-131548333D01*
X184665952Y-131643571D01*
X184665952Y-131834048D01*
X184713571Y-131929286D01*
X184761190Y-131976905D01*
X184856429Y-132024524D01*
X185046905Y-132024524D01*
X185142143Y-131976905D01*
X185189762Y-131929286D01*
X185237381Y-131834048D01*
X185237381Y-131643571D01*
X185189762Y-131548333D01*
X185142143Y-131500714D01*
X185046905Y-131453095D01*
X184856429Y-131453095D01*
X184761190Y-131500714D01*
X184713571Y-131548333D01*
X184665952Y-131643571D01*
X161917143Y-98147143D02*
X161869524Y-98194762D01*
X161726667Y-98242381D01*
X161631429Y-98242381D01*
X161488571Y-98194762D01*
X161393333Y-98099524D01*
X161345714Y-98004286D01*
X161298095Y-97813810D01*
X161298095Y-97670952D01*
X161345714Y-97480476D01*
X161393333Y-97385238D01*
X161488571Y-97290000D01*
X161631429Y-97242381D01*
X161726667Y-97242381D01*
X161869524Y-97290000D01*
X161917143Y-97337619D01*
X162250476Y-97242381D02*
X162869524Y-97242381D01*
X162536190Y-97623333D01*
X162679048Y-97623333D01*
X162774286Y-97670952D01*
X162821905Y-97718571D01*
X162869524Y-97813810D01*
X162869524Y-98051905D01*
X162821905Y-98147143D01*
X162774286Y-98194762D01*
X162679048Y-98242381D01*
X162393333Y-98242381D01*
X162298095Y-98194762D01*
X162250476Y-98147143D01*
X163726667Y-97242381D02*
X163536190Y-97242381D01*
X163440952Y-97290000D01*
X163393333Y-97337619D01*
X163298095Y-97480476D01*
X163250476Y-97670952D01*
X163250476Y-98051905D01*
X163298095Y-98147143D01*
X163345714Y-98194762D01*
X163440952Y-98242381D01*
X163631429Y-98242381D01*
X163726667Y-98194762D01*
X163774286Y-98147143D01*
X163821905Y-98051905D01*
X163821905Y-97813810D01*
X163774286Y-97718571D01*
X163726667Y-97670952D01*
X163631429Y-97623333D01*
X163440952Y-97623333D01*
X163345714Y-97670952D01*
X163298095Y-97718571D01*
X163250476Y-97813810D01*
X161282143Y-127357143D02*
X161234524Y-127404762D01*
X161091667Y-127452381D01*
X160996429Y-127452381D01*
X160853571Y-127404762D01*
X160758333Y-127309524D01*
X160710714Y-127214286D01*
X160663095Y-127023810D01*
X160663095Y-126880952D01*
X160710714Y-126690476D01*
X160758333Y-126595238D01*
X160853571Y-126500000D01*
X160996429Y-126452381D01*
X161091667Y-126452381D01*
X161234524Y-126500000D01*
X161282143Y-126547619D01*
X161615476Y-126452381D02*
X162234524Y-126452381D01*
X161901190Y-126833333D01*
X162044048Y-126833333D01*
X162139286Y-126880952D01*
X162186905Y-126928571D01*
X162234524Y-127023810D01*
X162234524Y-127261905D01*
X162186905Y-127357143D01*
X162139286Y-127404762D01*
X162044048Y-127452381D01*
X161758333Y-127452381D01*
X161663095Y-127404762D01*
X161615476Y-127357143D01*
X162805952Y-126880952D02*
X162710714Y-126833333D01*
X162663095Y-126785714D01*
X162615476Y-126690476D01*
X162615476Y-126642857D01*
X162663095Y-126547619D01*
X162710714Y-126500000D01*
X162805952Y-126452381D01*
X162996429Y-126452381D01*
X163091667Y-126500000D01*
X163139286Y-126547619D01*
X163186905Y-126642857D01*
X163186905Y-126690476D01*
X163139286Y-126785714D01*
X163091667Y-126833333D01*
X162996429Y-126880952D01*
X162805952Y-126880952D01*
X162710714Y-126928571D01*
X162663095Y-126976190D01*
X162615476Y-127071429D01*
X162615476Y-127261905D01*
X162663095Y-127357143D01*
X162710714Y-127404762D01*
X162805952Y-127452381D01*
X162996429Y-127452381D01*
X163091667Y-127404762D01*
X163139286Y-127357143D01*
X163186905Y-127261905D01*
X163186905Y-127071429D01*
X163139286Y-126976190D01*
X163091667Y-126928571D01*
X162996429Y-126880952D01*
X161282143Y-141962143D02*
X161234524Y-142009762D01*
X161091667Y-142057381D01*
X160996429Y-142057381D01*
X160853571Y-142009762D01*
X160758333Y-141914524D01*
X160710714Y-141819286D01*
X160663095Y-141628810D01*
X160663095Y-141485952D01*
X160710714Y-141295476D01*
X160758333Y-141200238D01*
X160853571Y-141105000D01*
X160996429Y-141057381D01*
X161091667Y-141057381D01*
X161234524Y-141105000D01*
X161282143Y-141152619D01*
X161615476Y-141057381D02*
X162234524Y-141057381D01*
X161901190Y-141438333D01*
X162044048Y-141438333D01*
X162139286Y-141485952D01*
X162186905Y-141533571D01*
X162234524Y-141628810D01*
X162234524Y-141866905D01*
X162186905Y-141962143D01*
X162139286Y-142009762D01*
X162044048Y-142057381D01*
X161758333Y-142057381D01*
X161663095Y-142009762D01*
X161615476Y-141962143D01*
X162710714Y-142057381D02*
X162901190Y-142057381D01*
X162996429Y-142009762D01*
X163044048Y-141962143D01*
X163139286Y-141819286D01*
X163186905Y-141628810D01*
X163186905Y-141247857D01*
X163139286Y-141152619D01*
X163091667Y-141105000D01*
X162996429Y-141057381D01*
X162805952Y-141057381D01*
X162710714Y-141105000D01*
X162663095Y-141152619D01*
X162615476Y-141247857D01*
X162615476Y-141485952D01*
X162663095Y-141581190D01*
X162710714Y-141628810D01*
X162805952Y-141676429D01*
X162996429Y-141676429D01*
X163091667Y-141628810D01*
X163139286Y-141581190D01*
X163186905Y-141485952D01*
X168267143Y-145758143D02*
X168219524Y-145805762D01*
X168076667Y-145853381D01*
X167981429Y-145853381D01*
X167838571Y-145805762D01*
X167743333Y-145710524D01*
X167695714Y-145615286D01*
X167648095Y-145424810D01*
X167648095Y-145281952D01*
X167695714Y-145091476D01*
X167743333Y-144996238D01*
X167838571Y-144901000D01*
X167981429Y-144853381D01*
X168076667Y-144853381D01*
X168219524Y-144901000D01*
X168267143Y-144948619D01*
X169124286Y-145186714D02*
X169124286Y-145853381D01*
X168886190Y-144805762D02*
X168648095Y-145520048D01*
X169267143Y-145520048D01*
X169838571Y-144853381D02*
X169933810Y-144853381D01*
X170029048Y-144901000D01*
X170076667Y-144948619D01*
X170124286Y-145043857D01*
X170171905Y-145234333D01*
X170171905Y-145472429D01*
X170124286Y-145662905D01*
X170076667Y-145758143D01*
X170029048Y-145805762D01*
X169933810Y-145853381D01*
X169838571Y-145853381D01*
X169743333Y-145805762D01*
X169695714Y-145758143D01*
X169648095Y-145662905D01*
X169600476Y-145472429D01*
X169600476Y-145234333D01*
X169648095Y-145043857D01*
X169695714Y-144948619D01*
X169743333Y-144901000D01*
X169838571Y-144853381D01*
X173472143Y-83827857D02*
X173519762Y-83875476D01*
X173567381Y-84018333D01*
X173567381Y-84113571D01*
X173519762Y-84256429D01*
X173424524Y-84351667D01*
X173329286Y-84399286D01*
X173138810Y-84446905D01*
X172995952Y-84446905D01*
X172805476Y-84399286D01*
X172710238Y-84351667D01*
X172615000Y-84256429D01*
X172567381Y-84113571D01*
X172567381Y-84018333D01*
X172615000Y-83875476D01*
X172662619Y-83827857D01*
X172900714Y-82970714D02*
X173567381Y-82970714D01*
X172519762Y-83208810D02*
X173234048Y-83446905D01*
X173234048Y-82827857D01*
X172662619Y-82494524D02*
X172615000Y-82446905D01*
X172567381Y-82351667D01*
X172567381Y-82113571D01*
X172615000Y-82018333D01*
X172662619Y-81970714D01*
X172757857Y-81923095D01*
X172853095Y-81923095D01*
X172995952Y-81970714D01*
X173567381Y-82542143D01*
X173567381Y-81923095D01*
X166997143Y-126087143D02*
X166949524Y-126134762D01*
X166806667Y-126182381D01*
X166711429Y-126182381D01*
X166568571Y-126134762D01*
X166473333Y-126039524D01*
X166425714Y-125944286D01*
X166378095Y-125753810D01*
X166378095Y-125610952D01*
X166425714Y-125420476D01*
X166473333Y-125325238D01*
X166568571Y-125230000D01*
X166711429Y-125182381D01*
X166806667Y-125182381D01*
X166949524Y-125230000D01*
X166997143Y-125277619D01*
X167854286Y-125515714D02*
X167854286Y-126182381D01*
X167616190Y-125134762D02*
X167378095Y-125849048D01*
X167997143Y-125849048D01*
X168520952Y-125610952D02*
X168425714Y-125563333D01*
X168378095Y-125515714D01*
X168330476Y-125420476D01*
X168330476Y-125372857D01*
X168378095Y-125277619D01*
X168425714Y-125230000D01*
X168520952Y-125182381D01*
X168711429Y-125182381D01*
X168806667Y-125230000D01*
X168854286Y-125277619D01*
X168901905Y-125372857D01*
X168901905Y-125420476D01*
X168854286Y-125515714D01*
X168806667Y-125563333D01*
X168711429Y-125610952D01*
X168520952Y-125610952D01*
X168425714Y-125658571D01*
X168378095Y-125706190D01*
X168330476Y-125801429D01*
X168330476Y-125991905D01*
X168378095Y-126087143D01*
X168425714Y-126134762D01*
X168520952Y-126182381D01*
X168711429Y-126182381D01*
X168806667Y-126134762D01*
X168854286Y-126087143D01*
X168901905Y-125991905D01*
X168901905Y-125801429D01*
X168854286Y-125706190D01*
X168806667Y-125658571D01*
X168711429Y-125610952D01*
X131341905Y-81732381D02*
X131341905Y-80732381D01*
X131580000Y-80732381D01*
X131722858Y-80780000D01*
X131818096Y-80875238D01*
X131865715Y-80970476D01*
X131913334Y-81160952D01*
X131913334Y-81303810D01*
X131865715Y-81494286D01*
X131818096Y-81589524D01*
X131722858Y-81684762D01*
X131580000Y-81732381D01*
X131341905Y-81732381D01*
X132484762Y-81160952D02*
X132389524Y-81113333D01*
X132341905Y-81065714D01*
X132294286Y-80970476D01*
X132294286Y-80922857D01*
X132341905Y-80827619D01*
X132389524Y-80780000D01*
X132484762Y-80732381D01*
X132675239Y-80732381D01*
X132770477Y-80780000D01*
X132818096Y-80827619D01*
X132865715Y-80922857D01*
X132865715Y-80970476D01*
X132818096Y-81065714D01*
X132770477Y-81113333D01*
X132675239Y-81160952D01*
X132484762Y-81160952D01*
X132389524Y-81208571D01*
X132341905Y-81256190D01*
X132294286Y-81351429D01*
X132294286Y-81541905D01*
X132341905Y-81637143D01*
X132389524Y-81684762D01*
X132484762Y-81732381D01*
X132675239Y-81732381D01*
X132770477Y-81684762D01*
X132818096Y-81637143D01*
X132865715Y-81541905D01*
X132865715Y-81351429D01*
X132818096Y-81256190D01*
X132770477Y-81208571D01*
X132675239Y-81160952D01*
X133167381Y-96623095D02*
X132167381Y-96623095D01*
X132167381Y-96385000D01*
X132215000Y-96242142D01*
X132310238Y-96146904D01*
X132405476Y-96099285D01*
X132595952Y-96051666D01*
X132738810Y-96051666D01*
X132929286Y-96099285D01*
X133024524Y-96146904D01*
X133119762Y-96242142D01*
X133167381Y-96385000D01*
X133167381Y-96623095D01*
X133167381Y-95575476D02*
X133167381Y-95385000D01*
X133119762Y-95289761D01*
X133072143Y-95242142D01*
X132929286Y-95146904D01*
X132738810Y-95099285D01*
X132357857Y-95099285D01*
X132262619Y-95146904D01*
X132215000Y-95194523D01*
X132167381Y-95289761D01*
X132167381Y-95480238D01*
X132215000Y-95575476D01*
X132262619Y-95623095D01*
X132357857Y-95670714D01*
X132595952Y-95670714D01*
X132691190Y-95623095D01*
X132738810Y-95575476D01*
X132786429Y-95480238D01*
X132786429Y-95289761D01*
X132738810Y-95194523D01*
X132691190Y-95146904D01*
X132595952Y-95099285D01*
X133167381Y-111704286D02*
X132167381Y-111704286D01*
X132167381Y-111466191D01*
X132215000Y-111323333D01*
X132310238Y-111228095D01*
X132405476Y-111180476D01*
X132595952Y-111132857D01*
X132738810Y-111132857D01*
X132929286Y-111180476D01*
X133024524Y-111228095D01*
X133119762Y-111323333D01*
X133167381Y-111466191D01*
X133167381Y-111704286D01*
X133167381Y-110180476D02*
X133167381Y-110751905D01*
X133167381Y-110466191D02*
X132167381Y-110466191D01*
X132310238Y-110561429D01*
X132405476Y-110656667D01*
X132453095Y-110751905D01*
X132167381Y-109561429D02*
X132167381Y-109466190D01*
X132215000Y-109370952D01*
X132262619Y-109323333D01*
X132357857Y-109275714D01*
X132548333Y-109228095D01*
X132786429Y-109228095D01*
X132976905Y-109275714D01*
X133072143Y-109323333D01*
X133119762Y-109370952D01*
X133167381Y-109466190D01*
X133167381Y-109561429D01*
X133119762Y-109656667D01*
X133072143Y-109704286D01*
X132976905Y-109751905D01*
X132786429Y-109799524D01*
X132548333Y-109799524D01*
X132357857Y-109751905D01*
X132262619Y-109704286D01*
X132215000Y-109656667D01*
X132167381Y-109561429D01*
X133167381Y-126309286D02*
X132167381Y-126309286D01*
X132167381Y-126071191D01*
X132215000Y-125928333D01*
X132310238Y-125833095D01*
X132405476Y-125785476D01*
X132595952Y-125737857D01*
X132738810Y-125737857D01*
X132929286Y-125785476D01*
X133024524Y-125833095D01*
X133119762Y-125928333D01*
X133167381Y-126071191D01*
X133167381Y-126309286D01*
X133167381Y-124785476D02*
X133167381Y-125356905D01*
X133167381Y-125071191D02*
X132167381Y-125071191D01*
X132310238Y-125166429D01*
X132405476Y-125261667D01*
X132453095Y-125356905D01*
X133167381Y-123833095D02*
X133167381Y-124404524D01*
X133167381Y-124118810D02*
X132167381Y-124118810D01*
X132310238Y-124214048D01*
X132405476Y-124309286D01*
X132453095Y-124404524D01*
X133405714Y-143327381D02*
X133405714Y-142327381D01*
X133643809Y-142327381D01*
X133786667Y-142375000D01*
X133881905Y-142470238D01*
X133929524Y-142565476D01*
X133977143Y-142755952D01*
X133977143Y-142898810D01*
X133929524Y-143089286D01*
X133881905Y-143184524D01*
X133786667Y-143279762D01*
X133643809Y-143327381D01*
X133405714Y-143327381D01*
X134929524Y-143327381D02*
X134358095Y-143327381D01*
X134643809Y-143327381D02*
X134643809Y-142327381D01*
X134548571Y-142470238D01*
X134453333Y-142565476D01*
X134358095Y-142613095D01*
X135310476Y-142422619D02*
X135358095Y-142375000D01*
X135453333Y-142327381D01*
X135691429Y-142327381D01*
X135786667Y-142375000D01*
X135834286Y-142422619D01*
X135881905Y-142517857D01*
X135881905Y-142613095D01*
X135834286Y-142755952D01*
X135262857Y-143327381D01*
X135881905Y-143327381D01*
X217098714Y-144089381D02*
X217098714Y-143089381D01*
X217336809Y-143089381D01*
X217479667Y-143137000D01*
X217574905Y-143232238D01*
X217622524Y-143327476D01*
X217670143Y-143517952D01*
X217670143Y-143660810D01*
X217622524Y-143851286D01*
X217574905Y-143946524D01*
X217479667Y-144041762D01*
X217336809Y-144089381D01*
X217098714Y-144089381D01*
X218051095Y-143184619D02*
X218098714Y-143137000D01*
X218193952Y-143089381D01*
X218432048Y-143089381D01*
X218527286Y-143137000D01*
X218574905Y-143184619D01*
X218622524Y-143279857D01*
X218622524Y-143375095D01*
X218574905Y-143517952D01*
X218003476Y-144089381D01*
X218622524Y-144089381D01*
X219479667Y-143089381D02*
X219289190Y-143089381D01*
X219193952Y-143137000D01*
X219146333Y-143184619D01*
X219051095Y-143327476D01*
X219003476Y-143517952D01*
X219003476Y-143898905D01*
X219051095Y-143994143D01*
X219098714Y-144041762D01*
X219193952Y-144089381D01*
X219384429Y-144089381D01*
X219479667Y-144041762D01*
X219527286Y-143994143D01*
X219574905Y-143898905D01*
X219574905Y-143660810D01*
X219527286Y-143565571D01*
X219479667Y-143517952D01*
X219384429Y-143470333D01*
X219193952Y-143470333D01*
X219098714Y-143517952D01*
X219051095Y-143565571D01*
X219003476Y-143660810D01*
X183189714Y-76430381D02*
X183189714Y-75430381D01*
X183427809Y-75430381D01*
X183570667Y-75478000D01*
X183665905Y-75573238D01*
X183713524Y-75668476D01*
X183761143Y-75858952D01*
X183761143Y-76001810D01*
X183713524Y-76192286D01*
X183665905Y-76287524D01*
X183570667Y-76382762D01*
X183427809Y-76430381D01*
X183189714Y-76430381D01*
X184142095Y-75525619D02*
X184189714Y-75478000D01*
X184284952Y-75430381D01*
X184523048Y-75430381D01*
X184618286Y-75478000D01*
X184665905Y-75525619D01*
X184713524Y-75620857D01*
X184713524Y-75716095D01*
X184665905Y-75858952D01*
X184094476Y-76430381D01*
X184713524Y-76430381D01*
X185284952Y-75858952D02*
X185189714Y-75811333D01*
X185142095Y-75763714D01*
X185094476Y-75668476D01*
X185094476Y-75620857D01*
X185142095Y-75525619D01*
X185189714Y-75478000D01*
X185284952Y-75430381D01*
X185475429Y-75430381D01*
X185570667Y-75478000D01*
X185618286Y-75525619D01*
X185665905Y-75620857D01*
X185665905Y-75668476D01*
X185618286Y-75763714D01*
X185570667Y-75811333D01*
X185475429Y-75858952D01*
X185284952Y-75858952D01*
X185189714Y-75906571D01*
X185142095Y-75954190D01*
X185094476Y-76049429D01*
X185094476Y-76239905D01*
X185142095Y-76335143D01*
X185189714Y-76382762D01*
X185284952Y-76430381D01*
X185475429Y-76430381D01*
X185570667Y-76382762D01*
X185618286Y-76335143D01*
X185665905Y-76239905D01*
X185665905Y-76049429D01*
X185618286Y-75954190D01*
X185570667Y-75906571D01*
X185475429Y-75858952D01*
X190555714Y-93702381D02*
X190555714Y-92702381D01*
X190793809Y-92702381D01*
X190936667Y-92750000D01*
X191031905Y-92845238D01*
X191079524Y-92940476D01*
X191127143Y-93130952D01*
X191127143Y-93273810D01*
X191079524Y-93464286D01*
X191031905Y-93559524D01*
X190936667Y-93654762D01*
X190793809Y-93702381D01*
X190555714Y-93702381D01*
X191508095Y-92797619D02*
X191555714Y-92750000D01*
X191650952Y-92702381D01*
X191889048Y-92702381D01*
X191984286Y-92750000D01*
X192031905Y-92797619D01*
X192079524Y-92892857D01*
X192079524Y-92988095D01*
X192031905Y-93130952D01*
X191460476Y-93702381D01*
X192079524Y-93702381D01*
X192555714Y-93702381D02*
X192746190Y-93702381D01*
X192841429Y-93654762D01*
X192889048Y-93607143D01*
X192984286Y-93464286D01*
X193031905Y-93273810D01*
X193031905Y-92892857D01*
X192984286Y-92797619D01*
X192936667Y-92750000D01*
X192841429Y-92702381D01*
X192650952Y-92702381D01*
X192555714Y-92750000D01*
X192508095Y-92797619D01*
X192460476Y-92892857D01*
X192460476Y-93130952D01*
X192508095Y-93226190D01*
X192555714Y-93273810D01*
X192650952Y-93321429D01*
X192841429Y-93321429D01*
X192936667Y-93273810D01*
X192984286Y-93226190D01*
X193031905Y-93130952D01*
X177069762Y-115772619D02*
X176974524Y-115725000D01*
X176879286Y-115629762D01*
X176736429Y-115486905D01*
X176641190Y-115439286D01*
X176545952Y-115439286D01*
X176593571Y-115677381D02*
X176498333Y-115629762D01*
X176403095Y-115534524D01*
X176355476Y-115344048D01*
X176355476Y-115010714D01*
X176403095Y-114820238D01*
X176498333Y-114725000D01*
X176593571Y-114677381D01*
X176784048Y-114677381D01*
X176879286Y-114725000D01*
X176974524Y-114820238D01*
X177022143Y-115010714D01*
X177022143Y-115344048D01*
X176974524Y-115534524D01*
X176879286Y-115629762D01*
X176784048Y-115677381D01*
X176593571Y-115677381D01*
X177355476Y-114677381D02*
X178022143Y-114677381D01*
X177593571Y-115677381D01*
X187527619Y-64865238D02*
X187480000Y-64960476D01*
X187384762Y-65055714D01*
X187241905Y-65198571D01*
X187194286Y-65293810D01*
X187194286Y-65389048D01*
X187432381Y-65341429D02*
X187384762Y-65436667D01*
X187289524Y-65531905D01*
X187099048Y-65579524D01*
X186765714Y-65579524D01*
X186575238Y-65531905D01*
X186480000Y-65436667D01*
X186432381Y-65341429D01*
X186432381Y-65150952D01*
X186480000Y-65055714D01*
X186575238Y-64960476D01*
X186765714Y-64912857D01*
X187099048Y-64912857D01*
X187289524Y-64960476D01*
X187384762Y-65055714D01*
X187432381Y-65150952D01*
X187432381Y-65341429D01*
X186860952Y-64341429D02*
X186813333Y-64436667D01*
X186765714Y-64484286D01*
X186670476Y-64531905D01*
X186622857Y-64531905D01*
X186527619Y-64484286D01*
X186480000Y-64436667D01*
X186432381Y-64341429D01*
X186432381Y-64150952D01*
X186480000Y-64055714D01*
X186527619Y-64008095D01*
X186622857Y-63960476D01*
X186670476Y-63960476D01*
X186765714Y-64008095D01*
X186813333Y-64055714D01*
X186860952Y-64150952D01*
X186860952Y-64341429D01*
X186908571Y-64436667D01*
X186956190Y-64484286D01*
X187051429Y-64531905D01*
X187241905Y-64531905D01*
X187337143Y-64484286D01*
X187384762Y-64436667D01*
X187432381Y-64341429D01*
X187432381Y-64150952D01*
X187384762Y-64055714D01*
X187337143Y-64008095D01*
X187241905Y-63960476D01*
X187051429Y-63960476D01*
X186956190Y-64008095D01*
X186908571Y-64055714D01*
X186860952Y-64150952D01*
X136342381Y-148121666D02*
X135866190Y-148455000D01*
X136342381Y-148693095D02*
X135342381Y-148693095D01*
X135342381Y-148312142D01*
X135390000Y-148216904D01*
X135437619Y-148169285D01*
X135532857Y-148121666D01*
X135675714Y-148121666D01*
X135770952Y-148169285D01*
X135818571Y-148216904D01*
X135866190Y-148312142D01*
X135866190Y-148693095D01*
X135342381Y-147788333D02*
X135342381Y-147169285D01*
X135723333Y-147502619D01*
X135723333Y-147359761D01*
X135770952Y-147264523D01*
X135818571Y-147216904D01*
X135913810Y-147169285D01*
X136151905Y-147169285D01*
X136247143Y-147216904D01*
X136294762Y-147264523D01*
X136342381Y-147359761D01*
X136342381Y-147645476D01*
X136294762Y-147740714D01*
X136247143Y-147788333D01*
X128722381Y-148121666D02*
X128246190Y-148455000D01*
X128722381Y-148693095D02*
X127722381Y-148693095D01*
X127722381Y-148312142D01*
X127770000Y-148216904D01*
X127817619Y-148169285D01*
X127912857Y-148121666D01*
X128055714Y-148121666D01*
X128150952Y-148169285D01*
X128198571Y-148216904D01*
X128246190Y-148312142D01*
X128246190Y-148693095D01*
X128055714Y-147264523D02*
X128722381Y-147264523D01*
X127674762Y-147502619D02*
X128389048Y-147740714D01*
X128389048Y-147121666D01*
X136358334Y-67762381D02*
X136025000Y-67286190D01*
X135786905Y-67762381D02*
X135786905Y-66762381D01*
X136167858Y-66762381D01*
X136263096Y-66810000D01*
X136310715Y-66857619D01*
X136358334Y-66952857D01*
X136358334Y-67095714D01*
X136310715Y-67190952D01*
X136263096Y-67238571D01*
X136167858Y-67286190D01*
X135786905Y-67286190D01*
X137263096Y-66762381D02*
X136786905Y-66762381D01*
X136739286Y-67238571D01*
X136786905Y-67190952D01*
X136882143Y-67143333D01*
X137120239Y-67143333D01*
X137215477Y-67190952D01*
X137263096Y-67238571D01*
X137310715Y-67333810D01*
X137310715Y-67571905D01*
X137263096Y-67667143D01*
X137215477Y-67714762D01*
X137120239Y-67762381D01*
X136882143Y-67762381D01*
X136786905Y-67714762D01*
X136739286Y-67667143D01*
X139533334Y-85302381D02*
X139200000Y-84826190D01*
X138961905Y-85302381D02*
X138961905Y-84302381D01*
X139342858Y-84302381D01*
X139438096Y-84350000D01*
X139485715Y-84397619D01*
X139533334Y-84492857D01*
X139533334Y-84635714D01*
X139485715Y-84730952D01*
X139438096Y-84778571D01*
X139342858Y-84826190D01*
X138961905Y-84826190D01*
X140390477Y-84302381D02*
X140200000Y-84302381D01*
X140104762Y-84350000D01*
X140057143Y-84397619D01*
X139961905Y-84540476D01*
X139914286Y-84730952D01*
X139914286Y-85111905D01*
X139961905Y-85207143D01*
X140009524Y-85254762D01*
X140104762Y-85302381D01*
X140295239Y-85302381D01*
X140390477Y-85254762D01*
X140438096Y-85207143D01*
X140485715Y-85111905D01*
X140485715Y-84873810D01*
X140438096Y-84778571D01*
X140390477Y-84730952D01*
X140295239Y-84683333D01*
X140104762Y-84683333D01*
X140009524Y-84730952D01*
X139961905Y-84778571D01*
X139914286Y-84873810D01*
X139533334Y-99907381D02*
X139200000Y-99431190D01*
X138961905Y-99907381D02*
X138961905Y-98907381D01*
X139342858Y-98907381D01*
X139438096Y-98955000D01*
X139485715Y-99002619D01*
X139533334Y-99097857D01*
X139533334Y-99240714D01*
X139485715Y-99335952D01*
X139438096Y-99383571D01*
X139342858Y-99431190D01*
X138961905Y-99431190D01*
X139866667Y-98907381D02*
X140533334Y-98907381D01*
X140104762Y-99907381D01*
X139533334Y-114512381D02*
X139200000Y-114036190D01*
X138961905Y-114512381D02*
X138961905Y-113512381D01*
X139342858Y-113512381D01*
X139438096Y-113560000D01*
X139485715Y-113607619D01*
X139533334Y-113702857D01*
X139533334Y-113845714D01*
X139485715Y-113940952D01*
X139438096Y-113988571D01*
X139342858Y-114036190D01*
X138961905Y-114036190D01*
X140104762Y-113940952D02*
X140009524Y-113893333D01*
X139961905Y-113845714D01*
X139914286Y-113750476D01*
X139914286Y-113702857D01*
X139961905Y-113607619D01*
X140009524Y-113560000D01*
X140104762Y-113512381D01*
X140295239Y-113512381D01*
X140390477Y-113560000D01*
X140438096Y-113607619D01*
X140485715Y-113702857D01*
X140485715Y-113750476D01*
X140438096Y-113845714D01*
X140390477Y-113893333D01*
X140295239Y-113940952D01*
X140104762Y-113940952D01*
X140009524Y-113988571D01*
X139961905Y-114036190D01*
X139914286Y-114131429D01*
X139914286Y-114321905D01*
X139961905Y-114417143D01*
X140009524Y-114464762D01*
X140104762Y-114512381D01*
X140295239Y-114512381D01*
X140390477Y-114464762D01*
X140438096Y-114417143D01*
X140485715Y-114321905D01*
X140485715Y-114131429D01*
X140438096Y-114036190D01*
X140390477Y-113988571D01*
X140295239Y-113940952D01*
X139533334Y-129117381D02*
X139200000Y-128641190D01*
X138961905Y-129117381D02*
X138961905Y-128117381D01*
X139342858Y-128117381D01*
X139438096Y-128165000D01*
X139485715Y-128212619D01*
X139533334Y-128307857D01*
X139533334Y-128450714D01*
X139485715Y-128545952D01*
X139438096Y-128593571D01*
X139342858Y-128641190D01*
X138961905Y-128641190D01*
X140009524Y-129117381D02*
X140200000Y-129117381D01*
X140295239Y-129069762D01*
X140342858Y-129022143D01*
X140438096Y-128879286D01*
X140485715Y-128688810D01*
X140485715Y-128307857D01*
X140438096Y-128212619D01*
X140390477Y-128165000D01*
X140295239Y-128117381D01*
X140104762Y-128117381D01*
X140009524Y-128165000D01*
X139961905Y-128212619D01*
X139914286Y-128307857D01*
X139914286Y-128545952D01*
X139961905Y-128641190D01*
X140009524Y-128688810D01*
X140104762Y-128736429D01*
X140295239Y-128736429D01*
X140390477Y-128688810D01*
X140438096Y-128641190D01*
X140485715Y-128545952D01*
X139057143Y-143722381D02*
X138723809Y-143246190D01*
X138485714Y-143722381D02*
X138485714Y-142722381D01*
X138866667Y-142722381D01*
X138961905Y-142770000D01*
X139009524Y-142817619D01*
X139057143Y-142912857D01*
X139057143Y-143055714D01*
X139009524Y-143150952D01*
X138961905Y-143198571D01*
X138866667Y-143246190D01*
X138485714Y-143246190D01*
X140009524Y-143722381D02*
X139438095Y-143722381D01*
X139723809Y-143722381D02*
X139723809Y-142722381D01*
X139628571Y-142865238D01*
X139533333Y-142960476D01*
X139438095Y-143008095D01*
X140628571Y-142722381D02*
X140723810Y-142722381D01*
X140819048Y-142770000D01*
X140866667Y-142817619D01*
X140914286Y-142912857D01*
X140961905Y-143103333D01*
X140961905Y-143341429D01*
X140914286Y-143531905D01*
X140866667Y-143627143D01*
X140819048Y-143674762D01*
X140723810Y-143722381D01*
X140628571Y-143722381D01*
X140533333Y-143674762D01*
X140485714Y-143627143D01*
X140438095Y-143531905D01*
X140390476Y-143341429D01*
X140390476Y-143103333D01*
X140438095Y-142912857D01*
X140485714Y-142817619D01*
X140533333Y-142770000D01*
X140628571Y-142722381D01*
X186682143Y-138642381D02*
X186348809Y-138166190D01*
X186110714Y-138642381D02*
X186110714Y-137642381D01*
X186491667Y-137642381D01*
X186586905Y-137690000D01*
X186634524Y-137737619D01*
X186682143Y-137832857D01*
X186682143Y-137975714D01*
X186634524Y-138070952D01*
X186586905Y-138118571D01*
X186491667Y-138166190D01*
X186110714Y-138166190D01*
X187634524Y-138642381D02*
X187063095Y-138642381D01*
X187348809Y-138642381D02*
X187348809Y-137642381D01*
X187253571Y-137785238D01*
X187158333Y-137880476D01*
X187063095Y-137928095D01*
X188586905Y-138642381D02*
X188015476Y-138642381D01*
X188301190Y-138642381D02*
X188301190Y-137642381D01*
X188205952Y-137785238D01*
X188110714Y-137880476D01*
X188015476Y-137928095D01*
X179917381Y-148597857D02*
X179441190Y-148931191D01*
X179917381Y-149169286D02*
X178917381Y-149169286D01*
X178917381Y-148788333D01*
X178965000Y-148693095D01*
X179012619Y-148645476D01*
X179107857Y-148597857D01*
X179250714Y-148597857D01*
X179345952Y-148645476D01*
X179393571Y-148693095D01*
X179441190Y-148788333D01*
X179441190Y-149169286D01*
X179012619Y-148216905D02*
X178965000Y-148169286D01*
X178917381Y-148074048D01*
X178917381Y-147835952D01*
X178965000Y-147740714D01*
X179012619Y-147693095D01*
X179107857Y-147645476D01*
X179203095Y-147645476D01*
X179345952Y-147693095D01*
X179917381Y-148264524D01*
X179917381Y-147645476D01*
X178917381Y-147026429D02*
X178917381Y-146931190D01*
X178965000Y-146835952D01*
X179012619Y-146788333D01*
X179107857Y-146740714D01*
X179298333Y-146693095D01*
X179536429Y-146693095D01*
X179726905Y-146740714D01*
X179822143Y-146788333D01*
X179869762Y-146835952D01*
X179917381Y-146931190D01*
X179917381Y-147026429D01*
X179869762Y-147121667D01*
X179822143Y-147169286D01*
X179726905Y-147216905D01*
X179536429Y-147264524D01*
X179298333Y-147264524D01*
X179107857Y-147216905D01*
X179012619Y-147169286D01*
X178965000Y-147121667D01*
X178917381Y-147026429D01*
X173347143Y-152217381D02*
X173013809Y-151741190D01*
X172775714Y-152217381D02*
X172775714Y-151217381D01*
X173156667Y-151217381D01*
X173251905Y-151265000D01*
X173299524Y-151312619D01*
X173347143Y-151407857D01*
X173347143Y-151550714D01*
X173299524Y-151645952D01*
X173251905Y-151693571D01*
X173156667Y-151741190D01*
X172775714Y-151741190D01*
X173728095Y-151312619D02*
X173775714Y-151265000D01*
X173870952Y-151217381D01*
X174109048Y-151217381D01*
X174204286Y-151265000D01*
X174251905Y-151312619D01*
X174299524Y-151407857D01*
X174299524Y-151503095D01*
X174251905Y-151645952D01*
X173680476Y-152217381D01*
X174299524Y-152217381D01*
X175251905Y-152217381D02*
X174680476Y-152217381D01*
X174966190Y-152217381D02*
X174966190Y-151217381D01*
X174870952Y-151360238D01*
X174775714Y-151455476D01*
X174680476Y-151503095D01*
X217876381Y-137294857D02*
X217400190Y-137628191D01*
X217876381Y-137866286D02*
X216876381Y-137866286D01*
X216876381Y-137485333D01*
X216924000Y-137390095D01*
X216971619Y-137342476D01*
X217066857Y-137294857D01*
X217209714Y-137294857D01*
X217304952Y-137342476D01*
X217352571Y-137390095D01*
X217400190Y-137485333D01*
X217400190Y-137866286D01*
X216971619Y-136913905D02*
X216924000Y-136866286D01*
X216876381Y-136771048D01*
X216876381Y-136532952D01*
X216924000Y-136437714D01*
X216971619Y-136390095D01*
X217066857Y-136342476D01*
X217162095Y-136342476D01*
X217304952Y-136390095D01*
X217876381Y-136961524D01*
X217876381Y-136342476D01*
X216876381Y-136009143D02*
X216876381Y-135390095D01*
X217257333Y-135723429D01*
X217257333Y-135580571D01*
X217304952Y-135485333D01*
X217352571Y-135437714D01*
X217447810Y-135390095D01*
X217685905Y-135390095D01*
X217781143Y-135437714D01*
X217828762Y-135485333D01*
X217876381Y-135580571D01*
X217876381Y-135866286D01*
X217828762Y-135961524D01*
X217781143Y-136009143D01*
X188412381Y-93352857D02*
X187936190Y-93686191D01*
X188412381Y-93924286D02*
X187412381Y-93924286D01*
X187412381Y-93543333D01*
X187460000Y-93448095D01*
X187507619Y-93400476D01*
X187602857Y-93352857D01*
X187745714Y-93352857D01*
X187840952Y-93400476D01*
X187888571Y-93448095D01*
X187936190Y-93543333D01*
X187936190Y-93924286D01*
X187507619Y-92971905D02*
X187460000Y-92924286D01*
X187412381Y-92829048D01*
X187412381Y-92590952D01*
X187460000Y-92495714D01*
X187507619Y-92448095D01*
X187602857Y-92400476D01*
X187698095Y-92400476D01*
X187840952Y-92448095D01*
X188412381Y-93019524D01*
X188412381Y-92400476D01*
X187745714Y-91543333D02*
X188412381Y-91543333D01*
X187364762Y-91781429D02*
X188079048Y-92019524D01*
X188079048Y-91400476D01*
X188412381Y-96527857D02*
X187936190Y-96861191D01*
X188412381Y-97099286D02*
X187412381Y-97099286D01*
X187412381Y-96718333D01*
X187460000Y-96623095D01*
X187507619Y-96575476D01*
X187602857Y-96527857D01*
X187745714Y-96527857D01*
X187840952Y-96575476D01*
X187888571Y-96623095D01*
X187936190Y-96718333D01*
X187936190Y-97099286D01*
X187507619Y-96146905D02*
X187460000Y-96099286D01*
X187412381Y-96004048D01*
X187412381Y-95765952D01*
X187460000Y-95670714D01*
X187507619Y-95623095D01*
X187602857Y-95575476D01*
X187698095Y-95575476D01*
X187840952Y-95623095D01*
X188412381Y-96194524D01*
X188412381Y-95575476D01*
X187412381Y-94670714D02*
X187412381Y-95146905D01*
X187888571Y-95194524D01*
X187840952Y-95146905D01*
X187793333Y-95051667D01*
X187793333Y-94813571D01*
X187840952Y-94718333D01*
X187888571Y-94670714D01*
X187983810Y-94623095D01*
X188221905Y-94623095D01*
X188317143Y-94670714D01*
X188364762Y-94718333D01*
X188412381Y-94813571D01*
X188412381Y-95051667D01*
X188364762Y-95146905D01*
X188317143Y-95194524D01*
X188412381Y-99702857D02*
X187936190Y-100036191D01*
X188412381Y-100274286D02*
X187412381Y-100274286D01*
X187412381Y-99893333D01*
X187460000Y-99798095D01*
X187507619Y-99750476D01*
X187602857Y-99702857D01*
X187745714Y-99702857D01*
X187840952Y-99750476D01*
X187888571Y-99798095D01*
X187936190Y-99893333D01*
X187936190Y-100274286D01*
X187507619Y-99321905D02*
X187460000Y-99274286D01*
X187412381Y-99179048D01*
X187412381Y-98940952D01*
X187460000Y-98845714D01*
X187507619Y-98798095D01*
X187602857Y-98750476D01*
X187698095Y-98750476D01*
X187840952Y-98798095D01*
X188412381Y-99369524D01*
X188412381Y-98750476D01*
X187412381Y-97893333D02*
X187412381Y-98083810D01*
X187460000Y-98179048D01*
X187507619Y-98226667D01*
X187650476Y-98321905D01*
X187840952Y-98369524D01*
X188221905Y-98369524D01*
X188317143Y-98321905D01*
X188364762Y-98274286D01*
X188412381Y-98179048D01*
X188412381Y-97988571D01*
X188364762Y-97893333D01*
X188317143Y-97845714D01*
X188221905Y-97798095D01*
X187983810Y-97798095D01*
X187888571Y-97845714D01*
X187840952Y-97893333D01*
X187793333Y-97988571D01*
X187793333Y-98179048D01*
X187840952Y-98274286D01*
X187888571Y-98321905D01*
X187983810Y-98369524D01*
X182872143Y-103322381D02*
X182538809Y-102846190D01*
X182300714Y-103322381D02*
X182300714Y-102322381D01*
X182681667Y-102322381D01*
X182776905Y-102370000D01*
X182824524Y-102417619D01*
X182872143Y-102512857D01*
X182872143Y-102655714D01*
X182824524Y-102750952D01*
X182776905Y-102798571D01*
X182681667Y-102846190D01*
X182300714Y-102846190D01*
X183253095Y-102417619D02*
X183300714Y-102370000D01*
X183395952Y-102322381D01*
X183634048Y-102322381D01*
X183729286Y-102370000D01*
X183776905Y-102417619D01*
X183824524Y-102512857D01*
X183824524Y-102608095D01*
X183776905Y-102750952D01*
X183205476Y-103322381D01*
X183824524Y-103322381D01*
X184157857Y-102322381D02*
X184824524Y-102322381D01*
X184395952Y-103322381D01*
X133881905Y-87447381D02*
X133881905Y-86447381D01*
X134120000Y-86447381D01*
X134262858Y-86495000D01*
X134358096Y-86590238D01*
X134405715Y-86685476D01*
X134453334Y-86875952D01*
X134453334Y-87018810D01*
X134405715Y-87209286D01*
X134358096Y-87304524D01*
X134262858Y-87399762D01*
X134120000Y-87447381D01*
X133881905Y-87447381D01*
X134786667Y-86447381D02*
X135405715Y-86447381D01*
X135072381Y-86828333D01*
X135215239Y-86828333D01*
X135310477Y-86875952D01*
X135358096Y-86923571D01*
X135405715Y-87018810D01*
X135405715Y-87256905D01*
X135358096Y-87352143D01*
X135310477Y-87399762D01*
X135215239Y-87447381D01*
X134929524Y-87447381D01*
X134834286Y-87399762D01*
X134786667Y-87352143D01*
X133881905Y-63952381D02*
X133881905Y-62952381D01*
X134120000Y-62952381D01*
X134262858Y-63000000D01*
X134358096Y-63095238D01*
X134405715Y-63190476D01*
X134453334Y-63380952D01*
X134453334Y-63523810D01*
X134405715Y-63714286D01*
X134358096Y-63809524D01*
X134262858Y-63904762D01*
X134120000Y-63952381D01*
X133881905Y-63952381D01*
X135405715Y-63952381D02*
X134834286Y-63952381D01*
X135120000Y-63952381D02*
X135120000Y-62952381D01*
X135024762Y-63095238D01*
X134929524Y-63190476D01*
X134834286Y-63238095D01*
X133881905Y-72842381D02*
X133881905Y-71842381D01*
X134120000Y-71842381D01*
X134262858Y-71890000D01*
X134358096Y-71985238D01*
X134405715Y-72080476D01*
X134453334Y-72270952D01*
X134453334Y-72413810D01*
X134405715Y-72604286D01*
X134358096Y-72699524D01*
X134262858Y-72794762D01*
X134120000Y-72842381D01*
X133881905Y-72842381D01*
X134834286Y-71937619D02*
X134881905Y-71890000D01*
X134977143Y-71842381D01*
X135215239Y-71842381D01*
X135310477Y-71890000D01*
X135358096Y-71937619D01*
X135405715Y-72032857D01*
X135405715Y-72128095D01*
X135358096Y-72270952D01*
X134786667Y-72842381D01*
X135405715Y-72842381D01*
X133881905Y-102052381D02*
X133881905Y-101052381D01*
X134120000Y-101052381D01*
X134262858Y-101100000D01*
X134358096Y-101195238D01*
X134405715Y-101290476D01*
X134453334Y-101480952D01*
X134453334Y-101623810D01*
X134405715Y-101814286D01*
X134358096Y-101909524D01*
X134262858Y-102004762D01*
X134120000Y-102052381D01*
X133881905Y-102052381D01*
X135310477Y-101385714D02*
X135310477Y-102052381D01*
X135072381Y-101004762D02*
X134834286Y-101719048D01*
X135453334Y-101719048D01*
X133881905Y-116657381D02*
X133881905Y-115657381D01*
X134120000Y-115657381D01*
X134262858Y-115705000D01*
X134358096Y-115800238D01*
X134405715Y-115895476D01*
X134453334Y-116085952D01*
X134453334Y-116228810D01*
X134405715Y-116419286D01*
X134358096Y-116514524D01*
X134262858Y-116609762D01*
X134120000Y-116657381D01*
X133881905Y-116657381D01*
X135358096Y-115657381D02*
X134881905Y-115657381D01*
X134834286Y-116133571D01*
X134881905Y-116085952D01*
X134977143Y-116038333D01*
X135215239Y-116038333D01*
X135310477Y-116085952D01*
X135358096Y-116133571D01*
X135405715Y-116228810D01*
X135405715Y-116466905D01*
X135358096Y-116562143D01*
X135310477Y-116609762D01*
X135215239Y-116657381D01*
X134977143Y-116657381D01*
X134881905Y-116609762D01*
X134834286Y-116562143D01*
X134516905Y-129992381D02*
X134516905Y-128992381D01*
X134755000Y-128992381D01*
X134897858Y-129040000D01*
X134993096Y-129135238D01*
X135040715Y-129230476D01*
X135088334Y-129420952D01*
X135088334Y-129563810D01*
X135040715Y-129754286D01*
X134993096Y-129849524D01*
X134897858Y-129944762D01*
X134755000Y-129992381D01*
X134516905Y-129992381D01*
X135945477Y-128992381D02*
X135755000Y-128992381D01*
X135659762Y-129040000D01*
X135612143Y-129087619D01*
X135516905Y-129230476D01*
X135469286Y-129420952D01*
X135469286Y-129801905D01*
X135516905Y-129897143D01*
X135564524Y-129944762D01*
X135659762Y-129992381D01*
X135850239Y-129992381D01*
X135945477Y-129944762D01*
X135993096Y-129897143D01*
X136040715Y-129801905D01*
X136040715Y-129563810D01*
X135993096Y-129468571D01*
X135945477Y-129420952D01*
X135850239Y-129373333D01*
X135659762Y-129373333D01*
X135564524Y-129420952D01*
X135516905Y-129468571D01*
X135469286Y-129563810D01*
X157535714Y-66492381D02*
X157535714Y-65492381D01*
X157773809Y-65492381D01*
X157916667Y-65540000D01*
X158011905Y-65635238D01*
X158059524Y-65730476D01*
X158107143Y-65920952D01*
X158107143Y-66063810D01*
X158059524Y-66254286D01*
X158011905Y-66349524D01*
X157916667Y-66444762D01*
X157773809Y-66492381D01*
X157535714Y-66492381D01*
X159059524Y-66492381D02*
X158488095Y-66492381D01*
X158773809Y-66492381D02*
X158773809Y-65492381D01*
X158678571Y-65635238D01*
X158583333Y-65730476D01*
X158488095Y-65778095D01*
X159964286Y-65492381D02*
X159488095Y-65492381D01*
X159440476Y-65968571D01*
X159488095Y-65920952D01*
X159583333Y-65873333D01*
X159821429Y-65873333D01*
X159916667Y-65920952D01*
X159964286Y-65968571D01*
X160011905Y-66063810D01*
X160011905Y-66301905D01*
X159964286Y-66397143D01*
X159916667Y-66444762D01*
X159821429Y-66492381D01*
X159583333Y-66492381D01*
X159488095Y-66444762D01*
X159440476Y-66397143D01*
X167695714Y-74787381D02*
X167695714Y-73787381D01*
X167933809Y-73787381D01*
X168076667Y-73835000D01*
X168171905Y-73930238D01*
X168219524Y-74025476D01*
X168267143Y-74215952D01*
X168267143Y-74358810D01*
X168219524Y-74549286D01*
X168171905Y-74644524D01*
X168076667Y-74739762D01*
X167933809Y-74787381D01*
X167695714Y-74787381D01*
X169219524Y-74787381D02*
X168648095Y-74787381D01*
X168933809Y-74787381D02*
X168933809Y-73787381D01*
X168838571Y-73930238D01*
X168743333Y-74025476D01*
X168648095Y-74073095D01*
X170076667Y-73787381D02*
X169886190Y-73787381D01*
X169790952Y-73835000D01*
X169743333Y-73882619D01*
X169648095Y-74025476D01*
X169600476Y-74215952D01*
X169600476Y-74596905D01*
X169648095Y-74692143D01*
X169695714Y-74739762D01*
X169790952Y-74787381D01*
X169981429Y-74787381D01*
X170076667Y-74739762D01*
X170124286Y-74692143D01*
X170171905Y-74596905D01*
X170171905Y-74358810D01*
X170124286Y-74263571D01*
X170076667Y-74215952D01*
X169981429Y-74168333D01*
X169790952Y-74168333D01*
X169695714Y-74215952D01*
X169648095Y-74263571D01*
X169600476Y-74358810D01*
X167695714Y-89392381D02*
X167695714Y-88392381D01*
X167933809Y-88392381D01*
X168076667Y-88440000D01*
X168171905Y-88535238D01*
X168219524Y-88630476D01*
X168267143Y-88820952D01*
X168267143Y-88963810D01*
X168219524Y-89154286D01*
X168171905Y-89249524D01*
X168076667Y-89344762D01*
X167933809Y-89392381D01*
X167695714Y-89392381D01*
X169219524Y-89392381D02*
X168648095Y-89392381D01*
X168933809Y-89392381D02*
X168933809Y-88392381D01*
X168838571Y-88535238D01*
X168743333Y-88630476D01*
X168648095Y-88678095D01*
X169552857Y-88392381D02*
X170219524Y-88392381D01*
X169790952Y-89392381D01*
X167695714Y-103997381D02*
X167695714Y-102997381D01*
X167933809Y-102997381D01*
X168076667Y-103045000D01*
X168171905Y-103140238D01*
X168219524Y-103235476D01*
X168267143Y-103425952D01*
X168267143Y-103568810D01*
X168219524Y-103759286D01*
X168171905Y-103854524D01*
X168076667Y-103949762D01*
X167933809Y-103997381D01*
X167695714Y-103997381D01*
X169219524Y-103997381D02*
X168648095Y-103997381D01*
X168933809Y-103997381D02*
X168933809Y-102997381D01*
X168838571Y-103140238D01*
X168743333Y-103235476D01*
X168648095Y-103283095D01*
X169790952Y-103425952D02*
X169695714Y-103378333D01*
X169648095Y-103330714D01*
X169600476Y-103235476D01*
X169600476Y-103187857D01*
X169648095Y-103092619D01*
X169695714Y-103045000D01*
X169790952Y-102997381D01*
X169981429Y-102997381D01*
X170076667Y-103045000D01*
X170124286Y-103092619D01*
X170171905Y-103187857D01*
X170171905Y-103235476D01*
X170124286Y-103330714D01*
X170076667Y-103378333D01*
X169981429Y-103425952D01*
X169790952Y-103425952D01*
X169695714Y-103473571D01*
X169648095Y-103521190D01*
X169600476Y-103616429D01*
X169600476Y-103806905D01*
X169648095Y-103902143D01*
X169695714Y-103949762D01*
X169790952Y-103997381D01*
X169981429Y-103997381D01*
X170076667Y-103949762D01*
X170124286Y-103902143D01*
X170171905Y-103806905D01*
X170171905Y-103616429D01*
X170124286Y-103521190D01*
X170076667Y-103473571D01*
X169981429Y-103425952D01*
X167695714Y-118602381D02*
X167695714Y-117602381D01*
X167933809Y-117602381D01*
X168076667Y-117650000D01*
X168171905Y-117745238D01*
X168219524Y-117840476D01*
X168267143Y-118030952D01*
X168267143Y-118173810D01*
X168219524Y-118364286D01*
X168171905Y-118459524D01*
X168076667Y-118554762D01*
X167933809Y-118602381D01*
X167695714Y-118602381D01*
X169219524Y-118602381D02*
X168648095Y-118602381D01*
X168933809Y-118602381D02*
X168933809Y-117602381D01*
X168838571Y-117745238D01*
X168743333Y-117840476D01*
X168648095Y-117888095D01*
X169695714Y-118602381D02*
X169886190Y-118602381D01*
X169981429Y-118554762D01*
X170029048Y-118507143D01*
X170124286Y-118364286D01*
X170171905Y-118173810D01*
X170171905Y-117792857D01*
X170124286Y-117697619D01*
X170076667Y-117650000D01*
X169981429Y-117602381D01*
X169790952Y-117602381D01*
X169695714Y-117650000D01*
X169648095Y-117697619D01*
X169600476Y-117792857D01*
X169600476Y-118030952D01*
X169648095Y-118126190D01*
X169695714Y-118173810D01*
X169790952Y-118221429D01*
X169981429Y-118221429D01*
X170076667Y-118173810D01*
X170124286Y-118126190D01*
X170171905Y-118030952D01*
X166552714Y-133207381D02*
X166552714Y-132207381D01*
X166790809Y-132207381D01*
X166933667Y-132255000D01*
X167028905Y-132350238D01*
X167076524Y-132445476D01*
X167124143Y-132635952D01*
X167124143Y-132778810D01*
X167076524Y-132969286D01*
X167028905Y-133064524D01*
X166933667Y-133159762D01*
X166790809Y-133207381D01*
X166552714Y-133207381D01*
X167505095Y-132302619D02*
X167552714Y-132255000D01*
X167647952Y-132207381D01*
X167886048Y-132207381D01*
X167981286Y-132255000D01*
X168028905Y-132302619D01*
X168076524Y-132397857D01*
X168076524Y-132493095D01*
X168028905Y-132635952D01*
X167457476Y-133207381D01*
X168076524Y-133207381D01*
X168695571Y-132207381D02*
X168790810Y-132207381D01*
X168886048Y-132255000D01*
X168933667Y-132302619D01*
X168981286Y-132397857D01*
X169028905Y-132588333D01*
X169028905Y-132826429D01*
X168981286Y-133016905D01*
X168933667Y-133112143D01*
X168886048Y-133159762D01*
X168790810Y-133207381D01*
X168695571Y-133207381D01*
X168600333Y-133159762D01*
X168552714Y-133112143D01*
X168505095Y-133016905D01*
X168457476Y-132826429D01*
X168457476Y-132588333D01*
X168505095Y-132397857D01*
X168552714Y-132302619D01*
X168600333Y-132255000D01*
X168695571Y-132207381D01*
X175053881Y-96337286D02*
X174053881Y-96337286D01*
X174053881Y-96099191D01*
X174101500Y-95956333D01*
X174196738Y-95861095D01*
X174291976Y-95813476D01*
X174482452Y-95765857D01*
X174625310Y-95765857D01*
X174815786Y-95813476D01*
X174911024Y-95861095D01*
X175006262Y-95956333D01*
X175053881Y-96099191D01*
X175053881Y-96337286D01*
X174149119Y-95384905D02*
X174101500Y-95337286D01*
X174053881Y-95242048D01*
X174053881Y-95003952D01*
X174101500Y-94908714D01*
X174149119Y-94861095D01*
X174244357Y-94813476D01*
X174339595Y-94813476D01*
X174482452Y-94861095D01*
X175053881Y-95432524D01*
X175053881Y-94813476D01*
X175053881Y-93861095D02*
X175053881Y-94432524D01*
X175053881Y-94146810D02*
X174053881Y-94146810D01*
X174196738Y-94242048D01*
X174291976Y-94337286D01*
X174339595Y-94432524D01*
X188892381Y-129992286D02*
X187892381Y-129992286D01*
X187892381Y-129754191D01*
X187940000Y-129611333D01*
X188035238Y-129516095D01*
X188130476Y-129468476D01*
X188320952Y-129420857D01*
X188463810Y-129420857D01*
X188654286Y-129468476D01*
X188749524Y-129516095D01*
X188844762Y-129611333D01*
X188892381Y-129754191D01*
X188892381Y-129992286D01*
X188892381Y-128468476D02*
X188892381Y-129039905D01*
X188892381Y-128754191D02*
X187892381Y-128754191D01*
X188035238Y-128849429D01*
X188130476Y-128944667D01*
X188178095Y-129039905D01*
X187892381Y-128135143D02*
X187892381Y-127516095D01*
X188273333Y-127849429D01*
X188273333Y-127706571D01*
X188320952Y-127611333D01*
X188368571Y-127563714D01*
X188463810Y-127516095D01*
X188701905Y-127516095D01*
X188797143Y-127563714D01*
X188844762Y-127611333D01*
X188892381Y-127706571D01*
X188892381Y-127992286D01*
X188844762Y-128087524D01*
X188797143Y-128135143D01*
X187142381Y-118054286D02*
X186142381Y-118054286D01*
X186142381Y-117816191D01*
X186190000Y-117673333D01*
X186285238Y-117578095D01*
X186380476Y-117530476D01*
X186570952Y-117482857D01*
X186713810Y-117482857D01*
X186904286Y-117530476D01*
X186999524Y-117578095D01*
X187094762Y-117673333D01*
X187142381Y-117816191D01*
X187142381Y-118054286D01*
X187142381Y-116530476D02*
X187142381Y-117101905D01*
X187142381Y-116816191D02*
X186142381Y-116816191D01*
X186285238Y-116911429D01*
X186380476Y-117006667D01*
X186428095Y-117101905D01*
X186475714Y-115673333D02*
X187142381Y-115673333D01*
X186094762Y-115911429D02*
X186809048Y-116149524D01*
X186809048Y-115530476D01*
X181276667Y-111422381D02*
X181276667Y-112136667D01*
X181229047Y-112279524D01*
X181133809Y-112374762D01*
X180990952Y-112422381D01*
X180895714Y-112422381D01*
X182181429Y-111422381D02*
X181990952Y-111422381D01*
X181895714Y-111470000D01*
X181848095Y-111517619D01*
X181752857Y-111660476D01*
X181705238Y-111850952D01*
X181705238Y-112231905D01*
X181752857Y-112327143D01*
X181800476Y-112374762D01*
X181895714Y-112422381D01*
X182086191Y-112422381D01*
X182181429Y-112374762D01*
X182229048Y-112327143D01*
X182276667Y-112231905D01*
X182276667Y-111993810D01*
X182229048Y-111898571D01*
X182181429Y-111850952D01*
X182086191Y-111803333D01*
X181895714Y-111803333D01*
X181800476Y-111850952D01*
X181752857Y-111898571D01*
X181705238Y-111993810D01*
X161917143Y-83542143D02*
X161869524Y-83589762D01*
X161726667Y-83637381D01*
X161631429Y-83637381D01*
X161488571Y-83589762D01*
X161393333Y-83494524D01*
X161345714Y-83399286D01*
X161298095Y-83208810D01*
X161298095Y-83065952D01*
X161345714Y-82875476D01*
X161393333Y-82780238D01*
X161488571Y-82685000D01*
X161631429Y-82637381D01*
X161726667Y-82637381D01*
X161869524Y-82685000D01*
X161917143Y-82732619D01*
X162250476Y-82637381D02*
X162869524Y-82637381D01*
X162536190Y-83018333D01*
X162679048Y-83018333D01*
X162774286Y-83065952D01*
X162821905Y-83113571D01*
X162869524Y-83208810D01*
X162869524Y-83446905D01*
X162821905Y-83542143D01*
X162774286Y-83589762D01*
X162679048Y-83637381D01*
X162393333Y-83637381D01*
X162298095Y-83589762D01*
X162250476Y-83542143D01*
X163774286Y-82637381D02*
X163298095Y-82637381D01*
X163250476Y-83113571D01*
X163298095Y-83065952D01*
X163393333Y-83018333D01*
X163631429Y-83018333D01*
X163726667Y-83065952D01*
X163774286Y-83113571D01*
X163821905Y-83208810D01*
X163821905Y-83446905D01*
X163774286Y-83542143D01*
X163726667Y-83589762D01*
X163631429Y-83637381D01*
X163393333Y-83637381D01*
X163298095Y-83589762D01*
X163250476Y-83542143D01*
X161282143Y-112752143D02*
X161234524Y-112799762D01*
X161091667Y-112847381D01*
X160996429Y-112847381D01*
X160853571Y-112799762D01*
X160758333Y-112704524D01*
X160710714Y-112609286D01*
X160663095Y-112418810D01*
X160663095Y-112275952D01*
X160710714Y-112085476D01*
X160758333Y-111990238D01*
X160853571Y-111895000D01*
X160996429Y-111847381D01*
X161091667Y-111847381D01*
X161234524Y-111895000D01*
X161282143Y-111942619D01*
X161615476Y-111847381D02*
X162234524Y-111847381D01*
X161901190Y-112228333D01*
X162044048Y-112228333D01*
X162139286Y-112275952D01*
X162186905Y-112323571D01*
X162234524Y-112418810D01*
X162234524Y-112656905D01*
X162186905Y-112752143D01*
X162139286Y-112799762D01*
X162044048Y-112847381D01*
X161758333Y-112847381D01*
X161663095Y-112799762D01*
X161615476Y-112752143D01*
X162567857Y-111847381D02*
X163234524Y-111847381D01*
X162805952Y-112847381D01*
X129841667Y-60539381D02*
X129841667Y-61253667D01*
X129794047Y-61396524D01*
X129698809Y-61491762D01*
X129555952Y-61539381D01*
X129460714Y-61539381D01*
X130841667Y-61539381D02*
X130270238Y-61539381D01*
X130555952Y-61539381D02*
X130555952Y-60539381D01*
X130460714Y-60682238D01*
X130365476Y-60777476D01*
X130270238Y-60825095D01*
X190365143Y-156281381D02*
X190031809Y-155805190D01*
X189793714Y-156281381D02*
X189793714Y-155281381D01*
X190174667Y-155281381D01*
X190269905Y-155329000D01*
X190317524Y-155376619D01*
X190365143Y-155471857D01*
X190365143Y-155614714D01*
X190317524Y-155709952D01*
X190269905Y-155757571D01*
X190174667Y-155805190D01*
X189793714Y-155805190D01*
X190746095Y-155376619D02*
X190793714Y-155329000D01*
X190888952Y-155281381D01*
X191127048Y-155281381D01*
X191222286Y-155329000D01*
X191269905Y-155376619D01*
X191317524Y-155471857D01*
X191317524Y-155567095D01*
X191269905Y-155709952D01*
X190698476Y-156281381D01*
X191317524Y-156281381D01*
X191793714Y-156281381D02*
X191984190Y-156281381D01*
X192079429Y-156233762D01*
X192127048Y-156186143D01*
X192222286Y-156043286D01*
X192269905Y-155852810D01*
X192269905Y-155471857D01*
X192222286Y-155376619D01*
X192174667Y-155329000D01*
X192079429Y-155281381D01*
X191888952Y-155281381D01*
X191793714Y-155329000D01*
X191746095Y-155376619D01*
X191698476Y-155471857D01*
X191698476Y-155709952D01*
X191746095Y-155805190D01*
X191793714Y-155852810D01*
X191888952Y-155900429D01*
X192079429Y-155900429D01*
X192174667Y-155852810D01*
X192222286Y-155805190D01*
X192269905Y-155709952D01*
X190619143Y-80407381D02*
X190285809Y-79931190D01*
X190047714Y-80407381D02*
X190047714Y-79407381D01*
X190428667Y-79407381D01*
X190523905Y-79455000D01*
X190571524Y-79502619D01*
X190619143Y-79597857D01*
X190619143Y-79740714D01*
X190571524Y-79835952D01*
X190523905Y-79883571D01*
X190428667Y-79931190D01*
X190047714Y-79931190D01*
X190952476Y-79407381D02*
X191571524Y-79407381D01*
X191238190Y-79788333D01*
X191381048Y-79788333D01*
X191476286Y-79835952D01*
X191523905Y-79883571D01*
X191571524Y-79978810D01*
X191571524Y-80216905D01*
X191523905Y-80312143D01*
X191476286Y-80359762D01*
X191381048Y-80407381D01*
X191095333Y-80407381D01*
X191000095Y-80359762D01*
X190952476Y-80312143D01*
X192190571Y-79407381D02*
X192285810Y-79407381D01*
X192381048Y-79455000D01*
X192428667Y-79502619D01*
X192476286Y-79597857D01*
X192523905Y-79788333D01*
X192523905Y-80026429D01*
X192476286Y-80216905D01*
X192428667Y-80312143D01*
X192381048Y-80359762D01*
X192285810Y-80407381D01*
X192190571Y-80407381D01*
X192095333Y-80359762D01*
X192047714Y-80312143D01*
X192000095Y-80216905D01*
X191952476Y-80026429D01*
X191952476Y-79788333D01*
X192000095Y-79597857D01*
X192047714Y-79502619D01*
X192095333Y-79455000D01*
X192190571Y-79407381D01*
X198239143Y-93797381D02*
X197905809Y-93321190D01*
X197667714Y-93797381D02*
X197667714Y-92797381D01*
X198048667Y-92797381D01*
X198143905Y-92845000D01*
X198191524Y-92892619D01*
X198239143Y-92987857D01*
X198239143Y-93130714D01*
X198191524Y-93225952D01*
X198143905Y-93273571D01*
X198048667Y-93321190D01*
X197667714Y-93321190D01*
X198572476Y-92797381D02*
X199191524Y-92797381D01*
X198858190Y-93178333D01*
X199001048Y-93178333D01*
X199096286Y-93225952D01*
X199143905Y-93273571D01*
X199191524Y-93368810D01*
X199191524Y-93606905D01*
X199143905Y-93702143D01*
X199096286Y-93749762D01*
X199001048Y-93797381D01*
X198715333Y-93797381D01*
X198620095Y-93749762D01*
X198572476Y-93702143D01*
X200143905Y-93797381D02*
X199572476Y-93797381D01*
X199858190Y-93797381D02*
X199858190Y-92797381D01*
X199762952Y-92940238D01*
X199667714Y-93035476D01*
X199572476Y-93083095D01*
X198239143Y-106497381D02*
X197905809Y-106021190D01*
X197667714Y-106497381D02*
X197667714Y-105497381D01*
X198048667Y-105497381D01*
X198143905Y-105545000D01*
X198191524Y-105592619D01*
X198239143Y-105687857D01*
X198239143Y-105830714D01*
X198191524Y-105925952D01*
X198143905Y-105973571D01*
X198048667Y-106021190D01*
X197667714Y-106021190D01*
X198572476Y-105497381D02*
X199191524Y-105497381D01*
X198858190Y-105878333D01*
X199001048Y-105878333D01*
X199096286Y-105925952D01*
X199143905Y-105973571D01*
X199191524Y-106068810D01*
X199191524Y-106306905D01*
X199143905Y-106402143D01*
X199096286Y-106449762D01*
X199001048Y-106497381D01*
X198715333Y-106497381D01*
X198620095Y-106449762D01*
X198572476Y-106402143D01*
X199572476Y-105592619D02*
X199620095Y-105545000D01*
X199715333Y-105497381D01*
X199953429Y-105497381D01*
X200048667Y-105545000D01*
X200096286Y-105592619D01*
X200143905Y-105687857D01*
X200143905Y-105783095D01*
X200096286Y-105925952D01*
X199524857Y-106497381D01*
X200143905Y-106497381D01*
X198366143Y-119070381D02*
X198032809Y-118594190D01*
X197794714Y-119070381D02*
X197794714Y-118070381D01*
X198175667Y-118070381D01*
X198270905Y-118118000D01*
X198318524Y-118165619D01*
X198366143Y-118260857D01*
X198366143Y-118403714D01*
X198318524Y-118498952D01*
X198270905Y-118546571D01*
X198175667Y-118594190D01*
X197794714Y-118594190D01*
X198699476Y-118070381D02*
X199318524Y-118070381D01*
X198985190Y-118451333D01*
X199128048Y-118451333D01*
X199223286Y-118498952D01*
X199270905Y-118546571D01*
X199318524Y-118641810D01*
X199318524Y-118879905D01*
X199270905Y-118975143D01*
X199223286Y-119022762D01*
X199128048Y-119070381D01*
X198842333Y-119070381D01*
X198747095Y-119022762D01*
X198699476Y-118975143D01*
X199651857Y-118070381D02*
X200270905Y-118070381D01*
X199937571Y-118451333D01*
X200080429Y-118451333D01*
X200175667Y-118498952D01*
X200223286Y-118546571D01*
X200270905Y-118641810D01*
X200270905Y-118879905D01*
X200223286Y-118975143D01*
X200175667Y-119022762D01*
X200080429Y-119070381D01*
X199794714Y-119070381D01*
X199699476Y-119022762D01*
X199651857Y-118975143D01*
X198628095Y-150282381D02*
X198628095Y-151091905D01*
X198675714Y-151187143D01*
X198723333Y-151234762D01*
X198818571Y-151282381D01*
X199009048Y-151282381D01*
X199104286Y-151234762D01*
X199151905Y-151187143D01*
X199199524Y-151091905D01*
X199199524Y-150282381D01*
X200199524Y-151282381D02*
X199628095Y-151282381D01*
X199913809Y-151282381D02*
X199913809Y-150282381D01*
X199818571Y-150425238D01*
X199723333Y-150520476D01*
X199628095Y-150568095D01*
X188317143Y-109227857D02*
X188364762Y-109275476D01*
X188412381Y-109418333D01*
X188412381Y-109513571D01*
X188364762Y-109656429D01*
X188269524Y-109751667D01*
X188174286Y-109799286D01*
X187983810Y-109846905D01*
X187840952Y-109846905D01*
X187650476Y-109799286D01*
X187555238Y-109751667D01*
X187460000Y-109656429D01*
X187412381Y-109513571D01*
X187412381Y-109418333D01*
X187460000Y-109275476D01*
X187507619Y-109227857D01*
X187745714Y-108370714D02*
X188412381Y-108370714D01*
X187364762Y-108608810D02*
X188079048Y-108846905D01*
X188079048Y-108227857D01*
X188412381Y-107323095D02*
X188412381Y-107894524D01*
X188412381Y-107608810D02*
X187412381Y-107608810D01*
X187555238Y-107704048D01*
X187650476Y-107799286D01*
X187698095Y-107894524D01*
D10*
X175441905Y-155959666D02*
X176013333Y-155959666D01*
X176127619Y-155997762D01*
X176203810Y-156073952D01*
X176241905Y-156188238D01*
X176241905Y-156264428D01*
X175441905Y-155654904D02*
X175441905Y-155159666D01*
X175746667Y-155426333D01*
X175746667Y-155312047D01*
X175784762Y-155235857D01*
X175822857Y-155197761D01*
X175899048Y-155159666D01*
X176089524Y-155159666D01*
X176165714Y-155197761D01*
X176203810Y-155235857D01*
X176241905Y-155312047D01*
X176241905Y-155540619D01*
X176203810Y-155616809D01*
X176165714Y-155654904D01*
D12*
X143978334Y-147772381D02*
X143502143Y-147772381D01*
X143502143Y-146772381D01*
X144264048Y-146867619D02*
X144311667Y-146820000D01*
X144406905Y-146772381D01*
X144645001Y-146772381D01*
X144740239Y-146820000D01*
X144787858Y-146867619D01*
X144835477Y-146962857D01*
X144835477Y-147058095D01*
X144787858Y-147200952D01*
X144216429Y-147772381D01*
X144835477Y-147772381D01*
X156678334Y-147772381D02*
X156202143Y-147772381D01*
X156202143Y-146772381D01*
X157535477Y-147772381D02*
X156964048Y-147772381D01*
X157249762Y-147772381D02*
X157249762Y-146772381D01*
X157154524Y-146915238D01*
X157059286Y-147010476D01*
X156964048Y-147058095D01*
X143978334Y-133167381D02*
X143502143Y-133167381D01*
X143502143Y-132167381D01*
X144454524Y-132595952D02*
X144359286Y-132548333D01*
X144311667Y-132500714D01*
X144264048Y-132405476D01*
X144264048Y-132357857D01*
X144311667Y-132262619D01*
X144359286Y-132215000D01*
X144454524Y-132167381D01*
X144645001Y-132167381D01*
X144740239Y-132215000D01*
X144787858Y-132262619D01*
X144835477Y-132357857D01*
X144835477Y-132405476D01*
X144787858Y-132500714D01*
X144740239Y-132548333D01*
X144645001Y-132595952D01*
X144454524Y-132595952D01*
X144359286Y-132643571D01*
X144311667Y-132691190D01*
X144264048Y-132786429D01*
X144264048Y-132976905D01*
X144311667Y-133072143D01*
X144359286Y-133119762D01*
X144454524Y-133167381D01*
X144645001Y-133167381D01*
X144740239Y-133119762D01*
X144787858Y-133072143D01*
X144835477Y-132976905D01*
X144835477Y-132786429D01*
X144787858Y-132691190D01*
X144740239Y-132643571D01*
X144645001Y-132595952D01*
X156837143Y-133167381D02*
X156360952Y-133167381D01*
X156360952Y-132167381D01*
X157694286Y-133167381D02*
X157122857Y-133167381D01*
X157408571Y-133167381D02*
X157408571Y-132167381D01*
X157313333Y-132310238D01*
X157218095Y-132405476D01*
X157122857Y-132453095D01*
X158170476Y-133167381D02*
X158360952Y-133167381D01*
X158456191Y-133119762D01*
X158503810Y-133072143D01*
X158599048Y-132929286D01*
X158646667Y-132738810D01*
X158646667Y-132357857D01*
X158599048Y-132262619D01*
X158551429Y-132215000D01*
X158456191Y-132167381D01*
X158265714Y-132167381D01*
X158170476Y-132215000D01*
X158122857Y-132262619D01*
X158075238Y-132357857D01*
X158075238Y-132595952D01*
X158122857Y-132691190D01*
X158170476Y-132738810D01*
X158265714Y-132786429D01*
X158456191Y-132786429D01*
X158551429Y-132738810D01*
X158599048Y-132691190D01*
X158646667Y-132595952D01*
X143978334Y-118562381D02*
X143502143Y-118562381D01*
X143502143Y-117562381D01*
X144216429Y-117562381D02*
X144883096Y-117562381D01*
X144454524Y-118562381D01*
X156837143Y-118562381D02*
X156360952Y-118562381D01*
X156360952Y-117562381D01*
X157694286Y-118562381D02*
X157122857Y-118562381D01*
X157408571Y-118562381D02*
X157408571Y-117562381D01*
X157313333Y-117705238D01*
X157218095Y-117800476D01*
X157122857Y-117848095D01*
X158265714Y-117990952D02*
X158170476Y-117943333D01*
X158122857Y-117895714D01*
X158075238Y-117800476D01*
X158075238Y-117752857D01*
X158122857Y-117657619D01*
X158170476Y-117610000D01*
X158265714Y-117562381D01*
X158456191Y-117562381D01*
X158551429Y-117610000D01*
X158599048Y-117657619D01*
X158646667Y-117752857D01*
X158646667Y-117800476D01*
X158599048Y-117895714D01*
X158551429Y-117943333D01*
X158456191Y-117990952D01*
X158265714Y-117990952D01*
X158170476Y-118038571D01*
X158122857Y-118086190D01*
X158075238Y-118181429D01*
X158075238Y-118371905D01*
X158122857Y-118467143D01*
X158170476Y-118514762D01*
X158265714Y-118562381D01*
X158456191Y-118562381D01*
X158551429Y-118514762D01*
X158599048Y-118467143D01*
X158646667Y-118371905D01*
X158646667Y-118181429D01*
X158599048Y-118086190D01*
X158551429Y-118038571D01*
X158456191Y-117990952D01*
X143978334Y-103957381D02*
X143502143Y-103957381D01*
X143502143Y-102957381D01*
X144740239Y-102957381D02*
X144549762Y-102957381D01*
X144454524Y-103005000D01*
X144406905Y-103052619D01*
X144311667Y-103195476D01*
X144264048Y-103385952D01*
X144264048Y-103766905D01*
X144311667Y-103862143D01*
X144359286Y-103909762D01*
X144454524Y-103957381D01*
X144645001Y-103957381D01*
X144740239Y-103909762D01*
X144787858Y-103862143D01*
X144835477Y-103766905D01*
X144835477Y-103528810D01*
X144787858Y-103433571D01*
X144740239Y-103385952D01*
X144645001Y-103338333D01*
X144454524Y-103338333D01*
X144359286Y-103385952D01*
X144311667Y-103433571D01*
X144264048Y-103528810D01*
X156837143Y-103957381D02*
X156360952Y-103957381D01*
X156360952Y-102957381D01*
X157694286Y-103957381D02*
X157122857Y-103957381D01*
X157408571Y-103957381D02*
X157408571Y-102957381D01*
X157313333Y-103100238D01*
X157218095Y-103195476D01*
X157122857Y-103243095D01*
X158027619Y-102957381D02*
X158694286Y-102957381D01*
X158265714Y-103957381D01*
X143978334Y-89352381D02*
X143502143Y-89352381D01*
X143502143Y-88352381D01*
X144787858Y-88352381D02*
X144311667Y-88352381D01*
X144264048Y-88828571D01*
X144311667Y-88780952D01*
X144406905Y-88733333D01*
X144645001Y-88733333D01*
X144740239Y-88780952D01*
X144787858Y-88828571D01*
X144835477Y-88923810D01*
X144835477Y-89161905D01*
X144787858Y-89257143D01*
X144740239Y-89304762D01*
X144645001Y-89352381D01*
X144406905Y-89352381D01*
X144311667Y-89304762D01*
X144264048Y-89257143D01*
X156837143Y-89352381D02*
X156360952Y-89352381D01*
X156360952Y-88352381D01*
X157694286Y-89352381D02*
X157122857Y-89352381D01*
X157408571Y-89352381D02*
X157408571Y-88352381D01*
X157313333Y-88495238D01*
X157218095Y-88590476D01*
X157122857Y-88638095D01*
X158551429Y-88352381D02*
X158360952Y-88352381D01*
X158265714Y-88400000D01*
X158218095Y-88447619D01*
X158122857Y-88590476D01*
X158075238Y-88780952D01*
X158075238Y-89161905D01*
X158122857Y-89257143D01*
X158170476Y-89304762D01*
X158265714Y-89352381D01*
X158456191Y-89352381D01*
X158551429Y-89304762D01*
X158599048Y-89257143D01*
X158646667Y-89161905D01*
X158646667Y-88923810D01*
X158599048Y-88828571D01*
X158551429Y-88780952D01*
X158456191Y-88733333D01*
X158265714Y-88733333D01*
X158170476Y-88780952D01*
X158122857Y-88828571D01*
X158075238Y-88923810D01*
X143978334Y-74747381D02*
X143502143Y-74747381D01*
X143502143Y-73747381D01*
X144740239Y-74080714D02*
X144740239Y-74747381D01*
X144502143Y-73699762D02*
X144264048Y-74414048D01*
X144883096Y-74414048D01*
X156837143Y-74747381D02*
X156360952Y-74747381D01*
X156360952Y-73747381D01*
X157694286Y-74747381D02*
X157122857Y-74747381D01*
X157408571Y-74747381D02*
X157408571Y-73747381D01*
X157313333Y-73890238D01*
X157218095Y-73985476D01*
X157122857Y-74033095D01*
X158599048Y-73747381D02*
X158122857Y-73747381D01*
X158075238Y-74223571D01*
X158122857Y-74175952D01*
X158218095Y-74128333D01*
X158456191Y-74128333D01*
X158551429Y-74175952D01*
X158599048Y-74223571D01*
X158646667Y-74318810D01*
X158646667Y-74556905D01*
X158599048Y-74652143D01*
X158551429Y-74699762D01*
X158456191Y-74747381D01*
X158218095Y-74747381D01*
X158122857Y-74699762D01*
X158075238Y-74652143D01*
X197477143Y-65857381D02*
X197000952Y-65857381D01*
X197000952Y-64857381D01*
X197762857Y-64952619D02*
X197810476Y-64905000D01*
X197905714Y-64857381D01*
X198143810Y-64857381D01*
X198239048Y-64905000D01*
X198286667Y-64952619D01*
X198334286Y-65047857D01*
X198334286Y-65143095D01*
X198286667Y-65285952D01*
X197715238Y-65857381D01*
X198334286Y-65857381D01*
X199239048Y-64857381D02*
X198762857Y-64857381D01*
X198715238Y-65333571D01*
X198762857Y-65285952D01*
X198858095Y-65238333D01*
X199096191Y-65238333D01*
X199191429Y-65285952D01*
X199239048Y-65333571D01*
X199286667Y-65428810D01*
X199286667Y-65666905D01*
X199239048Y-65762143D01*
X199191429Y-65809762D01*
X199096191Y-65857381D01*
X198858095Y-65857381D01*
X198762857Y-65809762D01*
X198715238Y-65762143D01*
X207002143Y-84272381D02*
X206525952Y-84272381D01*
X206525952Y-83272381D01*
X207287857Y-83367619D02*
X207335476Y-83320000D01*
X207430714Y-83272381D01*
X207668810Y-83272381D01*
X207764048Y-83320000D01*
X207811667Y-83367619D01*
X207859286Y-83462857D01*
X207859286Y-83558095D01*
X207811667Y-83700952D01*
X207240238Y-84272381D01*
X207859286Y-84272381D01*
X208716429Y-83272381D02*
X208525952Y-83272381D01*
X208430714Y-83320000D01*
X208383095Y-83367619D01*
X208287857Y-83510476D01*
X208240238Y-83700952D01*
X208240238Y-84081905D01*
X208287857Y-84177143D01*
X208335476Y-84224762D01*
X208430714Y-84272381D01*
X208621191Y-84272381D01*
X208716429Y-84224762D01*
X208764048Y-84177143D01*
X208811667Y-84081905D01*
X208811667Y-83843810D01*
X208764048Y-83748571D01*
X208716429Y-83700952D01*
X208621191Y-83653333D01*
X208430714Y-83653333D01*
X208335476Y-83700952D01*
X208287857Y-83748571D01*
X208240238Y-83843810D01*
X208097381Y-83192857D02*
X208097381Y-83669048D01*
X207097381Y-83669048D01*
X207097381Y-82954762D02*
X207097381Y-82335714D01*
X207478333Y-82669048D01*
X207478333Y-82526190D01*
X207525952Y-82430952D01*
X207573571Y-82383333D01*
X207668810Y-82335714D01*
X207906905Y-82335714D01*
X208002143Y-82383333D01*
X208049762Y-82430952D01*
X208097381Y-82526190D01*
X208097381Y-82811905D01*
X208049762Y-82907143D01*
X208002143Y-82954762D01*
X208097381Y-81383333D02*
X208097381Y-81954762D01*
X208097381Y-81669048D02*
X207097381Y-81669048D01*
X207240238Y-81764286D01*
X207335476Y-81859524D01*
X207383095Y-81954762D01*
X207002143Y-96972381D02*
X206525952Y-96972381D01*
X206525952Y-95972381D01*
X207287857Y-96067619D02*
X207335476Y-96020000D01*
X207430714Y-95972381D01*
X207668810Y-95972381D01*
X207764048Y-96020000D01*
X207811667Y-96067619D01*
X207859286Y-96162857D01*
X207859286Y-96258095D01*
X207811667Y-96400952D01*
X207240238Y-96972381D01*
X207859286Y-96972381D01*
X208192619Y-95972381D02*
X208859286Y-95972381D01*
X208430714Y-96972381D01*
X208097381Y-95892857D02*
X208097381Y-96369048D01*
X207097381Y-96369048D01*
X207097381Y-95654762D02*
X207097381Y-95035714D01*
X207478333Y-95369048D01*
X207478333Y-95226190D01*
X207525952Y-95130952D01*
X207573571Y-95083333D01*
X207668810Y-95035714D01*
X207906905Y-95035714D01*
X208002143Y-95083333D01*
X208049762Y-95130952D01*
X208097381Y-95226190D01*
X208097381Y-95511905D01*
X208049762Y-95607143D01*
X208002143Y-95654762D01*
X207192619Y-94654762D02*
X207145000Y-94607143D01*
X207097381Y-94511905D01*
X207097381Y-94273809D01*
X207145000Y-94178571D01*
X207192619Y-94130952D01*
X207287857Y-94083333D01*
X207383095Y-94083333D01*
X207525952Y-94130952D01*
X208097381Y-94702381D01*
X208097381Y-94083333D01*
X208097381Y-108592857D02*
X208097381Y-109069048D01*
X207097381Y-109069048D01*
X207097381Y-108354762D02*
X207097381Y-107735714D01*
X207478333Y-108069048D01*
X207478333Y-107926190D01*
X207525952Y-107830952D01*
X207573571Y-107783333D01*
X207668810Y-107735714D01*
X207906905Y-107735714D01*
X208002143Y-107783333D01*
X208049762Y-107830952D01*
X208097381Y-107926190D01*
X208097381Y-108211905D01*
X208049762Y-108307143D01*
X208002143Y-108354762D01*
X207097381Y-107402381D02*
X207097381Y-106783333D01*
X207478333Y-107116667D01*
X207478333Y-106973809D01*
X207525952Y-106878571D01*
X207573571Y-106830952D01*
X207668810Y-106783333D01*
X207906905Y-106783333D01*
X208002143Y-106830952D01*
X208049762Y-106878571D01*
X208097381Y-106973809D01*
X208097381Y-107259524D01*
X208049762Y-107354762D01*
X208002143Y-107402381D01*
X207002143Y-109672381D02*
X206525952Y-109672381D01*
X206525952Y-108672381D01*
X207287857Y-108767619D02*
X207335476Y-108720000D01*
X207430714Y-108672381D01*
X207668810Y-108672381D01*
X207764048Y-108720000D01*
X207811667Y-108767619D01*
X207859286Y-108862857D01*
X207859286Y-108958095D01*
X207811667Y-109100952D01*
X207240238Y-109672381D01*
X207859286Y-109672381D01*
X208430714Y-109100952D02*
X208335476Y-109053333D01*
X208287857Y-109005714D01*
X208240238Y-108910476D01*
X208240238Y-108862857D01*
X208287857Y-108767619D01*
X208335476Y-108720000D01*
X208430714Y-108672381D01*
X208621191Y-108672381D01*
X208716429Y-108720000D01*
X208764048Y-108767619D01*
X208811667Y-108862857D01*
X208811667Y-108910476D01*
X208764048Y-109005714D01*
X208716429Y-109053333D01*
X208621191Y-109100952D01*
X208430714Y-109100952D01*
X208335476Y-109148571D01*
X208287857Y-109196190D01*
X208240238Y-109291429D01*
X208240238Y-109481905D01*
X208287857Y-109577143D01*
X208335476Y-109624762D01*
X208430714Y-109672381D01*
X208621191Y-109672381D01*
X208716429Y-109624762D01*
X208764048Y-109577143D01*
X208811667Y-109481905D01*
X208811667Y-109291429D01*
X208764048Y-109196190D01*
X208716429Y-109148571D01*
X208621191Y-109100952D01*
X207002143Y-122372381D02*
X206525952Y-122372381D01*
X206525952Y-121372381D01*
X207287857Y-121467619D02*
X207335476Y-121420000D01*
X207430714Y-121372381D01*
X207668810Y-121372381D01*
X207764048Y-121420000D01*
X207811667Y-121467619D01*
X207859286Y-121562857D01*
X207859286Y-121658095D01*
X207811667Y-121800952D01*
X207240238Y-122372381D01*
X207859286Y-122372381D01*
X208335476Y-122372381D02*
X208525952Y-122372381D01*
X208621191Y-122324762D01*
X208668810Y-122277143D01*
X208764048Y-122134286D01*
X208811667Y-121943810D01*
X208811667Y-121562857D01*
X208764048Y-121467619D01*
X208716429Y-121420000D01*
X208621191Y-121372381D01*
X208430714Y-121372381D01*
X208335476Y-121420000D01*
X208287857Y-121467619D01*
X208240238Y-121562857D01*
X208240238Y-121800952D01*
X208287857Y-121896190D01*
X208335476Y-121943810D01*
X208430714Y-121991429D01*
X208621191Y-121991429D01*
X208716429Y-121943810D01*
X208764048Y-121896190D01*
X208811667Y-121800952D01*
X208097381Y-121292857D02*
X208097381Y-121769048D01*
X207097381Y-121769048D01*
X207097381Y-121054762D02*
X207097381Y-120435714D01*
X207478333Y-120769048D01*
X207478333Y-120626190D01*
X207525952Y-120530952D01*
X207573571Y-120483333D01*
X207668810Y-120435714D01*
X207906905Y-120435714D01*
X208002143Y-120483333D01*
X208049762Y-120530952D01*
X208097381Y-120626190D01*
X208097381Y-120911905D01*
X208049762Y-121007143D01*
X208002143Y-121054762D01*
X207430714Y-119578571D02*
X208097381Y-119578571D01*
X207049762Y-119816667D02*
X207764048Y-120054762D01*
X207764048Y-119435714D01*
X213352143Y-68397381D02*
X212875952Y-68397381D01*
X212875952Y-67397381D01*
X213590238Y-67397381D02*
X214209286Y-67397381D01*
X213875952Y-67778333D01*
X214018810Y-67778333D01*
X214114048Y-67825952D01*
X214161667Y-67873571D01*
X214209286Y-67968810D01*
X214209286Y-68206905D01*
X214161667Y-68302143D01*
X214114048Y-68349762D01*
X214018810Y-68397381D01*
X213733095Y-68397381D01*
X213637857Y-68349762D01*
X213590238Y-68302143D01*
X214828333Y-67397381D02*
X214923572Y-67397381D01*
X215018810Y-67445000D01*
X215066429Y-67492619D01*
X215114048Y-67587857D01*
X215161667Y-67778333D01*
X215161667Y-68016429D01*
X215114048Y-68206905D01*
X215066429Y-68302143D01*
X215018810Y-68349762D01*
X214923572Y-68397381D01*
X214828333Y-68397381D01*
X214733095Y-68349762D01*
X214685476Y-68302143D01*
X214637857Y-68206905D01*
X214590238Y-68016429D01*
X214590238Y-67778333D01*
X214637857Y-67587857D01*
X214685476Y-67492619D01*
X214733095Y-67445000D01*
X214828333Y-67397381D01*
X128722381Y-138596666D02*
X128722381Y-139072857D01*
X127722381Y-139072857D01*
X127722381Y-138358571D02*
X127722381Y-137739523D01*
X128103333Y-138072857D01*
X128103333Y-137929999D01*
X128150952Y-137834761D01*
X128198571Y-137787142D01*
X128293810Y-137739523D01*
X128531905Y-137739523D01*
X128627143Y-137787142D01*
X128674762Y-137834761D01*
X128722381Y-137929999D01*
X128722381Y-138215714D01*
X128674762Y-138310952D01*
X128627143Y-138358571D01*
X151577381Y-66841666D02*
X151577381Y-67317857D01*
X150577381Y-67317857D01*
X151577381Y-66460714D02*
X151577381Y-66270238D01*
X151529762Y-66174999D01*
X151482143Y-66127380D01*
X151339286Y-66032142D01*
X151148810Y-65984523D01*
X150767857Y-65984523D01*
X150672619Y-66032142D01*
X150625000Y-66079761D01*
X150577381Y-66174999D01*
X150577381Y-66365476D01*
X150625000Y-66460714D01*
X150672619Y-66508333D01*
X150767857Y-66555952D01*
X151005952Y-66555952D01*
X151101190Y-66508333D01*
X151148810Y-66460714D01*
X151196429Y-66365476D01*
X151196429Y-66174999D01*
X151148810Y-66079761D01*
X151101190Y-66032142D01*
X151005952Y-65984523D01*
X148582143Y-97866381D02*
X148105952Y-97866381D01*
X148105952Y-96866381D01*
X149439286Y-97866381D02*
X148867857Y-97866381D01*
X149153571Y-97866381D02*
X149153571Y-96866381D01*
X149058333Y-97009238D01*
X148963095Y-97104476D01*
X148867857Y-97152095D01*
X150391667Y-97866381D02*
X149820238Y-97866381D01*
X150105952Y-97866381D02*
X150105952Y-96866381D01*
X150010714Y-97009238D01*
X149915476Y-97104476D01*
X149820238Y-97152095D01*
X148582143Y-112471381D02*
X148105952Y-112471381D01*
X148105952Y-111471381D01*
X149439286Y-112471381D02*
X148867857Y-112471381D01*
X149153571Y-112471381D02*
X149153571Y-111471381D01*
X149058333Y-111614238D01*
X148963095Y-111709476D01*
X148867857Y-111757095D01*
X149820238Y-111566619D02*
X149867857Y-111519000D01*
X149963095Y-111471381D01*
X150201191Y-111471381D01*
X150296429Y-111519000D01*
X150344048Y-111566619D01*
X150391667Y-111661857D01*
X150391667Y-111757095D01*
X150344048Y-111899952D01*
X149772619Y-112471381D01*
X150391667Y-112471381D01*
X148582143Y-127076381D02*
X148105952Y-127076381D01*
X148105952Y-126076381D01*
X149439286Y-127076381D02*
X148867857Y-127076381D01*
X149153571Y-127076381D02*
X149153571Y-126076381D01*
X149058333Y-126219238D01*
X148963095Y-126314476D01*
X148867857Y-126362095D01*
X149772619Y-126076381D02*
X150391667Y-126076381D01*
X150058333Y-126457333D01*
X150201191Y-126457333D01*
X150296429Y-126504952D01*
X150344048Y-126552571D01*
X150391667Y-126647810D01*
X150391667Y-126885905D01*
X150344048Y-126981143D01*
X150296429Y-127028762D01*
X150201191Y-127076381D01*
X149915476Y-127076381D01*
X149820238Y-127028762D01*
X149772619Y-126981143D01*
X148582143Y-141681381D02*
X148105952Y-141681381D01*
X148105952Y-140681381D01*
X149439286Y-141681381D02*
X148867857Y-141681381D01*
X149153571Y-141681381D02*
X149153571Y-140681381D01*
X149058333Y-140824238D01*
X148963095Y-140919476D01*
X148867857Y-140967095D01*
X150296429Y-141014714D02*
X150296429Y-141681381D01*
X150058333Y-140633762D02*
X149820238Y-141348048D01*
X150439286Y-141348048D01*
X172966143Y-138633381D02*
X172489952Y-138633381D01*
X172489952Y-137633381D01*
X173251857Y-137728619D02*
X173299476Y-137681000D01*
X173394714Y-137633381D01*
X173632810Y-137633381D01*
X173728048Y-137681000D01*
X173775667Y-137728619D01*
X173823286Y-137823857D01*
X173823286Y-137919095D01*
X173775667Y-138061952D01*
X173204238Y-138633381D01*
X173823286Y-138633381D01*
X174442333Y-137633381D02*
X174537572Y-137633381D01*
X174632810Y-137681000D01*
X174680429Y-137728619D01*
X174728048Y-137823857D01*
X174775667Y-138014333D01*
X174775667Y-138252429D01*
X174728048Y-138442905D01*
X174680429Y-138538143D01*
X174632810Y-138585762D01*
X174537572Y-138633381D01*
X174442333Y-138633381D01*
X174347095Y-138585762D01*
X174299476Y-138538143D01*
X174251857Y-138442905D01*
X174204238Y-138252429D01*
X174204238Y-138014333D01*
X174251857Y-137823857D01*
X174299476Y-137728619D01*
X174347095Y-137681000D01*
X174442333Y-137633381D01*
X180797381Y-87002857D02*
X180797381Y-87479048D01*
X179797381Y-87479048D01*
X179892619Y-86717143D02*
X179845000Y-86669524D01*
X179797381Y-86574286D01*
X179797381Y-86336190D01*
X179845000Y-86240952D01*
X179892619Y-86193333D01*
X179987857Y-86145714D01*
X180083095Y-86145714D01*
X180225952Y-86193333D01*
X180797381Y-86764762D01*
X180797381Y-86145714D01*
X179892619Y-85764762D02*
X179845000Y-85717143D01*
X179797381Y-85621905D01*
X179797381Y-85383809D01*
X179845000Y-85288571D01*
X179892619Y-85240952D01*
X179987857Y-85193333D01*
X180083095Y-85193333D01*
X180225952Y-85240952D01*
X180797381Y-85812381D01*
X180797381Y-85193333D01*
X179697143Y-68397381D02*
X179220952Y-68397381D01*
X179220952Y-67397381D01*
X179982857Y-67492619D02*
X180030476Y-67445000D01*
X180125714Y-67397381D01*
X180363810Y-67397381D01*
X180459048Y-67445000D01*
X180506667Y-67492619D01*
X180554286Y-67587857D01*
X180554286Y-67683095D01*
X180506667Y-67825952D01*
X179935238Y-68397381D01*
X180554286Y-68397381D01*
X180887619Y-67397381D02*
X181506667Y-67397381D01*
X181173333Y-67778333D01*
X181316191Y-67778333D01*
X181411429Y-67825952D01*
X181459048Y-67873571D01*
X181506667Y-67968810D01*
X181506667Y-68206905D01*
X181459048Y-68302143D01*
X181411429Y-68349762D01*
X181316191Y-68397381D01*
X181030476Y-68397381D01*
X180935238Y-68349762D01*
X180887619Y-68302143D01*
X184352143Y-108592857D02*
X184399762Y-108640476D01*
X184447381Y-108783333D01*
X184447381Y-108878571D01*
X184399762Y-109021429D01*
X184304524Y-109116667D01*
X184209286Y-109164286D01*
X184018810Y-109211905D01*
X183875952Y-109211905D01*
X183685476Y-109164286D01*
X183590238Y-109116667D01*
X183495000Y-109021429D01*
X183447381Y-108878571D01*
X183447381Y-108783333D01*
X183495000Y-108640476D01*
X183542619Y-108592857D01*
X183780714Y-107735714D02*
X184447381Y-107735714D01*
X183399762Y-107973810D02*
X184114048Y-108211905D01*
X184114048Y-107592857D01*
X183780714Y-106783333D02*
X184447381Y-106783333D01*
X183399762Y-107021429D02*
X184114048Y-107259524D01*
X184114048Y-106640476D01*
X175252143Y-128087381D02*
X174918809Y-127611190D01*
X174680714Y-128087381D02*
X174680714Y-127087381D01*
X175061667Y-127087381D01*
X175156905Y-127135000D01*
X175204524Y-127182619D01*
X175252143Y-127277857D01*
X175252143Y-127420714D01*
X175204524Y-127515952D01*
X175156905Y-127563571D01*
X175061667Y-127611190D01*
X174680714Y-127611190D01*
X175633095Y-127182619D02*
X175680714Y-127135000D01*
X175775952Y-127087381D01*
X176014048Y-127087381D01*
X176109286Y-127135000D01*
X176156905Y-127182619D01*
X176204524Y-127277857D01*
X176204524Y-127373095D01*
X176156905Y-127515952D01*
X175585476Y-128087381D01*
X176204524Y-128087381D01*
X176585476Y-127182619D02*
X176633095Y-127135000D01*
X176728333Y-127087381D01*
X176966429Y-127087381D01*
X177061667Y-127135000D01*
X177109286Y-127182619D01*
X177156905Y-127277857D01*
X177156905Y-127373095D01*
X177109286Y-127515952D01*
X176537857Y-128087381D01*
X177156905Y-128087381D01*
X198239143Y-130246381D02*
X197905809Y-129770190D01*
X197667714Y-130246381D02*
X197667714Y-129246381D01*
X198048667Y-129246381D01*
X198143905Y-129294000D01*
X198191524Y-129341619D01*
X198239143Y-129436857D01*
X198239143Y-129579714D01*
X198191524Y-129674952D01*
X198143905Y-129722571D01*
X198048667Y-129770190D01*
X197667714Y-129770190D01*
X198572476Y-129246381D02*
X199191524Y-129246381D01*
X198858190Y-129627333D01*
X199001048Y-129627333D01*
X199096286Y-129674952D01*
X199143905Y-129722571D01*
X199191524Y-129817810D01*
X199191524Y-130055905D01*
X199143905Y-130151143D01*
X199096286Y-130198762D01*
X199001048Y-130246381D01*
X198715333Y-130246381D01*
X198620095Y-130198762D01*
X198572476Y-130151143D01*
X200048667Y-129579714D02*
X200048667Y-130246381D01*
X199810571Y-129198762D02*
X199572476Y-129913048D01*
X200191524Y-129913048D01*
X197985143Y-80009381D02*
X197651809Y-79533190D01*
X197413714Y-80009381D02*
X197413714Y-79009381D01*
X197794667Y-79009381D01*
X197889905Y-79057000D01*
X197937524Y-79104619D01*
X197985143Y-79199857D01*
X197985143Y-79342714D01*
X197937524Y-79437952D01*
X197889905Y-79485571D01*
X197794667Y-79533190D01*
X197413714Y-79533190D01*
X198318476Y-79009381D02*
X198937524Y-79009381D01*
X198604190Y-79390333D01*
X198747048Y-79390333D01*
X198842286Y-79437952D01*
X198889905Y-79485571D01*
X198937524Y-79580810D01*
X198937524Y-79818905D01*
X198889905Y-79914143D01*
X198842286Y-79961762D01*
X198747048Y-80009381D01*
X198461333Y-80009381D01*
X198366095Y-79961762D01*
X198318476Y-79914143D01*
X199842286Y-79009381D02*
X199366095Y-79009381D01*
X199318476Y-79485571D01*
X199366095Y-79437952D01*
X199461333Y-79390333D01*
X199699429Y-79390333D01*
X199794667Y-79437952D01*
X199842286Y-79485571D01*
X199889905Y-79580810D01*
X199889905Y-79818905D01*
X199842286Y-79914143D01*
X199794667Y-79961762D01*
X199699429Y-80009381D01*
X199461333Y-80009381D01*
X199366095Y-79961762D01*
X199318476Y-79914143D01*
X182872143Y-122912143D02*
X182824524Y-122959762D01*
X182681667Y-123007381D01*
X182586429Y-123007381D01*
X182443571Y-122959762D01*
X182348333Y-122864524D01*
X182300714Y-122769286D01*
X182253095Y-122578810D01*
X182253095Y-122435952D01*
X182300714Y-122245476D01*
X182348333Y-122150238D01*
X182443571Y-122055000D01*
X182586429Y-122007381D01*
X182681667Y-122007381D01*
X182824524Y-122055000D01*
X182872143Y-122102619D01*
X183729286Y-122340714D02*
X183729286Y-123007381D01*
X183491190Y-121959762D02*
X183253095Y-122674048D01*
X183872143Y-122674048D01*
X184157857Y-122007381D02*
X184776905Y-122007381D01*
X184443571Y-122388333D01*
X184586429Y-122388333D01*
X184681667Y-122435952D01*
X184729286Y-122483571D01*
X184776905Y-122578810D01*
X184776905Y-122816905D01*
X184729286Y-122912143D01*
X184681667Y-122959762D01*
X184586429Y-123007381D01*
X184300714Y-123007381D01*
X184205476Y-122959762D01*
X184157857Y-122912143D01*
X207383143Y-140057143D02*
X207335524Y-140104762D01*
X207192667Y-140152381D01*
X207097429Y-140152381D01*
X206954571Y-140104762D01*
X206859333Y-140009524D01*
X206811714Y-139914286D01*
X206764095Y-139723810D01*
X206764095Y-139580952D01*
X206811714Y-139390476D01*
X206859333Y-139295238D01*
X206954571Y-139200000D01*
X207097429Y-139152381D01*
X207192667Y-139152381D01*
X207335524Y-139200000D01*
X207383143Y-139247619D01*
X208240286Y-139485714D02*
X208240286Y-140152381D01*
X208002190Y-139104762D02*
X207764095Y-139819048D01*
X208383143Y-139819048D01*
X209192667Y-139152381D02*
X209002190Y-139152381D01*
X208906952Y-139200000D01*
X208859333Y-139247619D01*
X208764095Y-139390476D01*
X208716476Y-139580952D01*
X208716476Y-139961905D01*
X208764095Y-140057143D01*
X208811714Y-140104762D01*
X208906952Y-140152381D01*
X209097429Y-140152381D01*
X209192667Y-140104762D01*
X209240286Y-140057143D01*
X209287905Y-139961905D01*
X209287905Y-139723810D01*
X209240286Y-139628571D01*
X209192667Y-139580952D01*
X209097429Y-139533333D01*
X208906952Y-139533333D01*
X208811714Y-139580952D01*
X208764095Y-139628571D01*
X208716476Y-139723810D01*
X175236143Y-155598857D02*
X175283762Y-155646476D01*
X175331381Y-155789333D01*
X175331381Y-155884571D01*
X175283762Y-156027429D01*
X175188524Y-156122667D01*
X175093286Y-156170286D01*
X174902810Y-156217905D01*
X174759952Y-156217905D01*
X174569476Y-156170286D01*
X174474238Y-156122667D01*
X174379000Y-156027429D01*
X174331381Y-155884571D01*
X174331381Y-155789333D01*
X174379000Y-155646476D01*
X174426619Y-155598857D01*
X174664714Y-154741714D02*
X175331381Y-154741714D01*
X174283762Y-154979810D02*
X174998048Y-155217905D01*
X174998048Y-154598857D01*
X174331381Y-154313143D02*
X174331381Y-153646476D01*
X175331381Y-154075048D01*
X185705381Y-142692286D02*
X184705381Y-142692286D01*
X184705381Y-142454191D01*
X184753000Y-142311333D01*
X184848238Y-142216095D01*
X184943476Y-142168476D01*
X185133952Y-142120857D01*
X185276810Y-142120857D01*
X185467286Y-142168476D01*
X185562524Y-142216095D01*
X185657762Y-142311333D01*
X185705381Y-142454191D01*
X185705381Y-142692286D01*
X184800619Y-141739905D02*
X184753000Y-141692286D01*
X184705381Y-141597048D01*
X184705381Y-141358952D01*
X184753000Y-141263714D01*
X184800619Y-141216095D01*
X184895857Y-141168476D01*
X184991095Y-141168476D01*
X185133952Y-141216095D01*
X185705381Y-141787524D01*
X185705381Y-141168476D01*
X184800619Y-140787524D02*
X184753000Y-140739905D01*
X184705381Y-140644667D01*
X184705381Y-140406571D01*
X184753000Y-140311333D01*
X184800619Y-140263714D01*
X184895857Y-140216095D01*
X184991095Y-140216095D01*
X185133952Y-140263714D01*
X185705381Y-140835143D01*
X185705381Y-140216095D01*
X178887381Y-127579286D02*
X177887381Y-127579286D01*
X177887381Y-127341191D01*
X177935000Y-127198333D01*
X178030238Y-127103095D01*
X178125476Y-127055476D01*
X178315952Y-127007857D01*
X178458810Y-127007857D01*
X178649286Y-127055476D01*
X178744524Y-127103095D01*
X178839762Y-127198333D01*
X178887381Y-127341191D01*
X178887381Y-127579286D01*
X177982619Y-126626905D02*
X177935000Y-126579286D01*
X177887381Y-126484048D01*
X177887381Y-126245952D01*
X177935000Y-126150714D01*
X177982619Y-126103095D01*
X178077857Y-126055476D01*
X178173095Y-126055476D01*
X178315952Y-126103095D01*
X178887381Y-126674524D01*
X178887381Y-126055476D01*
X177887381Y-125722143D02*
X177887381Y-125103095D01*
X178268333Y-125436429D01*
X178268333Y-125293571D01*
X178315952Y-125198333D01*
X178363571Y-125150714D01*
X178458810Y-125103095D01*
X178696905Y-125103095D01*
X178792143Y-125150714D01*
X178839762Y-125198333D01*
X178887381Y-125293571D01*
X178887381Y-125579286D01*
X178839762Y-125674524D01*
X178792143Y-125722143D01*
X185705381Y-149804286D02*
X184705381Y-149804286D01*
X184705381Y-149566191D01*
X184753000Y-149423333D01*
X184848238Y-149328095D01*
X184943476Y-149280476D01*
X185133952Y-149232857D01*
X185276810Y-149232857D01*
X185467286Y-149280476D01*
X185562524Y-149328095D01*
X185657762Y-149423333D01*
X185705381Y-149566191D01*
X185705381Y-149804286D01*
X184800619Y-148851905D02*
X184753000Y-148804286D01*
X184705381Y-148709048D01*
X184705381Y-148470952D01*
X184753000Y-148375714D01*
X184800619Y-148328095D01*
X184895857Y-148280476D01*
X184991095Y-148280476D01*
X185133952Y-148328095D01*
X185705381Y-148899524D01*
X185705381Y-148280476D01*
X185038714Y-147423333D02*
X185705381Y-147423333D01*
X184657762Y-147661429D02*
X185372048Y-147899524D01*
X185372048Y-147280476D01*
X176982381Y-135199286D02*
X175982381Y-135199286D01*
X175982381Y-134961191D01*
X176030000Y-134818333D01*
X176125238Y-134723095D01*
X176220476Y-134675476D01*
X176410952Y-134627857D01*
X176553810Y-134627857D01*
X176744286Y-134675476D01*
X176839524Y-134723095D01*
X176934762Y-134818333D01*
X176982381Y-134961191D01*
X176982381Y-135199286D01*
X176077619Y-134246905D02*
X176030000Y-134199286D01*
X175982381Y-134104048D01*
X175982381Y-133865952D01*
X176030000Y-133770714D01*
X176077619Y-133723095D01*
X176172857Y-133675476D01*
X176268095Y-133675476D01*
X176410952Y-133723095D01*
X176982381Y-134294524D01*
X176982381Y-133675476D01*
X175982381Y-132770714D02*
X175982381Y-133246905D01*
X176458571Y-133294524D01*
X176410952Y-133246905D01*
X176363333Y-133151667D01*
X176363333Y-132913571D01*
X176410952Y-132818333D01*
X176458571Y-132770714D01*
X176553810Y-132723095D01*
X176791905Y-132723095D01*
X176887143Y-132770714D01*
X176934762Y-132818333D01*
X176982381Y-132913571D01*
X176982381Y-133151667D01*
X176934762Y-133246905D01*
X176887143Y-133294524D01*
X172648714Y-72167381D02*
X172648714Y-71167381D01*
X172886809Y-71167381D01*
X173029667Y-71215000D01*
X173124905Y-71310238D01*
X173172524Y-71405476D01*
X173220143Y-71595952D01*
X173220143Y-71738810D01*
X173172524Y-71929286D01*
X173124905Y-72024524D01*
X173029667Y-72119762D01*
X172886809Y-72167381D01*
X172648714Y-72167381D01*
X173601095Y-71262619D02*
X173648714Y-71215000D01*
X173743952Y-71167381D01*
X173982048Y-71167381D01*
X174077286Y-71215000D01*
X174124905Y-71262619D01*
X174172524Y-71357857D01*
X174172524Y-71453095D01*
X174124905Y-71595952D01*
X173553476Y-72167381D01*
X174172524Y-72167381D01*
X174505857Y-71167381D02*
X175172524Y-71167381D01*
X174743952Y-72167381D01*
X190682714Y-106548381D02*
X190682714Y-105548381D01*
X190920809Y-105548381D01*
X191063667Y-105596000D01*
X191158905Y-105691238D01*
X191206524Y-105786476D01*
X191254143Y-105976952D01*
X191254143Y-106119810D01*
X191206524Y-106310286D01*
X191158905Y-106405524D01*
X191063667Y-106500762D01*
X190920809Y-106548381D01*
X190682714Y-106548381D01*
X191587476Y-105548381D02*
X192206524Y-105548381D01*
X191873190Y-105929333D01*
X192016048Y-105929333D01*
X192111286Y-105976952D01*
X192158905Y-106024571D01*
X192206524Y-106119810D01*
X192206524Y-106357905D01*
X192158905Y-106453143D01*
X192111286Y-106500762D01*
X192016048Y-106548381D01*
X191730333Y-106548381D01*
X191635095Y-106500762D01*
X191587476Y-106453143D01*
X192825571Y-105548381D02*
X192920810Y-105548381D01*
X193016048Y-105596000D01*
X193063667Y-105643619D01*
X193111286Y-105738857D01*
X193158905Y-105929333D01*
X193158905Y-106167429D01*
X193111286Y-106357905D01*
X193063667Y-106453143D01*
X193016048Y-106500762D01*
X192920810Y-106548381D01*
X192825571Y-106548381D01*
X192730333Y-106500762D01*
X192682714Y-106453143D01*
X192635095Y-106357905D01*
X192587476Y-106167429D01*
X192587476Y-105929333D01*
X192635095Y-105738857D01*
X192682714Y-105643619D01*
X192730333Y-105596000D01*
X192825571Y-105548381D01*
X190682714Y-119248381D02*
X190682714Y-118248381D01*
X190920809Y-118248381D01*
X191063667Y-118296000D01*
X191158905Y-118391238D01*
X191206524Y-118486476D01*
X191254143Y-118676952D01*
X191254143Y-118819810D01*
X191206524Y-119010286D01*
X191158905Y-119105524D01*
X191063667Y-119200762D01*
X190920809Y-119248381D01*
X190682714Y-119248381D01*
X191587476Y-118248381D02*
X192206524Y-118248381D01*
X191873190Y-118629333D01*
X192016048Y-118629333D01*
X192111286Y-118676952D01*
X192158905Y-118724571D01*
X192206524Y-118819810D01*
X192206524Y-119057905D01*
X192158905Y-119153143D01*
X192111286Y-119200762D01*
X192016048Y-119248381D01*
X191730333Y-119248381D01*
X191635095Y-119200762D01*
X191587476Y-119153143D01*
X193158905Y-119248381D02*
X192587476Y-119248381D01*
X192873190Y-119248381D02*
X192873190Y-118248381D01*
X192777952Y-118391238D01*
X192682714Y-118486476D01*
X192587476Y-118534095D01*
X191063714Y-130551381D02*
X191063714Y-129551381D01*
X191301809Y-129551381D01*
X191444667Y-129599000D01*
X191539905Y-129694238D01*
X191587524Y-129789476D01*
X191635143Y-129979952D01*
X191635143Y-130122810D01*
X191587524Y-130313286D01*
X191539905Y-130408524D01*
X191444667Y-130503762D01*
X191301809Y-130551381D01*
X191063714Y-130551381D01*
X191968476Y-129551381D02*
X192587524Y-129551381D01*
X192254190Y-129932333D01*
X192397048Y-129932333D01*
X192492286Y-129979952D01*
X192539905Y-130027571D01*
X192587524Y-130122810D01*
X192587524Y-130360905D01*
X192539905Y-130456143D01*
X192492286Y-130503762D01*
X192397048Y-130551381D01*
X192111333Y-130551381D01*
X192016095Y-130503762D01*
X191968476Y-130456143D01*
X192968476Y-129646619D02*
X193016095Y-129599000D01*
X193111333Y-129551381D01*
X193349429Y-129551381D01*
X193444667Y-129599000D01*
X193492286Y-129646619D01*
X193539905Y-129741857D01*
X193539905Y-129837095D01*
X193492286Y-129979952D01*
X192920857Y-130551381D01*
X193539905Y-130551381D01*
X203763714Y-80081381D02*
X203763714Y-79081381D01*
X204001809Y-79081381D01*
X204144667Y-79129000D01*
X204239905Y-79224238D01*
X204287524Y-79319476D01*
X204335143Y-79509952D01*
X204335143Y-79652810D01*
X204287524Y-79843286D01*
X204239905Y-79938524D01*
X204144667Y-80033762D01*
X204001809Y-80081381D01*
X203763714Y-80081381D01*
X204668476Y-79081381D02*
X205287524Y-79081381D01*
X204954190Y-79462333D01*
X205097048Y-79462333D01*
X205192286Y-79509952D01*
X205239905Y-79557571D01*
X205287524Y-79652810D01*
X205287524Y-79890905D01*
X205239905Y-79986143D01*
X205192286Y-80033762D01*
X205097048Y-80081381D01*
X204811333Y-80081381D01*
X204716095Y-80033762D01*
X204668476Y-79986143D01*
X205620857Y-79081381D02*
X206239905Y-79081381D01*
X205906571Y-79462333D01*
X206049429Y-79462333D01*
X206144667Y-79509952D01*
X206192286Y-79557571D01*
X206239905Y-79652810D01*
X206239905Y-79890905D01*
X206192286Y-79986143D01*
X206144667Y-80033762D01*
X206049429Y-80081381D01*
X205763714Y-80081381D01*
X205668476Y-80033762D01*
X205620857Y-79986143D01*
X187964381Y-155019333D02*
X188678667Y-155019333D01*
X188821524Y-155066953D01*
X188916762Y-155162191D01*
X188964381Y-155305048D01*
X188964381Y-155400286D01*
X187964381Y-154638381D02*
X187964381Y-153971714D01*
X188964381Y-154400286D01*
X191436667Y-137882381D02*
X191436667Y-138596667D01*
X191389047Y-138739524D01*
X191293809Y-138834762D01*
X191150952Y-138882381D01*
X191055714Y-138882381D01*
X192055714Y-138310952D02*
X191960476Y-138263333D01*
X191912857Y-138215714D01*
X191865238Y-138120476D01*
X191865238Y-138072857D01*
X191912857Y-137977619D01*
X191960476Y-137930000D01*
X192055714Y-137882381D01*
X192246191Y-137882381D01*
X192341429Y-137930000D01*
X192389048Y-137977619D01*
X192436667Y-138072857D01*
X192436667Y-138120476D01*
X192389048Y-138215714D01*
X192341429Y-138263333D01*
X192246191Y-138310952D01*
X192055714Y-138310952D01*
X191960476Y-138358571D01*
X191912857Y-138406190D01*
X191865238Y-138501429D01*
X191865238Y-138691905D01*
X191912857Y-138787143D01*
X191960476Y-138834762D01*
X192055714Y-138882381D01*
X192246191Y-138882381D01*
X192341429Y-138834762D01*
X192389048Y-138787143D01*
X192436667Y-138691905D01*
X192436667Y-138501429D01*
X192389048Y-138406190D01*
X192341429Y-138358571D01*
X192246191Y-138310952D01*
X213788667Y-147915381D02*
X213788667Y-148629667D01*
X213741047Y-148772524D01*
X213645809Y-148867762D01*
X213502952Y-148915381D01*
X213407714Y-148915381D01*
X214312476Y-148915381D02*
X214502952Y-148915381D01*
X214598191Y-148867762D01*
X214645810Y-148820143D01*
X214741048Y-148677286D01*
X214788667Y-148486810D01*
X214788667Y-148105857D01*
X214741048Y-148010619D01*
X214693429Y-147963000D01*
X214598191Y-147915381D01*
X214407714Y-147915381D01*
X214312476Y-147963000D01*
X214264857Y-148010619D01*
X214217238Y-148105857D01*
X214217238Y-148343952D01*
X214264857Y-148439190D01*
X214312476Y-148486810D01*
X214407714Y-148534429D01*
X214598191Y-148534429D01*
X214693429Y-148486810D01*
X214741048Y-148439190D01*
X214788667Y-148343952D01*
X194516477Y-151979381D02*
X194516477Y-152693667D01*
X194468857Y-152836524D01*
X194373619Y-152931762D01*
X194230762Y-152979381D01*
X194135524Y-152979381D01*
X195516477Y-152979381D02*
X194945048Y-152979381D01*
X195230762Y-152979381D02*
X195230762Y-151979381D01*
X195135524Y-152122238D01*
X195040286Y-152217476D01*
X194945048Y-152265095D01*
X196135524Y-151979381D02*
X196230763Y-151979381D01*
X196326001Y-152027000D01*
X196373620Y-152074619D01*
X196421239Y-152169857D01*
X196468858Y-152360333D01*
X196468858Y-152598429D01*
X196421239Y-152788905D01*
X196373620Y-152884143D01*
X196326001Y-152931762D01*
X196230763Y-152979381D01*
X196135524Y-152979381D01*
X196040286Y-152931762D01*
X195992667Y-152884143D01*
X195945048Y-152788905D01*
X195897429Y-152598429D01*
X195897429Y-152360333D01*
X195945048Y-152169857D01*
X195992667Y-152074619D01*
X196040286Y-152027000D01*
X196135524Y-151979381D01*
X175085477Y-85177381D02*
X175085477Y-85891667D01*
X175037857Y-86034524D01*
X174942619Y-86129762D01*
X174799762Y-86177381D01*
X174704524Y-86177381D01*
X176085477Y-86177381D02*
X175514048Y-86177381D01*
X175799762Y-86177381D02*
X175799762Y-85177381D01*
X175704524Y-85320238D01*
X175609286Y-85415476D01*
X175514048Y-85463095D01*
X177037858Y-86177381D02*
X176466429Y-86177381D01*
X176752143Y-86177381D02*
X176752143Y-85177381D01*
X176656905Y-85320238D01*
X176561667Y-85415476D01*
X176466429Y-85463095D01*
X215142381Y-155114523D02*
X215856667Y-155114523D01*
X215999524Y-155162143D01*
X216094762Y-155257381D01*
X216142381Y-155400238D01*
X216142381Y-155495476D01*
X216142381Y-154114523D02*
X216142381Y-154685952D01*
X216142381Y-154400238D02*
X215142381Y-154400238D01*
X215285238Y-154495476D01*
X215380476Y-154590714D01*
X215428095Y-154685952D01*
X215237619Y-153733571D02*
X215190000Y-153685952D01*
X215142381Y-153590714D01*
X215142381Y-153352618D01*
X215190000Y-153257380D01*
X215237619Y-153209761D01*
X215332857Y-153162142D01*
X215428095Y-153162142D01*
X215570952Y-153209761D01*
X216142381Y-153781190D01*
X216142381Y-153162142D01*
X180787381Y-109608857D02*
X180787381Y-110085048D01*
X179787381Y-110085048D01*
X179882619Y-109323143D02*
X179835000Y-109275524D01*
X179787381Y-109180286D01*
X179787381Y-108942190D01*
X179835000Y-108846952D01*
X179882619Y-108799333D01*
X179977857Y-108751714D01*
X180073095Y-108751714D01*
X180215952Y-108799333D01*
X180787381Y-109370762D01*
X180787381Y-108751714D01*
X180787381Y-107799333D02*
X180787381Y-108370762D01*
X180787381Y-108085048D02*
X179787381Y-108085048D01*
X179930238Y-108180286D01*
X180025476Y-108275524D01*
X180073095Y-108370762D01*
X189222143Y-68397381D02*
X188745952Y-68397381D01*
X188745952Y-67397381D01*
X189507857Y-67492619D02*
X189555476Y-67445000D01*
X189650714Y-67397381D01*
X189888810Y-67397381D01*
X189984048Y-67445000D01*
X190031667Y-67492619D01*
X190079286Y-67587857D01*
X190079286Y-67683095D01*
X190031667Y-67825952D01*
X189460238Y-68397381D01*
X190079286Y-68397381D01*
X190936429Y-67730714D02*
X190936429Y-68397381D01*
X190698333Y-67349762D02*
X190460238Y-68064048D01*
X191079286Y-68064048D01*
M02*
